<?xml version="1.0" encoding="utf-8"?>
<!-- Generator: Adobe Illustrator 16.0.0, SVG Export Plug-In . SVG Version: 6.00 Build 0)  -->
<!DOCTYPE svg PUBLIC "-//W3C//DTD SVG 1.1//EN" "http://www.w3.org/Graphics/SVG/1.1/DTD/svg11.dtd">
<svg version="1.1" id="Layer_1" xmlns="http://www.w3.org/2000/svg" xmlns:xlink="http://www.w3.org/1999/xlink" x="0px" y="0px"
	 width="200px" height="100px" viewBox="5.195 5.195 200 100" enable-background="new 5.195 5.195 200 100" xml:space="preserve">
<g id="XMLID_10_">
	<g>
		<path fill="#EC008C" d="M121.412,59.414c-0.053-2.989-0.289-3.758,3.747-3.758h54.775c2.081,0,3.24,0.442,3.935,2.268l4.134,11.28
			c2.426,5.126,7.258,4.077,9.032,6.907c1.19,2.002,1.656,12.705-0.168,16.117c-0.563,1.066-2.599,0.489-3.646-0.325v-0.116
			c-0.684-4.078-9.948-10.303-17.08-1.379c-1.048,1.31-0.666,1.979-4.041,1.979h-0.079h-24.674c-3.18,0-2.542,0.21-4.837-3.086
			c-1.909-2.771-4.712-3.78-7.771-3.496c-4.754,0.446-6.421,2.644-8.486,5.354c-0.829,1.086-4.837,2.422-5.945,1.229
			c-0.53-0.567,0.229-2.206,1.104-4.031v-0.163V59.414z M184.045,72.094c0.187-0.046,0.112-0.303,0.052-0.414l-4.214-10.922
			c-0.316-0.847-0.898-1.499-1.652-1.499h-9.114c-0.755,0-1.369,0.698-1.369,1.563v9.986c0,0.865,0.614,1.563,1.369,1.563h9.114
			C178.86,72.374,182.691,72.681,184.045,72.094z"/>
	</g>
</g>
<polygon fill="#EC008C" points="69.561,15.11 93.499,56.573 117.436,98.034 69.561,98.034 21.686,98.034 45.624,56.573 "/>
<polygon opacity="0.9" fill="#2B2C6B" enable-background="new    " points="84.343,10.178 106.821,54.106 129.301,98.034 
	84.343,98.034 39.384,98.034 61.862,54.106 "/>
<polygon opacity="0.9" fill="#FDED18" enable-background="new    " points="50.153,24.936 67.848,61.484 85.543,98.034 
	50.153,98.034 14.766,98.034 32.461,61.484 "/>
<polygon opacity="0.9" fill="#59A8D7" enable-background="new    " points="106.075,26.221 120.19,62.129 134.307,98.034 
	106.075,98.034 77.842,98.034 91.959,62.129 "/>
<circle fill="#FDED18" cx="135.968" cy="95.334" r="7.831"/>
<circle fill="#FDED18" cx="184.472" cy="95.536" r="7.831"/>
<g display="none" opacity="0.9">
	
		<circle display="inline" fill="none" stroke="#2B2C6B" stroke-linecap="round" stroke-linejoin="round" stroke-dasharray="12.2912,12.2912" cx="135.968" cy="95.334" r="7.831"/>
</g>
<g display="none" opacity="0.9">
	
		<circle display="inline" fill="none" stroke="#2B2C6B" stroke-linecap="round" stroke-linejoin="round" stroke-dasharray="12.2912,12.2912" cx="184.686" cy="95.039" r="7.831"/>
</g>
<text transform="matrix(1 0 0 1 114.9661 39.0613)" fill="#FFFFFF" font-family="'YikesMedium'" font-size="16.9079">food</text>
<text transform="matrix(1 0 0 1 130.7434 52.3083)" fill="#FFFFFF" font-family="'YikesMedium'" font-size="16.9079">trucks</text>
<g opacity="0.7">
	<path fill="#FFFFFF" d="M16.104,70.444c0-5.142,0.899-9.787,2.699-13.933c1.799-4.146,4.243-7.697,7.328-10.655
		c3.086-2.956,6.686-5.222,10.8-6.798c4.113-1.574,8.485-2.362,13.113-2.362c3.664,0,6.926,0.354,9.787,1.062
		c2.858,0.708,5.317,1.511,7.376,2.411c2.378,1.028,4.436,2.153,6.171,3.375L63.255,61.382c-1.029-0.771-2.154-1.51-3.375-2.218
		c-1.094-0.515-2.396-1.013-3.905-1.494c-1.511-0.482-3.229-0.725-5.158-0.725c-1.992,0-3.824,0.354-5.496,1.062
		c-1.673,0.708-3.134,1.673-4.388,2.894c-1.253,1.222-2.233,2.65-2.939,4.29c-0.708,1.641-1.062,3.393-1.062,5.255
		c0,1.865,0.369,3.616,1.108,5.256c0.737,1.64,1.751,3.07,3.038,4.29c1.283,1.223,2.796,2.188,4.53,2.894
		c1.735,0.708,3.632,1.062,5.689,1.062c2.056,0,3.888-0.257,5.496-0.771c1.604-0.514,2.955-1.093,4.05-1.736
		c1.284-0.707,2.41-1.543,3.374-2.507l10.125,17.839c-1.736,1.414-3.794,2.668-6.172,3.76c-2.059,0.9-4.531,1.736-7.424,2.508
		c-2.894,0.771-6.204,1.156-9.933,1.156c-5.014,0-9.643-0.818-13.885-2.459c-4.243-1.639-7.907-3.937-10.992-6.895
		c-3.086-2.955-5.496-6.508-7.23-10.654C16.972,80.039,16.104,75.459,16.104,70.444z M28.254,70.444c0-3.086,0.53-5.979,1.591-8.678
		s2.555-5.046,4.483-7.039c1.929-1.992,4.273-3.566,7.039-4.725c2.763-1.157,5.849-1.735,9.256-1.735
		c1.671,0,3.166,0.113,4.483,0.337c1.316,0.227,2.427,0.499,3.326,0.819c1.093,0.323,2.025,0.708,2.796,1.157l1.352-2.314
		c-1.029-0.449-2.121-0.868-3.278-1.254c-1.094-0.321-2.348-0.61-3.761-0.868c-1.415-0.256-3.055-0.386-4.918-0.386
		c-3.278,0-6.412,0.579-9.4,1.736c-2.989,1.156-5.626,2.812-7.907,4.966c-2.281,2.153-4.113,4.758-5.496,7.811
		s-2.072,6.445-2.072,10.172c0,3.794,0.659,7.2,1.977,10.222s3.134,5.608,5.448,7.762c2.313,2.154,5.014,3.809,8.1,4.967
		c3.086,1.156,6.364,1.735,9.835,1.735c1.93,0,3.664-0.16,5.207-0.482c1.543-0.321,2.859-0.675,3.953-1.061
		c1.221-0.448,2.314-0.964,3.278-1.543l-1.351-2.313c-0.836,0.578-1.801,1.062-2.893,1.445c-0.965,0.387-2.121,0.724-3.472,1.014
		c-1.351,0.289-2.927,0.435-4.726,0.435c-3.536,0-6.718-0.579-9.546-1.736c-2.829-1.156-5.224-2.73-7.184-4.725
		c-1.961-1.991-3.472-4.34-4.531-7.039S28.254,73.53,28.254,70.444z"/>
	<path fill="#FFFFFF" d="M69.522,70.444c0-4.628,0.883-8.998,2.651-13.112c1.768-4.113,4.178-7.697,7.23-10.751
		c3.054-3.053,6.638-5.464,10.751-7.232c4.113-1.767,8.485-2.651,13.114-2.651c4.627,0,8.998,0.885,13.113,2.651
		c4.112,1.769,7.697,4.18,10.751,7.232c3.052,3.054,5.463,6.638,7.23,10.751c1.769,4.114,2.651,8.484,2.651,13.112
		c0,4.629-0.884,9-2.651,13.113c-1.769,4.115-4.18,7.699-7.23,10.752c-3.054,3.053-6.639,5.464-10.751,7.231
		c-4.115,1.767-8.485,2.65-13.113,2.65c-4.629,0-9.001-0.885-13.114-2.65c-4.113-1.769-7.697-4.18-10.751-7.231
		c-3.054-3.053-5.464-6.637-7.23-10.752C70.405,79.444,69.522,75.073,69.522,70.444z M78.586,70.444
		c0,3.408,0.642,6.605,1.929,9.595c1.285,2.989,3.052,5.608,5.303,7.858c2.25,2.25,4.869,4.019,7.858,5.303
		c2.989,1.287,6.187,1.93,9.595,1.93c3.406,0,6.604-0.643,9.593-1.93c2.989-1.284,5.607-3.053,7.858-5.303
		c2.249-2.25,4.017-4.869,5.303-7.858c1.285-2.988,1.93-6.187,1.93-9.595c0-3.405-0.645-6.604-1.93-9.594
		c-1.286-2.989-3.054-5.606-5.303-7.858c-2.251-2.25-4.869-4.017-7.858-5.303c-2.988-1.285-6.187-1.929-9.593-1.929
		c-3.408,0-6.604,0.644-9.595,1.929c-2.989,1.287-5.608,3.054-7.858,5.303c-2.251,2.251-4.018,4.869-5.303,7.858
		C79.228,63.841,78.586,67.039,78.586,70.444z M103.271,92.623c-3.086,0-5.964-0.579-8.63-1.736
		c-2.669-1.156-5.015-2.748-7.039-4.772c-2.024-2.023-3.616-4.369-4.772-7.039c-1.156-2.667-1.735-5.544-1.735-8.63
		s0.579-5.961,1.735-8.629s2.748-5.015,4.772-7.04c2.024-2.024,4.37-3.615,7.039-4.772c2.666-1.157,5.544-1.735,8.63-1.735
		c3.085,0,5.96,0.578,8.628,1.735c2.667,1.157,5.016,2.748,7.039,4.772c2.025,2.025,3.616,4.372,4.773,7.04s1.734,5.543,1.734,8.629
		s-0.577,5.963-1.734,8.63c-1.157,2.67-2.748,5.016-4.773,7.039c-2.023,2.024-4.372,3.616-7.039,4.772
		C109.231,92.044,106.355,92.623,103.271,92.623z M89.771,70.444c0,1.865,0.354,3.616,1.062,5.256c0.706,1.64,1.67,3.07,2.893,4.29
		c1.22,1.223,2.651,2.188,4.29,2.894c1.64,0.708,3.392,1.062,5.256,1.062c1.863,0,3.615-0.354,5.254-1.062
		c1.64-0.706,3.068-1.671,4.29-2.894c1.222-1.22,2.186-2.65,2.895-4.29c0.706-1.64,1.061-3.391,1.061-5.256
		c0-1.862-0.354-3.614-1.061-5.255c-0.709-1.64-1.673-3.068-2.895-4.29c-1.222-1.221-2.65-2.186-4.29-2.894
		c-1.64-0.706-3.391-1.062-5.254-1.062c-1.864,0-3.616,0.354-5.256,1.062c-1.639,0.708-3.07,1.673-4.29,2.894
		c-1.223,1.222-2.187,2.65-2.893,4.29C90.123,66.83,89.771,68.582,89.771,70.444z"/>
</g>
</svg>
