<?xml version="1.0" encoding="utf-8"?>
<!-- Generator: Adobe Illustrator 16.0.0, SVG Export Plug-In . SVG Version: 6.00 Build 0)  -->
<!DOCTYPE svg PUBLIC "-//W3C//DTD SVG 1.1//EN" "http://www.w3.org/Graphics/SVG/1.1/DTD/svg11.dtd">
<svg version="1.1" xmlns="http://www.w3.org/2000/svg" xmlns:xlink="http://www.w3.org/1999/xlink" x="0px" y="0px"
	 width="496.476px" height="183.764px" viewBox="0 0 496.476 183.764" enable-background="new 0 0 496.476 183.764"
	 xml:space="preserve">
<g id="shapes">
	<rect x="-1146.389" y="-520.584" fill="#FDED18" width="604.909" height="82.088"/>
	<g id="XMLID_3_" opacity="0.9">
		<g>
			<path fill="#59A8D7" d="M-298.89,167.079c-0.109-6.41-0.62-8.061,8.04-8.061h117.67c4.45,0,6.931,0.931,8.431,4.811
				c0,0.02,0.01,0.04,0.02,0.06l8.88,24.221c5.21,11.01,15.59,8.76,19.4,14.84c2.56,4.3,3.56,27.3-0.36,34.63
				c-1.22,2.28-5.58,1.05-7.83-0.71v-0.25c-1.479-8.75-21.37-22.12-36.689-2.96c-2.25,2.81-1.431,4.25-8.681,4.25h-0.17h-53
				c-6.83,0-5.46,0.46-10.39-6.62c-4.11-5.96-10.12-8.12-16.69-7.51c-10.21,0.949-13.79,5.68-18.229,11.489
				c-1.78,2.33-10.391,5.21-12.771,2.641c-1.14-1.221,0.49-4.73,2.37-8.66v-0.34V167.079z M-164.35,194.319
				c0.4-0.101,0.24-0.65,0.101-0.881l-9.04-23.47c-0.69-1.819-1.931-3.22-3.561-3.22h-19.57c-1.63,0-2.939,1.5-2.939,3.36v21.449
				c0,1.86,1.31,3.37,2.939,3.37h19.57C-175.489,194.929-167.26,195.579-164.35,194.319z"/>
		</g>
		<g>
		</g>
	</g>
	<g id="XMLID_2_">
		<g>
			<path fill="#FDED18" d="M-625.017,222.571h-14.6c2.21-1.07,4.68-1.681,7.3-1.681S-627.227,221.501-625.017,222.571z"/>
			<path fill="#FDED18" d="M-519.637,222.571h-12.699c1.96-0.801,4.1-1.25,6.35-1.25S-521.597,221.771-519.637,222.571z"/>
			<path fill="#F6881F" d="M-496.866,210.281c0.06,1.899,0.069,3.859,0.01,5.79h-0.46c0.05-1.94,0.03-3.9-0.04-5.79H-496.866z"/>
			<path fill="#58595B" d="M-497.316,216.071h0.46c-0.06,2.239-0.21,4.449-0.45,6.5h-0.46
				C-497.517,220.511-497.366,218.301-497.316,216.071z"/>
			<path fill="#58595B" d="M-496.866,210.281h-0.49c-0.07-1.74-0.18-3.431-0.33-5h0.51
				C-497.026,206.861-496.927,208.541-496.866,210.281z"/>
			<path fill="#F6881F" d="M-497.177,205.281h-0.51c-0.21-2.12-0.479-4.03-0.81-5.561h0.52
				C-497.637,201.281-497.366,203.181-497.177,205.281z"/>
			<path fill="#F6881F" d="M-497.356,210.281c0.07,1.89,0.09,3.85,0.04,5.79h-28.94h-104.77h-30.49v-5.79H-497.356z"/>
			<path fill="#F6881F" d="M-497.767,222.571h0.46c-0.2,1.689-0.46,3.279-0.79,4.68h-0.489
				C-498.236,225.841-497.967,224.261-497.767,222.571z"/>
			<path fill="#58595B" d="M-526.257,216.071h28.94c-0.05,2.229-0.2,4.439-0.45,6.5h-14.33c-2.649-2.28-6-4.03-9.069-4.83
				c-1.37-0.36-3.11-0.65-5.091-0.65V216.071z"/>
			<path fill="#58595B" d="M-497.356,210.281h-164.16v-5h163.83C-497.536,206.851-497.427,208.541-497.356,210.281z"/>
			<path fill="#F6881F" d="M-497.687,205.281h-163.83v-5.561h163.021C-498.166,201.251-497.896,203.161-497.687,205.281z"/>
			<path fill="#F6881F" d="M-512.097,222.571h14.33c-0.2,1.689-0.47,3.27-0.819,4.68h-9.65
				C-509.106,225.561-510.477,223.971-512.097,222.571z"/>
			<path fill="#58595B" d="M-497.977,199.721h-0.52c-0.311-1.439-0.66-2.54-1.04-3.18c0.05,0.08,0.13,0.12,0.21,0.12
				c0.05,0,0.09-0.011,0.13-0.04c0.12-0.07,0.16-0.23,0.08-0.34h0.01C-498.677,197.011-498.297,198.201-497.977,199.721z"/>
			<path fill="#58595B" d="M-498.586,227.251h0.489c-0.37,1.56-0.83,2.89-1.37,3.91c-0.27,0.5-0.67,0.859-1.21,1.09h-3.489
				c-1.311-0.36-2.601-1.01-3.5-1.72c-0.101-0.08-0.131-0.21-0.07-0.32c0.06,0.09,0.15,0.14,0.26,0.12
				c0.09-0.021,0.15-0.08,0.18-0.15c1.54,1.181,4.141,2.141,5.9,1.771c0.7-0.15,1.2-0.49,1.49-1.03
				C-499.376,229.931-498.937,228.681-498.586,227.251z"/>
			<path fill="#58595B" d="M-498.496,199.721h-163.021v-4h161.38c0.21,0.25,0.41,0.53,0.601,0.82
				C-499.156,197.181-498.807,198.281-498.496,199.721z"/>
			<path fill="#58595B" d="M-508.236,227.251h9.65c-0.351,1.43-0.79,2.68-1.32,3.67c-0.29,0.54-0.79,0.88-1.49,1.03
				c-1.76,0.37-4.36-0.59-5.9-1.771c0.03-0.04,0.04-0.09,0.03-0.14C-507.427,229.091-507.757,228.161-508.236,227.251z"/>
			<path fill="#58595B" d="M-499.116,196.281c0.08,0.109,0.04,0.27-0.08,0.34c-0.04,0.029-0.08,0.04-0.13,0.04
				c-0.08,0-0.16-0.04-0.21-0.12c-0.07-0.12-0.04-0.271,0.08-0.34c0.109-0.061,0.239-0.051,0.319,0.05
				C-499.126,196.261-499.126,196.271-499.116,196.281z"/>
			<path fill="#58595B" d="M-499.137,196.251c-0.08-0.101-0.21-0.11-0.319-0.05c-0.12,0.069-0.15,0.22-0.08,0.34
				c-0.19-0.29-0.391-0.57-0.601-0.82h0.63C-499.376,195.891-499.257,196.071-499.137,196.251z"/>
			<path fill="#F6881F" d="M-499.507,195.721h-0.63c-1.58-1.89-3.939-2.83-6.62-3.899c-1.779-0.71-3.659-1.46-5.46-2.561h1.011
				c1.54,0.86,3.13,1.49,4.64,2.09C-503.797,192.461-501.166,193.501-499.507,195.721z"/>
			<path fill="#F6881F" d="M-500.137,195.721h-161.38v-6.46h127.58h21.72c1.801,1.101,3.681,1.851,5.46,2.561
				C-504.076,192.891-501.717,193.831-500.137,195.721z"/>
			<path fill="#58595B" d="M-504.166,232.251h3.489c-0.18,0.08-0.39,0.14-0.609,0.189c-0.311,0.07-0.62,0.091-0.95,0.091
				C-502.856,232.531-503.517,232.421-504.166,232.251z"/>
			<path fill="#58595B" d="M-507.267,230.041c0.01,0.05,0,0.1-0.03,0.14c-0.02-0.01-0.05-0.03-0.069-0.05
				c-0.11-0.08-0.26-0.06-0.351,0.05c-0.01,0.01-0.01,0.021-0.02,0.03c-0.01-0.03-0.021-0.061-0.03-0.09
				c-0.149-0.9-0.52-1.88-1.08-2.87h0.61C-507.757,228.161-507.427,229.091-507.267,230.041z"/>
			<path fill="#58595B" d="M-507.366,230.131c0.02,0.02,0.05,0.04,0.069,0.05c-0.029,0.07-0.09,0.13-0.18,0.15
				c-0.109,0.02-0.2-0.03-0.26-0.12c0.01-0.01,0.01-0.021,0.02-0.03C-507.626,230.071-507.477,230.051-507.366,230.131z"/>
			<path fill="#F6881F" d="M-508.236,227.251h-0.61c-0.88-1.59-2.26-3.22-4.01-4.68h0.76
				C-510.477,223.971-509.106,225.561-508.236,227.251z"/>
			<path fill="#FDED18" d="M-510.246,232.251c0.689,1.83,1.09,3.81,1.09,5.89c0,9.29-7.54,16.82-16.83,16.82
				s-16.82-7.53-16.82-16.82c0-2.08,0.4-4.06,1.09-5.89H-510.246z"/>
			<path fill="#FDED18" d="M-510.246,232.251h-31.471c0.69-1.851,1.681-3.54,2.931-5h25.609
				C-511.927,228.711-510.937,230.4-510.246,232.251z"/>
			<path fill="#58595B" d="M-511.206,189.261h-1.011c-1.29-0.78-2.54-1.74-3.699-3h0.699
				C-513.967,187.541-512.606,188.491-511.206,189.261z"/>
			<path fill="#58595B" d="M-512.097,222.571h-0.76c-2.26-1.891-5.15-3.49-8.44-4.351c-3.939-1.02-10.949-1.52-18.109,4.351h-0.8
				c5-4.29,9.97-5.48,13.949-5.48c1.98,0,3.721,0.29,5.091,0.65C-518.097,218.541-514.746,220.291-512.097,222.571z"/>
			<path fill="#58595B" d="M-512.217,189.261h-21.72v-0.45c3.3,0,5.59-0.27,6.771-0.79c0.18-0.04,0.319-0.159,0.39-0.33
				c0.14-0.319-0.03-0.739-0.12-0.88l-0.21-0.55h11.19C-514.757,187.521-513.507,188.48-512.217,189.261z"/>
			<path fill="#FDED18" d="M-513.177,227.251h-25.609c1.739-2.04,3.939-3.65,6.45-4.68h12.699
				C-517.116,223.601-514.916,225.211-513.177,227.251z"/>
			<path fill="#F6881F" d="M-515.217,186.261h-0.699c-1.11-1.2-2.141-2.68-3.011-4.53c0.051,0.061,0.13,0.091,0.2,0.091
				c0.03,0,0.061,0,0.09-0.021c0.13-0.04,0.19-0.189,0.141-0.32l-0.021-0.04c0.01,0.011,0.021,0.011,0.021,0.021
				C-517.547,183.461-516.437,185.011-515.217,186.261z"/>
			<path fill="#F6881F" d="M-515.916,186.261h-11.19l-2.71-7.03h9.97l0.88,2.4c-0.01,0.01,0,0.02,0.011,0.03
				c-0.011,0.01,0,0.01,0,0.02c0.01,0.021,0.02,0.03,0.029,0.05C-518.057,183.581-517.026,185.061-515.916,186.261z"/>
			<path fill="#F6881F" d="M-518.496,181.48c0.05,0.131-0.011,0.28-0.141,0.32c-0.029,0.021-0.06,0.021-0.09,0.021
				c-0.07,0-0.149-0.03-0.2-0.091c-0.01-0.02-0.02-0.04-0.029-0.069c-0.011-0.011-0.021-0.021-0.011-0.03
				c-0.029-0.12,0.03-0.24,0.131-0.29c0.119-0.05,0.26-0.01,0.319,0.1L-518.496,181.48z"/>
			<path fill="#F6881F" d="M-519.326,179.23l0.81,2.21c-0.06-0.109-0.2-0.149-0.319-0.1c-0.101,0.05-0.16,0.17-0.131,0.29l-0.88-2.4
				H-519.326z"/>
			<path d="M-518.956,181.661c0.01,0.029,0.02,0.05,0.029,0.069c-0.01-0.02-0.02-0.029-0.029-0.05
				C-518.956,181.671-518.967,181.671-518.956,181.661z"/>
			<polygon fill="#58595B" points="-520.057,177.23 -519.326,179.23 -519.847,179.23 -520.576,177.23 			"/>
			<polygon fill="#58595B" points="-520.576,177.23 -519.847,179.23 -529.816,179.23 -530.586,177.23 			"/>
			<polygon fill="#F6881F" points="-523.106,168.921 -520.057,177.23 -520.576,177.23 -523.626,168.921 			"/>
			<polygon fill="#F6881F" points="-520.576,177.23 -530.586,177.23 -533.786,168.921 -523.626,168.921 			"/>
			<polygon fill="#58595B" points="-523.467,167.921 -523.106,168.921 -523.626,168.921 -523.996,167.921 			"/>
			<polygon fill="#F6881F" points="-525.767,161.671 -523.467,167.921 -523.996,167.921 -526.286,161.671 			"/>
			<polygon fill="#58595B" points="-523.996,167.921 -523.626,168.921 -533.786,168.921 -534.177,167.921 			"/>
			<path fill="#F6881F" d="M-526.286,161.671l2.29,6.25h-10.181l-1.76-4.58c-0.24-0.64-0.53-1.2-0.86-1.67H-526.286z"/>
			<polygon fill="#58595B" points="-525.946,161.171 -525.767,161.671 -526.286,161.671 -526.467,161.171 			"/>
			<path fill="#F6881F" d="M-527.376,157.281l1.43,3.89h-0.521l-1.369-3.73c0.029,0.101,0.13,0.16,0.229,0.16
				c0.03,0,0.06-0.01,0.09-0.02C-527.396,157.531-527.336,157.4-527.376,157.281z"/>
			<path fill="#58595B" d="M-526.257,216.071v1.02c-3.979,0-8.949,1.19-13.949,5.48h-77.65c-3.37-3.74-7.86-5.681-13.17-5.681
				v-0.819H-526.257z"/>
			<path fill="#58595B" d="M-526.467,161.171l0.181,0.5h-10.511c-0.13-0.18-0.27-0.35-0.409-0.5H-526.467z"/>
			<path fill="#F6881F" d="M-526.467,161.171h-10.739c-0.721-0.79-1.58-1.21-2.521-1.21h-19.57c-0.949,0-1.8,0.47-2.38,1.21h-99.84
				v-0.63v-1.17c0-0.04-0.01-0.07-0.02-0.101c-0.011-2.62-0.05-4.26,0.88-5.22c0.93-0.95,2.87-1.32,6.93-1.32h117.67
				c4.15,0,6.69,0.74,8.2,4.66c0.01,0.021,0.01,0.03,0.021,0.05L-526.467,161.171z"/>
			<path fill="#58595B" d="M-526.896,186.811c0.09,0.141,0.26,0.561,0.12,0.88c-0.07,0.171-0.21,0.29-0.39,0.33
				c-1.181,0.521-3.471,0.79-6.771,0.79c-1.75,0-3.43-0.08-4.55-0.13c-0.58-0.02-1.01-0.04-1.24-0.04h-19.57
				c-1.38,0-2.55-0.99-3-2.38h0.271c0.43,1.25,1.479,2.13,2.729,2.13h19.57c1.36,0,9.59,0.65,12.5-0.609
				c0.4-0.101,0.24-0.65,0.101-0.881l-0.25-0.64h0.27L-526.896,186.811z"/>
			<path fill="#58595B" d="M-527.126,186.9c0.14,0.23,0.3,0.78-0.101,0.881c-2.91,1.26-11.14,0.609-12.5,0.609h-19.57
				c-1.25,0-2.3-0.88-2.729-2.13h0.26c0.42,1.11,1.37,1.88,2.47,1.88h19.57c0.24,0,0.68,0.021,1.26,0.04
				c1.11,0.05,2.79,0.13,4.53,0.13c3.23,0,5.45-0.26,6.61-0.76c0.08-0.02,0.09-0.04,0.09-0.05c0.04-0.101-0.021-0.34-0.1-0.47
				l-0.301-0.771h0.261L-527.126,186.9z"/>
			<polygon fill="#F6881F" points="-529.816,179.23 -527.106,186.261 -527.376,186.261 -530.076,179.23 			"/>
			<path fill="#F6881F" d="M-527.376,157.281c0.04,0.119-0.021,0.25-0.141,0.3c-0.03,0.01-0.06,0.02-0.09,0.02
				c-0.1,0-0.2-0.06-0.229-0.16c-0.011-0.02-0.011-0.029-0.021-0.05l-0.21-0.569c-0.05-0.131,0.01-0.28,0.14-0.32
				c0.091-0.03,0.19-0.021,0.25,0.04c0,0,0,0,0.011,0.01c0.04,0.1,0.09,0.21,0.14,0.32c0.05,0.13,0.1,0.26,0.15,0.39
				C-527.376,157.271-527.376,157.271-527.376,157.281z"/>
			<polygon fill="#F6881F" points="-530.076,179.23 -527.376,186.261 -527.637,186.261 -530.347,179.23 			"/>
			<path d="M-527.606,156.641l0.08,0.23c-0.05-0.11-0.1-0.221-0.14-0.32C-527.637,156.571-527.616,156.601-527.606,156.641z"/>
			<path fill="#F6881F" d="M-527.677,156.541c-0.06-0.061-0.159-0.07-0.25-0.04c-0.13,0.04-0.189,0.189-0.14,0.32l0.21,0.569
				c-1.51-3.92-4.05-4.66-8.2-4.66c0.141,0,0.25-0.109,0.25-0.25c0-0.14-0.109-0.25-0.25-0.25
				C-532.026,152.23-529.307,152.951-527.677,156.541z"/>
			<polygon fill="#58595B" points="-530.586,177.23 -529.816,179.23 -530.076,179.23 -530.847,177.23 			"/>
			<polygon fill="#58595B" points="-530.076,179.23 -530.347,179.23 -531.116,177.23 -530.847,177.23 			"/>
			<polygon fill="#F6881F" points="-533.786,168.921 -530.586,177.23 -530.847,177.23 -534.057,168.921 			"/>
			<polygon fill="#F6881F" points="-530.847,177.23 -531.116,177.23 -534.316,168.921 -534.057,168.921 			"/>
			<polygon fill="#58595B" points="-534.177,167.921 -533.786,168.921 -534.057,168.921 -534.437,167.921 			"/>
			<path fill="#58595B" d="M-533.937,188.811v0.45h-127.58v-3h99.22c0.45,1.39,1.62,2.38,3,2.38h19.57c0.23,0,0.66,0.021,1.24,0.04
				C-537.366,188.73-535.687,188.811-533.937,188.811z"/>
			<polygon fill="#58595B" points="-534.437,167.921 -534.057,168.921 -534.316,168.921 -534.696,167.921 			"/>
			<path fill="#F6881F" d="M-535.937,163.341l1.76,4.58h-0.26l-1.729-4.49c-0.25-0.66-0.57-1.26-0.96-1.76h0.329
				C-536.467,162.141-536.177,162.701-535.937,163.341z"/>
			<path fill="#F6881F" d="M-536.166,163.431l1.729,4.49h-0.26l-1.7-4.4c-0.28-0.739-0.64-1.359-1.04-1.85h0.311
				C-536.736,162.171-536.416,162.771-536.166,163.431z"/>
			<circle fill="#F6881F" cx="-536.057" cy="152.48" r="0.25"/>
			<path fill="#F6881F" d="M-653.727,152.23h117.67c-0.14,0-0.25,0.11-0.25,0.25c0,0.141,0.11,0.25,0.25,0.25h-117.67
				c0.141,0,0.25-0.109,0.25-0.25C-653.477,152.341-653.586,152.23-653.727,152.23z"/>
			<path fill="#58595B" d="M-536.797,161.671h-0.329c-0.141-0.18-0.28-0.35-0.44-0.5h0.36
				C-537.066,161.321-536.927,161.491-536.797,161.671z"/>
			<path fill="#58595B" d="M-537.126,161.671h-0.311c-0.16-0.19-0.32-0.36-0.49-0.5h0.36
				C-537.406,161.321-537.267,161.491-537.126,161.671z"/>
			<path fill="#F6881F" d="M-537.206,161.171h-0.36c-0.6-0.6-1.33-0.96-2.16-0.96h-19.57c-0.81,0-1.529,0.37-2.06,0.96h-0.32
				c0.58-0.74,1.431-1.21,2.38-1.21h19.57C-538.786,159.961-537.927,160.381-537.206,161.171z"/>
			<path fill="#F6881F" d="M-537.566,161.171h-0.36c-0.54-0.46-1.149-0.71-1.8-0.71h-19.57c-0.649,0-1.239,0.27-1.71,0.71h-0.35
				c0.53-0.59,1.25-0.96,2.06-0.96h19.57C-538.896,160.211-538.166,160.571-537.566,161.171z"/>
			<path fill="#F6881F" d="M-540.206,222.571h0.8c-1.53,1.25-3.061,2.79-4.58,4.68h-0.64c0.069-0.09,0.149-0.19,0.229-0.29
				C-543.007,225.221-541.606,223.771-540.206,222.571z"/>
			<path fill="#F6881F" d="M-617.856,222.571h77.65c-1.4,1.199-2.801,2.649-4.19,4.39c-0.08,0.1-0.16,0.2-0.229,0.29h-69.811
				c-0.04-0.05-0.08-0.11-0.12-0.17c-0.47-0.7-1.02-1.521-1.68-2.47C-616.736,223.881-617.276,223.201-617.856,222.571z"/>
			<path fill="#58595B" d="M-543.986,227.251c0,0.01-0.01,0.02-0.021,0.03c-0.43,0.529-0.76,1.029-1.04,1.46
				c-1.199,1.859-1.869,2.88-7.84,2.88c-0.029,0-0.05,0-0.08-0.021c0.091-0.029,0.16-0.12,0.16-0.229c0-0.101-0.06-0.19-0.149-0.23
				c0.02-0.02,0.05-0.02,0.069-0.02c5.7,0,6.28-0.891,7.42-2.65c0.24-0.359,0.5-0.77,0.841-1.22H-543.986z"/>
			<path fill="#58595B" d="M-614.437,227.251h69.811c-0.341,0.45-0.601,0.86-0.841,1.22c-1.14,1.76-1.72,2.65-7.42,2.65
				c-0.02,0-0.05,0-0.069,0.02c-0.011-0.01-0.021,0-0.03,0c-0.021-0.02-0.05-0.02-0.07-0.02h-53h-1.17
				C-611.746,231.15-611.816,231.141-614.437,227.251z"/>
			<path fill="#58595B" d="M-552.956,231.141c0.09,0.04,0.149,0.13,0.149,0.23c0,0.109-0.069,0.2-0.16,0.229
				c-0.1-0.029-0.17-0.12-0.17-0.229c0-0.101,0.061-0.19,0.15-0.23C-552.977,231.141-552.967,231.131-552.956,231.141z"/>
			<path fill="#58595B" d="M-552.967,231.601c-0.029,0.011-0.06,0.021-0.09,0.021h-53c0.141,0,0.25-0.11,0.25-0.25
				c0-0.141-0.109-0.25-0.25-0.25h53c0.021,0,0.05,0,0.07,0.02c-0.09,0.04-0.15,0.13-0.15,0.23
				C-553.137,231.48-553.066,231.571-552.967,231.601z"/>
			<path fill="#58595B" d="M-561.007,161.171c-0.149,0.15-0.29,0.32-0.409,0.5h-0.311c0.11-0.18,0.23-0.35,0.37-0.5H-561.007z"/>
			<path fill="#58595B" d="M-561.356,161.171c-0.14,0.15-0.26,0.32-0.37,0.5h-0.28c0.091-0.18,0.2-0.35,0.33-0.5H-561.356z"/>
			<path fill="#F6881F" d="M-561.727,161.671h0.311c-0.36,0.53-0.57,1.18-0.57,1.9v4.35h-0.25v-4.35
				C-562.236,162.861-562.047,162.211-561.727,161.671z"/>
			<path fill="#58595B" d="M-661.517,161.171h99.84c-0.13,0.15-0.239,0.32-0.33,0.5h-99.51V161.171z"/>
			<path fill="#F6881F" d="M-562.007,161.671h0.28c-0.32,0.54-0.51,1.19-0.51,1.9v4.35h-0.25v-4.35
				C-562.486,162.871-562.307,162.221-562.007,161.671z"/>
			<path fill="#F6881F" d="M-561.767,186.261h-0.26c-0.14-0.38-0.21-0.8-0.21-1.24v-5.79h0.25v5.79
				C-561.986,185.461-561.906,185.881-561.767,186.261z"/>
			<rect x="-562.236" y="177.23" fill="#58595B" width="0.25" height="2"/>
			<rect x="-562.236" y="168.921" fill="#F6881F" width="0.25" height="8.31"/>
			<rect x="-562.236" y="167.921" fill="#58595B" width="0.25" height="1"/>
			<path fill="#F6881F" d="M-661.517,161.671h99.51c-0.3,0.55-0.479,1.2-0.479,1.9v4.35h-99.03V161.671z"/>
			<path fill="#F6881F" d="M-562.026,186.261h-0.271c-0.119-0.39-0.189-0.8-0.189-1.24v-5.79h0.25v5.79
				C-562.236,185.461-562.166,185.881-562.026,186.261z"/>
			<rect x="-562.486" y="177.23" fill="#58595B" width="0.25" height="2"/>
			<rect x="-562.486" y="168.921" fill="#F6881F" width="0.25" height="8.31"/>
			<rect x="-562.486" y="167.921" fill="#58595B" width="0.25" height="1"/>
			<path fill="#F6881F" d="M-562.297,186.261h-99.22v-7.03h99.03v5.79C-562.486,185.461-562.416,185.871-562.297,186.261z"/>
			<rect x="-661.517" y="177.23" fill="#58595B" width="99.03" height="2"/>
			<rect x="-661.517" y="168.921" fill="#F6881F" width="99.03" height="8.31"/>
			<rect x="-661.517" y="167.921" fill="#58595B" width="99.03" height="1"/>
			<circle fill="#58595B" cx="-606.057" cy="231.371" r="0.25"/>
			<path fill="#58595B" d="M-607.227,231.121h1.17c-0.14,0-0.25,0.109-0.25,0.25c0,0.14,0.11,0.25,0.25,0.25h-1.17
				c-4.82,0.04-4.89-0.021-7.75-4.26c-0.02-0.03-0.05-0.07-0.07-0.11h0.61C-611.816,231.141-611.746,231.15-607.227,231.121z"/>
			<path fill="#F6881F" d="M-614.437,227.251h-0.61c-0.449-0.67-0.97-1.46-1.6-2.36c-0.58-0.84-1.21-1.62-1.89-2.319h0.68
				c0.58,0.63,1.12,1.31,1.62,2.04c0.66,0.949,1.21,1.77,1.68,2.47C-614.517,227.141-614.477,227.201-614.437,227.251z"/>
			<path fill="#FDED18" d="M-616.416,232.251c0.59,1.71,0.92,3.54,0.92,5.46c0,9.29-7.53,16.82-16.82,16.82s-16.82-7.53-16.82-16.82
				c0-1.92,0.33-3.75,0.92-5.46H-616.416z"/>
			<path fill="#FDED18" d="M-616.416,232.251h-31.801c0.631-1.83,1.561-3.521,2.74-5h26.32
				C-617.977,228.73-617.047,230.421-616.416,232.251z"/>
			<path fill="#58595B" d="M-617.856,222.571h-0.68c-3.681-3.881-8.67-5.631-14.58-5.08c-6.01,0.56-9.69,2.42-12.61,5.08h-0.75
				c3.061-2.921,6.87-4.98,13.32-5.58c0.72-0.07,1.43-0.101,2.13-0.101C-625.717,216.891-621.227,218.831-617.856,222.571z"/>
			<path fill="#FDED18" d="M-619.156,227.251h-26.32c1.57-1.97,3.57-3.57,5.86-4.68h14.6
				C-622.727,223.681-620.727,225.281-619.156,227.251z"/>
			<path fill="#58595B" d="M-631.026,216.071v0.819c-0.7,0-1.41,0.03-2.13,0.101c-6.45,0.6-10.26,2.659-13.32,5.58h-15.09
				c0-0.011-0.01-0.021-0.02-0.03c0.05-0.05,0.069-0.101,0.069-0.17v-6.3H-631.026z"/>
			<path fill="#F6881F" d="M-646.477,222.571h0.75c-1.52,1.359-2.84,2.949-4.189,4.68h-0.631
				C-649.217,225.541-647.937,223.951-646.477,222.571z"/>
			<path fill="#F6881F" d="M-661.566,222.571h15.09c-1.46,1.38-2.74,2.97-4.07,4.68h-12.979c0.53-1.39,1.28-2.95,1.99-4.43
				C-661.507,222.73-661.517,222.641-661.566,222.571z"/>
			<path fill="#58595B" d="M-650.547,227.251h0.631c-0.391,0.51-0.79,1.03-1.2,1.57l-0.05,0.06c-1.011,1.33-3.96,2.72-6.811,3.37
				h-5.27c-0.44-0.17-0.801-0.41-1.07-0.71c-0.73-0.78-0.52-2.24,0.25-4.29h0.54c-0.69,1.8-1.021,3.31-0.43,3.95
				c0.63,0.68,1.81,1,3.439,0.92c3.49-0.17,7.84-2.09,8.95-3.54l0.05-0.07C-651.187,228.081-650.866,227.661-650.547,227.251z"/>
			<path fill="#58595B" d="M-663.526,227.251h12.979c-0.319,0.41-0.64,0.83-0.97,1.26l-0.05,0.07c-1.11,1.45-5.46,3.37-8.95,3.54
				c-1.63,0.08-2.81-0.24-3.439-0.92C-664.547,230.561-664.217,229.051-663.526,227.251z"/>
			<circle fill="#F6881F" cx="-653.727" cy="152.48" r="0.25"/>
			<path fill="#F6881F" d="M-653.727,152.23c-0.14,0-0.25,0.11-0.25,0.25c0,0.141,0.11,0.25,0.25,0.25c-4.06,0-6,0.37-6.93,1.32
				c-0.93,0.96-0.891,2.6-0.88,5.22c-0.04-0.09-0.12-0.149-0.23-0.149c-0.14,0-0.25,0.109-0.25,0.25v1.17l-0.02-0.96
				c-0.061-2.851-0.101-4.73,1.02-5.87C-659.967,152.631-657.986,152.23-653.727,152.23z"/>
			<path fill="#58595B" d="M-663.246,232.251h5.27c-0.87,0.2-1.729,0.33-2.52,0.37c-0.16,0-0.32,0.01-0.48,0.01
				C-661.866,232.631-662.637,232.501-663.246,232.251z"/>
			<path fill="#58595B" d="M-661.517,216.071v6.3c0,0.069-0.02,0.12-0.069,0.17c-0.011-0.03-0.04-0.05-0.07-0.061
				c-0.101-0.04-0.22-0.02-0.3,0.061c-0.04-0.05-0.061-0.101-0.061-0.17v-6.3H-661.517z"/>
			<rect x="-662.017" y="210.281" fill="#F6881F" width="0.5" height="5.79"/>
			<rect x="-662.017" y="205.281" fill="#58595B" width="0.5" height="5"/>
			<rect x="-662.017" y="199.721" fill="#F6881F" width="0.5" height="5.561"/>
			<rect x="-662.017" y="195.721" fill="#58595B" width="0.5" height="4"/>
			<rect x="-662.017" y="189.261" fill="#F6881F" width="0.5" height="6.46"/>
			<rect x="-662.017" y="186.261" fill="#58595B" width="0.5" height="3"/>
			<rect x="-662.017" y="179.23" fill="#F6881F" width="0.5" height="7.03"/>
			<rect x="-662.017" y="177.23" fill="#58595B" width="0.5" height="2"/>
			<rect x="-662.017" y="168.921" fill="#F6881F" width="0.5" height="8.31"/>
			<rect x="-662.017" y="167.921" fill="#58595B" width="0.5" height="1"/>
			<rect x="-662.017" y="161.671" fill="#F6881F" width="0.5" height="6.25"/>
			<rect x="-662.017" y="161.171" fill="#58595B" width="0.5" height="0.5"/>
			<path fill="#F6881F" d="M-661.517,160.541v0.63h-0.5v-0.63c0,0.14,0.11,0.25,0.25,0.25
				C-661.626,160.791-661.517,160.671-661.517,160.541z"/>
			<path d="M-661.517,159.371v1.17l-0.02-0.97c0-0.101,0-0.2,0-0.301C-661.526,159.301-661.517,159.331-661.517,159.371z"/>
			<path fill="#F6881F" d="M-661.536,159.571l0.02,0.97c0,0.13-0.109,0.25-0.25,0.25c-0.14,0-0.25-0.11-0.25-0.25v-1.17
				c0-0.141,0.11-0.25,0.25-0.25c0.11,0,0.19,0.06,0.23,0.149C-661.536,159.371-661.536,159.471-661.536,159.571z"/>
			<path fill="#F6881F" d="M-661.566,222.571c0.05,0.069,0.06,0.159,0.03,0.25c-0.71,1.479-1.46,3.04-1.99,4.43h-0.54
				c0.5-1.311,1.22-2.87,2.07-4.65c0-0.01,0.01-0.02,0.02-0.029h0.061c0.04,0.029,0.09,0.05,0.149,0.05
				c0.061,0,0.11-0.021,0.15-0.05H-661.566z"/>
			<path fill="#58595B" d="M-661.586,222.541c0.01,0.01,0.02,0.02,0.02,0.03h-0.05
				C-661.606,222.561-661.586,222.551-661.586,222.541z"/>
			<path fill="#58595B" d="M-661.586,222.541c0,0.01-0.021,0.02-0.03,0.03h-0.3c-0.011-0.011-0.03-0.021-0.04-0.03
				c0.08-0.08,0.199-0.101,0.3-0.061C-661.626,222.491-661.597,222.511-661.586,222.541z"/>
			<path fill="#58595B" d="M-661.916,222.571h0.3c-0.04,0.029-0.09,0.05-0.15,0.05
				C-661.826,222.621-661.876,222.601-661.916,222.571z"/>
			<path fill="#58595B" d="M-661.916,222.571h-0.061c0-0.011,0.01-0.021,0.021-0.03
				C-661.946,222.551-661.927,222.561-661.916,222.571z"/>
		</g>
		<g>
		</g>
	</g>
	<circle fill-rule="evenodd" clip-rule="evenodd" fill="#FDED18" cx="-1005.687" cy="235.832" r="16.822"/>
	<circle fill-rule="evenodd" clip-rule="evenodd" fill="#FDED18" cx="-899.353" cy="236.266" r="16.821"/>
	<g id="XMLID_1_">
		<g>
			<path d="M-1035.139,158.665c-0.11-6.42-0.62-8.07,8.05-8.07h117.66c4.47,0,6.96,0.95,8.45,4.88h0.01l8.87,24.221
				c5.21,11.01,15.59,8.76,19.4,14.84c2.56,4.3,3.56,27.3-0.36,34.63c-1.21,2.28-5.58,1.04-7.83-0.71v-0.25
				c-1.47-8.75-21.37-22.12-36.69-2.96c-2.25,2.81-1.43,4.25-8.68,4.25h-0.17h-53c-6.83,0-5.46,0.46-10.39-6.62
				c-4.1-5.96-10.12-8.12-16.69-7.51c-10.21,0.949-13.79,5.68-18.23,11.489c-1.78,2.33-10.39,5.21-12.77,2.641
				c-1.14-1.22,0.49-4.73,2.37-8.66v-0.34V158.665z M-900.599,185.905c0.4-0.101,0.24-0.65,0.11-0.88l-9.05-23.471
				c-0.68-1.819-1.93-3.22-3.55-3.22h-19.58c-1.62,0-2.94,1.5-2.94,3.36v21.449c0,1.86,1.32,3.36,2.94,3.36h19.58
				C-911.739,186.505-903.509,187.165-900.599,185.905z"/>
		</g>
		<g>
			<polyline fill="none" stroke="#000000" stroke-linecap="round" stroke-linejoin="round" stroke-miterlimit="10" points="
				-1035.139,220.495 -1035.139,158.665 -1035.139,157.495 			"/>
			
				<line fill="none" stroke="#000000" stroke-linecap="round" stroke-linejoin="round" stroke-miterlimit="10" x1="-1027.089" y1="150.595" x2="-909.429" y2="150.595"/>
			<polyline fill="none" stroke="#000000" stroke-linecap="round" stroke-linejoin="round" stroke-miterlimit="10" points="
				-901.199,154.854 -900.969,155.475 -892.099,179.695 			"/>
			
				<line fill="none" stroke="#000000" stroke-linecap="round" stroke-linejoin="round" stroke-miterlimit="10" x1="-926.429" y1="229.495" x2="-979.429" y2="229.495"/>
			<path fill="none" stroke="#000000" stroke-linecap="round" stroke-linejoin="round" stroke-miterlimit="10" d="
				M-1027.089,150.595c-8.67,0-8.16,1.65-8.05,8.07"/>
			<path fill="none" stroke="#000000" stroke-linecap="round" stroke-linejoin="round" stroke-miterlimit="10" d="M-900.979,155.475
				c-1.49-3.93-3.98-4.88-8.45-4.88"/>
			<path fill="none" stroke="#000000" stroke-linecap="round" stroke-linejoin="round" stroke-miterlimit="10" d="M-880.889,228.205
				c-1.47-8.75-21.37-22.12-36.69-2.96c-2.25,2.81-1.43,4.25-8.68,4.25"/>
			<path fill="none" stroke="#000000" stroke-linecap="round" stroke-linejoin="round" stroke-miterlimit="10" d="M-880.889,228.455
				c2.25,1.75,6.62,2.99,7.83,0.71c3.92-7.33,2.92-30.33,0.36-34.63"/>
			<path fill="none" stroke="#000000" stroke-linecap="round" stroke-linejoin="round" stroke-miterlimit="10" d="M-979.429,229.495
				c-6.83,0-5.46,0.46-10.39-6.62c-4.1-5.96-10.12-8.12-16.69-7.51c-10.21,0.949-13.79,5.68-18.23,11.489
				c-1.78,2.33-10.39,5.21-12.77,2.641c-1.14-1.22,0.49-4.73,2.37-8.66"/>
			<path fill="none" stroke="#000000" stroke-linecap="round" stroke-linejoin="round" stroke-miterlimit="10" d="M-892.099,179.695
				c5.21,11.01,15.59,8.76,19.4,14.84"/>
			<path fill="none" stroke="#000000" stroke-linecap="round" stroke-linejoin="round" stroke-miterlimit="10" d="M-900.599,185.905
				c0.4-0.101,0.24-0.65,0.11-0.88l-9.05-23.471c-0.68-1.819-1.93-3.22-3.55-3.22h-19.58c-1.62,0-2.94,1.5-2.94,3.36v21.449
				c0,1.86,1.32,3.36,2.94,3.36h19.58C-911.739,186.505-903.509,187.165-900.599,185.905z"/>
		</g>
	</g>
	
		<line fill="none" stroke="#FDED18" stroke-width="5" stroke-linecap="round" stroke-linejoin="round" stroke-miterlimit="10" x1="-1133.082" y1="209.752" x2="-941.301" y2="209.752"/>
	
		<line fill="none" stroke="#FDED18" stroke-width="4" stroke-linecap="round" stroke-linejoin="round" stroke-miterlimit="10" x1="-1133.082" y1="197.609" x2="-941.07" y2="197.609"/>
	
		<line fill="none" stroke="#FDED18" stroke-width="3" stroke-linecap="round" stroke-linejoin="round" stroke-miterlimit="10" x1="-1132.732" y1="187.584" x2="-940.539" y2="187.584"/>
	
		<line fill="none" stroke="#FDED18" stroke-width="2" stroke-linecap="round" stroke-linejoin="round" stroke-miterlimit="10" x1="-1133.082" y1="177.061" x2="-941.07" y2="177.061"/>
	
		<line fill="none" stroke="#FDED18" stroke-linecap="round" stroke-linejoin="round" stroke-miterlimit="10" x1="-1133.082" y1="167.035" x2="-940.539" y2="167.035"/>
	<circle fill-rule="evenodd" clip-rule="evenodd" fill="#FDED18" cx="-269.456" cy="243.23" r="16.822"/>
	<circle fill-rule="evenodd" clip-rule="evenodd" fill="#FDED18" cx="-163.122" cy="243.664" r="16.821"/>
	<g>
		
			<line opacity="0.6" fill="none" stroke="#0B070C" stroke-width="5" stroke-miterlimit="10" x1="-352.051" y1="213.303" x2="-135.104" y2="213.303"/>
		
			<line opacity="0.6" fill="none" stroke="#0B070C" stroke-width="6.5" stroke-miterlimit="10" x1="-352.012" y1="224.842" x2="-135.375" y2="224.842"/>
		
			<line opacity="0.6" fill="none" stroke="#0B070C" stroke-width="6.5" stroke-miterlimit="10" x1="-352.012" y1="235.893" x2="-135.196" y2="235.893"/>
		
			<line opacity="0.6" fill="none" stroke="#0B070C" stroke-width="4" stroke-miterlimit="10" x1="-352.173" y1="203.247" x2="-135.226" y2="203.247"/>
		
			<line opacity="0.6" fill="none" stroke="#0B070C" stroke-width="3" stroke-miterlimit="10" x1="-352.104" y1="193.285" x2="-135.211" y2="193.285"/>
		
			<line opacity="0.6" fill="none" stroke="#0B070C" stroke-width="2" stroke-miterlimit="10" x1="-352.02" y1="183.754" x2="-135.252" y2="183.754"/>
		
			<line opacity="0.6" fill="none" stroke="#0B070C" stroke-miterlimit="10" x1="-352.173" y1="173.938" x2="-135.252" y2="173.938"/>
		
			<line opacity="0.6" fill="none" stroke="#0B070C" stroke-width="0.5" stroke-miterlimit="10" x1="-352.012" y1="166.938" x2="-135.252" y2="166.938"/>
	</g>
	
		<line fill="none" stroke="#0B070C" stroke-width="5" stroke-miterlimit="10" x1="-727.433" y1="54.877" x2="-473.146" y2="54.877"/>
	
		<line fill="none" stroke="#0B070C" stroke-width="6" stroke-miterlimit="10" x1="-727.433" y1="68.416" x2="-473.146" y2="68.416"/>
	
		<line fill="none" stroke="#0B070C" stroke-width="4" stroke-miterlimit="10" x1="-727.433" y1="41.821" x2="-472.838" y2="41.821"/>
	
		<line fill="none" stroke="#0B070C" stroke-width="3" stroke-miterlimit="10" x1="-727.962" y1="28.859" x2="-473.126" y2="28.859"/>
	
		<line fill="none" stroke="#0B070C" stroke-width="2" stroke-miterlimit="10" x1="-727.433" y1="18.328" x2="-472.838" y2="18.328"/>
	<line fill="none" stroke="#0B070C" stroke-miterlimit="10" x1="-727.433" y1="9.012" x2="-472.134" y2="9.012"/>
	
		<line fill="none" stroke="#FDED18" stroke-width="6" stroke-linecap="round" stroke-linejoin="round" stroke-miterlimit="10" x1="-990.849" y1="223.545" x2="-941.929" y2="223.545"/>
	
		<line fill="none" stroke="#FDED18" stroke-width="6" stroke-linecap="round" stroke-linejoin="round" stroke-miterlimit="10" x1="-1133.709" y1="223.545" x2="-1020.138" y2="223.545"/>
	<circle fill="#2B2C6B" cx="-1045.502" cy="-75.14" r="34.805"/>
	<circle opacity="0.9" fill="#59A8D7" cx="-1022.603" cy="-44.335" r="40.422"/>
	<circle opacity="0.9" fill="#F6881F" cx="-995.715" cy="-5.464" r="44.786"/>
	<circle opacity="0.9" fill="#FDED18" cx="-968.89" cy="37.648" r="52"/>
	
		<line fill="none" stroke="#A85F27" stroke-width="9" stroke-linecap="round" stroke-linejoin="round" stroke-miterlimit="10" x1="-1015.548" y1="-124.084" x2="-895.871" y2="24.507"/>
	<circle fill="#2B2C6B" cx="-798.919" cy="-238.264" r="52"/>
	<circle opacity="0.9" fill="#59A8D7" cx="-759.919" cy="-191.264" r="52"/>
	<circle opacity="0.9" fill="#EC008C" stroke="#EC008C" stroke-miterlimit="10" cx="-729.919" cy="-149.264" r="52"/>
	<circle opacity="0.9" fill="#F7941E" cx="-694.788" cy="-99.264" r="52"/>
	<rect x="-828.37" y="-439.736" fill="#2B2C6B" width="45.097" height="94.088"/>
	<rect x="-873.468" y="-440.891" fill="#FDED18" width="45.098" height="94.088"/>
	<rect x="-783.273" y="-440.789" fill="#59A8D7" width="45.097" height="94.088"/>
	<rect x="-918.563" y="-440.891" fill="#F6881F" width="45.096" height="94.088"/>
	<rect x="-800.762" y="-410.33" fill="#A85F27" width="36.397" height="36.397"/>
	<rect x="-891.666" y="-412.045" fill="#A85F27" width="36.397" height="36.397"/>
	<g>
		<g>
			<path fill="none" d="M-1076.551-426.488c-15.293,0-30.586,0-45.879,0.002c-2.167,0-3.142,0.811-3.144,2.726
				c-0.013,15.347-0.013,30.693,0.001,46.04c0.002,1.816,0.963,2.724,2.81,2.746c1.986,0.022,3.981,0.123,5.953-0.043
				c1.043-0.087,2.233-0.427,3.036-1.06c6.515-5.134,15.275-5.398,21.967-0.549c1.973,1.43,2.578,1.43,4.567,0.004
				c6.775-4.858,15.433-4.597,21.962,0.548c0.803,0.634,2.012,1.051,3.037,1.058c10.41,0.078,20.82,0.049,31.23,0.046
				c2.543-0.001,3.323-0.796,3.323-3.376c0.003-14.917,0.003-29.835,0-44.753c0-2.646-0.76-3.387-3.466-3.387
				C-1046.288-426.488-1061.419-426.488-1076.551-426.488z M-1089.411-364.377c-0.243-0.293-0.346-0.363-0.365-0.449
				c-2.28-10.229-15.22-13.861-22.414-5.656c-0.351,0.4-1.09,0.636-1.655,0.648c-2.843,0.062-5.688,0.023-8.532,0.021
				c-2.072-0.001-3.183,0.875-3.213,2.528c-0.029,1.672,1.07,2.613,3.116,2.626c2.399,0.016,4.799,0.003,7.192,0.003
				c0.145,8.719,3.41,13.643,9.992,15.141c3.569,0.812,6.925,0.222,9.991-1.806c3.019-1.999,4.814-4.869,5.705-8.586
				c3.115,8.006,8.32,11.668,14.83,10.621c3.011-0.484,5.572-1.846,7.646-4.1c2.918-3.17,3.742-6.982,3.261-11.155
				c13.906,0,27.657,0,41.415,0c-0.468,8.814,4.642,15.18,12.207,15.334c8.431,0.173,13.522-5.626,13.436-15.456
				c2.455,0,4.91,0.011,7.368-0.004c1.907-0.011,2.985-0.972,2.966-2.603c-0.019-1.613-1.095-2.523-3.031-2.531
				c-2.737-0.01-5.476-0.06-8.209,0.025c-1.121,0.035-1.853-0.324-2.625-1.128c-5.285-5.513-13.488-5.484-18.71,0.076
				c-0.749,0.796-1.475,1.043-2.504,1.041c-14.382-0.027-28.765-0.035-43.146-0.001c-1.106,0.002-1.849-0.291-2.634-1.101
				c-3.838-3.963-8.492-5.12-13.68-3.311C-1085.542-372.619-1088.214-369.199-1089.411-364.377z M-1022.526-401.841
				c0,7.026,0.144,14.056-0.074,21.074c-0.082,2.611,2.038,4.236,4.679,2.817c5.752-3.092,11.868-3.047,17.273,0.503
				c3.174,2.083,6.222,2.726,9.745,2.483c0.427-0.03,0.858,0.004,1.287,0.004c2.291-0.005,3.163-0.896,3.163-3.229
				c0-6.274,0.002-12.548-0.003-18.823c0-0.695,0.033-1.409-0.101-2.084c-1.605-8.133-3.234-16.262-4.872-24.387
				c-0.507-2.513-1.138-3.013-3.692-3.013c-8.044,0-16.089,0.004-24.134,0.009c-2.485,0.002-3.266,0.775-3.266,3.249
				C-1022.525-416.105-1022.521-408.974-1022.526-401.841z"/>
			<path fill-rule="evenodd" clip-rule="evenodd" d="M-1076.551-426.488c15.132,0,30.264,0,45.396,0.001
				c2.706,0,3.466,0.741,3.466,3.387c0.003,14.918,0.003,29.835,0,44.753c0,2.581-0.78,3.375-3.323,3.376
				c-10.41,0.003-20.82,0.032-31.23-0.046c-1.025-0.007-2.234-0.424-3.037-1.058c-6.529-5.146-15.187-5.407-21.962-0.548
				c-1.989,1.426-2.594,1.426-4.567-0.004c-6.692-4.849-15.452-4.585-21.967,0.549c-0.803,0.633-1.993,0.973-3.036,1.06
				c-1.972,0.166-3.967,0.065-5.953,0.043c-1.847-0.021-2.808-0.93-2.81-2.746c-0.014-15.347-0.014-30.693-0.001-46.04
				c0.002-1.916,0.977-2.726,3.144-2.726C-1107.137-426.489-1091.844-426.488-1076.551-426.488z M-1032.911-421.268
				c-29.255,0-58.313,0-87.444,0c0,13.726,0,27.372,0,41.075c1.845,0.16,3.367,0.001,5.019-1.074
				c8.038-5.229,16.361-5.414,24.747-0.762c0.807,0.447,1.336,0.448,2.142,0.004c8.703-4.79,17.184-4.393,25.447,1.148
				c0.655,0.439,1.553,0.72,2.339,0.725c8.851,0.052,17.703,0.038,26.554,0.034c0.405,0,0.811-0.074,1.196-0.111
				C-1032.911-393.96-1032.911-407.565-1032.911-421.268z"/>
			<path fill-rule="evenodd" clip-rule="evenodd" d="M-1089.411-364.377c1.196-4.821,3.869-8.242,8.406-9.823
				c5.188-1.809,9.841-0.652,13.68,3.311c0.785,0.81,1.528,1.103,2.634,1.101c14.381-0.034,28.764-0.026,43.146,0.001
				c1.029,0.002,1.755-0.245,2.504-1.041c5.222-5.56,13.425-5.589,18.71-0.076c0.772,0.804,1.504,1.163,2.625,1.128
				c2.733-0.085,5.472-0.035,8.209-0.025c1.937,0.008,3.013,0.918,3.031,2.531c0.02,1.631-1.059,2.592-2.966,2.603
				c-2.458,0.016-4.913,0.004-7.368,0.004c0.087,9.83-5.005,15.629-13.436,15.456c-7.564-0.155-12.675-6.521-12.207-15.334
				c-13.758,0-27.509,0-41.415,0c0.481,4.173-0.343,7.985-3.261,11.155c-2.074,2.254-4.634,3.615-7.646,4.1
				c-6.509,1.048-11.715-2.614-14.83-10.621c-0.891,3.718-2.687,6.588-5.705,8.586c-3.066,2.028-6.422,2.618-9.991,1.806
				c-6.582-1.498-9.847-6.422-9.992-15.141c-2.393,0-4.793,0.013-7.192-0.003c-2.046-0.013-3.146-0.955-3.116-2.626
				c0.03-1.653,1.141-2.529,3.213-2.528c2.844,0.002,5.689,0.04,8.532-0.021c0.564-0.012,1.304-0.248,1.655-0.648
				c7.193-8.205,20.134-4.572,22.414,5.656C-1089.756-364.74-1089.654-364.67-1089.411-364.377z M-1094.671-362.126
				c-0.027-4.144-3.61-7.707-7.73-7.688c-4.244,0.021-7.798,3.63-7.731,7.851c0.067,4.139,3.681,7.664,7.807,7.611
				C-1098.183-354.405-1094.644-358-1094.671-362.126z M-1076.626-369.814c-4.241,0.012-7.802,3.618-7.741,7.841
				c0.058,4.135,3.671,7.667,7.796,7.621c4.141-0.045,7.685-3.635,7.665-7.763C-1068.926-366.261-1072.501-369.825-1076.626-369.814
				z M-1009.628-369.813c-4.155-0.015-7.707,3.5-7.749,7.667c-0.043,4.153,3.466,7.735,7.626,7.784
				c4.251,0.049,7.82-3.481,7.824-7.741C-1001.924-366.253-1005.465-369.8-1009.628-369.813z"/>
			<path fill-rule="evenodd" clip-rule="evenodd" d="M-1022.525-401.841c0.003-7.132,0-14.264,0.004-21.396
				c0-2.474,0.781-3.247,3.266-3.249c8.045-0.005,16.089-0.009,24.134-0.009c2.554,0,3.185,0.5,3.692,3.013
				c1.638,8.125,3.266,16.254,4.872,24.387c0.133,0.675,0.1,1.389,0.101,2.084c0.005,6.275,0.003,12.549,0.003,18.823
				c0,2.332-0.873,3.223-3.163,3.229c-0.428,0-0.859-0.034-1.287-0.004c-3.523,0.243-6.571-0.4-9.745-2.483
				c-5.406-3.55-11.521-3.595-17.273-0.503c-2.641,1.419-4.76-0.206-4.679-2.817
				C-1022.383-387.786-1022.526-394.815-1022.525-401.841z M-1017.325-421.272c0,12.457,0,24.786,0,37.195
				c0.459-0.104,0.868-0.182,1.27-0.292c7.105-1.945,13.727-0.794,19.746,3.364c1.577,1.091,3.035,0.878,4.811,0.785
				c-0.515-7.096,0.604-14.104-0.742-20.904c-0.95,0.154-1.676,0.371-2.403,0.375c-4.883,0.031-9.766,0.032-14.649,0.012
				c-2.022-0.008-2.925-0.946-2.928-2.966c-0.007-3.702,0.003-7.404,0.004-11.107c0.001-2.13,0-4.261,0-6.462
				C-1013.974-421.272-1015.563-421.272-1017.325-421.272z M-993.269-405.93c-0.974-4.939-1.921-9.81-2.922-14.67
				c-0.061-0.293-0.547-0.707-0.842-0.71c-3.304-0.051-6.609-0.032-9.928-0.032c0,5.261,0,10.32,0,15.413
				C-1002.356-405.93-997.864-405.93-993.269-405.93z"/>
		</g>
	</g>
	<g>
		<g>
			<path fill-rule="evenodd" clip-rule="evenodd" fill="#BB2231" d="M-472.01-455.028c7.105,2.866,14.181,5.817,21.339,8.551
				c2.44,0.932,2.836,1.89,1.688,4.313c-9.88,20.829-33.075,33.067-56.213,29.506c-22.832-3.517-41.124-22.145-44.157-44.97
				c-4.257-32.043,19.469-60.316,51.706-60.501c22.051-0.128,38.341,10.436,48.646,30.06c1.206,2.297,0.969,3.288-1.661,4.258
				c-7.185,2.653-14.233,5.678-21.335,8.554c-0.508-0.755-1.062-1.484-1.52-2.27c-5.476-9.399-13.539-14.37-24.52-13.938
				c-10.819,0.427-18.652,5.834-23.031,15.583c-4.468,9.941-3.014,19.572,3.985,27.882c6.812,8.088,15.833,10.766,26.15,8.619
				C-481.934-441.255-476.259-447.321-472.01-455.028z"/>
			<path fill-rule="evenodd" clip-rule="evenodd" fill="#FAD707" d="M-472.01-455.028c-4.249,7.707-9.924,13.773-18.923,15.647
				c-10.317,2.146-19.339-0.531-26.15-8.619c-6.999-8.31-8.453-17.94-3.985-27.882c4.379-9.749,12.212-15.156,23.031-15.583
				c10.98-0.433,19.044,4.538,24.52,13.938c0.457,0.785,1.012,1.515,1.52,2.27C-469.826-468.513-469.812-461.771-472.01-455.028z"/>
		</g>
	</g>
	<circle fill-rule="evenodd" clip-rule="evenodd" fill="#BA2030" cx="-328.565" cy="191.125" r="16.821"/>
	<circle fill-rule="evenodd" clip-rule="evenodd" fill="#FDED18" cx="-889.758" cy="82.907" r="10.394"/>
	<circle fill-rule="evenodd" clip-rule="evenodd" fill="#FDED18" cx="-824.052" cy="83.175" r="10.395"/>
	<g id="XMLID_4_">
		<g>
			<path d="M-907.958,35.224c-0.068-3.967-0.383-4.986,4.975-4.986h72.705c2.763,0,4.301,0.587,5.222,3.015h0.006l5.481,14.967
				c3.22,6.804,9.634,5.413,11.988,9.17c1.581,2.657,2.199,16.869-0.223,21.398c-0.748,1.409-3.448,0.644-4.839-0.438v-0.154
				c-0.908-5.407-13.205-13.669-22.672-1.829c-1.39,1.736-0.884,2.626-5.363,2.626h-0.105h-32.75c-4.22,0-3.374,0.284-6.42-4.091
				c-2.534-3.683-6.253-5.018-10.313-4.641c-6.309,0.588-8.521,3.51-11.265,7.101c-1.1,1.439-6.42,3.219-7.891,1.631
				c-0.705-0.754,0.303-2.923,1.464-5.351V73.43V35.224z M-824.821,52.056c0.247-0.062,0.147-0.401,0.067-0.544l-5.592-14.502
				c-0.421-1.125-1.192-1.99-2.194-1.99h-12.099c-1.001,0-1.817,0.927-1.817,2.076v13.255c0,1.149,0.816,2.076,1.817,2.076h12.099
				C-831.705,52.427-826.62,52.835-824.821,52.056z"/>
		</g>
		<g>
			<polyline fill="none" stroke="#000000" stroke-linecap="round" stroke-linejoin="round" stroke-miterlimit="10" points="
				-907.958,73.43 -907.958,35.224 -907.958,34.501 			"/>
			
				<line fill="none" stroke="#000000" stroke-linecap="round" stroke-linejoin="round" stroke-miterlimit="10" x1="-902.983" y1="30.237" x2="-830.278" y2="30.237"/>
			<polyline fill="none" stroke="#000000" stroke-linecap="round" stroke-linejoin="round" stroke-miterlimit="10" points="
				-825.192,32.869 -825.051,33.252 -819.569,48.219 			"/>
			
				<line fill="none" stroke="#000000" stroke-linecap="round" stroke-linejoin="round" stroke-miterlimit="10" x1="-840.783" y1="78.991" x2="-873.533" y2="78.991"/>
			<path fill="none" stroke="#000000" stroke-linecap="round" stroke-linejoin="round" stroke-miterlimit="10" d="M-902.983,30.237
				c-5.357,0-5.042,1.02-4.975,4.986"/>
			<path fill="none" stroke="#000000" stroke-linecap="round" stroke-linejoin="round" stroke-miterlimit="10" d="M-825.057,33.252
				c-0.921-2.428-2.459-3.015-5.222-3.015"/>
			<path fill="none" stroke="#000000" stroke-linecap="round" stroke-linejoin="round" stroke-miterlimit="10" d="M-812.643,78.194
				c-0.908-5.407-13.205-13.669-22.672-1.829c-1.39,1.736-0.884,2.626-5.363,2.626"/>
			<path fill="none" stroke="#000000" stroke-linecap="round" stroke-linejoin="round" stroke-miterlimit="10" d="M-812.643,78.349
				c1.391,1.082,4.091,1.848,4.839,0.438c2.422-4.529,1.804-18.741,0.223-21.398"/>
			<path fill="none" stroke="#000000" stroke-linecap="round" stroke-linejoin="round" stroke-miterlimit="10" d="M-873.533,78.991
				c-4.22,0-3.374,0.284-6.42-4.091c-2.534-3.683-6.253-5.018-10.313-4.641c-6.309,0.588-8.521,3.51-11.265,7.101
				c-1.1,1.439-6.42,3.219-7.891,1.631c-0.705-0.754,0.303-2.923,1.464-5.351"/>
			<path fill="none" stroke="#000000" stroke-linecap="round" stroke-linejoin="round" stroke-miterlimit="10" d="M-819.569,48.219
				c3.22,6.804,9.634,5.413,11.988,9.17"/>
			<path fill="none" stroke="#000000" stroke-linecap="round" stroke-linejoin="round" stroke-miterlimit="10" d="M-824.821,52.056
				c0.247-0.062,0.147-0.401,0.067-0.544l-5.592-14.502c-0.421-1.125-1.192-1.99-2.194-1.99h-12.099
				c-1.001,0-1.817,0.927-1.817,2.076v13.255c0,1.149,0.816,2.076,1.817,2.076h12.099C-831.705,52.427-826.62,52.835-824.821,52.056
				z"/>
		</g>
	</g>
</g>
<g id="text">
	<text transform="matrix(1 0 0 1 -1125.0205 -464.2988)" font-family="'UrbanSketch'" font-size="42.0662">Colorado Food Truck Application</text>
	<text transform="matrix(1 0 0 1 -1031.3198 -294.9785)" font-family="'LeagueSpartan-Bold'" font-size="41.6715">CO</text>
	<text transform="matrix(1 0 0 1 -991.6021 -233.2637)" font-family="'YikesMedium'" font-size="41.6715">street</text>
	<text transform="matrix(1 0 0 1 -960.0747 -300.9785)" font-family="'YikesMedium'" font-size="41.6715">food</text>
	<text transform="matrix(1 0 0 1 -960.9707 -268.9785)" font-family="'YikesMedium'" font-size="41.6715" letter-spacing="-3">trucks</text>
	<text transform="matrix(1 0 0 1 -646.5703 183.7637)" fill="#FFFFFF" font-family="'YikesMedium'" font-size="35.2793">food</text>
	
		<text transform="matrix(1 0 0 1 -647.0742 209.625)" fill="#FFFFFF" font-family="'YikesMedium'" font-size="35.2793" letter-spacing="-2">trucks</text>
	<text transform="matrix(1 0 0 1 -962.9692 -200.2637)" font-family="'YikesMedium'" font-size="41.6715">food</text>
	<text transform="matrix(1 0 0 1 -911.3975 -9.4639)" font-family="'YikesMedium'" font-size="26.6359">street</text>
	<text transform="matrix(1 0 0 1 -890.6421 18.3281)" font-family="'YikesMedium'" font-size="26.6359">food</text>
	<text transform="matrix(1 0 0 1 -1115.0947 -179.9785)" font-family="'Hominis'" font-size="41.6715">CO</text>
	<text transform="matrix(1 0 0 1 -1109.7627 90.6592)" font-family="'Phosphate-Inline'" font-size="151.8994">CO</text>
	<text transform="matrix(1 0 0 1 -840.667 239.7354)" font-family="'Phosphate-Inline'" font-size="148.2877">CO</text>
	<g>
		<path d="M-462.493,191.186c0-7.908,1.384-15.051,4.152-21.428c2.767-6.376,6.525-11.837,11.27-16.386
			c4.746-4.546,10.281-8.03,16.609-10.454c6.324-2.421,13.049-3.633,20.166-3.633c5.635,0,10.652,0.544,15.052,1.631
			c4.397,1.089,8.179,2.324,11.344,3.707c3.656,1.583,6.821,3.313,9.491,5.19l-15.57,27.434c-1.583-1.187-3.314-2.322-5.19-3.411
			c-1.683-0.79-3.685-1.557-6.006-2.299c-2.323-0.741-4.968-1.111-7.934-1.111c-3.065,0-5.883,0.544-8.452,1.631
			c-2.572,1.089-4.819,2.571-6.747,4.448c-1.928,1.879-3.437,4.078-4.522,6.599c-1.09,2.521-1.631,5.216-1.631,8.082
			c0,2.868,0.566,5.561,1.705,8.082c1.135,2.521,2.691,4.722,4.67,6.599c1.977,1.879,4.301,3.362,6.971,4.448
			c2.668,1.089,5.584,1.632,8.748,1.632c3.163,0,5.98-0.395,8.453-1.187c2.47-0.79,4.545-1.68,6.228-2.669
			c1.977-1.087,3.708-2.373,5.19-3.855l15.57,27.433c-2.67,2.176-5.834,4.104-9.49,5.783c-3.166,1.386-6.97,2.669-11.418,3.855
			c-4.449,1.187-9.542,1.779-15.274,1.779c-7.711,0-14.829-1.26-21.353-3.781c-6.525-2.521-12.16-6.054-16.905-10.603
			c-4.745-4.546-8.452-10.009-11.122-16.386C-461.158,205.94-462.493,198.896-462.493,191.186z M-443.809,191.186
			c0-4.745,0.815-9.193,2.446-13.346c1.632-4.152,3.93-7.76,6.896-10.825c2.965-3.062,6.572-5.486,10.824-7.266
			c4.25-1.78,8.994-2.67,14.236-2.67c2.568,0,4.867,0.174,6.895,0.52c2.025,0.348,3.73,0.767,5.116,1.261
			c1.68,0.495,3.114,1.089,4.3,1.779l2.076-3.56c-1.582-0.69-3.262-1.334-5.041-1.928c-1.683-0.493-3.61-0.938-5.783-1.334
			c-2.176-0.395-4.697-0.594-7.562-0.594c-5.043,0-9.861,0.89-14.459,2.67c-4.597,1.779-8.651,4.325-12.159,7.637
			c-3.511,3.313-6.327,7.316-8.452,12.011c-2.127,4.697-3.188,9.912-3.188,15.645c0,5.834,1.013,11.073,3.04,15.719
			c2.025,4.647,4.819,8.626,8.379,11.937c3.559,3.313,7.711,5.857,12.455,7.638c4.746,1.779,9.787,2.669,15.125,2.669
			c2.967,0,5.636-0.246,8.008-0.741c2.373-0.494,4.398-1.038,6.08-1.632c1.877-0.69,3.559-1.482,5.042-2.372l-2.076-3.56
			c-1.286,0.89-2.769,1.632-4.448,2.225c-1.483,0.593-3.263,1.112-5.339,1.557c-2.075,0.445-4.499,0.668-7.267,0.668
			c-5.438,0-10.33-0.89-14.68-2.669c-4.352-1.78-8.033-4.201-11.047-7.267c-3.018-3.062-5.339-6.673-6.971-10.825
			C-442.993,200.38-443.809,195.931-443.809,191.186z"/>
		<path d="M-380.341,191.186c0-7.118,1.357-13.839,4.077-20.167c2.718-6.325,6.425-11.838,11.122-16.534
			c4.693-4.694,10.206-8.401,16.533-11.121c6.326-2.718,13.05-4.078,20.168-4.078c7.117,0,13.84,1.36,20.167,4.078
			c6.325,2.72,11.837,6.427,16.534,11.121c4.693,4.696,8.401,10.209,11.121,16.534c2.719,6.328,4.078,13.049,4.078,20.167
			s-1.359,13.842-4.078,20.167c-2.72,6.328-6.428,11.84-11.121,16.534c-4.697,4.696-10.209,8.404-16.534,11.122
			c-6.327,2.718-13.05,4.077-20.167,4.077c-7.118,0-13.842-1.359-20.168-4.077c-6.327-2.718-11.84-6.426-16.533-11.122
			c-4.697-4.694-8.404-10.206-11.122-16.534C-378.983,205.027-380.341,198.304-380.341,191.186z M-366.402,191.186
			c0,5.241,0.987,10.158,2.966,14.755c1.977,4.597,4.694,8.626,8.156,12.085c3.459,3.462,7.488,6.18,12.085,8.156
			c4.597,1.979,9.514,2.966,14.755,2.966c5.238,0,10.157-0.987,14.754-2.966c4.598-1.977,8.625-4.694,12.086-8.156
			c3.459-3.459,6.178-7.488,8.156-12.085c1.977-4.597,2.965-9.514,2.965-14.755c0-5.238-0.988-10.157-2.965-14.755
			c-1.979-4.597-4.697-8.623-8.156-12.085c-3.461-3.459-7.488-6.177-12.086-8.156c-4.597-1.977-9.516-2.966-14.754-2.966
			c-5.241,0-10.158,0.989-14.755,2.966c-4.597,1.979-8.626,4.697-12.085,8.156c-3.462,3.462-6.18,7.488-8.156,12.085
			C-365.415,181.028-366.402,185.947-366.402,191.186z M-328.44,225.292c-4.746,0-9.171-0.89-13.271-2.669
			c-4.104-1.78-7.711-4.227-10.826-7.341c-3.113-3.114-5.561-6.722-7.34-10.825c-1.779-4.101-2.669-8.526-2.669-13.271
			s0.89-9.168,2.669-13.271c1.779-4.102,4.227-7.711,7.34-10.825c3.115-3.114,6.723-5.561,10.826-7.34
			c4.101-1.78,8.525-2.67,13.271-2.67c4.745,0,9.168,0.89,13.271,2.67c4.102,1.779,7.711,4.226,10.825,7.34s5.561,6.724,7.34,10.825
			c1.78,4.104,2.669,8.526,2.669,13.271s-0.889,9.171-2.669,13.271c-1.779,4.104-4.226,7.711-7.34,10.825s-6.724,5.561-10.825,7.341
			C-319.272,224.402-323.695,225.292-328.44,225.292z M-349.201,191.186c0,2.868,0.542,5.561,1.632,8.082
			c1.086,2.521,2.568,4.722,4.448,6.599c1.876,1.879,4.077,3.362,6.599,4.448c2.521,1.089,5.213,1.632,8.082,1.632
			c2.865,0,5.561-0.543,8.082-1.632c2.521-1.086,4.719-2.569,6.598-4.448c1.877-1.877,3.36-4.078,4.449-6.599
			c1.086-2.521,1.631-5.214,1.631-8.082c0-2.866-0.545-5.561-1.631-8.082c-1.089-2.521-2.572-4.72-4.449-6.599
			c-1.879-1.877-4.077-3.359-6.598-4.448c-2.521-1.087-5.217-1.631-8.082-1.631c-2.869,0-5.561,0.544-8.082,1.631
			c-2.521,1.089-4.723,2.571-6.599,4.448c-1.88,1.879-3.362,4.078-4.448,6.599C-348.659,185.625-349.201,188.319-349.201,191.186z"
			/>
	</g>
	<text transform="matrix(1 0 0 1 -1115.0947 -307.9785)" font-family="'LemonMilk'" font-size="41.6715">CO</text>
	<text transform="matrix(1 0 0 1 -1114.0947 -268.9785)" font-family="'MarketDeco'" font-size="41.6715">CO</text>
	<text transform="matrix(1 0 0 1 -1114.0947 -223.9785)" font-family="'MarketDeco'" font-size="41.6715">CO</text>
	
		<line fill="none" stroke="#000000" stroke-width="9" stroke-linecap="round" stroke-linejoin="round" stroke-miterlimit="10" x1="-752.378" y1="-284.183" x2="-637.218" y2="-132.849"/>
	<text transform="matrix(1 0 0 1 -277.71 189.2852)" fill="#FFFFFF" font-family="'YikesMedium'" font-size="35.2793">food</text>
	<text transform="matrix(1 0 0 1 -277.75 216.4805)" fill="#FFFFFF" font-family="'YikesMedium'" font-size="35.2793">trucks</text>
	<g id="XMLID_5_">
		<g>
			<path fill="#58595B" d="M482.473,128.385h-0.626c0.341-2.802,0.531-5.808,0.612-8.84h0.626
				C483.003,122.591,482.799,125.597,482.473,128.385z"/>
			<path fill="#F6881F" d="M482.459,119.545h-39.36H300.605h-41.468v-7.875h223.267C482.5,114.24,482.527,116.906,482.459,119.545z"
				/>
			<path fill="#F6881F" d="M482.459,119.545c0.068-2.639,0.041-5.305-0.055-7.875h0.667c0.081,2.584,0.095,5.25,0.014,7.875H482.459
				z"/>
			<path fill="#58595B" d="M482.404,111.67H259.138v-6.801h222.818C482.16,107.005,482.31,109.304,482.404,111.67z"/>
			<path fill="#58595B" d="M482.404,111.67c-0.095-2.366-0.244-4.665-0.448-6.801h0.693c0.204,2.149,0.34,4.435,0.422,6.801H482.404
				z"/>
			<path fill="#F6881F" d="M481.956,104.869H259.138v-7.562h221.717C481.303,99.389,481.67,101.986,481.956,104.869z"/>
			<path fill="#F6881F" d="M482.473,128.385c-0.271,2.299-0.626,4.447-1.074,6.352h-0.667c0.477-1.904,0.844-4.066,1.115-6.352
				H482.473z"/>
			<path fill="#F6881F" d="M481.956,104.869c-0.286-2.883-0.653-5.48-1.102-7.562h0.707c0.463,2.122,0.83,4.706,1.088,7.562H481.956
				z"/>
			<path fill="#58595B" d="M480.854,97.308H259.138v-5.44h219.486c0.299,0.34,0.571,0.721,0.815,1.115
				C479.957,93.854,480.433,95.35,480.854,97.308z"/>
			<path fill="#58595B" d="M479.902,93.092c0.163-0.096,0.218-0.313,0.108-0.463h0.014c0.585,0.993,1.102,2.611,1.537,4.679h-0.707
				c-0.422-1.958-0.897-3.454-1.415-4.325c0.068,0.109,0.177,0.163,0.286,0.163C479.793,93.146,479.848,93.132,479.902,93.092z"/>
			<path fill="#58595B" d="M480.011,92.629c0.109,0.149,0.055,0.367-0.108,0.463c-0.055,0.04-0.109,0.054-0.177,0.054
				c-0.109,0-0.218-0.054-0.286-0.163c-0.095-0.163-0.054-0.367,0.109-0.462c0.149-0.082,0.326-0.068,0.435,0.067
				C479.997,92.602,479.997,92.615,480.011,92.629z"/>
			<path fill="#58595B" d="M479.983,92.588c-0.108-0.136-0.285-0.149-0.435-0.067c-0.163,0.095-0.204,0.299-0.109,0.462
				c-0.244-0.395-0.517-0.775-0.815-1.115h0.856C479.657,92.099,479.834,92.344,479.983,92.588z"/>
			<path fill="#F6881F" d="M478.624,91.867H259.138v-8.786h173.516h29.541c2.462,1.51,5.005,2.517,7.426,3.482
				C473.278,88.019,476.475,89.297,478.624,91.867z"/>
			<path fill="#58595B" d="M477.917,141.537c-0.259,0.108-0.545,0.204-0.857,0.271c-0.422,0.082-0.843,0.123-1.292,0.123
				c-0.856,0-1.754-0.15-2.652-0.395H477.917z"/>
			<path fill="#58595B" d="M468.886,138.735c-0.041,0.108-0.122,0.177-0.245,0.204c-0.149,0.026-0.271-0.041-0.354-0.163
				c0.014-0.014,0.014-0.027,0.027-0.041c0.122-0.149,0.326-0.177,0.477-0.068C468.817,138.694,468.858,138.722,468.886,138.735z"/>
			<path fill="#58595B" d="M468.641,138.939c0.123-0.027,0.204-0.096,0.245-0.204c2.095,1.604,5.631,2.91,8.024,2.407
				c0.952-0.204,1.632-0.667,2.026-1.401c0.721-1.346,1.319-3.046,1.795-5.005h0.667c-0.503,2.122-1.115,3.944-1.863,5.332
				c-0.354,0.666-0.897,1.155-1.618,1.469h-4.802c-0.014,0-0.014,0-0.027,0c-1.768-0.49-3.495-1.374-4.705-2.326
				c-0.137-0.108-0.177-0.285-0.096-0.435C468.369,138.898,468.491,138.966,468.641,138.939z"/>
			<path fill="#58595B" d="M468.886,138.735c0.041-0.055,0.055-0.123,0.041-0.19c-0.218-1.292-0.681-2.57-1.319-3.809h13.124
				c-0.476,1.959-1.074,3.659-1.795,5.005c-0.395,0.734-1.074,1.197-2.026,1.401C474.517,141.646,470.98,140.34,468.886,138.735z"/>
			<path fill="#58595B" d="M468.246,138.653c-0.203-1.237-0.707-2.57-1.469-3.917h0.83c0.639,1.238,1.102,2.517,1.319,3.809
				c0.014,0.067,0,0.136-0.041,0.19c-0.027-0.014-0.068-0.041-0.095-0.068c-0.15-0.108-0.354-0.081-0.477,0.068
				c-0.014,0.014-0.014,0.027-0.027,0.041C468.273,138.735,468.26,138.694,468.246,138.653z"/>
			<path fill="#F6881F" d="M462.194,83.081h1.374c2.094,1.17,4.257,2.026,6.311,2.843c3.767,1.51,7.344,2.924,9.602,5.943h-0.856
				c-2.149-2.57-5.346-3.849-9.004-5.304C467.199,85.598,464.656,84.591,462.194,83.081z"/>
			<path fill="#F6881F" d="M467.607,134.736c-1.197-2.298-3.047-4.447-5.25-6.352h19.489c-0.271,2.285-0.639,4.447-1.115,6.352
				H467.607z"/>
			<path fill="#F6881F" d="M462.357,128.385c2.203,1.904,4.053,4.054,5.25,6.352h-0.83c-1.21-2.162-3.073-4.379-5.453-6.352H462.357
				z"/>
			<path fill="#58595B" d="M457.162,79.001h0.952c1.7,1.741,3.55,3.033,5.454,4.08h-1.374
				C460.439,82.021,458.739,80.715,457.162,79.001z"/>
			<path fill="#F6881F" d="M453.463,72.936c0.177-0.055,0.258-0.259,0.19-0.436l-0.027-0.055c0.014,0.014,0.027,0.014,0.027,0.027
				c1.278,2.721,2.802,4.828,4.461,6.528h-0.952c-1.51-1.632-2.91-3.645-4.094-6.161c0.068,0.082,0.177,0.123,0.271,0.123
				C453.381,72.963,453.422,72.963,453.463,72.936z"/>
			<path d="M453.027,72.745c0.014,0.041,0.027,0.067,0.041,0.095c-0.014-0.027-0.027-0.04-0.041-0.067
				C453.027,72.759,453.027,72.759,453.027,72.745z"/>
			<path fill="#F6881F" d="M453.653,72.5c0.067,0.177-0.014,0.381-0.19,0.436c-0.041,0.027-0.082,0.027-0.123,0.027
				c-0.095,0-0.203-0.041-0.271-0.123c-0.014-0.027-0.027-0.054-0.041-0.095c-0.014-0.014-0.014-0.027-0.014-0.041
				c-0.041-0.163,0.041-0.326,0.177-0.395c0.163-0.067,0.354-0.014,0.436,0.136L453.653,72.5z"/>
			<path fill="#F6881F" d="M452.538,69.44l1.088,3.005c-0.082-0.149-0.272-0.203-0.436-0.136c-0.136,0.068-0.218,0.231-0.177,0.395
				l-1.196-3.264h0.707H452.538z"/>
			<polygon fill="#58595B" points="450.824,66.72 451.531,66.72 452.524,69.44 451.817,69.44 			"/>
			<polygon fill="#F6881F" points="447.396,55.404 451.531,66.72 450.824,66.72 446.662,55.404 447.383,55.404 			"/>
			<polygon fill="#58595B" points="446.894,54.044 447.383,55.404 446.662,55.404 446.173,54.044 			"/>
			<path fill="#FDED18" d="M452.103,128.385H434.83c2.665-1.088,5.59-1.7,8.636-1.7
				C446.526,126.685,449.437,127.297,452.103,128.385z"/>
			<path fill="#58595B" d="M443.099,120.932v-1.387h39.36c-0.081,3.032-0.271,6.038-0.612,8.84h-19.489
				c-3.604-3.101-8.16-5.48-12.336-6.568C448.158,121.326,445.792,120.932,443.099,120.932z"/>
			<polygon fill="#F6881F" points="446.173,54.044 443.059,45.544 443.779,45.544 446.894,54.044 			"/>
			<polygon fill="#58595B" points="443.534,44.863 443.779,45.544 443.059,45.544 442.8,44.863 443.521,44.863 			"/>
			<path fill="#F6881F" d="M441.943,79.001l-3.687-9.561h13.561l1.196,3.264c0,0.014,0,0.027,0.014,0.041c0,0.014,0,0.014,0,0.027
				c0.014,0.027,0.027,0.04,0.041,0.067c1.184,2.517,2.584,4.529,4.094,6.161H441.943z"/>
			<polygon fill="#F6881F" points="438.257,69.44 441.943,79.001 441.576,79.001 437.903,69.44 			"/>
			<polygon fill="#F6881F" points="441.222,79.001 437.536,69.44 437.903,69.44 441.576,79.001 			"/>
			<path fill="#F6881F" d="M440.95,39.805c0.041,0.136,0.177,0.217,0.312,0.217c0.041,0,0.082-0.013,0.123-0.026
				c0.177-0.068,0.258-0.259,0.19-0.436c-0.123-0.34-0.259-0.667-0.395-0.966c0.04,0.027,0.081,0.068,0.095,0.122l2.244,6.147H442.8
				L440.95,39.805z"/>
			<path fill="#F6881F" d="M441.263,40.021c-0.136,0-0.271-0.081-0.312-0.217c-0.014-0.027-0.027-0.055-0.041-0.082l-0.271-0.762
				c-0.068-0.177,0.026-0.381,0.19-0.448c0.122-0.041,0.258-0.014,0.34,0.067c0,0,0,0,0.014,0.014
				c0.136,0.299,0.271,0.626,0.395,0.966c0.067,0.177-0.014,0.367-0.19,0.436C441.345,40.009,441.304,40.021,441.263,40.021z"/>
			<path fill="#F6881F" d="M394.939,44.863H259.138v-0.843V42.43c0-0.055-0.014-0.096-0.027-0.137
				c-0.014-3.563-0.068-5.794,1.196-7.1c1.265-1.292,3.903-1.795,9.426-1.795h160.038c5.645,0,9.099,1.007,11.139,6.324
				c0.014,0.027,0.027,0.055,0.041,0.082l1.85,5.059h-14.607c-0.965-1.061-2.135-1.632-3.413-1.632h-26.616
				C396.884,43.231,395.729,43.857,394.939,44.863z"/>
			<path fill="#58595B" d="M462.194,83.081h-29.541V82.47c4.488,0,7.604-0.367,9.208-1.075c0.259-0.054,0.449-0.217,0.53-0.448
				c0.19-0.449-0.041-1.007-0.163-1.197l-0.285-0.748h15.219C458.739,80.715,460.439,82.021,462.194,83.081z"/>
			<polygon fill="#58595B" points="438.257,69.44 437.21,66.72 450.824,66.72 451.817,69.44 			"/>
			<polygon fill="#58595B" points="437.21,66.72 438.257,69.44 437.903,69.44 436.856,66.72 			"/>
			<polygon fill="#58595B" points="437.536,69.44 436.489,66.72 436.856,66.72 437.903,69.44 			"/>
			<polygon fill="#F6881F" points="437.21,66.72 432.857,55.404 446.662,55.404 450.824,66.72 			"/>
			<polygon fill="#F6881F" points="432.857,55.404 437.21,66.72 436.856,66.72 432.49,55.404 			"/>
			<polygon fill="#58595B" points="432.857,55.404 432.327,54.044 446.173,54.044 446.662,55.404 			"/>
			<polygon fill="#58595B" points="432.327,54.044 432.857,55.404 432.49,55.404 431.974,54.044 			"/>
			<polygon fill="#F6881F" points="432.49,55.404 436.856,66.72 436.489,66.72 432.137,55.404 			"/>
			<polygon fill="#58595B" points="431.974,54.044 432.49,55.404 432.137,55.404 431.606,54.044 			"/>
			<path fill="#F6881F" d="M440.909,39.723c-2.04-5.317-5.494-6.324-11.139-6.324c0.19,0,0.34-0.149,0.34-0.34
				s-0.149-0.34-0.34-0.34c5.481,0,9.181,0.979,11.397,5.861c-0.082-0.081-0.218-0.108-0.34-0.067
				c-0.164,0.067-0.259,0.271-0.19,0.448L440.909,39.723z"/>
			<circle fill="#F6881F" cx="429.771" cy="33.059" r="0.34"/>
			<path fill="#F6881F" d="M429.934,47.829l2.394,6.215h-0.354l-2.353-6.093c-0.34-0.897-0.775-1.728-1.306-2.407h0.435
				C429.199,46.183,429.607,46.944,429.934,47.829z"/>
			<path fill="#F6881F" d="M432.327,54.044l-2.394-6.215c-0.326-0.885-0.734-1.646-1.184-2.285h14.309l3.114,8.5H432.327z"/>
			<path fill="#58595B" d="M428.75,45.544c-0.177-0.245-0.367-0.477-0.558-0.681H442.8l0.259,0.681H428.75z"/>
			<path fill="#58595B" d="M428.315,45.544c-0.19-0.245-0.395-0.477-0.612-0.681h0.489c0.19,0.204,0.381,0.436,0.558,0.681H428.315z
				"/>
			<path fill="#F6881F" d="M429.308,48.073c-0.381-1.02-0.87-1.877-1.414-2.529h0.422c0.53,0.68,0.966,1.51,1.306,2.407l2.353,6.093
				h-0.367L429.308,48.073z"/>
			<path fill="#58595B" d="M427.214,44.863h0.489c0.218,0.204,0.422,0.436,0.612,0.681h-0.422
				C427.676,45.285,427.444,45.054,427.214,44.863z"/>
			<path fill="#FDED18" d="M426.058,134.736c2.366-2.761,5.358-4.95,8.772-6.352h17.272c3.428,1.401,6.42,3.591,8.786,6.352H426.058
				z"/>
			<path fill="#58595B" d="M449.845,122.469c-5.358-1.388-14.893-2.067-24.631,5.916h-1.088c6.801-5.834,13.56-7.453,18.973-7.453
				c2.693,0,5.06,0.395,6.923,0.885c4.176,1.088,8.731,3.468,12.336,6.568h-1.033C458.25,125.814,454.319,123.625,449.845,122.469z"
				/>
			<path fill="#FDED18" d="M464.874,141.537h-42.802c0.938-2.503,2.285-4.802,3.985-6.801h34.831
				C462.589,136.735,463.936,139.034,464.874,141.537z"/>
			<path fill="#FDED18" d="M422.072,141.537h42.802c0.938,2.502,1.482,5.195,1.482,8.024c0,12.635-10.255,22.876-22.891,22.876
				c-12.635,0-22.876-10.241-22.876-22.876C420.59,146.732,421.134,144.039,422.072,141.537z"/>
			<path fill="#F6881F" d="M425.214,128.385c-2.08,1.7-4.161,3.795-6.215,6.352h-0.871c0.096-0.122,0.19-0.245,0.3-0.381
				c1.891-2.366,3.794-4.338,5.698-5.971H425.214z"/>
			<path fill="#58595B" d="M417.544,136.776c-1.633,2.53-2.544,3.917-10.663,3.917c-0.041,0-0.068,0-0.109-0.027
				c0.123-0.04,0.218-0.163,0.218-0.312c0-0.136-0.081-0.259-0.204-0.312c0.027-0.027,0.068-0.027,0.096-0.027
				c7.752,0,8.541-1.211,10.092-3.604c0.326-0.489,0.693-1.061,1.155-1.673h0.871c-0.014,0.014-0.027,0.041-0.041,0.055
				C418.373,135.512,417.938,136.191,417.544,136.776z"/>
			<path fill="#58595B" d="M406.771,140.666c-0.136-0.04-0.23-0.163-0.23-0.312c0-0.136,0.081-0.259,0.203-0.312
				c0.014-0.014,0.027,0,0.041,0c0.123,0.054,0.204,0.177,0.204,0.312C406.989,140.503,406.895,140.626,406.771,140.666z"/>
			<path fill="#F6881F" d="M424.779,43.912h-26.616c-0.871,0-1.687,0.354-2.312,0.951h-0.477c0.722-0.802,1.7-1.292,2.789-1.292
				h26.616c1.115,0,2.107,0.49,2.924,1.292h-0.489C426.479,44.238,425.649,43.912,424.779,43.912z"/>
			<path fill="#58595B" d="M398.163,81.559h26.616c0.326,0,0.925,0.026,1.714,0.054c1.509,0.068,3.794,0.177,6.16,0.177
				c4.394,0,7.413-0.354,8.99-1.033c0.109-0.027,0.123-0.055,0.123-0.068c0.054-0.136-0.027-0.462-0.137-0.639l-0.408-1.048h0.354
				l0.34,0.871c0.19,0.312,0.408,1.061-0.137,1.196c-3.957,1.714-15.15,0.83-17,0.83h-26.616c-1.7,0-3.129-1.197-3.714-2.897h0.354
				C395.374,80.511,396.667,81.559,398.163,81.559z"/>
			<path fill="#58595B" d="M395.851,44.863c-0.218,0.204-0.408,0.436-0.571,0.681h-0.408c0.149-0.245,0.313-0.477,0.503-0.681
				H395.851z"/>
			<path fill="#F6881F" d="M394.939,44.863c0.789-1.006,1.944-1.632,3.224-1.632h26.616c1.278,0,2.448,0.571,3.413,1.632h-0.489
				c-0.816-0.802-1.809-1.292-2.924-1.292h-26.616c-1.089,0-2.067,0.49-2.789,1.292H394.939z"/>
			<path fill="#58595B" d="M395.374,44.863c-0.189,0.204-0.354,0.436-0.503,0.681h-0.381c0.123-0.245,0.272-0.477,0.449-0.681
				H395.374z"/>
			<path fill="#58595B" d="M432.653,83.081H259.138v-4.08h134.944c0.612,1.891,2.204,3.237,4.081,3.237h26.616
				c0.312,0,0.911,0.027,1.687,0.055c1.522,0.067,3.808,0.177,6.188,0.177V83.081z"/>
			<path fill="#58595B" d="M394.49,45.544H259.138v-0.681h135.802C394.763,45.067,394.613,45.299,394.49,45.544z"/>
			<path fill="#F6881F" d="M394.164,48.142c0-0.966,0.259-1.863,0.707-2.598h0.408c-0.489,0.721-0.775,1.618-0.775,2.598v5.902
				h-0.34V48.142z"/>
			<rect x="394.164" y="66.72" fill="#58595B" width="0.34" height="2.721"/>
			<rect x="394.164" y="55.404" fill="#F6881F" width="0.34" height="11.315"/>
			<rect x="394.164" y="54.044" fill="#58595B" width="0.34" height="1.36"/>
			<path fill="#F6881F" d="M394.164,77.314V69.44h0.34v7.874c0,0.599,0.109,1.17,0.3,1.687h-0.354
				C394.259,78.484,394.164,77.913,394.164,77.314z"/>
			<path fill="#58595B" d="M398.163,81.898h26.616c1.85,0,13.043,0.884,17-0.83c0.545-0.136,0.327-0.884,0.137-1.196l-0.34-0.871
				h0.367l0.285,0.748c0.122,0.19,0.354,0.748,0.163,1.197c-0.081,0.231-0.271,0.395-0.53,0.448
				c-1.604,0.708-4.72,1.075-9.208,1.075c-2.38,0-4.665-0.109-6.188-0.177c-0.775-0.027-1.374-0.055-1.687-0.055h-26.616
				c-1.877,0-3.469-1.347-4.081-3.237h0.367C395.034,80.701,396.463,81.898,398.163,81.898z"/>
			<path fill="#F6881F" d="M394.082,79.001H259.138V69.44h134.687v7.874C393.824,77.913,393.919,78.471,394.082,79.001z"/>
			<path fill="#F6881F" d="M259.138,54.044v-8.5H394.49c-0.422,0.748-0.666,1.646-0.666,2.598v5.902H259.138z"/>
			<path fill="#F6881F" d="M394.164,77.314c0,0.599,0.095,1.17,0.285,1.687h-0.367c-0.163-0.53-0.258-1.088-0.258-1.687V69.44h0.34
				V77.314z"/>
			<rect x="393.824" y="66.72" fill="#58595B" width="0.34" height="2.721"/>
			<rect x="393.824" y="55.404" fill="#F6881F" width="0.34" height="11.315"/>
			<rect x="393.824" y="54.044" fill="#58595B" width="0.34" height="1.36"/>
			<path fill="#F6881F" d="M394.164,48.142v5.902h-0.34v-5.902c0-0.952,0.244-1.85,0.666-2.598h0.381
				C394.423,46.278,394.164,47.176,394.164,48.142z"/>
			<rect x="259.138" y="66.72" fill="#58595B" width="134.687" height="2.721"/>
			<rect x="259.138" y="55.404" fill="#F6881F" width="134.687" height="11.315"/>
			<rect x="259.138" y="54.044" fill="#58595B" width="134.687" height="1.36"/>
			<path fill="#58595B" d="M406.541,140.354c0,0.149,0.095,0.272,0.23,0.312c-0.04,0.014-0.081,0.027-0.122,0.027h-72.083
				c0.19,0,0.34-0.149,0.34-0.34s-0.149-0.34-0.34-0.34h72.083c0.027,0,0.068,0,0.095,0.027
				C406.622,140.095,406.541,140.218,406.541,140.354z"/>
			<circle fill="#58595B" cx="334.566" cy="140.354" r="0.34"/>
			<path fill="#58595B" d="M416.973,136.409c-1.551,2.394-2.34,3.604-10.092,3.604c-0.027,0-0.068,0-0.096,0.027
				c-0.014,0-0.027-0.014-0.041,0c-0.026-0.027-0.067-0.027-0.095-0.027h-72.083h-1.592c-6.161,0.041-6.242,0.027-9.819-5.277
				h94.973C417.666,135.349,417.299,135.92,416.973,136.409z"/>
			<path fill="#58595B" d="M332.975,140.693c-6.555,0.055-6.65-0.027-10.526-5.794c-0.041-0.054-0.068-0.108-0.109-0.163h0.816
				c3.577,5.305,3.658,5.318,9.819,5.277h1.592c-0.19,0-0.34,0.149-0.34,0.34s0.149,0.34,0.34,0.34H332.975z"/>
			<path fill="#F6881F" d="M424.126,128.385c-1.904,1.633-3.808,3.604-5.698,5.971c-0.109,0.136-0.204,0.259-0.3,0.381h-94.973
				c-0.055-0.067-0.095-0.136-0.149-0.218c-0.64-0.952-1.388-2.067-2.285-3.359c-0.68-0.992-1.414-1.917-2.203-2.774H424.126z"/>
			<path fill="#F6881F" d="M320.721,131.159c0.897,1.292,1.646,2.407,2.285,3.359c0.055,0.082,0.095,0.15,0.149,0.218h-0.816
				c-0.611-0.911-1.332-1.972-2.176-3.196c-0.789-1.143-1.646-2.203-2.57-3.155h0.925
				C319.307,129.242,320.041,130.167,320.721,131.159z"/>
			<path fill="#FDED18" d="M298.851,126.101c3.563,0,6.923,0.829,9.929,2.284h-19.856
				C291.929,126.93,295.288,126.101,298.851,126.101z"/>
			<path fill="#58595B" d="M443.099,120.932c-5.413,0-12.172,1.619-18.973,7.453H318.518c-4.583-5.1-10.69-7.725-17.912-7.725
				v-1.115h142.493V120.932z"/>
			<path fill="#58595B" d="M297.763,121.476c-8.174,0.762-13.165,3.292-17.15,6.909h-1.02c4.161-3.971,9.344-6.772,18.116-7.589
				c0.979-0.095,1.944-0.136,2.896-0.136c7.222,0,13.329,2.625,17.912,7.725h-0.925
				C312.588,123.108,305.801,120.714,297.763,121.476z"/>
			<path fill="#FDED18" d="M280.952,134.736c2.136-2.666,4.855-4.842,7.971-6.352h19.856c3.114,1.51,5.835,3.686,7.97,6.352H280.952
				z"/>
			<path fill="#FDED18" d="M277.226,141.537c0.857-2.489,2.122-4.774,3.727-6.801h35.797c1.605,2.026,2.87,4.312,3.727,6.801
				H277.226z"/>
			<path fill="#FDED18" d="M277.226,141.537h43.25c0.803,2.339,1.252,4.828,1.252,7.439c0,12.635-10.241,22.876-22.877,22.876
				c-12.635,0-22.876-10.241-22.876-22.876C275.975,146.365,276.438,143.876,277.226,141.537z"/>
			<path fill="#F6881F" d="M274.07,134.736c1.796-2.325,3.536-4.475,5.522-6.352h1.02c-2.067,1.85-3.849,4.013-5.685,6.352H274.07z"
				/>
			<path fill="#F6881F" d="M429.431,33.059c0,0.19,0.149,0.34,0.34,0.34H269.732c0.19,0,0.34-0.149,0.34-0.34s-0.149-0.34-0.34-0.34
				h160.038C429.58,32.719,429.431,32.868,429.431,33.059z"/>
			<circle fill="#F6881F" cx="269.732" cy="33.059" r="0.34"/>
			<path fill="#F6881F" d="M259.138,44.863h-0.681v-0.843c0,0.19,0.149,0.34,0.34,0.34s0.341-0.163,0.341-0.34V44.863z"/>
			<rect x="258.457" y="111.67" fill="#F6881F" width="0.681" height="7.875"/>
			<rect x="258.457" y="104.869" fill="#58595B" width="0.681" height="6.801"/>
			<rect x="258.457" y="97.308" fill="#F6881F" width="0.681" height="7.562"/>
			<rect x="258.457" y="91.867" fill="#58595B" width="0.681" height="5.44"/>
			<rect x="258.457" y="83.081" fill="#F6881F" width="0.681" height="8.786"/>
			<rect x="258.457" y="79.001" fill="#58595B" width="0.681" height="4.08"/>
			<rect x="258.457" y="69.44" fill="#F6881F" width="0.681" height="9.561"/>
			<rect x="258.457" y="66.72" fill="#58595B" width="0.681" height="2.721"/>
			<rect x="258.457" y="55.404" fill="#F6881F" width="0.681" height="11.315"/>
			<rect x="258.457" y="54.044" fill="#58595B" width="0.681" height="1.36"/>
			<rect x="258.457" y="45.544" fill="#F6881F" width="0.681" height="8.5"/>
			<rect x="258.457" y="44.863" fill="#58595B" width="0.681" height="0.681"/>
			<path d="M259.138,44.021l-0.027-1.319c0-0.136,0-0.271,0-0.408c0.014,0.041,0.027,0.082,0.027,0.137V44.021z"/>
			<path fill="#F6881F" d="M258.457,44.021V42.43c0-0.19,0.149-0.341,0.34-0.341c0.15,0,0.259,0.082,0.313,0.204
				c0,0.137,0,0.272,0,0.408l0.027,1.319c0,0.177-0.15,0.34-0.341,0.34S258.457,44.211,258.457,44.021z"/>
			<path fill="#F6881F" d="M259.11,128.725c0.054-0.122,0.04-0.244-0.041-0.34h20.523c-1.986,1.877-3.727,4.026-5.522,6.352h-17.653
				C257.138,132.846,258.145,130.725,259.11,128.725z"/>
			<path fill="#58595B" d="M259.069,128.385c0-0.014-0.014-0.027-0.027-0.041c0.068-0.067,0.096-0.136,0.096-0.23v-8.568h41.468
				v1.115c-0.952,0-1.918,0.041-2.896,0.136c-8.772,0.816-13.955,3.618-18.116,7.589H259.069z"/>
			<path fill="#58595B" d="M259.042,128.344c0.014,0.014,0.027,0.027,0.027,0.041h-0.068
				C259.015,128.371,259.042,128.357,259.042,128.344z"/>
			<path fill="#58595B" d="M259.001,128.385h-0.408c-0.013-0.014-0.026-0.014-0.04-0.027c0.095-0.122,0.258-0.149,0.395-0.095
				c0.04,0.014,0.081,0.041,0.095,0.081C259.042,128.357,259.015,128.371,259.001,128.385z"/>
			<path fill="#58595B" d="M258.593,128.385h0.408c-0.054,0.041-0.122,0.068-0.204,0.068
				C258.716,128.453,258.647,128.426,258.593,128.385z"/>
			<path fill="#58595B" d="M258.553,128.357c-0.055-0.067-0.096-0.149-0.096-0.244v-8.568h0.681v8.568
				c0,0.095-0.027,0.163-0.096,0.23c-0.014-0.04-0.055-0.067-0.095-0.081C258.811,128.208,258.647,128.235,258.553,128.357z"/>
			<path fill="#58595B" d="M258.593,128.385h-0.067c0-0.027,0.014-0.027,0.027-0.027
				C258.566,128.371,258.58,128.371,258.593,128.385z"/>
			<path fill="#F6881F" d="M269.732,33.398c-5.522,0-8.161,0.503-9.426,1.795c-1.265,1.306-1.21,3.536-1.196,7.1
				c-0.055-0.122-0.163-0.204-0.313-0.204c-0.19,0-0.34,0.15-0.34,0.341v1.591l-0.027-1.306c-0.081-3.876-0.136-6.433,1.388-7.997
				c1.428-1.455,4.121-1.999,9.915-1.999c-0.19,0-0.34,0.149-0.34,0.34S269.542,33.398,269.732,33.398z"/>
			<path fill="#58595B" d="M256.757,141.537h7.249c-1.196,0.285-2.394,0.462-3.481,0.517c-0.218,0-0.436,0.014-0.652,0.014
				C258.647,142.067,257.601,141.891,256.757,141.537z"/>
			<path fill="#F6881F" d="M258.797,128.453c0.082,0,0.15-0.027,0.204-0.068h0.068c0.081,0.096,0.095,0.218,0.041,0.34
				c-0.966,2-1.973,4.121-2.693,6.012h-0.734c0.667-1.781,1.646-3.89,2.802-6.311c0.014-0.014,0.027-0.041,0.041-0.041h0.067
				C258.647,128.426,258.716,128.453,258.797,128.453z"/>
			<path fill="#58595B" d="M255.818,140.122c-0.815-0.87-0.354-2.924,0.599-5.386h17.653c-0.448,0.558-0.884,1.143-1.332,1.728
				l-0.068,0.095c-1.51,1.973-7.426,4.584-12.173,4.815C258.28,141.482,256.676,141.047,255.818,140.122z"/>
			<path fill="#58595B" d="M255.329,140.585c-0.993-1.062-0.707-3.047,0.354-5.849h0.734c-0.952,2.462-1.414,4.516-0.599,5.386
				c0.857,0.925,2.462,1.36,4.679,1.252c4.747-0.231,10.663-2.843,12.173-4.815l0.068-0.095c0.448-0.585,0.884-1.17,1.332-1.728
				h0.857c-0.544,0.707-1.088,1.415-1.646,2.149l-0.068,0.081c-1.374,1.796-5.345,3.686-9.208,4.57h-7.249
				C256.172,141.306,255.696,140.979,255.329,140.585z"/>
		</g>
		<g>
		</g>
	</g>
	<text transform="matrix(1 0 0 1 291.1318 81.041)" fill="#FFFFFF" font-family="'YikesMedium'" font-size="47.982">food</text>
	<text transform="matrix(1 0 0 1 290.209 116.1113)" fill="#FFFFFF" font-family="'YikesMedium'" font-size="47.982">trucks</text>
	<g>
		<g id="XMLID_6_">
			<g>
				<path fill="#FFFFFF" d="M260.382,70.436c2.87,6.671,4.301,13.811,4.301,21.41c0,7.61-1.431,14.75-4.301,21.42
					s-6.819,12.521-11.84,17.54c-5.02,5.021-10.87,8.971-17.54,11.841c-6.67,2.869-13.81,4.3-21.42,4.3
					c-7.6,0-14.74-1.431-21.41-4.3c-6.67-2.87-12.52-6.82-17.54-11.841c-5.02-5.02-8.97-10.87-11.84-17.54s-4.3-13.81-4.3-21.42
					c0-7.6,1.43-14.739,4.3-21.41c2.87-6.67,6.82-12.52,11.84-17.539c5.021-5.021,10.87-8.971,17.54-11.841s13.811-4.3,21.41-4.3
					c7.61,0,14.75,1.43,21.42,4.3s12.521,6.82,17.54,11.841C253.562,57.916,257.512,63.766,260.382,70.436z M259.092,91.846
					c0-6.88-1.3-13.3-3.88-19.26c-2.58-5.95-6.13-11.189-10.649-15.71c-4.521-4.52-9.761-8.07-15.71-10.65
					c-5.96-2.59-12.381-3.88-19.271-3.88c-6.88,0-13.31,1.29-19.26,3.88c-5.95,2.58-11.19,6.131-15.71,10.65
					c-4.521,4.521-8.07,9.76-10.65,15.71c-2.59,5.96-3.88,12.38-3.88,19.26c0,6.891,1.29,13.311,3.88,19.271
					c2.58,5.95,6.13,11.189,10.65,15.71c4.52,4.52,9.76,8.07,15.71,10.649c5.95,2.58,12.38,3.87,19.26,3.87
					c6.89,0,13.311-1.29,19.271-3.87c5.949-2.579,11.189-6.13,15.71-10.649c4.52-4.521,8.069-9.76,10.649-15.71
					C257.792,105.156,259.092,98.736,259.092,91.846z"/>
				<path d="M278.992,62.576c3.95,9.189,5.92,18.939,5.92,29.27s-1.97,20.09-5.92,29.271c-3.94,9.189-9.32,17.189-16.14,24
					c-6.811,6.819-14.811,12.2-23.99,16.14c-9.19,3.95-18.94,5.92-29.28,5.92c-10.33,0-20.09-1.97-29.27-5.92
					c-9.181-3.939-17.181-9.32-23.99-16.14c-6.82-6.811-12.2-14.811-16.14-24c-3.95-9.181-5.921-18.94-5.921-29.271
					s1.971-20.08,5.921-29.27c3.939-9.18,9.319-17.18,16.14-23.99c6.81-6.82,14.81-12.2,23.99-16.15
					c9.18-3.939,18.939-5.92,29.27-5.92c10.34,0,20.09,1.98,29.28,5.92c9.18,3.95,17.18,9.33,23.99,16.15
					C269.672,45.396,275.052,53.396,278.992,62.576z M264.683,91.846c0-7.6-1.431-14.739-4.301-21.41
					c-2.87-6.67-6.819-12.52-11.84-17.539c-5.02-5.021-10.87-8.971-17.54-11.841s-13.81-4.3-21.42-4.3c-7.6,0-14.74,1.43-21.41,4.3
					s-12.52,6.82-17.54,11.841c-5.02,5.02-8.97,10.869-11.84,17.539c-2.87,6.671-4.3,13.811-4.3,21.41c0,7.61,1.43,14.75,4.3,21.42
					s6.82,12.521,11.84,17.54c5.021,5.021,10.87,8.971,17.54,11.841c6.67,2.869,13.811,4.3,21.41,4.3c7.61,0,14.75-1.431,21.42-4.3
					c6.67-2.87,12.521-6.82,17.54-11.841c5.021-5.02,8.97-10.87,11.84-17.54S264.683,99.456,264.683,91.846z"/>
				<path d="M255.212,72.586c2.58,5.96,3.88,12.38,3.88,19.26c0,6.891-1.3,13.311-3.88,19.271c-2.58,5.95-6.13,11.189-10.649,15.71
					c-4.521,4.52-9.761,8.07-15.71,10.649c-5.96,2.58-12.381,3.87-19.271,3.87c-6.88,0-13.31-1.29-19.26-3.87
					c-5.95-2.579-11.19-6.13-15.71-10.649c-4.521-4.521-8.07-9.76-10.65-15.71c-2.59-5.96-3.88-12.38-3.88-19.271
					c0-6.88,1.29-13.3,3.88-19.26c2.58-5.95,6.13-11.189,10.65-15.71c4.52-4.52,9.76-8.07,15.71-10.65
					c5.95-2.59,12.38-3.88,19.26-3.88c6.89,0,13.311,1.29,19.271,3.88c5.949,2.58,11.189,6.131,15.71,10.65
					C249.082,61.396,252.632,66.636,255.212,72.586z M239.722,91.846c0-4.16-0.789-8.069-2.369-11.729s-3.73-6.851-6.46-9.57
					c-2.73-2.729-5.921-4.88-9.58-6.46c-3.65-1.58-7.57-2.37-11.73-2.37s-8.07,0.79-11.72,2.37c-3.66,1.58-6.86,3.73-9.58,6.46
					c-2.73,2.72-4.88,5.91-6.46,9.57s-2.37,7.569-2.37,11.729c0,4.17,0.79,8.07,2.37,11.73s3.729,6.859,6.46,9.58
					c2.72,2.729,5.92,4.88,9.58,6.46c3.649,1.58,7.56,2.359,11.72,2.359s8.08-0.779,11.73-2.359c3.659-1.58,6.85-3.73,9.58-6.46
					c2.729-2.721,4.88-5.92,6.46-9.58S239.722,96.016,239.722,91.846z"/>
				<path d="M122.422,110.786l22.601,39.82c-3.88,3.159-8.471,5.949-13.78,8.39c-4.59,2.01-10.11,3.88-16.57,5.6
					c-6.46,1.721-13.85,2.58-22.17,2.58c-11.189,0-21.52-1.83-30.99-5.49c-9.47-3.659-17.649-8.779-24.529-15.39
					c-6.891-6.59-12.271-14.52-16.15-23.78c-3.87-9.25-5.81-19.479-5.81-30.67c0-11.47,2.01-21.84,6.029-31.1
					c4.011-9.25,9.471-17.18,16.36-23.78c6.88-6.6,14.92-11.66,24.1-15.17c9.181-3.52,18.94-5.28,29.271-5.28
					c8.18,0,15.46,0.79,21.85,2.37c6.38,1.58,11.87,3.37,16.46,5.38c5.311,2.301,9.9,4.811,13.78,7.54l-22.6,39.811
					c-2.301-1.72-4.811-3.37-7.54-4.95c-2.44-1.15-5.34-2.26-8.71-3.33c-3.38-1.08-7.21-1.62-11.521-1.62
					c-4.45,0-8.54,0.79-12.26,2.37c-3.74,1.58-7,3.73-9.8,6.46c-2.8,2.72-4.99,5.91-6.561,9.57c-1.58,3.66-2.37,7.569-2.37,11.729
					c0,4.17,0.82,8.07,2.48,11.73c1.64,3.66,3.9,6.859,6.78,9.58c2.859,2.729,6.239,4.88,10.109,6.46s8.11,2.359,12.7,2.359
					s8.68-0.569,12.271-1.72c3.58-1.14,6.6-2.439,9.04-3.87C117.752,114.806,120.272,112.936,122.422,110.786z M120.912,140.056
					l-3.01-5.159c-1.87,1.289-4.021,2.359-6.46,3.229c-2.15,0.86-4.73,1.61-7.75,2.26c-3.01,0.641-6.53,0.96-10.54,0.96
					c-7.891,0-15-1.29-21.311-3.87c-6.31-2.579-11.659-6.1-16.029-10.55c-4.38-4.439-7.75-9.68-10.12-15.71
					c-2.37-6.02-3.55-12.479-3.55-19.37c0-6.88,1.18-13.34,3.55-19.37c2.37-6.02,5.71-11.26,10.01-15.71
					c4.3-4.439,9.54-7.96,15.71-10.54c6.17-2.59,13.06-3.88,20.66-3.88c3.729,0,7.07,0.25,10.01,0.75
					c2.94,0.511,5.41,1.12,7.43,1.83c2.431,0.721,4.521,1.58,6.24,2.59l3.01-5.17c-2.3-1-4.729-1.939-7.319-2.8
					c-2.44-0.71-5.24-1.36-8.391-1.93c-3.159-0.58-6.819-0.86-10.979-0.86c-7.32,0-14.311,1.29-20.98,3.87s-12.56,6.28-17.649,11.08
					c-5.101,4.81-9.181,10.62-12.271,17.44c-3.09,6.81-4.63,14.38-4.63,22.699c0,8.471,1.47,16.07,4.42,22.82
					c2.94,6.74,6.99,12.52,12.16,17.32c5.16,4.81,11.19,8.5,18.08,11.09c6.88,2.58,14.2,3.87,21.95,3.87c4.3,0,8.18-0.36,11.62-1.08
					c3.439-0.71,6.38-1.5,8.819-2.36C116.322,142.496,118.762,141.346,120.912,140.056z"/>
			</g>
			<g>
			</g>
		</g>
	</g>
</g>
<g id="Layer_2" display="none">
	<g display="inline" opacity="0.7">
		<g>
			<path fill-rule="evenodd" clip-rule="evenodd" d="M-818.112-135.683c20.323,0,40.646,0.073,60.969-0.072
				c3.338-0.024,5.051,0.887,6.151,4.191c2.835,8.505,5.915,16.938,9.273,25.25c0.901,2.229,2.819,4.409,4.842,5.751
				c4.964,3.293,12.237,4.924,14.867,9.404c2.634,4.487,0.79,11.617,0.861,17.59c0.046,3.831,0.235,7.682-0.091,11.486
				c-0.158,1.854-1.088,4.971-2.119,5.168c-2.756,0.529-5.846,1.42-7.871-2.737c-4.307-8.845-12.814-12.731-22.432-11.021
				c-6.464,1.148-11.416,4.732-14.276,10.588c-1.414,2.895-3.12,3.574-6.13,3.552c-18.99-0.139-37.98-0.144-56.971,0.002
				c-3.186,0.024-4.953-0.766-6.52-3.769c-3.68-7.057-9.918-10.689-17.869-10.758c-8.14-0.068-14.36,3.608-18.474,10.695
				c-1.812,3.122-10.453,5.476-13.254,3.322c-0.605-0.465-0.404-2.445-0.062-3.572c0.6-1.968,2.304-3.809,2.319-5.713
				c0.172-20.988,0.249-41.979,0.004-62.966c-0.057-4.891,1.059-6.607,6.314-6.523
				C-858.428-135.491-838.269-135.683-818.112-135.683z M-750.341-100.393c-3.24-9.064-6.062-17.355-9.268-25.496
				c-0.469-1.191-2.729-2.292-4.211-2.36c-5.8-0.271-11.622-0.03-17.434-0.143c-3.112-0.061-4.498,0.994-4.399,4.336
				c0.198,6.638,0.221,13.292-0.006,19.928c-0.126,3.673,1.524,4.531,4.778,4.485c8.636-0.123,17.273-0.02,25.91-0.068
				C-753.724-99.717-752.479-100.065-750.341-100.393z"/>
			<path fill-rule="evenodd" clip-rule="evenodd" d="M-855.55-66.771c9.406-0.039,16.901,7.354,16.896,16.666
				c-0.004,9.293-7.508,16.625-16.965,16.576c-9.22-0.047-16.531-7.225-16.677-16.371C-872.442-59.131-864.896-66.733-855.55-66.771
				z M-857.345-44.305c5.466-0.215,7.727-2.204,7.73-5.895c0.003-3.43-2.088-5.541-5.642-5.648
				c-3.859-0.117-6.329,2.268-5.919,5.732C-860.901-47.797-858.358-45.746-857.345-44.305z"/>
			<path fill-rule="evenodd" clip-rule="evenodd" d="M-749.543-33.528c-9.437-0.022-16.899-7.509-16.753-16.805
				c0.145-9.103,7.508-16.37,16.67-16.45c9.412-0.084,16.954,7.289,16.975,16.592C-732.632-40.875-740.102-33.506-749.543-33.528z
				 M-749.288-44.371c3.589-0.287,5.8-2.326,5.667-6.025c-0.122-3.424-2.274-5.432-5.834-5.46c-3.621-0.028-5.726,2.147-5.829,5.476
				C-755.396-46.793-753.288-44.551-749.288-44.371z"/>
		</g>
	</g>
</g>
</svg>
