<?xml version="1.0" encoding="utf-8"?>
<!-- Generator: Adobe Illustrator 16.0.0, SVG Export Plug-In . SVG Version: 6.00 Build 0)  -->
<!DOCTYPE svg PUBLIC "-//W3C//DTD SVG 1.1//EN" "http://www.w3.org/Graphics/SVG/1.1/DTD/svg11.dtd">
<svg version="1.1" xmlns="http://www.w3.org/2000/svg" xmlns:xlink="http://www.w3.org/1999/xlink" x="0px" y="0px"
	 width="270.452px" height="141.333px" viewBox="0 0 270.452 141.333" enable-background="new 0 0 270.452 141.333"
	 xml:space="preserve">
<g id="shapes">
	<rect x="-1464.389" y="-455" fill="#FDED18" width="604.909" height="82.088"/>
	<g id="XMLID_3_" opacity="0.9">
		<g>
			<path fill="#59A8D7" d="M-616.89,232.663c-0.109-6.41-0.62-8.061,8.04-8.061h117.67c4.45,0,6.931,0.931,8.431,4.811
				c0,0.02,0.01,0.04,0.02,0.06l8.88,24.221c5.21,11.01,15.59,8.76,19.4,14.84c2.56,4.3,3.56,27.3-0.36,34.63
				c-1.22,2.28-5.58,1.05-7.83-0.71v-0.25c-1.479-8.75-21.37-22.12-36.689-2.96c-2.25,2.81-1.431,4.25-8.681,4.25h-0.17h-53
				c-6.83,0-5.46,0.46-10.39-6.62c-4.11-5.96-10.12-8.12-16.69-7.51c-10.21,0.949-13.79,5.68-18.229,11.489
				c-1.78,2.33-10.391,5.21-12.771,2.641c-1.14-1.221,0.49-4.73,2.37-8.66v-0.34V232.663z M-482.35,259.903
				c0.4-0.101,0.24-0.65,0.101-0.881l-9.04-23.47c-0.69-1.819-1.931-3.22-3.561-3.22h-19.57c-1.63,0-2.939,1.5-2.939,3.36v21.449
				c0,1.86,1.31,3.37,2.939,3.37h19.57C-493.489,260.513-485.26,261.163-482.35,259.903z"/>
		</g>
		<g>
		</g>
	</g>
	<g id="XMLID_2_">
		<g>
			<path fill="#FDED18" d="M-943.017,288.155h-14.6c2.21-1.07,4.68-1.681,7.3-1.681S-945.227,287.085-943.017,288.155z"/>
			<path fill="#FDED18" d="M-837.637,288.155h-12.699c1.96-0.801,4.1-1.25,6.35-1.25S-839.597,287.354-837.637,288.155z"/>
			<path fill="#F6881F" d="M-814.866,275.865c0.06,1.899,0.069,3.859,0.01,5.79h-0.46c0.05-1.94,0.03-3.9-0.04-5.79H-814.866z"/>
			<path fill="#58595B" d="M-815.316,281.655h0.46c-0.06,2.239-0.21,4.449-0.45,6.5h-0.46
				C-815.517,286.095-815.366,283.885-815.316,281.655z"/>
			<path fill="#58595B" d="M-814.866,275.865h-0.49c-0.07-1.74-0.18-3.431-0.33-5h0.51
				C-815.026,272.445-814.927,274.125-814.866,275.865z"/>
			<path fill="#F6881F" d="M-815.177,270.865h-0.51c-0.21-2.12-0.479-4.03-0.81-5.561h0.52
				C-815.637,266.865-815.366,268.765-815.177,270.865z"/>
			<path fill="#F6881F" d="M-815.356,275.865c0.07,1.89,0.09,3.85,0.04,5.79h-28.94h-104.77h-30.49v-5.79H-815.356z"/>
			<path fill="#F6881F" d="M-815.767,288.155h0.46c-0.2,1.689-0.46,3.279-0.79,4.68h-0.489
				C-816.236,291.425-815.967,289.845-815.767,288.155z"/>
			<path fill="#58595B" d="M-844.257,281.655h28.94c-0.05,2.229-0.2,4.439-0.45,6.5h-14.33c-2.649-2.28-6-4.03-9.069-4.83
				c-1.37-0.36-3.11-0.65-5.091-0.65V281.655z"/>
			<path fill="#58595B" d="M-815.356,275.865h-164.16v-5h163.83C-815.536,272.435-815.427,274.125-815.356,275.865z"/>
			<path fill="#F6881F" d="M-815.687,270.865h-163.83v-5.561h163.021C-816.166,266.835-815.896,268.745-815.687,270.865z"/>
			<path fill="#F6881F" d="M-830.097,288.155h14.33c-0.2,1.689-0.47,3.27-0.819,4.68h-9.65
				C-827.106,291.145-828.477,289.555-830.097,288.155z"/>
			<path fill="#58595B" d="M-815.977,265.305h-0.52c-0.311-1.439-0.66-2.54-1.04-3.18c0.05,0.08,0.13,0.12,0.21,0.12
				c0.05,0,0.09-0.011,0.13-0.04c0.12-0.07,0.16-0.23,0.08-0.34h0.01C-816.677,262.595-816.297,263.785-815.977,265.305z"/>
			<path fill="#58595B" d="M-816.586,292.835h0.489c-0.37,1.56-0.83,2.89-1.37,3.91c-0.27,0.5-0.67,0.859-1.21,1.09h-3.489
				c-1.311-0.36-2.601-1.01-3.5-1.72c-0.101-0.08-0.131-0.21-0.07-0.32c0.06,0.09,0.15,0.14,0.26,0.12
				c0.09-0.021,0.15-0.08,0.18-0.15c1.54,1.181,4.141,2.141,5.9,1.771c0.7-0.15,1.2-0.49,1.49-1.03
				C-817.376,295.515-816.937,294.265-816.586,292.835z"/>
			<path fill="#58595B" d="M-816.496,265.305h-163.021v-4h161.38c0.21,0.25,0.41,0.53,0.601,0.82
				C-817.156,262.765-816.807,263.865-816.496,265.305z"/>
			<path fill="#58595B" d="M-826.236,292.835h9.65c-0.351,1.43-0.79,2.68-1.32,3.67c-0.29,0.54-0.79,0.88-1.49,1.03
				c-1.76,0.37-4.36-0.59-5.9-1.771c0.03-0.04,0.04-0.09,0.03-0.14C-825.427,294.675-825.757,293.745-826.236,292.835z"/>
			<path fill="#58595B" d="M-817.116,261.865c0.08,0.109,0.04,0.27-0.08,0.34c-0.04,0.029-0.08,0.04-0.13,0.04
				c-0.08,0-0.16-0.04-0.21-0.12c-0.07-0.12-0.04-0.271,0.08-0.34c0.109-0.061,0.239-0.051,0.319,0.05
				C-817.126,261.845-817.126,261.854-817.116,261.865z"/>
			<path fill="#58595B" d="M-817.137,261.835c-0.08-0.101-0.21-0.11-0.319-0.05c-0.12,0.069-0.15,0.22-0.08,0.34
				c-0.19-0.29-0.391-0.57-0.601-0.82h0.63C-817.376,261.475-817.257,261.655-817.137,261.835z"/>
			<path fill="#F6881F" d="M-817.507,261.305h-0.63c-1.58-1.89-3.939-2.83-6.62-3.899c-1.779-0.71-3.659-1.46-5.46-2.561h1.011
				c1.54,0.86,3.13,1.49,4.64,2.09C-821.797,258.045-819.166,259.085-817.507,261.305z"/>
			<path fill="#F6881F" d="M-818.137,261.305h-161.38v-6.46h127.58h21.72c1.801,1.101,3.681,1.851,5.46,2.561
				C-822.076,258.475-819.717,259.415-818.137,261.305z"/>
			<path fill="#58595B" d="M-822.166,297.835h3.489c-0.18,0.08-0.39,0.14-0.609,0.189c-0.311,0.07-0.62,0.091-0.95,0.091
				C-820.856,298.115-821.517,298.005-822.166,297.835z"/>
			<path fill="#58595B" d="M-825.267,295.625c0.01,0.05,0,0.1-0.03,0.14c-0.02-0.01-0.05-0.03-0.069-0.05
				c-0.11-0.08-0.26-0.06-0.351,0.05c-0.01,0.01-0.01,0.021-0.02,0.03c-0.01-0.03-0.021-0.061-0.03-0.09
				c-0.149-0.9-0.52-1.88-1.08-2.87h0.61C-825.757,293.745-825.427,294.675-825.267,295.625z"/>
			<path fill="#58595B" d="M-825.366,295.715c0.02,0.02,0.05,0.04,0.069,0.05c-0.029,0.07-0.09,0.13-0.18,0.15
				c-0.109,0.02-0.2-0.03-0.26-0.12c0.01-0.01,0.01-0.021,0.02-0.03C-825.626,295.655-825.477,295.635-825.366,295.715z"/>
			<path fill="#F6881F" d="M-826.236,292.835h-0.61c-0.88-1.59-2.26-3.22-4.01-4.68h0.76
				C-828.477,289.555-827.106,291.145-826.236,292.835z"/>
			<path fill="#FDED18" d="M-828.246,297.835c0.689,1.83,1.09,3.81,1.09,5.89c0,9.29-7.54,16.82-16.83,16.82
				s-16.82-7.53-16.82-16.82c0-2.08,0.4-4.06,1.09-5.89H-828.246z"/>
			<path fill="#FDED18" d="M-828.246,297.835h-31.471c0.69-1.851,1.681-3.54,2.931-5h25.609
				C-829.927,294.295-828.937,295.984-828.246,297.835z"/>
			<path fill="#58595B" d="M-829.206,254.845h-1.011c-1.29-0.78-2.54-1.74-3.699-3h0.699
				C-831.967,253.125-830.606,254.075-829.206,254.845z"/>
			<path fill="#58595B" d="M-830.097,288.155h-0.76c-2.26-1.891-5.15-3.49-8.44-4.351c-3.939-1.02-10.949-1.52-18.109,4.351h-0.8
				c5-4.29,9.97-5.48,13.949-5.48c1.98,0,3.721,0.29,5.091,0.65C-836.097,284.125-832.746,285.875-830.097,288.155z"/>
			<path fill="#58595B" d="M-830.217,254.845h-21.72v-0.45c3.3,0,5.59-0.27,6.771-0.79c0.18-0.04,0.319-0.159,0.39-0.33
				c0.14-0.319-0.03-0.739-0.12-0.88l-0.21-0.55h11.19C-832.757,253.104-831.507,254.064-830.217,254.845z"/>
			<path fill="#FDED18" d="M-831.177,292.835h-25.609c1.739-2.04,3.939-3.65,6.45-4.68h12.699
				C-835.116,289.185-832.916,290.795-831.177,292.835z"/>
			<path fill="#F6881F" d="M-833.217,251.845h-0.699c-1.11-1.2-2.141-2.68-3.011-4.53c0.051,0.061,0.13,0.091,0.2,0.091
				c0.03,0,0.061,0,0.09-0.021c0.13-0.04,0.19-0.189,0.141-0.32l-0.021-0.04c0.01,0.011,0.021,0.011,0.021,0.021
				C-835.547,249.045-834.437,250.595-833.217,251.845z"/>
			<path fill="#F6881F" d="M-833.916,251.845h-11.19l-2.71-7.03h9.97l0.88,2.4c-0.01,0.01,0,0.02,0.011,0.03
				c-0.011,0.01,0,0.01,0,0.02c0.01,0.021,0.02,0.03,0.029,0.05C-836.057,249.165-835.026,250.645-833.916,251.845z"/>
			<path fill="#F6881F" d="M-836.496,247.064c0.05,0.131-0.011,0.28-0.141,0.32c-0.029,0.021-0.06,0.021-0.09,0.021
				c-0.07,0-0.149-0.03-0.2-0.091c-0.01-0.02-0.02-0.04-0.029-0.069c-0.011-0.011-0.021-0.021-0.011-0.03
				c-0.029-0.12,0.03-0.24,0.131-0.29c0.119-0.05,0.26-0.01,0.319,0.1L-836.496,247.064z"/>
			<path fill="#F6881F" d="M-837.326,244.814l0.81,2.21c-0.06-0.109-0.2-0.149-0.319-0.1c-0.101,0.05-0.16,0.17-0.131,0.29
				l-0.88-2.4H-837.326z"/>
			<path d="M-836.956,247.245c0.01,0.029,0.02,0.05,0.029,0.069c-0.01-0.02-0.02-0.029-0.029-0.05
				C-836.956,247.255-836.967,247.255-836.956,247.245z"/>
			<polygon fill="#58595B" points="-838.057,242.814 -837.326,244.814 -837.847,244.814 -838.576,242.814 			"/>
			<polygon fill="#58595B" points="-838.576,242.814 -837.847,244.814 -847.816,244.814 -848.586,242.814 			"/>
			<polygon fill="#F6881F" points="-841.106,234.505 -838.057,242.814 -838.576,242.814 -841.626,234.505 			"/>
			<polygon fill="#F6881F" points="-838.576,242.814 -848.586,242.814 -851.786,234.505 -841.626,234.505 			"/>
			<polygon fill="#58595B" points="-841.467,233.505 -841.106,234.505 -841.626,234.505 -841.996,233.505 			"/>
			<polygon fill="#F6881F" points="-843.767,227.255 -841.467,233.505 -841.996,233.505 -844.286,227.255 			"/>
			<polygon fill="#58595B" points="-841.996,233.505 -841.626,234.505 -851.786,234.505 -852.177,233.505 			"/>
			<path fill="#F6881F" d="M-844.286,227.255l2.29,6.25h-10.181l-1.76-4.58c-0.24-0.64-0.53-1.2-0.86-1.67H-844.286z"/>
			<polygon fill="#58595B" points="-843.946,226.755 -843.767,227.255 -844.286,227.255 -844.467,226.755 			"/>
			<path fill="#F6881F" d="M-845.376,222.865l1.43,3.89h-0.521l-1.369-3.73c0.029,0.101,0.13,0.16,0.229,0.16
				c0.03,0,0.06-0.01,0.09-0.02C-845.396,223.115-845.336,222.984-845.376,222.865z"/>
			<path fill="#58595B" d="M-844.257,281.655v1.02c-3.979,0-8.949,1.19-13.949,5.48h-77.65c-3.37-3.74-7.86-5.681-13.17-5.681
				v-0.819H-844.257z"/>
			<path fill="#58595B" d="M-844.467,226.755l0.181,0.5h-10.511c-0.13-0.18-0.27-0.35-0.409-0.5H-844.467z"/>
			<path fill="#F6881F" d="M-844.467,226.755h-10.739c-0.721-0.79-1.58-1.21-2.521-1.21h-19.57c-0.949,0-1.8,0.47-2.38,1.21h-99.84
				v-0.63v-1.17c0-0.04-0.01-0.07-0.02-0.101c-0.011-2.62-0.05-4.26,0.88-5.22c0.93-0.95,2.87-1.32,6.93-1.32h117.67
				c4.15,0,6.69,0.74,8.2,4.66c0.01,0.021,0.01,0.03,0.021,0.05L-844.467,226.755z"/>
			<path fill="#58595B" d="M-844.896,252.395c0.09,0.141,0.26,0.561,0.12,0.88c-0.07,0.171-0.21,0.29-0.39,0.33
				c-1.181,0.521-3.471,0.79-6.771,0.79c-1.75,0-3.43-0.08-4.55-0.13c-0.58-0.02-1.01-0.04-1.24-0.04h-19.57
				c-1.38,0-2.55-0.99-3-2.38h0.271c0.43,1.25,1.479,2.13,2.729,2.13h19.57c1.36,0,9.59,0.65,12.5-0.609
				c0.4-0.101,0.24-0.65,0.101-0.881l-0.25-0.64h0.27L-844.896,252.395z"/>
			<path fill="#58595B" d="M-845.126,252.484c0.14,0.23,0.3,0.78-0.101,0.881c-2.91,1.26-11.14,0.609-12.5,0.609h-19.57
				c-1.25,0-2.3-0.88-2.729-2.13h0.26c0.42,1.11,1.37,1.88,2.47,1.88h19.57c0.24,0,0.68,0.021,1.26,0.04
				c1.11,0.05,2.79,0.13,4.53,0.13c3.23,0,5.45-0.26,6.61-0.76c0.08-0.02,0.09-0.04,0.09-0.05c0.04-0.101-0.021-0.34-0.1-0.47
				l-0.301-0.771h0.261L-845.126,252.484z"/>
			<polygon fill="#F6881F" points="-847.816,244.814 -845.106,251.845 -845.376,251.845 -848.076,244.814 			"/>
			<path fill="#F6881F" d="M-845.376,222.865c0.04,0.119-0.021,0.25-0.141,0.3c-0.03,0.01-0.06,0.02-0.09,0.02
				c-0.1,0-0.2-0.06-0.229-0.16c-0.011-0.02-0.011-0.029-0.021-0.05l-0.21-0.569c-0.05-0.131,0.01-0.28,0.14-0.32
				c0.091-0.03,0.19-0.021,0.25,0.04c0,0,0,0,0.011,0.01c0.04,0.1,0.09,0.21,0.14,0.32c0.05,0.13,0.1,0.26,0.15,0.39
				C-845.376,222.854-845.376,222.854-845.376,222.865z"/>
			<polygon fill="#F6881F" points="-848.076,244.814 -845.376,251.845 -845.637,251.845 -848.347,244.814 			"/>
			<path d="M-845.606,222.225l0.08,0.23c-0.05-0.11-0.1-0.221-0.14-0.32C-845.637,222.155-845.616,222.185-845.606,222.225z"/>
			<path fill="#F6881F" d="M-845.677,222.125c-0.06-0.061-0.159-0.07-0.25-0.04c-0.13,0.04-0.189,0.189-0.14,0.32l0.21,0.569
				c-1.51-3.92-4.05-4.66-8.2-4.66c0.141,0,0.25-0.109,0.25-0.25c0-0.14-0.109-0.25-0.25-0.25
				C-850.026,217.814-847.307,218.535-845.677,222.125z"/>
			<polygon fill="#58595B" points="-848.586,242.814 -847.816,244.814 -848.076,244.814 -848.847,242.814 			"/>
			<polygon fill="#58595B" points="-848.076,244.814 -848.347,244.814 -849.116,242.814 -848.847,242.814 			"/>
			<polygon fill="#F6881F" points="-851.786,234.505 -848.586,242.814 -848.847,242.814 -852.057,234.505 			"/>
			<polygon fill="#F6881F" points="-848.847,242.814 -849.116,242.814 -852.316,234.505 -852.057,234.505 			"/>
			<polygon fill="#58595B" points="-852.177,233.505 -851.786,234.505 -852.057,234.505 -852.437,233.505 			"/>
			<path fill="#58595B" d="M-851.937,254.395v0.45h-127.58v-3h99.22c0.45,1.39,1.62,2.38,3,2.38h19.57c0.23,0,0.66,0.021,1.24,0.04
				C-855.366,254.314-853.687,254.395-851.937,254.395z"/>
			<polygon fill="#58595B" points="-852.437,233.505 -852.057,234.505 -852.316,234.505 -852.696,233.505 			"/>
			<path fill="#F6881F" d="M-853.937,228.925l1.76,4.58h-0.26l-1.729-4.49c-0.25-0.66-0.57-1.26-0.96-1.76h0.329
				C-854.467,227.725-854.177,228.285-853.937,228.925z"/>
			<path fill="#F6881F" d="M-854.166,229.015l1.729,4.49h-0.26l-1.7-4.4c-0.28-0.739-0.64-1.359-1.04-1.85h0.311
				C-854.736,227.755-854.416,228.354-854.166,229.015z"/>
			<circle fill="#F6881F" cx="-854.057" cy="218.064" r="0.25"/>
			<path fill="#F6881F" d="M-971.727,217.814h117.67c-0.14,0-0.25,0.11-0.25,0.25c0,0.141,0.11,0.25,0.25,0.25h-117.67
				c0.141,0,0.25-0.109,0.25-0.25C-971.477,217.925-971.586,217.814-971.727,217.814z"/>
			<path fill="#58595B" d="M-854.797,227.255h-0.329c-0.141-0.18-0.28-0.35-0.44-0.5h0.36
				C-855.066,226.905-854.927,227.075-854.797,227.255z"/>
			<path fill="#58595B" d="M-855.126,227.255h-0.311c-0.16-0.19-0.32-0.36-0.49-0.5h0.36
				C-855.406,226.905-855.267,227.075-855.126,227.255z"/>
			<path fill="#F6881F" d="M-855.206,226.755h-0.36c-0.6-0.6-1.33-0.96-2.16-0.96h-19.57c-0.81,0-1.529,0.37-2.06,0.96h-0.32
				c0.58-0.74,1.431-1.21,2.38-1.21h19.57C-856.786,225.545-855.927,225.965-855.206,226.755z"/>
			<path fill="#F6881F" d="M-855.566,226.755h-0.36c-0.54-0.46-1.149-0.71-1.8-0.71h-19.57c-0.649,0-1.239,0.27-1.71,0.71h-0.35
				c0.53-0.59,1.25-0.96,2.06-0.96h19.57C-856.896,225.795-856.166,226.155-855.566,226.755z"/>
			<path fill="#F6881F" d="M-858.206,288.155h0.8c-1.53,1.25-3.061,2.79-4.58,4.68h-0.64c0.069-0.09,0.149-0.19,0.229-0.29
				C-861.007,290.805-859.606,289.354-858.206,288.155z"/>
			<path fill="#F6881F" d="M-935.856,288.155h77.65c-1.4,1.199-2.801,2.649-4.19,4.39c-0.08,0.1-0.16,0.2-0.229,0.29h-69.811
				c-0.04-0.05-0.08-0.11-0.12-0.17c-0.47-0.7-1.02-1.521-1.68-2.47C-934.736,289.465-935.276,288.785-935.856,288.155z"/>
			<path fill="#58595B" d="M-861.986,292.835c0,0.01-0.01,0.02-0.021,0.03c-0.43,0.529-0.76,1.029-1.04,1.46
				c-1.199,1.859-1.869,2.88-7.84,2.88c-0.029,0-0.05,0-0.08-0.021c0.091-0.029,0.16-0.12,0.16-0.229c0-0.101-0.06-0.19-0.149-0.23
				c0.02-0.02,0.05-0.02,0.069-0.02c5.7,0,6.28-0.891,7.42-2.65c0.24-0.359,0.5-0.77,0.841-1.22H-861.986z"/>
			<path fill="#58595B" d="M-932.437,292.835h69.811c-0.341,0.45-0.601,0.86-0.841,1.22c-1.14,1.76-1.72,2.65-7.42,2.65
				c-0.02,0-0.05,0-0.069,0.02c-0.011-0.01-0.021,0-0.03,0c-0.021-0.02-0.05-0.02-0.07-0.02h-53h-1.17
				C-929.746,296.734-929.816,296.725-932.437,292.835z"/>
			<path fill="#58595B" d="M-870.956,296.725c0.09,0.04,0.149,0.13,0.149,0.23c0,0.109-0.069,0.2-0.16,0.229
				c-0.1-0.029-0.17-0.12-0.17-0.229c0-0.101,0.061-0.19,0.15-0.23C-870.977,296.725-870.967,296.715-870.956,296.725z"/>
			<path fill="#58595B" d="M-870.967,297.185c-0.029,0.011-0.06,0.021-0.09,0.021h-53c0.141,0,0.25-0.11,0.25-0.25
				c0-0.141-0.109-0.25-0.25-0.25h53c0.021,0,0.05,0,0.07,0.02c-0.09,0.04-0.15,0.13-0.15,0.23
				C-871.137,297.064-871.066,297.155-870.967,297.185z"/>
			<path fill="#58595B" d="M-879.007,226.755c-0.149,0.15-0.29,0.32-0.409,0.5h-0.311c0.11-0.18,0.23-0.35,0.37-0.5H-879.007z"/>
			<path fill="#58595B" d="M-879.356,226.755c-0.14,0.15-0.26,0.32-0.37,0.5h-0.28c0.091-0.18,0.2-0.35,0.33-0.5H-879.356z"/>
			<path fill="#F6881F" d="M-879.727,227.255h0.311c-0.36,0.53-0.57,1.18-0.57,1.9v4.35h-0.25v-4.35
				C-880.236,228.445-880.047,227.795-879.727,227.255z"/>
			<path fill="#58595B" d="M-979.517,226.755h99.84c-0.13,0.15-0.239,0.32-0.33,0.5h-99.51V226.755z"/>
			<path fill="#F6881F" d="M-880.007,227.255h0.28c-0.32,0.54-0.51,1.19-0.51,1.9v4.35h-0.25v-4.35
				C-880.486,228.455-880.307,227.805-880.007,227.255z"/>
			<path fill="#F6881F" d="M-879.767,251.845h-0.26c-0.14-0.38-0.21-0.8-0.21-1.24v-5.79h0.25v5.79
				C-879.986,251.045-879.906,251.465-879.767,251.845z"/>
			<rect x="-880.236" y="242.814" fill="#58595B" width="0.25" height="2"/>
			<rect x="-880.236" y="234.505" fill="#F6881F" width="0.25" height="8.31"/>
			<rect x="-880.236" y="233.505" fill="#58595B" width="0.25" height="1"/>
			<path fill="#F6881F" d="M-979.517,227.255h99.51c-0.3,0.55-0.479,1.2-0.479,1.9v4.35h-99.03V227.255z"/>
			<path fill="#F6881F" d="M-880.026,251.845h-0.271c-0.119-0.39-0.189-0.8-0.189-1.24v-5.79h0.25v5.79
				C-880.236,251.045-880.166,251.465-880.026,251.845z"/>
			<rect x="-880.486" y="242.814" fill="#58595B" width="0.25" height="2"/>
			<rect x="-880.486" y="234.505" fill="#F6881F" width="0.25" height="8.31"/>
			<rect x="-880.486" y="233.505" fill="#58595B" width="0.25" height="1"/>
			<path fill="#F6881F" d="M-880.297,251.845h-99.22v-7.03h99.03v5.79C-880.486,251.045-880.416,251.455-880.297,251.845z"/>
			<rect x="-979.517" y="242.814" fill="#58595B" width="99.03" height="2"/>
			<rect x="-979.517" y="234.505" fill="#F6881F" width="99.03" height="8.31"/>
			<rect x="-979.517" y="233.505" fill="#58595B" width="99.03" height="1"/>
			<circle fill="#58595B" cx="-924.057" cy="296.955" r="0.25"/>
			<path fill="#58595B" d="M-925.227,296.705h1.17c-0.14,0-0.25,0.109-0.25,0.25c0,0.14,0.11,0.25,0.25,0.25h-1.17
				c-4.82,0.04-4.89-0.021-7.75-4.26c-0.02-0.03-0.05-0.07-0.07-0.11h0.61C-929.816,296.725-929.746,296.734-925.227,296.705z"/>
			<path fill="#F6881F" d="M-932.437,292.835h-0.61c-0.449-0.67-0.97-1.46-1.6-2.36c-0.58-0.84-1.21-1.62-1.89-2.319h0.68
				c0.58,0.63,1.12,1.31,1.62,2.04c0.66,0.949,1.21,1.77,1.68,2.47C-932.517,292.725-932.477,292.785-932.437,292.835z"/>
			<path fill="#FDED18" d="M-934.416,297.835c0.59,1.71,0.92,3.54,0.92,5.46c0,9.29-7.53,16.82-16.82,16.82s-16.82-7.53-16.82-16.82
				c0-1.92,0.33-3.75,0.92-5.46H-934.416z"/>
			<path fill="#FDED18" d="M-934.416,297.835h-31.801c0.631-1.83,1.561-3.521,2.74-5h26.32
				C-935.977,294.314-935.047,296.005-934.416,297.835z"/>
			<path fill="#58595B" d="M-935.856,288.155h-0.68c-3.681-3.881-8.67-5.631-14.58-5.08c-6.01,0.56-9.69,2.42-12.61,5.08h-0.75
				c3.061-2.921,6.87-4.98,13.32-5.58c0.72-0.07,1.43-0.101,2.13-0.101C-943.717,282.475-939.227,284.415-935.856,288.155z"/>
			<path fill="#FDED18" d="M-937.156,292.835h-26.32c1.57-1.97,3.57-3.57,5.86-4.68h14.6
				C-940.727,289.265-938.727,290.865-937.156,292.835z"/>
			<path fill="#58595B" d="M-949.026,281.655v0.819c-0.7,0-1.41,0.03-2.13,0.101c-6.45,0.6-10.26,2.659-13.32,5.58h-15.09
				c0-0.011-0.01-0.021-0.02-0.03c0.05-0.05,0.069-0.101,0.069-0.17v-6.3H-949.026z"/>
			<path fill="#F6881F" d="M-964.477,288.155h0.75c-1.52,1.359-2.84,2.949-4.189,4.68h-0.631
				C-967.217,291.125-965.937,289.535-964.477,288.155z"/>
			<path fill="#F6881F" d="M-979.566,288.155h15.09c-1.46,1.38-2.74,2.97-4.07,4.68h-12.979c0.53-1.39,1.28-2.95,1.99-4.43
				C-979.507,288.314-979.517,288.225-979.566,288.155z"/>
			<path fill="#58595B" d="M-968.547,292.835h0.631c-0.391,0.51-0.79,1.03-1.2,1.57l-0.05,0.06c-1.011,1.33-3.96,2.72-6.811,3.37
				h-5.27c-0.44-0.17-0.801-0.41-1.07-0.71c-0.73-0.78-0.52-2.24,0.25-4.29h0.54c-0.69,1.8-1.021,3.31-0.43,3.95
				c0.63,0.68,1.81,1,3.439,0.92c3.49-0.17,7.84-2.09,8.95-3.54l0.05-0.07C-969.187,293.665-968.866,293.245-968.547,292.835z"/>
			<path fill="#58595B" d="M-981.526,292.835h12.979c-0.319,0.41-0.64,0.83-0.97,1.26l-0.05,0.07c-1.11,1.45-5.46,3.37-8.95,3.54
				c-1.63,0.08-2.81-0.24-3.439-0.92C-982.547,296.145-982.217,294.635-981.526,292.835z"/>
			<circle fill="#F6881F" cx="-971.727" cy="218.064" r="0.25"/>
			<path fill="#F6881F" d="M-971.727,217.814c-0.14,0-0.25,0.11-0.25,0.25c0,0.141,0.11,0.25,0.25,0.25c-4.06,0-6,0.37-6.93,1.32
				c-0.93,0.96-0.891,2.6-0.88,5.22c-0.04-0.09-0.12-0.149-0.23-0.149c-0.14,0-0.25,0.109-0.25,0.25v1.17l-0.02-0.96
				c-0.061-2.851-0.101-4.73,1.02-5.87C-977.967,218.215-975.986,217.814-971.727,217.814z"/>
			<path fill="#58595B" d="M-981.246,297.835h5.27c-0.87,0.2-1.729,0.33-2.52,0.37c-0.16,0-0.32,0.01-0.48,0.01
				C-979.866,298.215-980.637,298.085-981.246,297.835z"/>
			<path fill="#58595B" d="M-979.517,281.655v6.3c0,0.069-0.02,0.12-0.069,0.17c-0.011-0.03-0.04-0.05-0.07-0.061
				c-0.101-0.04-0.22-0.02-0.3,0.061c-0.04-0.05-0.061-0.101-0.061-0.17v-6.3H-979.517z"/>
			<rect x="-980.017" y="275.865" fill="#F6881F" width="0.5" height="5.79"/>
			<rect x="-980.017" y="270.865" fill="#58595B" width="0.5" height="5"/>
			<rect x="-980.017" y="265.305" fill="#F6881F" width="0.5" height="5.561"/>
			<rect x="-980.017" y="261.305" fill="#58595B" width="0.5" height="4"/>
			<rect x="-980.017" y="254.845" fill="#F6881F" width="0.5" height="6.46"/>
			<rect x="-980.017" y="251.845" fill="#58595B" width="0.5" height="3"/>
			<rect x="-980.017" y="244.814" fill="#F6881F" width="0.5" height="7.03"/>
			<rect x="-980.017" y="242.814" fill="#58595B" width="0.5" height="2"/>
			<rect x="-980.017" y="234.505" fill="#F6881F" width="0.5" height="8.31"/>
			<rect x="-980.017" y="233.505" fill="#58595B" width="0.5" height="1"/>
			<rect x="-980.017" y="227.255" fill="#F6881F" width="0.5" height="6.25"/>
			<rect x="-980.017" y="226.755" fill="#58595B" width="0.5" height="0.5"/>
			<path fill="#F6881F" d="M-979.517,226.125v0.63h-0.5v-0.63c0,0.14,0.11,0.25,0.25,0.25
				C-979.626,226.375-979.517,226.255-979.517,226.125z"/>
			<path d="M-979.517,224.955v1.17l-0.02-0.97c0-0.101,0-0.2,0-0.301C-979.526,224.885-979.517,224.915-979.517,224.955z"/>
			<path fill="#F6881F" d="M-979.536,225.155l0.02,0.97c0,0.13-0.109,0.25-0.25,0.25c-0.14,0-0.25-0.11-0.25-0.25v-1.17
				c0-0.141,0.11-0.25,0.25-0.25c0.11,0,0.19,0.06,0.23,0.149C-979.536,224.955-979.536,225.055-979.536,225.155z"/>
			<path fill="#F6881F" d="M-979.566,288.155c0.05,0.069,0.06,0.159,0.03,0.25c-0.71,1.479-1.46,3.04-1.99,4.43h-0.54
				c0.5-1.311,1.22-2.87,2.07-4.65c0-0.01,0.01-0.02,0.02-0.029h0.061c0.04,0.029,0.09,0.05,0.149,0.05
				c0.061,0,0.11-0.021,0.15-0.05H-979.566z"/>
			<path fill="#58595B" d="M-979.586,288.125c0.01,0.01,0.02,0.02,0.02,0.03h-0.05
				C-979.606,288.145-979.586,288.135-979.586,288.125z"/>
			<path fill="#58595B" d="M-979.586,288.125c0,0.01-0.021,0.02-0.03,0.03h-0.3c-0.011-0.011-0.03-0.021-0.04-0.03
				c0.08-0.08,0.199-0.101,0.3-0.061C-979.626,288.075-979.597,288.095-979.586,288.125z"/>
			<path fill="#58595B" d="M-979.916,288.155h0.3c-0.04,0.029-0.09,0.05-0.15,0.05
				C-979.826,288.205-979.876,288.185-979.916,288.155z"/>
			<path fill="#58595B" d="M-979.916,288.155h-0.061c0-0.011,0.01-0.021,0.021-0.03
				C-979.946,288.135-979.927,288.145-979.916,288.155z"/>
		</g>
		<g>
		</g>
	</g>
	<circle fill-rule="evenodd" clip-rule="evenodd" fill="#FDED18" cx="-1323.687" cy="301.416" r="16.822"/>
	<circle fill-rule="evenodd" clip-rule="evenodd" fill="#FDED18" cx="-1217.353" cy="301.85" r="16.821"/>
	<g id="XMLID_1_">
		<g>
			<path d="M-1353.139,224.249c-0.11-6.42-0.62-8.07,8.05-8.07h117.66c4.47,0,6.96,0.95,8.45,4.88h0.01l8.87,24.221
				c5.21,11.01,15.59,8.76,19.4,14.84c2.56,4.3,3.56,27.3-0.36,34.63c-1.21,2.28-5.58,1.04-7.83-0.71v-0.25
				c-1.47-8.75-21.37-22.12-36.69-2.96c-2.25,2.81-1.43,4.25-8.68,4.25h-0.17h-53c-6.83,0-5.46,0.46-10.39-6.62
				c-4.1-5.96-10.12-8.12-16.69-7.51c-10.21,0.949-13.79,5.68-18.23,11.489c-1.78,2.33-10.39,5.21-12.77,2.641
				c-1.14-1.22,0.49-4.73,2.37-8.66v-0.34V224.249z M-1218.599,251.489c0.4-0.101,0.24-0.65,0.11-0.88l-9.05-23.471
				c-0.68-1.819-1.93-3.22-3.55-3.22h-19.58c-1.62,0-2.94,1.5-2.94,3.36v21.449c0,1.86,1.32,3.36,2.94,3.36h19.58
				C-1229.739,252.089-1221.509,252.749-1218.599,251.489z"/>
		</g>
		<g>
			<polyline fill="none" stroke="#000000" stroke-linecap="round" stroke-linejoin="round" stroke-miterlimit="10" points="
				-1353.139,286.079 -1353.139,224.249 -1353.139,223.079 			"/>
			
				<line fill="none" stroke="#000000" stroke-linecap="round" stroke-linejoin="round" stroke-miterlimit="10" x1="-1345.089" y1="216.179" x2="-1227.429" y2="216.179"/>
			<polyline fill="none" stroke="#000000" stroke-linecap="round" stroke-linejoin="round" stroke-miterlimit="10" points="
				-1219.199,220.438 -1218.969,221.059 -1210.099,245.279 			"/>
			
				<line fill="none" stroke="#000000" stroke-linecap="round" stroke-linejoin="round" stroke-miterlimit="10" x1="-1244.429" y1="295.079" x2="-1297.429" y2="295.079"/>
			<path fill="none" stroke="#000000" stroke-linecap="round" stroke-linejoin="round" stroke-miterlimit="10" d="
				M-1345.089,216.179c-8.67,0-8.16,1.65-8.05,8.07"/>
			<path fill="none" stroke="#000000" stroke-linecap="round" stroke-linejoin="round" stroke-miterlimit="10" d="
				M-1218.979,221.059c-1.49-3.93-3.98-4.88-8.45-4.88"/>
			<path fill="none" stroke="#000000" stroke-linecap="round" stroke-linejoin="round" stroke-miterlimit="10" d="
				M-1198.889,293.789c-1.47-8.75-21.37-22.12-36.69-2.96c-2.25,2.81-1.43,4.25-8.68,4.25"/>
			<path fill="none" stroke="#000000" stroke-linecap="round" stroke-linejoin="round" stroke-miterlimit="10" d="
				M-1198.889,294.039c2.25,1.75,6.62,2.99,7.83,0.71c3.92-7.33,2.92-30.33,0.36-34.63"/>
			<path fill="none" stroke="#000000" stroke-linecap="round" stroke-linejoin="round" stroke-miterlimit="10" d="
				M-1297.429,295.079c-6.83,0-5.46,0.46-10.39-6.62c-4.1-5.96-10.12-8.12-16.69-7.51c-10.21,0.949-13.79,5.68-18.23,11.489
				c-1.78,2.33-10.39,5.21-12.77,2.641c-1.14-1.22,0.49-4.73,2.37-8.66"/>
			<path fill="none" stroke="#000000" stroke-linecap="round" stroke-linejoin="round" stroke-miterlimit="10" d="
				M-1210.099,245.279c5.21,11.01,15.59,8.76,19.4,14.84"/>
			<path fill="none" stroke="#000000" stroke-linecap="round" stroke-linejoin="round" stroke-miterlimit="10" d="
				M-1218.599,251.489c0.4-0.101,0.24-0.65,0.11-0.88l-9.05-23.471c-0.68-1.819-1.93-3.22-3.55-3.22h-19.58
				c-1.62,0-2.94,1.5-2.94,3.36v21.449c0,1.86,1.32,3.36,2.94,3.36h19.58C-1229.739,252.089-1221.509,252.749-1218.599,251.489z"/>
		</g>
	</g>
	
		<line fill="none" stroke="#FDED18" stroke-width="5" stroke-linecap="round" stroke-linejoin="round" stroke-miterlimit="10" x1="-1451.082" y1="275.336" x2="-1259.301" y2="275.336"/>
	
		<line fill="none" stroke="#FDED18" stroke-width="4" stroke-linecap="round" stroke-linejoin="round" stroke-miterlimit="10" x1="-1451.082" y1="263.193" x2="-1259.07" y2="263.193"/>
	
		<line fill="none" stroke="#FDED18" stroke-width="3" stroke-linecap="round" stroke-linejoin="round" stroke-miterlimit="10" x1="-1450.732" y1="253.168" x2="-1258.539" y2="253.168"/>
	
		<line fill="none" stroke="#FDED18" stroke-width="2" stroke-linecap="round" stroke-linejoin="round" stroke-miterlimit="10" x1="-1451.082" y1="242.645" x2="-1259.07" y2="242.645"/>
	
		<line fill="none" stroke="#FDED18" stroke-linecap="round" stroke-linejoin="round" stroke-miterlimit="10" x1="-1451.082" y1="232.619" x2="-1258.539" y2="232.619"/>
	<circle fill-rule="evenodd" clip-rule="evenodd" fill="#FDED18" cx="-587.456" cy="308.814" r="16.822"/>
	<circle fill-rule="evenodd" clip-rule="evenodd" fill="#FDED18" cx="-481.122" cy="309.248" r="16.821"/>
	<g>
		
			<line opacity="0.6" fill="none" stroke="#0B070C" stroke-width="5" stroke-miterlimit="10" x1="-670.051" y1="278.887" x2="-453.104" y2="278.887"/>
		
			<line opacity="0.6" fill="none" stroke="#0B070C" stroke-width="6.5" stroke-miterlimit="10" x1="-670.012" y1="290.426" x2="-453.375" y2="290.426"/>
		
			<line opacity="0.6" fill="none" stroke="#0B070C" stroke-width="6.5" stroke-miterlimit="10" x1="-670.012" y1="301.477" x2="-453.196" y2="301.477"/>
		
			<line opacity="0.6" fill="none" stroke="#0B070C" stroke-width="4" stroke-miterlimit="10" x1="-670.173" y1="268.831" x2="-453.226" y2="268.831"/>
		
			<line opacity="0.6" fill="none" stroke="#0B070C" stroke-width="3" stroke-miterlimit="10" x1="-670.104" y1="258.869" x2="-453.211" y2="258.869"/>
		
			<line opacity="0.6" fill="none" stroke="#0B070C" stroke-width="2" stroke-miterlimit="10" x1="-670.02" y1="249.338" x2="-453.252" y2="249.338"/>
		
			<line opacity="0.6" fill="none" stroke="#0B070C" stroke-miterlimit="10" x1="-670.173" y1="239.521" x2="-453.252" y2="239.521"/>
		
			<line opacity="0.6" fill="none" stroke="#0B070C" stroke-width="0.5" stroke-miterlimit="10" x1="-670.012" y1="232.521" x2="-453.252" y2="232.521"/>
	</g>
	
		<line fill="none" stroke="#0B070C" stroke-width="5" stroke-miterlimit="10" x1="-1045.433" y1="120.461" x2="-791.146" y2="120.461"/>
	<line fill="none" stroke="#0B070C" stroke-width="6" stroke-miterlimit="10" x1="-1045.433" y1="134" x2="-791.146" y2="134"/>
	
		<line fill="none" stroke="#0B070C" stroke-width="4" stroke-miterlimit="10" x1="-1045.433" y1="107.405" x2="-790.838" y2="107.405"/>
	
		<line fill="none" stroke="#0B070C" stroke-width="3" stroke-miterlimit="10" x1="-1045.962" y1="94.443" x2="-791.126" y2="94.443"/>
	
		<line fill="none" stroke="#0B070C" stroke-width="2" stroke-miterlimit="10" x1="-1045.433" y1="83.912" x2="-790.838" y2="83.912"/>
	<line fill="none" stroke="#0B070C" stroke-miterlimit="10" x1="-1045.433" y1="74.596" x2="-790.134" y2="74.596"/>
	
		<line fill="none" stroke="#FDED18" stroke-width="6" stroke-linecap="round" stroke-linejoin="round" stroke-miterlimit="10" x1="-1308.849" y1="289.129" x2="-1259.929" y2="289.129"/>
	
		<line fill="none" stroke="#FDED18" stroke-width="6" stroke-linecap="round" stroke-linejoin="round" stroke-miterlimit="10" x1="-1451.709" y1="289.129" x2="-1338.138" y2="289.129"/>
	<circle fill="#2B2C6B" cx="-1363.502" cy="-9.556" r="34.805"/>
	<circle opacity="0.9" fill="#59A8D7" cx="-1340.603" cy="21.249" r="40.422"/>
	<circle opacity="0.9" fill="#F6881F" cx="-1313.715" cy="60.12" r="44.786"/>
	<circle opacity="0.9" fill="#FDED18" cx="-1286.89" cy="103.232" r="52"/>
	
		<line fill="none" stroke="#A85F27" stroke-width="9" stroke-linecap="round" stroke-linejoin="round" stroke-miterlimit="10" x1="-1333.548" y1="-58.5" x2="-1213.871" y2="90.091"/>
	<circle fill="#2B2C6B" cx="-1116.919" cy="-172.68" r="52"/>
	<circle opacity="0.9" fill="#59A8D7" cx="-1077.919" cy="-125.68" r="52"/>
	<circle opacity="0.9" fill="#EC008C" stroke="#EC008C" stroke-miterlimit="10" cx="-1047.919" cy="-83.68" r="52"/>
	<circle opacity="0.9" fill="#F7941E" cx="-1012.788" cy="-33.68" r="52"/>
	<rect x="-1146.37" y="-374.152" fill="#2B2C6B" width="45.097" height="94.088"/>
	<rect x="-1191.468" y="-375.307" fill="#FDED18" width="45.098" height="94.088"/>
	<rect x="-1101.273" y="-375.205" fill="#59A8D7" width="45.097" height="94.088"/>
	<rect x="-1236.563" y="-375.307" fill="#F6881F" width="45.096" height="94.088"/>
	<rect x="-1118.762" y="-344.746" fill="#A85F27" width="36.397" height="36.397"/>
	<rect x="-1209.666" y="-346.461" fill="#A85F27" width="36.397" height="36.397"/>
	<g>
		<g>
			<path fill="none" d="M-1394.551-360.904c-15.293,0-30.586,0-45.879,0.002c-2.167,0-3.142,0.811-3.144,2.726
				c-0.013,15.347-0.013,30.693,0.001,46.04c0.002,1.816,0.963,2.724,2.81,2.746c1.986,0.022,3.981,0.123,5.953-0.043
				c1.043-0.087,2.233-0.427,3.036-1.06c6.515-5.134,15.275-5.398,21.967-0.549c1.973,1.43,2.578,1.43,4.567,0.004
				c6.775-4.858,15.433-4.597,21.962,0.548c0.803,0.634,2.012,1.051,3.037,1.058c10.41,0.078,20.82,0.049,31.23,0.046
				c2.543-0.001,3.323-0.796,3.323-3.376c0.003-14.917,0.003-29.835,0-44.753c0-2.646-0.76-3.387-3.466-3.387
				C-1364.288-360.904-1379.419-360.904-1394.551-360.904z M-1407.411-298.793c-0.243-0.293-0.346-0.363-0.365-0.449
				c-2.28-10.229-15.22-13.861-22.414-5.656c-0.351,0.4-1.09,0.636-1.655,0.648c-2.843,0.062-5.688,0.023-8.532,0.021
				c-2.072-0.001-3.183,0.875-3.213,2.528c-0.029,1.672,1.07,2.613,3.116,2.626c2.399,0.016,4.799,0.003,7.192,0.003
				c0.145,8.719,3.41,13.643,9.992,15.141c3.569,0.812,6.925,0.222,9.991-1.806c3.019-1.999,4.814-4.869,5.705-8.586
				c3.115,8.006,8.32,11.668,14.83,10.621c3.011-0.484,5.572-1.846,7.646-4.1c2.918-3.17,3.742-6.982,3.261-11.155
				c13.906,0,27.657,0,41.415,0c-0.468,8.814,4.642,15.18,12.207,15.334c8.431,0.173,13.522-5.626,13.436-15.456
				c2.455,0,4.91,0.011,7.368-0.004c1.907-0.011,2.985-0.972,2.966-2.603c-0.019-1.613-1.095-2.523-3.031-2.531
				c-2.737-0.01-5.476-0.06-8.209,0.025c-1.121,0.035-1.853-0.324-2.625-1.128c-5.285-5.513-13.488-5.484-18.71,0.076
				c-0.749,0.796-1.475,1.043-2.504,1.041c-14.382-0.027-28.765-0.035-43.146-0.001c-1.106,0.002-1.849-0.291-2.634-1.101
				c-3.838-3.963-8.492-5.12-13.68-3.311C-1403.542-307.035-1406.214-303.615-1407.411-298.793z M-1340.526-336.257
				c0,7.026,0.144,14.056-0.074,21.074c-0.082,2.611,2.038,4.236,4.679,2.817c5.752-3.092,11.868-3.047,17.273,0.503
				c3.174,2.083,6.222,2.726,9.745,2.483c0.427-0.03,0.858,0.004,1.287,0.004c2.291-0.005,3.163-0.896,3.163-3.229
				c0-6.274,0.002-12.548-0.003-18.823c0-0.695,0.033-1.409-0.101-2.084c-1.605-8.133-3.234-16.262-4.872-24.387
				c-0.507-2.513-1.138-3.013-3.692-3.013c-8.044,0-16.089,0.004-24.134,0.009c-2.485,0.002-3.266,0.775-3.266,3.249
				C-1340.525-350.521-1340.521-343.39-1340.526-336.257z"/>
			<path fill-rule="evenodd" clip-rule="evenodd" d="M-1394.551-360.904c15.132,0,30.264,0,45.396,0.001
				c2.706,0,3.466,0.741,3.466,3.387c0.003,14.918,0.003,29.835,0,44.753c0,2.581-0.78,3.375-3.323,3.376
				c-10.41,0.003-20.82,0.032-31.23-0.046c-1.025-0.007-2.234-0.424-3.037-1.058c-6.529-5.146-15.187-5.407-21.962-0.548
				c-1.989,1.426-2.594,1.426-4.567-0.004c-6.692-4.849-15.452-4.585-21.967,0.549c-0.803,0.633-1.993,0.973-3.036,1.06
				c-1.972,0.166-3.967,0.065-5.953,0.043c-1.847-0.021-2.808-0.93-2.81-2.746c-0.014-15.347-0.014-30.693-0.001-46.04
				c0.002-1.916,0.977-2.726,3.144-2.726C-1425.137-360.905-1409.844-360.904-1394.551-360.904z M-1350.911-355.684
				c-29.255,0-58.313,0-87.444,0c0,13.726,0,27.372,0,41.075c1.845,0.16,3.367,0.001,5.019-1.074
				c8.038-5.229,16.361-5.414,24.747-0.762c0.807,0.447,1.336,0.448,2.142,0.004c8.703-4.79,17.184-4.393,25.447,1.148
				c0.655,0.439,1.553,0.72,2.339,0.725c8.851,0.052,17.703,0.038,26.554,0.034c0.405,0,0.811-0.074,1.196-0.111
				C-1350.911-328.376-1350.911-341.981-1350.911-355.684z"/>
			<path fill-rule="evenodd" clip-rule="evenodd" d="M-1407.411-298.793c1.196-4.821,3.869-8.242,8.406-9.823
				c5.188-1.809,9.841-0.652,13.68,3.311c0.785,0.81,1.528,1.103,2.634,1.101c14.381-0.034,28.764-0.026,43.146,0.001
				c1.029,0.002,1.755-0.245,2.504-1.041c5.222-5.56,13.425-5.589,18.71-0.076c0.772,0.804,1.504,1.163,2.625,1.128
				c2.733-0.085,5.472-0.035,8.209-0.025c1.937,0.008,3.013,0.918,3.031,2.531c0.02,1.631-1.059,2.592-2.966,2.603
				c-2.458,0.016-4.913,0.004-7.368,0.004c0.087,9.83-5.005,15.629-13.436,15.456c-7.564-0.155-12.675-6.521-12.207-15.334
				c-13.758,0-27.509,0-41.415,0c0.481,4.173-0.343,7.985-3.261,11.155c-2.074,2.254-4.634,3.615-7.646,4.1
				c-6.509,1.048-11.715-2.614-14.83-10.621c-0.891,3.718-2.687,6.588-5.705,8.586c-3.066,2.028-6.422,2.618-9.991,1.806
				c-6.582-1.498-9.847-6.422-9.992-15.141c-2.393,0-4.793,0.013-7.192-0.003c-2.046-0.013-3.146-0.955-3.116-2.626
				c0.03-1.653,1.141-2.529,3.213-2.528c2.844,0.002,5.689,0.04,8.532-0.021c0.564-0.012,1.304-0.248,1.655-0.648
				c7.193-8.205,20.134-4.572,22.414,5.656C-1407.756-299.156-1407.654-299.086-1407.411-298.793z M-1412.671-296.542
				c-0.027-4.144-3.61-7.707-7.73-7.688c-4.244,0.021-7.798,3.63-7.731,7.851c0.067,4.139,3.681,7.664,7.807,7.611
				C-1416.183-288.821-1412.644-292.416-1412.671-296.542z M-1394.626-304.23c-4.241,0.012-7.802,3.618-7.741,7.841
				c0.058,4.135,3.671,7.667,7.796,7.621c4.141-0.045,7.685-3.635,7.665-7.763C-1386.926-300.677-1390.501-304.241-1394.626-304.23z
				 M-1327.628-304.229c-4.155-0.015-7.707,3.5-7.749,7.667c-0.043,4.153,3.466,7.735,7.626,7.784
				c4.251,0.049,7.82-3.481,7.824-7.741C-1319.924-300.669-1323.465-304.216-1327.628-304.229z"/>
			<path fill-rule="evenodd" clip-rule="evenodd" d="M-1340.525-336.257c0.003-7.132,0-14.264,0.004-21.396
				c0-2.474,0.781-3.247,3.266-3.249c8.045-0.005,16.089-0.009,24.134-0.009c2.554,0,3.185,0.5,3.692,3.013
				c1.638,8.125,3.266,16.254,4.872,24.387c0.133,0.675,0.1,1.389,0.101,2.084c0.005,6.275,0.003,12.549,0.003,18.823
				c0,2.332-0.873,3.223-3.163,3.229c-0.428,0-0.859-0.034-1.287-0.004c-3.523,0.243-6.571-0.4-9.745-2.483
				c-5.406-3.55-11.521-3.595-17.273-0.503c-2.641,1.419-4.76-0.206-4.679-2.817
				C-1340.383-322.202-1340.526-329.231-1340.525-336.257z M-1335.325-355.688c0,12.457,0,24.786,0,37.195
				c0.459-0.104,0.868-0.182,1.27-0.292c7.105-1.945,13.727-0.794,19.746,3.364c1.577,1.091,3.035,0.878,4.811,0.785
				c-0.515-7.096,0.604-14.104-0.742-20.904c-0.95,0.154-1.676,0.371-2.403,0.375c-4.883,0.031-9.766,0.032-14.649,0.012
				c-2.022-0.008-2.925-0.946-2.928-2.966c-0.007-3.702,0.003-7.404,0.004-11.107c0.001-2.13,0-4.261,0-6.462
				C-1331.974-355.688-1333.563-355.688-1335.325-355.688z M-1311.269-340.346c-0.974-4.939-1.921-9.81-2.922-14.67
				c-0.061-0.293-0.547-0.707-0.842-0.71c-3.304-0.051-6.609-0.032-9.928-0.032c0,5.261,0,10.32,0,15.413
				C-1320.356-340.346-1315.864-340.346-1311.269-340.346z"/>
		</g>
	</g>
	<g>
		<g>
			<path fill-rule="evenodd" clip-rule="evenodd" fill="#BB2231" d="M-790.01-389.444c7.105,2.866,14.181,5.817,21.339,8.551
				c2.44,0.932,2.836,1.89,1.688,4.313c-9.88,20.829-33.075,33.067-56.213,29.506c-22.832-3.517-41.124-22.145-44.157-44.97
				c-4.257-32.043,19.469-60.316,51.706-60.501c22.051-0.128,38.341,10.436,48.646,30.06c1.206,2.297,0.969,3.288-1.661,4.258
				c-7.185,2.653-14.233,5.678-21.335,8.554c-0.508-0.755-1.062-1.484-1.52-2.27c-5.476-9.399-13.539-14.37-24.52-13.938
				c-10.819,0.427-18.652,5.834-23.031,15.583c-4.468,9.941-3.014,19.572,3.985,27.882c6.812,8.088,15.833,10.766,26.15,8.619
				C-799.934-375.671-794.259-381.737-790.01-389.444z"/>
			<path fill-rule="evenodd" clip-rule="evenodd" fill="#FAD707" d="M-790.01-389.444c-4.249,7.707-9.924,13.773-18.923,15.647
				c-10.317,2.146-19.339-0.531-26.15-8.619c-6.999-8.31-8.453-17.94-3.985-27.882c4.379-9.749,12.212-15.156,23.031-15.583
				c10.98-0.433,19.044,4.538,24.52,13.938c0.457,0.785,1.012,1.515,1.52,2.27C-787.826-402.929-787.812-396.187-790.01-389.444z"/>
		</g>
	</g>
	
		<circle opacity="0.9" fill-rule="evenodd" clip-rule="evenodd" fill="#EC008C" stroke="#EC008C" stroke-miterlimit="10" cx="-646.565" cy="256.709" r="16.821"/>
	<circle fill-rule="evenodd" clip-rule="evenodd" fill="#FDED18" cx="-1207.758" cy="148.491" r="10.394"/>
	<circle fill-rule="evenodd" clip-rule="evenodd" fill="#FDED18" cx="-1142.052" cy="148.759" r="10.395"/>
	<g id="XMLID_4_">
		<g>
			<path d="M-1225.958,100.808c-0.068-3.967-0.383-4.986,4.975-4.986h72.705c2.763,0,4.301,0.587,5.222,3.015h0.006l5.481,14.967
				c3.22,6.804,9.634,5.413,11.988,9.17c1.581,2.657,2.199,16.869-0.223,21.398c-0.748,1.409-3.448,0.644-4.839-0.438v-0.154
				c-0.908-5.407-13.205-13.669-22.672-1.829c-1.39,1.736-0.884,2.626-5.363,2.626h-0.105h-32.75c-4.22,0-3.374,0.284-6.42-4.091
				c-2.534-3.683-6.253-5.018-10.313-4.641c-6.309,0.588-8.521,3.51-11.265,7.101c-1.1,1.439-6.42,3.219-7.891,1.631
				c-0.705-0.754,0.303-2.923,1.464-5.351v-0.211V100.808z M-1142.821,117.64c0.247-0.062,0.147-0.401,0.067-0.544l-5.592-14.502
				c-0.421-1.125-1.192-1.99-2.194-1.99h-12.099c-1.001,0-1.817,0.927-1.817,2.076v13.255c0,1.149,0.816,2.076,1.817,2.076h12.099
				C-1149.705,118.011-1144.62,118.419-1142.821,117.64z"/>
		</g>
		<g>
			<polyline fill="none" stroke="#000000" stroke-linecap="round" stroke-linejoin="round" stroke-miterlimit="10" points="
				-1225.958,139.014 -1225.958,100.808 -1225.958,100.085 			"/>
			
				<line fill="none" stroke="#000000" stroke-linecap="round" stroke-linejoin="round" stroke-miterlimit="10" x1="-1220.983" y1="95.821" x2="-1148.278" y2="95.821"/>
			<polyline fill="none" stroke="#000000" stroke-linecap="round" stroke-linejoin="round" stroke-miterlimit="10" points="
				-1143.192,98.453 -1143.051,98.836 -1137.569,113.803 			"/>
			
				<line fill="none" stroke="#000000" stroke-linecap="round" stroke-linejoin="round" stroke-miterlimit="10" x1="-1158.783" y1="144.575" x2="-1191.533" y2="144.575"/>
			<path fill="none" stroke="#000000" stroke-linecap="round" stroke-linejoin="round" stroke-miterlimit="10" d="M-1220.983,95.821
				c-5.357,0-5.042,1.02-4.975,4.986"/>
			<path fill="none" stroke="#000000" stroke-linecap="round" stroke-linejoin="round" stroke-miterlimit="10" d="M-1143.057,98.836
				c-0.921-2.428-2.459-3.015-5.222-3.015"/>
			<path fill="none" stroke="#000000" stroke-linecap="round" stroke-linejoin="round" stroke-miterlimit="10" d="
				M-1130.643,143.778c-0.908-5.407-13.205-13.669-22.672-1.829c-1.39,1.736-0.884,2.626-5.363,2.626"/>
			<path fill="none" stroke="#000000" stroke-linecap="round" stroke-linejoin="round" stroke-miterlimit="10" d="
				M-1130.643,143.933c1.391,1.082,4.091,1.848,4.839,0.438c2.422-4.529,1.804-18.741,0.223-21.398"/>
			<path fill="none" stroke="#000000" stroke-linecap="round" stroke-linejoin="round" stroke-miterlimit="10" d="
				M-1191.533,144.575c-4.22,0-3.374,0.284-6.42-4.091c-2.534-3.683-6.253-5.018-10.313-4.641c-6.309,0.588-8.521,3.51-11.265,7.101
				c-1.1,1.439-6.42,3.219-7.891,1.631c-0.705-0.754,0.303-2.923,1.464-5.351"/>
			<path fill="none" stroke="#000000" stroke-linecap="round" stroke-linejoin="round" stroke-miterlimit="10" d="
				M-1137.569,113.803c3.22,6.804,9.634,5.413,11.988,9.17"/>
			<path fill="none" stroke="#000000" stroke-linecap="round" stroke-linejoin="round" stroke-miterlimit="10" d="M-1142.821,117.64
				c0.247-0.062,0.147-0.401,0.067-0.544l-5.592-14.502c-0.421-1.125-1.192-1.99-2.194-1.99h-12.099
				c-1.001,0-1.817,0.927-1.817,2.076v13.255c0,1.149,0.816,2.076,1.817,2.076h12.099
				C-1149.705,118.011-1144.62,118.419-1142.821,117.64z"/>
		</g>
	</g>
</g>
<g id="text">
	<text transform="matrix(1 0 0 1 -1443.0205 -398.7148)" font-family="'UrbanSketch'" font-size="42.0662">Colorado Food Truck Application</text>
	<text transform="matrix(1 0 0 1 -1349.3198 -229.3945)" font-family="'LeagueSpartan-Bold'" font-size="41.6715">CO</text>
	<text transform="matrix(1 0 0 1 -1309.6021 -167.6797)" font-family="'YikesMedium'" font-size="41.6715">street</text>
	<text transform="matrix(1 0 0 1 -1278.0747 -235.3945)" font-family="'YikesMedium'" font-size="41.6715">food</text>
	<text transform="matrix(1 0 0 1 -1278.9707 -203.3945)" font-family="'YikesMedium'" font-size="41.6715" letter-spacing="-3">trucks</text>
	<text transform="matrix(1 0 0 1 -964.5703 249.3477)" fill="#FFFFFF" font-family="'YikesMedium'" font-size="35.2794">food</text>
	
		<text transform="matrix(1 0 0 1 -965.0742 275.209)" fill="#FFFFFF" font-family="'YikesMedium'" font-size="35.2794" letter-spacing="-2">trucks</text>
	<text transform="matrix(1 0 0 1 -1280.9692 -134.6797)" font-family="'YikesMedium'" font-size="41.6715">food</text>
	<text transform="matrix(1 0 0 1 -1229.3975 56.1201)" font-family="'YikesMedium'" font-size="26.6359">street</text>
	<text transform="matrix(1 0 0 1 -1208.6421 83.9121)" font-family="'YikesMedium'" font-size="26.6359">food</text>
	<text transform="matrix(1 0 0 1 -1433.0947 -114.3945)" font-family="'Hominis'" font-size="41.6715">CO</text>
	<text transform="matrix(1 0 0 1 -1427.7627 156.2432)" font-family="'Phosphate-Inline'" font-size="151.8994">CO</text>
	<text transform="matrix(1 0 0 1 -1158.667 305.3193)" font-family="'Phosphate-Inline'" font-size="148.2877">CO</text>
	<g>
		<path d="M-780.493,256.77c0-7.908,1.384-15.051,4.152-21.428c2.767-6.376,6.525-11.837,11.27-16.386
			c4.746-4.546,10.281-8.03,16.609-10.454c6.324-2.421,13.049-3.633,20.166-3.633c5.635,0,10.652,0.544,15.052,1.631
			c4.397,1.089,8.179,2.324,11.344,3.707c3.656,1.583,6.821,3.313,9.491,5.19l-15.57,27.434c-1.583-1.187-3.314-2.322-5.19-3.411
			c-1.683-0.79-3.685-1.557-6.006-2.299c-2.323-0.741-4.968-1.111-7.934-1.111c-3.065,0-5.883,0.544-8.452,1.631
			c-2.572,1.089-4.819,2.571-6.747,4.448c-1.928,1.879-3.437,4.078-4.522,6.599c-1.09,2.521-1.631,5.216-1.631,8.082
			c0,2.868,0.566,5.561,1.705,8.082c1.135,2.521,2.691,4.722,4.67,6.599c1.977,1.879,4.301,3.362,6.971,4.448
			c2.668,1.089,5.584,1.632,8.748,1.632c3.163,0,5.98-0.395,8.453-1.187c2.47-0.79,4.545-1.68,6.228-2.669
			c1.977-1.087,3.708-2.373,5.19-3.855l15.57,27.433c-2.67,2.176-5.834,4.104-9.49,5.783c-3.166,1.386-6.97,2.669-11.418,3.855
			c-4.449,1.187-9.542,1.779-15.274,1.779c-7.711,0-14.829-1.26-21.353-3.781c-6.525-2.521-12.16-6.054-16.905-10.603
			c-4.745-4.546-8.452-10.009-11.122-16.386C-779.158,271.524-780.493,264.48-780.493,256.77z M-761.809,256.77
			c0-4.745,0.815-9.193,2.446-13.346c1.632-4.152,3.93-7.76,6.896-10.825c2.965-3.062,6.572-5.486,10.824-7.266
			c4.25-1.78,8.994-2.67,14.236-2.67c2.568,0,4.867,0.174,6.895,0.52c2.025,0.348,3.73,0.767,5.116,1.261
			c1.68,0.495,3.114,1.089,4.3,1.779l2.076-3.56c-1.582-0.69-3.262-1.334-5.041-1.928c-1.683-0.493-3.61-0.938-5.783-1.334
			c-2.176-0.395-4.697-0.594-7.562-0.594c-5.043,0-9.861,0.89-14.459,2.67c-4.597,1.779-8.651,4.325-12.159,7.637
			c-3.511,3.313-6.327,7.316-8.452,12.011c-2.127,4.697-3.188,9.912-3.188,15.645c0,5.834,1.013,11.073,3.04,15.719
			c2.025,4.647,4.819,8.626,8.379,11.937c3.559,3.313,7.711,5.857,12.455,7.638c4.746,1.779,9.787,2.669,15.125,2.669
			c2.967,0,5.636-0.246,8.008-0.741c2.373-0.494,4.398-1.038,6.08-1.632c1.877-0.69,3.559-1.482,5.042-2.372l-2.076-3.56
			c-1.286,0.89-2.769,1.632-4.448,2.225c-1.483,0.593-3.263,1.112-5.339,1.557c-2.075,0.445-4.499,0.668-7.267,0.668
			c-5.438,0-10.33-0.89-14.68-2.669c-4.352-1.78-8.033-4.201-11.047-7.267c-3.018-3.062-5.339-6.673-6.971-10.825
			C-760.993,265.964-761.809,261.515-761.809,256.77z"/>
		<path d="M-698.341,256.77c0-7.118,1.357-13.839,4.077-20.167c2.718-6.325,6.425-11.838,11.122-16.534
			c4.693-4.694,10.206-8.401,16.533-11.121c6.326-2.718,13.05-4.078,20.168-4.078c7.117,0,13.84,1.36,20.167,4.078
			c6.325,2.72,11.837,6.427,16.534,11.121c4.693,4.696,8.401,10.209,11.121,16.534c2.719,6.328,4.078,13.049,4.078,20.167
			s-1.359,13.842-4.078,20.167c-2.72,6.328-6.428,11.84-11.121,16.534c-4.697,4.696-10.209,8.404-16.534,11.122
			c-6.327,2.718-13.05,4.077-20.167,4.077c-7.118,0-13.842-1.359-20.168-4.077c-6.327-2.718-11.84-6.426-16.533-11.122
			c-4.697-4.694-8.404-10.206-11.122-16.534C-696.983,270.611-698.341,263.888-698.341,256.77z M-684.402,256.77
			c0,5.241,0.987,10.158,2.966,14.755c1.977,4.597,4.694,8.626,8.156,12.085c3.459,3.462,7.488,6.18,12.085,8.156
			c4.597,1.979,9.514,2.966,14.755,2.966c5.238,0,10.157-0.987,14.754-2.966c4.598-1.977,8.625-4.694,12.086-8.156
			c3.459-3.459,6.178-7.488,8.156-12.085c1.977-4.597,2.965-9.514,2.965-14.755c0-5.238-0.988-10.157-2.965-14.755
			c-1.979-4.597-4.697-8.623-8.156-12.085c-3.461-3.459-7.488-6.177-12.086-8.156c-4.597-1.977-9.516-2.966-14.754-2.966
			c-5.241,0-10.158,0.989-14.755,2.966c-4.597,1.979-8.626,4.697-12.085,8.156c-3.462,3.462-6.18,7.488-8.156,12.085
			C-683.415,246.612-684.402,251.531-684.402,256.77z M-646.44,290.876c-4.746,0-9.171-0.89-13.271-2.669
			c-4.104-1.78-7.711-4.227-10.826-7.341c-3.113-3.114-5.561-6.722-7.34-10.825c-1.779-4.101-2.669-8.526-2.669-13.271
			s0.89-9.168,2.669-13.271c1.779-4.102,4.227-7.711,7.34-10.825c3.115-3.114,6.723-5.561,10.826-7.34
			c4.101-1.78,8.525-2.67,13.271-2.67c4.745,0,9.168,0.89,13.271,2.67c4.102,1.779,7.711,4.226,10.825,7.34s5.561,6.724,7.34,10.825
			c1.78,4.104,2.669,8.526,2.669,13.271s-0.889,9.171-2.669,13.271c-1.779,4.104-4.226,7.711-7.34,10.825s-6.724,5.561-10.825,7.341
			C-637.272,289.986-641.695,290.876-646.44,290.876z M-667.201,256.77c0,2.868,0.542,5.561,1.632,8.082
			c1.086,2.521,2.568,4.722,4.448,6.599c1.876,1.879,4.077,3.362,6.599,4.448c2.521,1.089,5.213,1.632,8.082,1.632
			c2.865,0,5.561-0.543,8.082-1.632c2.521-1.086,4.719-2.569,6.598-4.448c1.877-1.877,3.36-4.078,4.449-6.599
			c1.086-2.521,1.631-5.214,1.631-8.082c0-2.866-0.545-5.561-1.631-8.082c-1.089-2.521-2.572-4.72-4.449-6.599
			c-1.879-1.877-4.077-3.359-6.598-4.448c-2.521-1.087-5.217-1.631-8.082-1.631c-2.869,0-5.561,0.544-8.082,1.631
			c-2.521,1.089-4.723,2.571-6.599,4.448c-1.88,1.879-3.362,4.078-4.448,6.599C-666.659,251.209-667.201,253.903-667.201,256.77z"/>
	</g>
	<text transform="matrix(1 0 0 1 -1433.0947 -242.3945)" font-family="'LemonMilk'" font-size="41.6715">CO</text>
	<text transform="matrix(1 0 0 1 -1432.0947 -203.3945)" font-family="'MarketDeco'" font-size="41.6715">CO</text>
	<text transform="matrix(1 0 0 1 -1432.0947 -158.3945)" font-family="'MarketDeco'" font-size="41.6715">CO</text>
	
		<line fill="none" stroke="#000000" stroke-width="9" stroke-linecap="round" stroke-linejoin="round" stroke-miterlimit="10" x1="-1070.378" y1="-218.599" x2="-955.218" y2="-67.265"/>
	<text transform="matrix(1 0 0 1 -595.71 254.8691)" fill="#FFFFFF" font-family="'YikesMedium'" font-size="35.2794">food</text>
	<text transform="matrix(1 0 0 1 -595.75 282.0645)" fill="#FFFFFF" font-family="'YikesMedium'" font-size="35.2794">trucks</text>
	<text transform="matrix(1 0 0 1 -161.8164 136.9912)" fill="#FFFFFF" font-family="'YikesMedium'" font-size="27.0671">trucks</text>
	<g id="XMLID_10_">
		<g>
			<path fill="#EC008C" d="M-162.405-240.239c-0.071-4.178-0.403-5.251,5.238-5.251h76.564c2.908,0,4.528,0.618,5.498,3.169
				l5.778,15.767c3.391,7.165,10.145,5.7,12.624,9.657c1.666,2.798,2.316,17.758-0.234,22.528c-0.787,1.49-3.631,0.683-5.095-0.456
				v-0.163c-0.957-5.7-13.906-14.4-23.875-1.926c-1.464,1.829-0.931,2.766-5.648,2.766h-0.11h-34.488
				c-4.444,0-3.553,0.293-6.761-4.314c-2.668-3.872-6.585-5.284-10.86-4.887c-6.645,0.625-8.974,3.696-11.863,7.483
				c-1.158,1.516-6.761,3.384-8.31,1.718c-0.741-0.794,0.319-3.084,1.542-5.635v-0.228V-240.239z M-74.857-222.513
				c0.261-0.065,0.156-0.423,0.072-0.579l-5.89-15.266c-0.442-1.184-1.256-2.095-2.31-2.095h-12.741
				c-1.055,0-1.913,0.976-1.913,2.187v13.958c0,1.21,0.858,2.186,1.913,2.186h12.741C-82.106-222.123-76.751-221.693-74.857-222.513
				z"/>
		</g>
		<g>
		</g>
	</g>
</g>
<g id="Layer_5">
</g>
<g id="svgs">
	<polygon fill="#EC008C" points="-234.877,-303.444 -201.418,-245.49 -167.959,-187.536 -234.877,-187.536 -301.796,-187.536 
		-268.337,-245.49 	"/>
	<polygon opacity="0.9" fill="#2B2C6B" stroke="#2B2C6B" stroke-miterlimit="10" points="-213.34,-309.639 -181.92,-248.237 
		-150.499,-186.836 -213.34,-186.836 -276.182,-186.836 -244.761,-248.237 	"/>
	<polygon opacity="0.9" fill="#FDED18" points="-256.71,-291.792 -231.978,-244.492 -207.245,-197.188 -256.71,-197.188 
		-306.174,-197.188 -281.441,-244.492 	"/>
	<text transform="matrix(1 0 0 1 -161.0957 234.3906)" fill="#FFFFFF" font-family="'YikesMedium'" font-size="27.0671">food</text>
	<text transform="matrix(1 0 0 1 -161.8164 255.4238)" fill="#FFFFFF" font-family="'YikesMedium'" font-size="27.0671">trucks</text>
	<linearGradient id="SVGID_1_" gradientUnits="userSpaceOnUse" x1="-12.2129" y1="77.333" x2="291.1201" y2="77.333">
		<stop  offset="0" style="stop-color:#ED0D6D"/>
		<stop  offset="1" style="stop-color:#F05437"/>
	</linearGradient>
	
		<rect x="-12.213" y="-32.667" display="none" fill="url(#SVGID_1_)" stroke="#59A8D7" stroke-miterlimit="10" width="303.333" height="220"/>
	<circle fill-rule="evenodd" clip-rule="evenodd" fill="#FDED18" cx="-145.054" cy="27.459" r="10.946"/>
	<circle fill-rule="evenodd" clip-rule="evenodd" fill="#FDED18" cx="-75.861" cy="27.742" r="10.946"/>
	<circle fill-rule="evenodd" clip-rule="evenodd" cx="165.697" cy="122.218" r="12.891"/>
	<circle fill-rule="evenodd" clip-rule="evenodd" cx="246.338" cy="122.218" r="12.891"/>
	<g id="XMLID_9_">
		<g>
			<path fill="#EC008C" d="M-165.405-22.75c-0.071-4.178-0.403-5.251,5.238-5.251h76.564c2.908,0,4.528,0.618,5.498,3.169
				l5.778,15.767c3.391,7.165,10.145,5.701,12.624,9.657c1.666,2.798,2.316,17.758-0.234,22.527
				c-0.787,1.49-3.631,0.684-5.095-0.455v-0.163c-0.957-5.7-13.906-14.4-23.875-1.926c-1.464,1.828-0.931,2.766-5.648,2.766h-0.11
				h-34.488c-4.444,0-3.553,0.293-6.761-4.314c-2.668-3.872-6.585-5.284-10.86-4.887c-6.645,0.625-8.974,3.696-11.863,7.483
				c-1.158,1.516-6.761,3.384-8.31,1.718c-0.741-0.794,0.319-3.084,1.542-5.636v-0.228V-22.75z M-77.857-5.024
				c0.261-0.064,0.156-0.423,0.072-0.579l-5.89-15.266c-0.442-1.185-1.256-2.096-2.31-2.096h-12.741
				c-1.055,0-1.913,0.977-1.913,2.187V-6.82c0,1.211,0.858,2.187,1.913,2.187h12.741C-85.106-4.634-79.751-4.204-77.857-5.024z"/>
		</g>
		<g>
		</g>
	</g>
	<g id="XMLID_5_">
		<g>
			<path fill="#FDED18" d="M275.652-110.11c-0.11-6.41-0.62-8.06,8.04-8.06h117.67c4.45,0,6.93,0.93,8.43,4.81
				c0,0.02,0.01,0.04,0.021,0.06l8.88,24.22c5.21,11.01,15.59,8.76,19.399,14.84c2.561,4.3,3.561,27.3-0.359,34.63
				c-1.221,2.28-5.58,1.051-7.83-0.71v-0.25c-1.48-8.75-21.37-22.12-36.69-2.96c-2.25,2.811-1.43,4.25-8.68,4.25h-0.17h-53
				c-6.83,0-5.46,0.46-10.391-6.62c-4.109-5.96-10.119-8.119-16.689-7.51c-10.21,0.95-13.79,5.68-18.23,11.49
				c-1.779,2.33-10.39,5.21-12.77,2.64c-1.14-1.22,0.49-4.729,2.37-8.66v-0.34V-110.11z M410.192-82.87
				c0.399-0.1,0.24-0.65,0.1-0.88l-9.04-23.47c-0.689-1.82-1.93-3.22-3.56-3.22h-19.57c-1.63,0-2.939,1.5-2.939,3.36v21.45
				c0,1.86,1.31,3.37,2.939,3.37h19.57C399.052-82.26,407.282-81.61,410.192-82.87z"/>
		</g>
		<g>
		</g>
	</g>
	<polygon fill="#2B2C6B" points="52.98,18.646 78.836,76.877 104.691,135.109 52.98,135.109 1.271,135.109 27.127,76.877 	"/>
	<line fill="none" x1="38.5" y1="51.34" x2="67.128" y2="51.34"/>
	<g id="XMLID_12_">
		<g>
			<path fill="#FFFFFF" d="M142.801,60.842c-0.084-4.896-0.473-6.153,6.138-6.153h89.716c3.408,0,5.307,0.725,6.442,3.713
				l6.771,18.476c3.973,8.396,11.887,6.68,14.792,11.315c1.952,3.279,2.715,20.809-0.274,26.397
				c-0.923,1.746-4.255,0.801-5.97-0.533v-0.19c-1.121-6.68-16.295-16.874-27.977-2.258c-1.716,2.143-1.09,3.241-6.618,3.241h-0.13
				h-40.412c-5.208,0-4.163,0.343-7.923-5.056c-3.126-4.537-7.716-6.191-12.726-5.727c-7.785,0.732-10.515,4.331-13.9,8.77
				c-1.357,1.776-7.923,3.965-9.737,2.013c-0.869-0.931,0.374-3.614,1.808-6.604v-0.267V60.842z M245.387,81.612
				c0.305-0.076,0.183-0.496,0.084-0.679l-6.9-17.889c-0.519-1.388-1.472-2.455-2.707-2.455h-14.93
				c-1.235,0-2.242,1.145-2.242,2.562v16.355c0,1.418,1.007,2.562,2.242,2.562h14.93C236.893,82.069,243.168,82.573,245.387,81.612z
				"/>
		</g>
		<g>
		</g>
	</g>
	<polygon opacity="0.9" fill="#2B2C6B" points="124.806,28.604 143.892,81.672 162.977,134.738 124.806,134.738 86.635,134.738 
		105.72,81.672 	"/>
	<polygon opacity="0.8" fill="#59A8D7" points="89.171,6.044 121.824,70.649 154.479,135.259 89.171,135.259 23.861,135.259 
		56.516,70.649 	"/>
	<polygon fill="#FFFFFF" points="52.98,18.577 57.859,29.566 62.74,40.557 52.98,40.557 43.222,40.557 48.103,29.566 	"/>
	<polygon fill="#FFFFFF" points="89.17,5.044 96.655,19.852 104.14,34.661 89.17,34.661 74.2,34.661 81.685,19.852 	"/>
	<polygon fill="#FFFFFF" stroke="#FFFFFF" stroke-miterlimit="10" points="124.806,28.54 128.552,38.955 132.297,49.369 
		124.806,49.369 117.314,49.369 121.061,38.955 	"/>
	<g id="XMLID_8_">
		<g>
			<path fill="#F6881F" d="M-50.947,251.918c0.047,1.458,0.054,2.962,0.008,4.442h-0.353c0.038-1.488,0.022-2.992-0.031-4.442
				H-50.947z"/>
			<path fill="#58595B" d="M-51.292,256.36h0.353c-0.046,1.719-0.161,3.414-0.345,4.987h-0.354
				C-51.445,259.767-51.33,258.071-51.292,256.36z"/>
			<path fill="#58595B" d="M-50.947,251.918h-0.376c-0.053-1.335-0.138-2.632-0.253-3.836h0.392
				C-51.069,249.294-50.993,250.583-50.947,251.918z"/>
			<path fill="#F6881F" d="M-51.185,248.082h-0.392c-0.161-1.627-0.368-3.092-0.621-4.266h0.398
				C-51.537,245.013-51.33,246.471-51.185,248.082z"/>
			<path fill="#F6881F" d="M-51.323,251.918c0.054,1.45,0.069,2.954,0.031,4.442h-22.203h-80.382h-19.396v-4.442H-51.323z"/>
			<path fill="#F6881F" d="M-51.638,261.348h0.354c-0.153,1.296-0.354,2.509-0.606,3.582h-0.376
				C-51.998,263.856-51.791,262.636-51.638,261.348z"/>
			<path fill="#58595B" d="M-73.495,256.36h22.203c-0.038,1.711-0.153,3.406-0.346,4.987h-10.994
				c-2.033-1.75-4.604-3.093-6.958-3.706c-1.052-0.276-2.387-0.499-3.905-0.499V256.36z"/>
			<path fill="#58595B" d="M-51.323,251.918h-121.949v-3.836h121.696C-51.461,249.286-51.376,250.583-51.323,251.918z"/>
			<path fill="#F6881F" d="M-51.576,248.082h-121.696v-4.266h121.075C-51.944,244.99-51.737,246.455-51.576,248.082z"/>
			<path fill="#F6881F" d="M-62.632,261.348h10.994c-0.153,1.288-0.36,2.509-0.629,3.582h-7.403
				C-60.346,263.634-61.389,262.421-62.632,261.348z"/>
			<path fill="#58595B" d="M-51.799,243.816h-0.398c-0.238-1.104-0.507-1.949-0.798-2.439c0.038,0.061,0.1,0.092,0.161,0.092
				c0.038,0,0.069-0.008,0.1-0.031c0.092-0.054,0.123-0.176,0.062-0.261h0.008C-52.336,241.737-52.044,242.65-51.799,243.816z"/>
			<path fill="#58595B" d="M-52.267,264.93h0.376c-0.284,1.197-0.629,2.226-1.051,3.008c-0.199,0.376-0.507,0.652-0.913,0.829
				h-2.708c-0.998-0.276-1.979-0.775-2.67-1.312c-0.077-0.062-0.101-0.161-0.054-0.245c0.046,0.069,0.114,0.107,0.199,0.092
				c0.069-0.016,0.115-0.062,0.138-0.115c1.182,0.905,3.177,1.643,4.527,1.358c0.536-0.115,0.92-0.376,1.143-0.79
				C-52.872,266.994-52.535,266.035-52.267,264.93z"/>
			<path fill="#58595B" d="M-52.197,243.816h-121.075v-3.069h119.816c0.161,0.192,0.315,0.407,0.461,0.63
				C-52.704,241.867-52.436,242.712-52.197,243.816z"/>
			<path fill="#58595B" d="M-59.67,264.93h7.403c-0.269,1.105-0.605,2.064-1.013,2.824c-0.223,0.414-0.606,0.675-1.143,0.79
				c-1.351,0.284-3.346-0.453-4.527-1.358c0.023-0.03,0.031-0.068,0.023-0.107C-59.049,266.35-59.302,265.628-59.67,264.93z"/>
			<path fill="#58595B" d="M-52.673,241.177c0.062,0.085,0.03,0.207-0.062,0.261c-0.03,0.023-0.062,0.031-0.1,0.031
				c-0.062,0-0.123-0.031-0.161-0.092c-0.054-0.093-0.031-0.208,0.062-0.262c0.084-0.046,0.184-0.038,0.245,0.039
				C-52.681,241.162-52.681,241.169-52.673,241.177z"/>
			<path fill="#58595B" d="M-52.688,241.154c-0.062-0.077-0.161-0.085-0.245-0.039c-0.093,0.054-0.115,0.169-0.062,0.262
				c-0.146-0.223-0.3-0.438-0.461-0.63h0.483C-52.872,240.878-52.78,241.016-52.688,241.154z"/>
			<path fill="#F6881F" d="M-52.973,240.747h-0.483c-1.212-1.45-3.015-2.171-5.078-2.992c-1.366-0.544-2.809-1.12-4.189-1.964h0.774
				c1.182,0.66,2.401,1.144,3.561,1.604C-56.264,238.246-54.246,239.044-52.973,240.747z"/>
			<path fill="#F6881F" d="M-53.456,240.747h-119.816v-4.956h93.885h16.664c1.381,0.844,2.823,1.42,4.189,1.964
				C-56.471,238.576-54.668,239.297-53.456,240.747z"/>
			<path fill="#58595B" d="M-56.562,268.767h2.708c-0.146,0.062-0.307,0.115-0.483,0.153c-0.238,0.046-0.476,0.068-0.729,0.068
				C-55.55,268.988-56.057,268.904-56.562,268.767z"/>
			<path fill="#58595B" d="M-58.926,267.078c0.008,0.039,0,0.077-0.023,0.107c-0.015-0.008-0.038-0.022-0.054-0.038
				c-0.084-0.062-0.199-0.046-0.269,0.038c-0.008,0.008-0.008,0.016-0.015,0.023c-0.008-0.023-0.016-0.046-0.023-0.069
				c-0.115-0.698-0.398-1.45-0.828-2.21h0.468C-59.302,265.628-59.049,266.35-58.926,267.078z"/>
			<path fill="#58595B" d="M-59.003,267.147c0.016,0.016,0.039,0.03,0.054,0.038c-0.022,0.054-0.068,0.1-0.138,0.115
				c-0.085,0.016-0.153-0.022-0.199-0.092c0.007-0.008,0.007-0.016,0.015-0.023C-59.202,267.102-59.087,267.086-59.003,267.147z"/>
			<path fill="#F6881F" d="M-59.67,264.93h-0.468c-0.684-1.22-1.734-2.47-3.077-3.582h0.583
				C-61.389,262.421-60.346,263.634-59.67,264.93z"/>
			<path fill="#FDED18" d="M-61.212,268.767c0.529,1.411,0.836,2.931,0.836,4.526c0,7.127-5.785,12.904-12.912,12.904
				c-7.128,0-12.905-5.777-12.905-12.904c0-1.596,0.308-3.115,0.837-4.526c0.529-1.412,1.289-2.709,2.248-3.837
				c1.335-1.557,3.022-2.792,4.948-3.582c1.504-0.614,3.153-0.959,4.872-0.959c1.726,0,3.368,0.345,4.872,0.959
				c1.933,0.79,3.621,2.025,4.956,3.582C-62.501,266.058-61.741,267.354-61.212,268.767z"/>
			<path fill="#58595B" d="M-61.949,235.791h-0.774c-0.99-0.599-1.949-1.335-2.839-2.302h0.537
				C-64.066,234.472-63.022,235.2-61.949,235.791z"/>
			<path fill="#58595B" d="M-62.632,261.348h-0.583c-1.733-1.45-3.951-2.678-6.476-3.338c-3.022-0.782-8.4-1.166-13.894,3.338
				h-0.614c3.836-3.292,7.649-4.205,10.703-4.205c1.519,0,2.854,0.223,3.905,0.499C-67.235,258.255-64.665,259.598-62.632,261.348z"
				/>
			<path fill="#58595B" d="M-62.724,235.791h-16.664v-0.345c2.532,0,4.289-0.208,5.194-0.606c0.146-0.031,0.253-0.123,0.299-0.253
				c0.107-0.254-0.022-0.568-0.092-0.676l-0.161-0.422h8.585C-64.673,234.456-63.714,235.192-62.724,235.791z"/>
			<path fill="#F6881F" d="M-65.025,233.489h-0.537c-0.852-0.921-1.642-2.056-2.31-3.476c0.039,0.046,0.1,0.069,0.153,0.069
				c0.023,0,0.047,0,0.069-0.016c0.1-0.03,0.146-0.146,0.107-0.245l-0.016-0.031c0.008,0.008,0.016,0.008,0.016,0.016
				C-66.812,231.341-65.961,232.53-65.025,233.489z"/>
			<path fill="#F6881F" d="M-65.562,233.489h-8.585l-2.079-5.394h7.649l0.675,1.842c0,0.008,0,0.015,0.008,0.022
				c0,0.008,0,0.008,0,0.016c0.008,0.016,0.016,0.023,0.022,0.038C-67.204,231.434-66.414,232.568-65.562,233.489z"/>
			<path fill="#F6881F" d="M-67.542,229.822c0.038,0.1-0.008,0.215-0.107,0.245c-0.022,0.016-0.046,0.016-0.069,0.016
				c-0.054,0-0.114-0.023-0.153-0.069c-0.007-0.015-0.015-0.03-0.022-0.054c-0.008-0.008-0.008-0.015-0.008-0.022
				c-0.023-0.093,0.023-0.185,0.1-0.223c0.092-0.038,0.199-0.008,0.245,0.076L-67.542,229.822z"/>
			<path fill="#F6881F" d="M-68.171,228.096l0.613,1.695c-0.046-0.084-0.153-0.114-0.245-0.076c-0.076,0.038-0.123,0.13-0.1,0.223
				l-0.675-1.842h0.398H-68.171z"/>
			<path d="M-67.895,229.96c0.008,0.023,0.016,0.039,0.022,0.054c-0.007-0.015-0.015-0.022-0.022-0.038
				C-67.895,229.968-67.895,229.968-67.895,229.96z"/>
			<polygon fill="#58595B" points="-68.738,226.562 -68.179,228.096 -68.577,228.096 -69.138,226.562 			"/>
			<polygon fill="#58595B" points="-69.138,226.562 -68.577,228.096 -76.227,228.096 -76.817,226.562 			"/>
			<polygon fill="#F6881F" points="-71.071,220.178 -68.738,226.562 -69.138,226.562 -71.485,220.178 -71.079,220.178 			"/>
			<polygon fill="#F6881F" points="-69.138,226.562 -76.817,226.562 -79.272,220.178 -71.485,220.178 			"/>
			<polygon fill="#58595B" points="-71.354,219.411 -71.079,220.178 -71.485,220.178 -71.762,219.411 			"/>
			<polygon fill="#F6881F" points="-73.112,214.616 -71.354,219.411 -71.762,219.411 -73.519,214.616 			"/>
			<polygon fill="#58595B" points="-71.762,219.411 -71.485,220.178 -79.272,220.178 -79.572,219.411 			"/>
			<path fill="#F6881F" d="M-73.519,214.616l1.757,4.795h-7.811l-1.35-3.507c-0.185-0.49-0.407-0.928-0.668-1.288H-73.519z"/>
			<polygon fill="#58595B" points="-73.25,214.232 -73.112,214.616 -73.519,214.616 -73.664,214.232 -73.258,214.232 			"/>
			<path fill="#F6881F" d="M-74.523,210.765l1.266,3.468h-0.406l-1.044-2.854c0.023,0.077,0.1,0.123,0.177,0.123
				c0.023,0,0.046-0.008,0.069-0.016c0.1-0.038,0.146-0.146,0.107-0.245c-0.069-0.192-0.146-0.376-0.223-0.545
				C-74.555,210.711-74.539,210.733-74.523,210.765z"/>
			<path fill="#58595B" d="M-73.495,256.36v0.782c-3.054,0-6.867,0.913-10.703,4.205h-59.574c-2.586-2.87-6.023-4.358-10.104-4.358
				v-0.629H-73.495z"/>
			<path fill="#58595B" d="M-73.519,214.616h-8.071c-0.1-0.139-0.207-0.269-0.314-0.384h8.24L-73.519,214.616z"/>
			<path fill="#F6881F" d="M-74.708,211.378l1.044,2.854h-8.24c-0.545-0.599-1.204-0.921-1.926-0.921h-15.015
				c-0.721,0-1.373,0.353-1.818,0.921h-72.609v-1.374c0-0.107-0.085-0.191-0.192-0.191s-0.191,0.084-0.191,0.191v1.374h-3.806
				v-0.284c0.107,0,0.192-0.092,0.192-0.191l-0.016-0.744c0-2.148-0.069-3.468,0.675-4.235c0.714-0.729,2.202-1.013,5.317-1.013
				h90.278c3.185,0,5.133,0.567,6.284,3.567C-74.723,211.348-74.716,211.362-74.708,211.378z"/>
			<path fill="#58595B" d="M-73.986,233.911c0.069,0.107,0.199,0.422,0.092,0.676c-0.046,0.13-0.153,0.222-0.299,0.253
				c-0.905,0.398-2.662,0.606-5.194,0.606c-1.343,0-2.632-0.062-3.491-0.101c-0.437-0.015-0.774-0.03-0.951-0.03h-15.015
				c-1.059,0-1.956-0.76-2.302-1.826h0.208c0.329,0.959,1.135,1.635,2.094,1.635h15.015c1.044,0,7.357,0.498,9.591-0.469
				c0.307-0.076,0.184-0.498,0.076-0.675l-0.191-0.491h0.207L-73.986,233.911z"/>
			<path fill="#58595B" d="M-74.163,233.98c0.107,0.177,0.23,0.599-0.076,0.675c-2.233,0.967-8.547,0.469-9.591,0.469h-15.015
				c-0.959,0-1.765-0.676-2.094-1.635h0.199c0.322,0.852,1.051,1.442,1.895,1.442h15.015c0.185,0,0.521,0.016,0.967,0.031
				c0.852,0.038,2.141,0.1,3.476,0.1c2.479,0,4.182-0.2,5.071-0.583c0.062-0.016,0.069-0.031,0.069-0.039
				c0.03-0.076-0.016-0.261-0.077-0.36l-0.23-0.591h0.2L-74.163,233.98z"/>
			<polygon fill="#F6881F" points="-76.227,228.096 -74.147,233.489 -74.354,233.489 -76.426,228.096 			"/>
			<path fill="#F6881F" d="M-74.354,211.24c0.038,0.1-0.008,0.207-0.107,0.245c-0.023,0.008-0.046,0.016-0.069,0.016
				c-0.077,0-0.153-0.046-0.177-0.123c-0.008-0.016-0.015-0.03-0.022-0.046l-0.153-0.43c-0.039-0.1,0.015-0.215,0.107-0.253
				c0.068-0.023,0.146-0.008,0.191,0.038c0,0,0,0,0.008,0.008C-74.501,210.864-74.424,211.048-74.354,211.24z"/>
			<polygon fill="#F6881F" points="-76.426,228.096 -74.354,233.489 -74.555,233.489 -76.634,228.096 			"/>
			<path fill="#F6881F" d="M-74.585,210.688c-0.046-0.046-0.123-0.062-0.191-0.038c-0.093,0.038-0.146,0.153-0.107,0.253l0.153,0.43
				c-1.151-3-3.1-3.567-6.284-3.567c0.107,0,0.192-0.085,0.192-0.192s-0.085-0.191-0.192-0.191
				C-77.922,207.381-75.836,207.934-74.585,210.688z"/>
			<polygon fill="#58595B" points="-76.817,226.562 -76.227,228.096 -76.426,228.096 -77.017,226.562 			"/>
			<polygon fill="#58595B" points="-76.426,228.096 -76.634,228.096 -77.225,226.562 -77.017,226.562 			"/>
			<polygon fill="#F6881F" points="-79.272,220.178 -76.817,226.562 -77.017,226.562 -79.479,220.178 			"/>
			<polygon fill="#F6881F" points="-77.017,226.562 -77.225,226.562 -79.68,220.178 -79.479,220.178 			"/>
			<polygon fill="#58595B" points="-79.272,220.178 -79.479,220.178 -79.771,219.411 -79.572,219.411 			"/>
			<path fill="#58595B" d="M-79.388,235.446v0.345h-93.885v-2.302h72.126c0.346,1.066,1.243,1.826,2.302,1.826h15.015
				c0.177,0,0.515,0.016,0.951,0.03C-82.02,235.385-80.73,235.446-79.388,235.446z"/>
			<polygon fill="#58595B" points="-79.771,219.411 -79.479,220.178 -79.68,220.178 -79.979,219.411 			"/>
			<path fill="#F6881F" d="M-80.922,215.904l1.35,3.507h-0.199l-1.327-3.438c-0.191-0.506-0.445-0.975-0.736-1.357h0.245
				C-81.329,214.977-81.106,215.414-80.922,215.904z"/>
			<path fill="#F6881F" d="M-79.771,219.411h-0.207l-1.297-3.368c-0.215-0.575-0.49-1.051-0.798-1.427h0.238
				c0.291,0.383,0.545,0.852,0.736,1.357L-79.771,219.411z"/>
			<circle fill="#F6881F" cx="-81.015" cy="207.573" r="0.192"/>
			<path fill="#F6881F" d="M-171.293,207.381h90.278c-0.107,0-0.191,0.084-0.191,0.191s0.084,0.192,0.191,0.192h-90.278
				c0.107,0,0.191-0.085,0.191-0.192S-171.186,207.381-171.293,207.381z"/>
			<path fill="#58595B" d="M-81.59,214.616h-0.245c-0.115-0.139-0.223-0.269-0.346-0.384h0.276
				C-81.797,214.348-81.689,214.478-81.59,214.616z"/>
			<path fill="#58595B" d="M-81.835,214.616h-0.238c-0.122-0.146-0.253-0.276-0.384-0.384h0.276
				C-82.058,214.348-81.95,214.478-81.835,214.616z"/>
			<path fill="#F6881F" d="M-81.904,214.232h-0.276c-0.46-0.453-1.021-0.729-1.649-0.729h-15.015c-0.621,0-1.166,0.284-1.572,0.729
				h-0.246c0.445-0.568,1.098-0.921,1.818-0.921h15.015C-83.108,213.312-82.449,213.634-81.904,214.232z"/>
			<path fill="#F6881F" d="M-82.181,214.232h-0.276c-0.414-0.354-0.882-0.537-1.373-0.537h-15.015c-0.491,0-0.943,0.199-1.304,0.537
				h-0.269c0.406-0.445,0.951-0.729,1.572-0.729h15.015C-83.201,213.503-82.641,213.779-82.181,214.232z"/>
			<path fill="#F6881F" d="M-84.198,261.348h0.614c-1.174,0.959-2.348,2.14-3.507,3.582h-0.491c0.054-0.068,0.107-0.138,0.169-0.214
				C-86.347,263.381-85.272,262.268-84.198,261.348z"/>
			<path fill="#F6881F" d="M-143.772,261.348h59.574c-1.074,0.92-2.148,2.033-3.215,3.368c-0.062,0.076-0.115,0.146-0.169,0.214
				h-53.574c-0.031-0.038-0.054-0.076-0.085-0.122c-0.36-0.537-0.782-1.166-1.289-1.896
				C-142.914,262.353-143.328,261.831-143.772,261.348z"/>
			<path fill="#58595B" d="M-87.091,264.93c-0.008,0.008-0.016,0.023-0.022,0.031c-0.33,0.406-0.576,0.79-0.798,1.12
				c-0.921,1.427-1.436,2.21-6.016,2.21c-0.022,0-0.038,0-0.062-0.016c0.069-0.023,0.123-0.092,0.123-0.177
				c0-0.076-0.046-0.146-0.115-0.177c0.016-0.015,0.038-0.015,0.054-0.015c4.373,0,4.818-0.683,5.693-2.033
				c0.184-0.276,0.391-0.599,0.651-0.944H-87.091z"/>
			<path fill="#58595B" d="M-141.156,264.93h53.574c-0.261,0.346-0.468,0.668-0.651,0.944c-0.875,1.351-1.32,2.033-5.693,2.033
				c-0.016,0-0.038,0-0.054,0.015c-0.008,0-0.016-0.007-0.022,0c-0.016-0.015-0.039-0.015-0.054-0.015h-40.663h-0.897
				C-139.093,267.93-139.139,267.922-141.156,264.93z"/>
			<path fill="#58595B" d="M-93.98,267.922c0.069,0.031,0.115,0.101,0.115,0.177c0,0.085-0.054,0.153-0.123,0.177
				c-0.076-0.023-0.13-0.092-0.13-0.177c0-0.076,0.046-0.146,0.115-0.177C-93.996,267.915-93.988,267.922-93.98,267.922z"/>
			<path fill="#58595B" d="M-93.988,268.275c-0.022,0.008-0.046,0.016-0.068,0.016h-40.663c0.107,0,0.191-0.085,0.191-0.192
				s-0.084-0.191-0.191-0.191h40.663c0.015,0,0.038,0,0.054,0.015c-0.069,0.031-0.115,0.101-0.115,0.177
				C-94.118,268.184-94.064,268.252-93.988,268.275z"/>
			<path fill="#58595B" d="M-100.417,214.232h0.269c-0.123,0.115-0.23,0.245-0.322,0.384h-0.23
				C-100.617,214.478-100.524,214.348-100.417,214.232z"/>
			<path fill="#58595B" d="M-100.417,214.232c-0.107,0.115-0.2,0.245-0.284,0.384h-0.215c0.069-0.139,0.153-0.269,0.253-0.384
				H-100.417z"/>
			<path fill="#F6881F" d="M-100.701,214.616h0.23c-0.276,0.406-0.438,0.912-0.438,1.465v3.33h-0.191v-3.33
				C-101.1,215.536-100.954,215.03-100.701,214.616z"/>
			<path fill="#58595B" d="M-173.272,214.232h72.609c-0.1,0.115-0.184,0.245-0.253,0.384h-72.356V214.232z"/>
			<path fill="#F6881F" d="M-100.916,214.616h0.215c-0.253,0.414-0.398,0.92-0.398,1.465v3.33h-0.192v-3.33
				C-101.292,215.544-101.153,215.038-100.916,214.616z"/>
			<path fill="#F6881F" d="M-100.739,233.489h-0.199c-0.107-0.291-0.161-0.613-0.161-0.951v-4.442h0.191v4.442
				C-100.908,232.876-100.847,233.198-100.739,233.489z"/>
			<rect x="-101.1" y="226.562" fill="#58595B" width="0.191" height="1.534"/>
			<rect x="-101.1" y="220.178" fill="#F6881F" width="0.191" height="6.384"/>
			<rect x="-101.1" y="219.411" fill="#58595B" width="0.191" height="0.767"/>
			<path fill="#F6881F" d="M-173.272,214.616h72.356c-0.237,0.422-0.376,0.928-0.376,1.465v3.33h-71.98V214.616z"/>
			<path fill="#F6881F" d="M-100.938,233.489h-0.208c-0.092-0.299-0.146-0.613-0.146-0.951v-4.442h0.192v4.442
				C-101.1,232.876-101.046,233.198-100.938,233.489z"/>
			<rect x="-101.292" y="226.562" fill="#58595B" width="0.192" height="1.534"/>
			<rect x="-101.292" y="220.178" fill="#F6881F" width="0.192" height="6.384"/>
			<rect x="-101.292" y="219.411" fill="#58595B" width="0.192" height="0.767"/>
			<path fill="#F6881F" d="M-101.146,233.489h-72.126v-5.394h71.98v4.442C-101.292,232.876-101.238,233.19-101.146,233.489z"/>
			<rect x="-173.272" y="226.562" fill="#58595B" width="71.98" height="1.534"/>
			<rect x="-173.272" y="220.178" fill="#F6881F" width="71.98" height="6.384"/>
			<rect x="-173.272" y="219.411" fill="#58595B" width="71.98" height="0.767"/>
			<circle fill="#58595B" cx="-134.72" cy="268.099" r="0.192"/>
			<path fill="#58595B" d="M-135.617,267.907h0.897c-0.107,0-0.191,0.084-0.191,0.191s0.084,0.192,0.191,0.192h-0.897
				c-3.698,0.03-3.752-0.016-5.938-3.269c-0.023-0.031-0.038-0.062-0.062-0.093h0.461
				C-139.139,267.922-139.093,267.93-135.617,267.907z"/>
			<path fill="#F6881F" d="M-141.156,264.93h-0.461c-0.345-0.514-0.752-1.112-1.228-1.803c-0.445-0.645-0.928-1.242-1.45-1.779
				h0.522c0.444,0.483,0.858,1.005,1.242,1.564c0.507,0.729,0.929,1.358,1.289,1.896
				C-141.21,264.854-141.188,264.892-141.156,264.93z"/>
			<path fill="#FDED18" d="M-142.668,268.767c0.452,1.319,0.706,2.724,0.706,4.196c0,7.128-5.777,12.904-12.905,12.904
				c-7.127,0-12.904-5.776-12.904-12.904c0-1.473,0.261-2.877,0.706-4.196c0.483-1.404,1.196-2.693,2.102-3.837
				c1.205-1.503,2.739-2.73,4.496-3.582c1.695-0.821,3.591-1.289,5.601-1.289c2.011,0,3.905,0.468,5.601,1.289
				c1.757,0.852,3.292,2.079,4.496,3.582C-143.865,266.073-143.151,267.362-142.668,268.767z"/>
			<path fill="#58595B" d="M-143.772,261.348h-0.522c-2.823-2.978-6.651-4.327-11.186-3.897c-4.611,0.43-7.427,1.856-9.675,3.897
				h-0.575c2.348-2.24,5.271-3.821,10.219-4.281c0.553-0.054,1.098-0.077,1.635-0.077
				C-149.796,256.989-146.358,258.478-143.772,261.348z"/>
			<path fill="#58595B" d="M-153.877,256.36v0.629c-0.537,0-1.082,0.023-1.635,0.077c-4.948,0.46-7.871,2.041-10.219,4.281h-7.619
				c0.046-0.031,0.077-0.093,0.077-0.154v-4.833H-153.877z"/>
			<path fill="#F6881F" d="M-165.73,261.348h0.575c-1.166,1.043-2.179,2.255-3.207,3.582h-0.483
				C-167.833,263.618-166.844,262.406-165.73,261.348z"/>
			<path fill="#F6881F" d="M-173.35,261.348h7.619c-1.113,1.059-2.103,2.271-3.115,3.582h-9.1c0.676-1.112,1.535-2.386,2.325-3.582
				h2.041c0.03,0.022,0.068,0.038,0.114,0.038C-173.418,261.386-173.38,261.37-173.35,261.348z"/>
			<path fill="#58595B" d="M-168.846,264.93h0.483c-0.307,0.392-0.614,0.799-0.929,1.213l-0.038,0.046
				c-0.774,1.013-3.016,2.079-5.194,2.578h-4.089c-0.33-0.131-0.599-0.314-0.806-0.537c-0.384-0.415,0.223-1.696,1.189-3.3h0.283
				c-0.92,1.496-1.511,2.701-1.196,3.039c0.483,0.521,1.389,0.767,2.639,0.705c2.678-0.13,6.016-1.604,6.867-2.716l0.038-0.054
				C-169.345,265.574-169.091,265.245-168.846,264.93z"/>
			<path fill="#58595B" d="M-177.945,264.93h9.1c-0.245,0.315-0.499,0.645-0.752,0.975l-0.038,0.054
				c-0.852,1.112-4.189,2.586-6.867,2.716c-1.25,0.062-2.155-0.184-2.639-0.705C-179.456,267.631-178.865,266.426-177.945,264.93z"
				/>
			<circle fill="#F6881F" cx="-171.293" cy="207.573" r="0.192"/>
			<path fill="#F6881F" d="M-171.293,207.381c-0.107,0-0.192,0.084-0.192,0.191s0.085,0.192,0.192,0.192
				c-3.115,0-4.604,0.284-5.317,1.013c-0.744,0.768-0.675,2.087-0.675,4.235l0.016,0.744c0,0.1-0.085,0.191-0.192,0.191
				s-0.191-0.084-0.191-0.191l-0.016-0.737c-0.046-2.187-0.076-3.629,0.783-4.511C-176.081,207.688-174.562,207.381-171.293,207.381
				z"/>
			<path fill="#58595B" d="M-173.272,256.36v4.833c0,0.062-0.031,0.123-0.077,0.154h-0.229c-0.047-0.031-0.077-0.093-0.077-0.154
				v-3.038c0.023-0.054,0.046-0.1,0.069-0.146c0.038-0.092,0.008-0.191-0.069-0.245v-1.404H-173.272z"/>
			<rect x="-173.656" y="251.918" fill="#F6881F" width="0.384" height="4.442"/>
			<rect x="-173.656" y="248.082" fill="#58595B" width="0.384" height="3.836"/>
			<rect x="-173.656" y="243.816" fill="#F6881F" width="0.384" height="4.266"/>
			<rect x="-173.656" y="240.747" fill="#58595B" width="0.384" height="3.069"/>
			<rect x="-173.656" y="235.791" fill="#F6881F" width="0.384" height="4.956"/>
			<rect x="-173.656" y="233.489" fill="#58595B" width="0.384" height="2.302"/>
			<rect x="-173.656" y="228.096" fill="#F6881F" width="0.384" height="5.394"/>
			<rect x="-173.656" y="226.562" fill="#58595B" width="0.384" height="1.534"/>
			<rect x="-173.656" y="220.178" fill="#F6881F" width="0.384" height="6.384"/>
			<rect x="-173.656" y="219.411" fill="#58595B" width="0.384" height="0.767"/>
			<rect x="-173.656" y="214.616" fill="#F6881F" width="0.384" height="4.795"/>
			<rect x="-173.656" y="214.232" fill="#58595B" width="0.384" height="0.384"/>
			<path fill="#F6881F" d="M-173.272,212.858v1.374h-0.384v-1.374c0-0.107,0.084-0.191,0.191-0.191
				S-173.272,212.751-173.272,212.858z"/>
			<path fill="#58595B" d="M-173.579,261.348h0.229c-0.03,0.022-0.068,0.038-0.115,0.038
				C-173.511,261.386-173.549,261.37-173.579,261.348z"/>
			<path fill="#58595B" d="M-173.656,257.765c0.077,0.054,0.107,0.153,0.069,0.245c-0.023,0.046-0.046,0.092-0.069,0.146V257.765z"
				/>
			<path fill="#58595B" d="M-173.579,261.348h-2.041c0.806-1.228,1.55-2.379,1.964-3.192v3.038
				C-173.656,261.255-173.626,261.316-173.579,261.348z"/>
			<path fill="#58595B" d="M-173.656,257.765v0.391c-0.414,0.813-1.158,1.965-1.964,3.192h-0.23v-0.192
				c0.744-1.182,1.442-2.34,1.91-3.314c0.054-0.092,0.169-0.13,0.261-0.092C-173.672,257.757-173.664,257.757-173.656,257.765z"/>
			<path fill="#58595B" d="M-173.656,256.36v1.404c-0.008-0.008-0.016-0.008-0.023-0.016c-0.092-0.038-0.207,0-0.261,0.092
				c-0.468,0.975-1.166,2.133-1.91,3.314v-4.795H-173.656z"/>
			<path fill="#58595B" d="M-178.612,268.767h4.089c-0.675,0.161-1.343,0.261-1.964,0.291c-0.123,0-0.245,0.008-0.368,0.008
				C-177.546,269.065-178.137,268.966-178.612,268.767z"/>
			<path fill="#F6881F" d="M-175.851,261.348h0.23c-0.79,1.196-1.649,2.47-2.325,3.582h-0.283c0.69-1.158,1.564-2.485,2.378-3.774
				V261.348z"/>
		</g>
		<g>
		</g>
	</g>
	<circle opacity="0.9" fill="#59A8D7" cx="-318" cy="-421.061" r="35.865"/>
	<polygon opacity="0.9" fill="#59A8D7" points="-183.84,-284.069 -164.109,-235.395 -144.379,-186.72 -183.84,-186.72 
		-223.301,-186.72 -203.57,-235.395 	"/>
	<polygon opacity="0.8" fill="#EC008C" stroke="#EC008C" stroke-miterlimit="10" points="-365.552,-147.232 -345.821,-113.058 
		-326.091,-78.883 -365.552,-78.883 -405.013,-78.883 -385.282,-113.058 	"/>
	<circle fill-rule="evenodd" clip-rule="evenodd" fill="#FDED18" cx="-142.054" cy="-190.03" r="10.946"/>
	<circle fill-rule="evenodd" clip-rule="evenodd" fill="#FDED18" cx="-72.861" cy="-189.747" r="10.946"/>
</g>
<g id="text_svg">
	<g>
		<g id="XMLID_6_">
			<g>
				<path d="M254.523-65.418c0.068,1.44,0.092,2.942,0.068,4.437H232.23h-80.281h-23.557v-4.437H254.523z"/>
				<path fill="#FDED18" d="M232.23-60.981h22.361c-0.022,1.701-0.114,3.387-0.268,4.981h-12.499
					c-2.56-1.878-5.932-3.234-9.595-3.234V-60.981z"/>
				<path fill="#FDED18" d="M254.523-65.418H128.393v-3.832h125.84C254.362-68.055,254.462-66.768,254.523-65.418z"/>
				<path d="M241.825-56h12.499c-0.131,1.241-0.299,2.414-0.514,3.486h-8.545C244.431-53.739,243.258-54.95,241.825-56z"/>
				<path d="M254.232-69.25h-125.84v-4.261H253.52C253.811-72.385,254.056-70.921,254.232-69.25z"/>
				<path fill="#FDED18" d="M245.266-52.514h8.545c-0.307,1.518-0.705,2.828-1.211,3.786c-0.935,1.747-4.276,0.805-6-0.544v-0.192
					C246.431-50.437,245.963-51.479,245.266-52.514z"/>
				<path fill="#FDED18" d="M253.52-73.511H128.393v-3.065h123.364c0.422,0.375,0.805,0.805,1.119,1.311
					C253.105-74.875,253.328-74.27,253.52-73.511z"/>
				<path d="M251.757-76.577H128.393v-4.95h77.905c0.199,0.069,0.406,0.115,0.621,0.115h14.997c0.873,0,5.448,0.345,8.215-0.115
					h12.039C245.526-79.098,249.389-78.684,251.757-76.577z"/>
				<path fill="#FDED18" d="M242.17-81.527h-12.039c0.528-0.084,1.004-0.199,1.364-0.353c0.307-0.077,0.184-0.498,0.076-0.674
					l-0.49-1.272h8.675C240.507-82.891,241.319-82.14,242.17-81.527z"/>
				<path d="M239.756-83.826h-8.675l-1.777-4.621h8.038l0.667,1.808C238.53-85.542,239.12-84.615,239.756-83.826z"/>
				<polygon fill="#FDED18" points="236.782,-89.979 237.342,-88.447 229.304,-88.447 228.713,-89.979 				"/>
				<polygon points="234.729,-95.589 236.782,-89.979 228.713,-89.979 226.552,-95.589 				"/>
				<polygon fill="#FDED18" points="234.445,-96.355 234.729,-95.589 226.552,-95.589 226.253,-96.355 				"/>
				<path d="M232.69-101.145l1.755,4.79h-8.192l-1.609-4.184c-0.084-0.215-0.168-0.406-0.268-0.605H232.69z"/>
				<path fill="#FDED18" d="M232.553-101.528l0.138,0.383h-8.314c-0.069-0.13-0.139-0.261-0.215-0.383H232.553z"/>
				<path d="M128.393-102.754c-0.085-4.912-0.476-6.177,6.161-6.177h90.175c3.41,0,5.318,0.713,6.46,3.694l1.364,3.709h-8.392
					c-0.544-0.881-1.311-1.479-2.245-1.479h-14.997c-0.912,0-1.679,0.605-2.039,1.479h-76.487V-102.754z"/>
				<path fill="#FDED18" d="M232.23-60.981v1.747c-3.02,0-6.245,0.927-9.38,3.234H161c-2.545-2.338-5.671-3.38-9.051-3.38v-1.602
					H232.23z"/>
				<path d="M161-56h61.851c-1.257,0.927-2.498,2.084-3.709,3.486h-55.307c-0.222-0.321-0.452-0.667-0.713-1.034
					C162.471-54.49,161.759-55.303,161-56z"/>
				<path fill="#FDED18" d="M163.835-52.514h55.307c-0.223,0.253-0.444,0.506-0.659,0.782c-1.724,2.153-1.096,3.257-6.651,3.257
					H211.7h-40.615c-3.135,0-4.016,0.122-5.035-0.943C165.49-50.008,164.885-50.966,163.835-52.514z"/>
				<path fill="#FDED18" d="M206.298-81.527h-77.905v-2.299h76.288C204.742-82.723,205.401-81.818,206.298-81.527z"/>
				<path fill="#FDED18" d="M204.88-101.528c-0.046,0.123-0.084,0.253-0.122,0.383h-76.365v-0.383H204.88z"/>
				<path d="M128.393-101.145h76.365c-0.054,0.23-0.092,0.459-0.092,0.712v4.077h-76.273V-101.145z"/>
				<path d="M204.666-83.995c0,0.054,0.007,0.115,0.015,0.168h-76.288v-4.621h76.273V-83.995z"/>
				<rect x="128.393" y="-89.979" fill="#FDED18" width="76.273" height="1.533"/>
				<rect x="128.393" y="-95.589" width="76.273" height="5.61"/>
				<rect x="128.393" y="-96.355" fill="#FDED18" width="76.273" height="0.766"/>
				<path fill="#FDED18" d="M151.949-60.981v1.602c-0.528,0-1.072,0.023-1.617,0.077c-4.153,0.383-6.874,1.594-9.02,3.303h-12.92
					v-4.981H151.949z"/>
				<path fill="#FDED18" d="M128.393-56h12.92c-1.265,1.004-2.337,2.191-3.387,3.486h-10.752h-0.115
					C127.511-53.854,128.062-55.203,128.393-56z"/>
				<path fill="#FDED18" d="M127.174-52.514h10.752c-0.521,0.644-1.035,1.318-1.563,2.016c-0.123,0.161-0.291,0.329-0.49,0.49
					c-1.985,1.609-7.372,3.027-9.296,1.533c-0.054-0.054-0.092-0.115-0.131-0.177c-0.03-0.054-0.053-0.115-0.068-0.184
					c-0.123-0.46-0.016-1.227,0.215-2.107C126.737-51.426,126.944-51.954,127.174-52.514z"/>
				<path d="M127.059-52.514h0.115c-0.229,0.56-0.437,1.088-0.582,1.571C126.714-51.44,126.875-51.978,127.059-52.514z"/>
				<path d="M126.445-48.651c0.039,0.062,0.077,0.123,0.131,0.177C126.522-48.521,126.477-48.582,126.445-48.651z"/>
				<path d="M126.377-48.835c0.016,0.068,0.038,0.13,0.068,0.184C126.407-48.705,126.385-48.767,126.377-48.835z"/>
			</g>
			<g>
			</g>
		</g>
	</g>
	<text transform="matrix(1 0 0 1 -170.9463 -59)" font-family="'YikesMedium'" font-size="23.6332">street</text>
	<text transform="matrix(1 0 0 1 -171.4111 -268.6865)" font-family="'YikesMedium'" font-size="23.6332" letter-spacing="2">food</text>
	<text transform="matrix(1 0 0 1 -309.8242 -178.2646)" font-family="'Phosphate-Inline'" font-size="134.7756">CO</text>
	<text transform="matrix(1 0 0 1 -149.9824 -33.6797)" font-family="'YikesMedium'" font-size="23.6332">food</text>
	<text transform="matrix(1 0 0 1 -312.9775 39.6904)" font-family="'Phosphate-Inline'" font-size="134.7756">CO</text>
	<text transform="matrix(1 0 0 1 -149.3574 -250.1689)" font-family="'YikesMedium'" font-size="23.6332" letter-spacing="1">trucks</text>
	<g>
		<g id="XMLID_37_">
			<g>
				<path d="M149.312,79.807c2.079,4.837,3.116,9.969,3.116,15.406c0,5.437-1.037,10.573-3.116,15.405
					c-2.073,4.837-4.905,9.048-8.495,12.632c-3.584,3.59-7.795,6.421-12.626,8.495c-4.837,2.079-9.969,3.116-15.411,3.116
					c-5.438,0-10.574-1.037-15.406-3.116c-4.831-2.074-9.042-4.905-12.626-8.495c-3.59-3.584-6.422-7.795-8.495-12.632
					c-2.079-4.832-3.116-9.969-3.116-15.405c0-5.438,1.037-10.569,3.116-15.406c2.073-4.832,4.905-9.042,8.495-12.627
					c3.584-3.589,7.795-6.421,12.626-8.5c4.832-2.073,9.969-3.116,15.406-3.116c5.442,0,10.574,1.043,15.411,3.116
					c4.831,2.079,9.042,4.911,12.626,8.5C144.407,70.765,147.239,74.975,149.312,79.807z M141.781,95.213
					c0-4.001-0.753-7.759-2.264-11.27s-3.59-6.59-6.231-9.231c-2.643-2.643-5.722-4.722-9.232-6.231
					c-3.51-1.511-7.269-2.264-11.273-2.264c-4,0-7.759,0.753-11.269,2.264c-3.511,1.51-6.59,3.589-9.232,6.231
					c-2.642,2.642-4.721,5.721-6.231,9.231s-2.264,7.269-2.264,11.27c0,4.005,0.753,7.763,2.264,11.273s3.59,6.59,6.231,9.232
					c2.643,2.642,5.722,4.721,9.232,6.231c3.51,1.511,7.269,2.263,11.269,2.263c4.005,0,7.764-0.752,11.273-2.263
					c3.511-1.511,6.59-3.59,9.232-6.231c2.642-2.643,4.721-5.722,6.231-9.232S141.781,99.218,141.781,95.213z"/>
				<path d="M136.797,85.075c1.357,3.137,2.042,6.516,2.042,10.138c0,3.626-0.685,7.005-2.042,10.142
					c-1.358,3.132-3.227,5.89-5.605,8.269c-2.379,2.38-5.138,4.248-8.269,5.605c-3.138,1.358-6.517,2.037-10.143,2.037
					c-3.621,0-7.006-0.679-10.138-2.037c-3.131-1.357-5.89-3.226-8.269-5.605c-2.379-2.379-4.247-5.137-5.605-8.269
					c-1.363-3.137-2.042-6.516-2.042-10.142c0-3.622,0.679-7.001,2.042-10.138c1.358-3.132,3.227-5.89,5.605-8.269
					s5.138-4.247,8.269-5.605c3.132-1.363,6.517-2.042,10.138-2.042c3.626,0,7.005,0.679,10.143,2.042
					c3.131,1.358,5.89,3.227,8.269,5.605S135.438,81.943,136.797,85.075z M128.644,95.213c0-2.19-0.416-4.248-1.247-6.175
					c-0.832-1.926-1.964-3.604-3.4-5.036c-1.437-1.438-3.116-2.569-5.042-3.4c-1.921-0.832-3.984-1.247-6.174-1.247
					s-4.248,0.415-6.169,1.247c-1.926,0.831-3.61,1.963-5.042,3.4c-1.437,1.432-2.568,3.11-3.4,5.036
					c-0.831,1.927-1.247,3.984-1.247,6.175c0,2.194,0.416,4.247,1.247,6.174c0.832,1.926,1.964,3.61,3.4,5.042
					c1.432,1.437,3.116,2.568,5.042,3.4c1.921,0.831,3.979,1.241,6.169,1.241s4.253-0.41,6.174-1.241
					c1.926-0.832,3.605-1.964,5.042-3.4c1.437-1.432,2.568-3.116,3.4-5.042C128.228,99.46,128.644,97.407,128.644,95.213z"/>
				<path d="M66.905,105.181L78.8,126.14c-2.042,1.663-4.458,3.132-7.253,4.416c-2.415,1.058-5.321,2.042-8.721,2.947
					c-3.4,0.905-7.29,1.358-11.669,1.358c-5.89,0-11.327-0.964-16.312-2.89c-4.984-1.927-9.289-4.621-12.91-8.101
					c-3.627-3.469-6.458-7.643-8.501-12.516c-2.036-4.869-3.058-10.253-3.058-16.143c0-6.037,1.058-11.495,3.174-16.369
					c2.11-4.869,4.984-9.043,8.61-12.517c3.621-3.474,7.854-6.137,12.685-7.984c4.832-1.853,9.969-2.779,15.406-2.779
					c4.306,0,8.137,0.416,11.5,1.248c3.358,0.831,6.248,1.773,8.664,2.831c2.794,1.211,5.21,2.532,7.253,3.969L65.773,84.564
					c-1.211-0.905-2.531-1.773-3.969-2.605c-1.284-0.604-2.811-1.189-4.584-1.752c-1.779-0.568-3.795-0.853-6.063-0.853
					c-2.342,0-4.495,0.415-6.453,1.247c-1.969,0.831-3.685,1.963-5.158,3.4c-1.474,1.432-2.626,3.11-3.452,5.036
					c-0.832,1.927-1.248,3.984-1.248,6.175c0,2.194,0.432,4.247,1.306,6.174c0.863,1.926,2.053,3.61,3.568,5.042
					c1.506,1.437,3.284,2.568,5.321,3.4c2.037,0.831,4.269,1.241,6.685,1.241s4.568-0.3,6.458-0.905
					c1.885-0.6,3.474-1.284,4.758-2.036C64.447,107.297,65.773,106.312,66.905,105.181z M66.11,120.587l-1.584-2.716
					c-0.984,0.679-2.116,1.242-3.4,1.7c-1.132,0.452-2.489,0.847-4.079,1.189c-1.584,0.337-3.438,0.505-5.548,0.505
					c-4.152,0-7.895-0.679-11.216-2.037c-3.321-1.357-6.137-3.21-8.438-5.553c-2.305-2.337-4.079-5.095-5.326-8.269
					c-1.247-3.168-1.868-6.568-1.868-10.194c0-3.622,0.621-7.021,1.868-10.195c1.247-3.169,3.005-5.927,5.269-8.269
					c2.264-2.337,5.021-4.189,8.269-5.548c3.248-1.363,6.874-2.042,10.874-2.042c1.963,0,3.722,0.132,5.269,0.395
					c1.548,0.269,2.848,0.59,3.911,0.963c1.278,0.379,2.379,0.832,3.284,1.363l1.584-2.721c-1.211-0.526-2.489-1.021-3.853-1.474
					c-1.284-0.374-2.758-0.716-4.416-1.016c-1.663-0.306-3.59-0.453-5.779-0.453c-3.853,0-7.531,0.679-11.042,2.037
					c-3.511,1.357-6.611,3.305-9.29,5.832c-2.685,2.531-4.832,5.589-6.458,9.179c-1.627,3.584-2.438,7.568-2.438,11.948
					c0,4.458,0.774,8.458,2.327,12.011c1.547,3.547,3.679,6.589,6.4,9.116c2.716,2.531,5.89,4.474,9.516,5.837
					c3.621,1.357,7.474,2.036,11.553,2.036c2.264,0,4.306-0.189,6.116-0.568c1.811-0.373,3.358-0.789,4.643-1.242
					C63.694,121.871,64.979,121.266,66.11,120.587z"/>
			</g>
			<g>
			</g>
		</g>
	</g>
	<g>
		<g id="XMLID_7_">
			<g>
				<path d="M-166.069,224.224c2.229,5.185,3.339,10.685,3.339,16.512s-1.11,11.333-3.339,16.512
					c-2.223,5.184-5.258,9.696-9.104,13.538c-3.842,3.848-8.354,6.882-13.533,9.104c-5.185,2.229-10.685,3.34-16.518,3.34
					c-5.827,0-11.333-1.111-16.511-3.34c-5.179-2.223-9.691-5.257-13.533-9.104c-3.848-3.842-6.882-8.354-9.104-13.538
					c-2.229-5.179-3.34-10.685-3.34-16.512s1.111-11.327,3.34-16.512c2.223-5.179,5.257-9.691,9.104-13.533
					c3.842-3.847,8.354-6.882,13.533-9.11c5.178-2.222,10.684-3.339,16.511-3.339c5.833,0,11.333,1.117,16.518,3.339
					c5.179,2.229,9.691,5.264,13.533,9.11C-171.327,214.532-168.292,219.045-166.069,224.224z M-174.142,240.735
					c0-4.287-0.807-8.315-2.426-12.077c-1.619-3.763-3.848-7.063-6.68-9.895c-2.831-2.832-6.132-5.061-9.894-6.68
					c-3.763-1.619-7.791-2.426-12.084-2.426c-4.287,0-8.314,0.807-12.077,2.426s-7.062,3.848-9.895,6.68
					c-2.832,2.831-5.06,6.132-6.679,9.895c-1.619,3.762-2.426,7.79-2.426,12.077c0,4.293,0.807,8.32,2.426,12.083
					s3.847,7.062,6.679,9.895s6.132,5.061,9.895,6.679c3.763,1.619,7.79,2.426,12.077,2.426c4.293,0,8.321-0.807,12.084-2.426
					c3.762-1.618,7.062-3.847,9.894-6.679c2.832-2.832,5.061-6.132,6.68-9.895S-174.142,245.028-174.142,240.735z"/>
				<path d="M-179.484,229.87c1.456,3.362,2.189,6.984,2.189,10.865c0,3.887-0.733,7.508-2.189,10.87
					c-1.455,3.356-3.458,6.312-6.008,8.862s-5.505,4.553-8.861,6.008c-3.362,1.455-6.984,2.183-10.871,2.183
					c-3.881,0-7.508-0.728-10.864-2.183s-6.312-3.458-8.862-6.008s-4.553-5.506-6.008-8.862c-1.461-3.362-2.188-6.983-2.188-10.87
					c0-3.881,0.728-7.503,2.188-10.865c1.455-3.356,3.458-6.312,6.008-8.861s5.506-4.553,8.862-6.008
					c3.356-1.461,6.983-2.189,10.864-2.189c3.887,0,7.509,0.729,10.871,2.189c3.356,1.455,6.312,3.458,8.861,6.008
					S-180.939,226.514-179.484,229.87z M-188.222,240.735c0-2.347-0.446-4.553-1.337-6.617c-0.892-2.064-2.104-3.864-3.645-5.398
					c-1.54-1.54-3.34-2.753-5.404-3.645c-2.059-0.891-4.271-1.337-6.617-1.337s-4.552,0.446-6.611,1.337
					c-2.064,0.892-3.869,2.104-5.404,3.645c-1.54,1.534-2.752,3.334-3.644,5.398s-1.337,4.271-1.337,6.617
					c0,2.353,0.445,4.553,1.337,6.617s2.104,3.869,3.644,5.404c1.535,1.54,3.34,2.752,5.404,3.644
					c2.06,0.892,4.265,1.331,6.611,1.331s4.559-0.439,6.617-1.331c2.064-0.892,3.864-2.104,5.404-3.644
					c1.54-1.535,2.753-3.34,3.645-5.404C-188.668,245.288-188.222,243.088-188.222,240.735z"/>
				<path d="M-254.392,251.42l12.748,22.462c-2.188,1.783-4.777,3.356-7.773,4.733c-2.589,1.134-5.703,2.188-9.347,3.159
					c-3.645,0.97-7.813,1.455-12.507,1.455c-6.312,0-12.14-1.032-17.481-3.097s-9.956-4.953-13.838-8.682
					c-3.886-3.718-6.921-8.191-9.11-13.415c-2.183-5.218-3.277-10.988-3.277-17.301c0-6.471,1.134-12.32,3.402-17.544
					c2.262-5.218,5.342-9.691,9.229-13.414c3.881-3.724,8.416-6.578,13.595-8.558c5.179-1.986,10.685-2.979,16.512-2.979
					c4.614,0,8.721,0.445,12.325,1.337c3.6,0.891,6.696,1.9,9.286,3.035c2.995,1.297,5.584,2.713,7.773,4.253l-12.749,22.457
					c-1.298-0.97-2.714-1.901-4.254-2.792c-1.376-0.649-3.012-1.275-4.913-1.879c-1.907-0.609-4.067-0.914-6.499-0.914
					c-2.51,0-4.817,0.446-6.916,1.337c-2.109,0.892-3.948,2.104-5.527,3.645c-1.58,1.534-2.815,3.334-3.701,5.398
					c-0.891,2.064-1.337,4.271-1.337,6.617c0,2.353,0.463,4.553,1.399,6.617c0.925,2.064,2.2,3.869,3.824,5.404
					c1.613,1.54,3.521,2.752,5.703,3.644c2.184,0.892,4.575,1.331,7.164,1.331c2.59,0,4.896-0.321,6.922-0.97
					c2.02-0.644,3.724-1.377,5.1-2.184C-257.026,253.688-255.604,252.632-254.392,251.42z M-255.244,267.931l-1.697-2.91
					c-1.056,0.728-2.268,1.331-3.645,1.821c-1.213,0.485-2.668,0.908-4.372,1.275c-1.697,0.361-3.684,0.541-5.945,0.541
					c-4.451,0-8.462-0.728-12.021-2.183s-6.577-3.441-9.042-5.951c-2.472-2.505-4.372-5.461-5.709-8.862
					c-1.337-3.396-2.003-7.04-2.003-10.927c0-3.881,0.666-7.525,2.003-10.927c1.337-3.396,3.221-6.352,5.646-8.862
					c2.426-2.505,5.382-4.49,8.862-5.945c3.48-1.461,7.367-2.189,11.654-2.189c2.104,0,3.988,0.142,5.646,0.424
					c1.659,0.287,3.052,0.632,4.191,1.032c1.371,0.406,2.55,0.891,3.521,1.461l1.697-2.917c-1.297-0.563-2.668-1.094-4.129-1.579
					c-1.376-0.4-2.956-0.768-4.732-1.089c-1.783-0.327-3.848-0.485-6.194-0.485c-4.129,0-8.072,0.729-11.835,2.184
					s-7.085,3.542-9.956,6.25c-2.877,2.714-5.179,5.991-6.922,9.838c-1.743,3.842-2.612,8.112-2.612,12.806
					c0,4.778,0.829,9.065,2.494,12.873c1.658,3.802,3.942,7.062,6.859,9.771c2.91,2.713,6.312,4.795,10.199,6.256
					c3.881,1.455,8.01,2.183,12.382,2.183c2.426,0,4.614-0.203,6.555-0.609c1.94-0.4,3.6-0.846,4.976-1.331
					C-257.833,269.308-256.457,268.658-255.244,267.931z"/>
			</g>
			<g>
			</g>
		</g>
	</g>
	<text transform="matrix(1 0 0 1 -160.6338 232.8418)" fill="#FFFFFF" font-family="'YikesMedium'" font-size="26.3088">food</text>
	<text transform="matrix(1 0 0 1 -160.7236 253.4541)" fill="#FFFFFF" font-family="'YikesMedium'" font-size="26.3088">trucks</text>
	<circle fill-rule="evenodd" clip-rule="evenodd" fill="#F6881F" cx="36.549" cy="-268.963" r="16.822"/>
	<circle fill-rule="evenodd" clip-rule="evenodd" fill="#F6881F" cx="142.883" cy="-268.529" r="16.821"/>
	<g>
		<g id="XMLID_11_">
			<g>
				<path fill="#FDED18" d="M171.708-296.39c0.09,1.88,0.12,3.84,0.09,5.79h-29.18H37.858H7.118v-5.79H171.708z"/>
				<path d="M142.618-290.6h29.18c-0.03,2.22-0.149,4.42-0.35,6.5h-16.311c-3.34-2.45-7.739-4.22-12.52-4.22V-290.6z"/>
				<path d="M171.708-296.39H7.118v-5h164.21C171.498-299.83,171.628-298.15,171.708-296.39z"/>
				<path fill="#FDED18" d="M155.138-284.1h16.311c-0.17,1.62-0.391,3.15-0.67,4.55h-11.15
					C158.538-281.15,157.008-282.73,155.138-284.1z"/>
				<path fill="#FDED18" d="M171.328-301.39H7.118v-5.56h163.28C170.778-305.48,171.098-303.57,171.328-301.39z"/>
				<path d="M159.628-279.55h11.15c-0.4,1.98-0.92,3.69-1.58,4.94c-1.221,2.28-5.58,1.05-7.83-0.71v-0.25
					C161.148-276.84,160.538-278.2,159.628-279.55z"/>
				<path d="M170.398-306.95H7.118v-4h160.979c0.551,0.49,1.051,1.05,1.46,1.71C169.858-308.73,170.148-307.94,170.398-306.95z"/>
				<path fill="#FDED18" d="M168.098-310.95H7.118v-6.46h101.66c0.26,0.09,0.529,0.15,0.81,0.15h19.57c1.14,0,7.109,0.45,10.72-0.15
					h15.71C159.968-314.24,165.008-313.7,168.098-310.95z"/>
				<path d="M155.588-317.41h-15.71c0.69-0.11,1.31-0.26,1.78-0.46c0.399-0.1,0.24-0.65,0.1-0.88l-0.64-1.66h11.319
					C153.418-319.19,154.478-318.21,155.588-317.41z"/>
				<path d="M155.138-284.1h-24.76c4.09-3.01,8.3-4.22,12.24-4.22C147.398-288.32,151.798-286.55,155.138-284.1z"/>
				<path fill="#FDED18" d="M152.438-320.41h-11.319l-2.32-6.03h10.49l0.87,2.36C150.838-322.65,151.608-321.44,152.438-320.41z"/>
				<polygon points="148.558,-328.44 149.288,-326.44 138.798,-326.44 138.028,-328.44 				"/>
				<polygon fill="#FDED18" points="145.878,-335.76 148.558,-328.44 138.028,-328.44 135.208,-335.76 				"/>
				<polygon points="145.508,-336.76 145.878,-335.76 135.208,-335.76 134.818,-336.76 				"/>
				<path fill="#FDED18" d="M143.218-343.01l2.29,6.25h-10.689l-2.101-5.46c-0.109-0.28-0.22-0.53-0.35-0.79H143.218z"/>
				<path d="M143.038-343.51l0.18,0.5h-10.85c-0.09-0.17-0.181-0.34-0.28-0.5H143.038z"/>
				<path fill="#FDED18" d="M7.118-345.11c-0.11-6.41-0.62-8.06,8.04-8.06h117.67c4.45,0,6.939,0.93,8.43,4.82l1.78,4.84h-10.95
					c-0.71-1.15-1.71-1.93-2.93-1.93h-19.57c-1.189,0-2.189,0.79-2.66,1.93H7.118V-345.11z"/>
				<path d="M142.618-290.6v2.28c-3.94,0-8.15,1.21-12.24,4.22h-80.71c-3.32-3.05-7.4-4.41-11.81-4.41v-2.09H142.618z"/>
				<path d="M141.758-318.75c0.141,0.23,0.3,0.78-0.1,0.88c-0.471,0.2-1.09,0.35-1.78,0.46h-31.1c-1.17-0.38-2.03-1.56-2.11-3h34.45
					L141.758-318.75z"/>
				<polygon points="138.028,-328.44 138.798,-326.44 106.648,-326.44 106.648,-328.44 				"/>
				<polygon points="134.818,-336.76 135.208,-335.76 106.648,-335.76 106.648,-336.76 				"/>
				<path d="M132.088-343.51c0.1,0.16,0.19,0.33,0.28,0.5h-25.601c0.051-0.17,0.101-0.34,0.16-0.5H132.088z"/>
				<path fill="#FDED18" d="M49.668-284.1h80.71c-1.64,1.21-3.26,2.72-4.84,4.55h-72.17c-0.29-0.42-0.59-0.87-0.931-1.35
					C51.588-282.13,50.658-283.19,49.668-284.1z"/>
				<path d="M53.368-279.55h72.17c-0.29,0.33-0.58,0.66-0.86,1.02c-2.25,2.81-1.43,4.25-8.68,4.25h-0.17h-53
					c-4.09,0-5.24,0.16-6.57-1.23C55.528-276.28,54.738-277.53,53.368-279.55z"/>
				<path d="M108.778-317.41H7.118v-3h99.55C106.748-318.97,107.608-317.79,108.778-317.41z"/>
				<path d="M106.928-343.51c-0.06,0.16-0.109,0.33-0.16,0.5H7.118v-0.5H106.928z"/>
				<path fill="#FDED18" d="M7.118-343.01h99.649c-0.069,0.3-0.119,0.6-0.119,0.93v5.32H7.118V-343.01z"/>
				<path fill="#FDED18" d="M106.648-320.63c0,0.07,0.01,0.15,0.02,0.22H7.118v-6.03h99.53V-320.63z"/>
				<rect x="7.118" y="-328.44" width="99.53" height="2"/>
				<rect x="7.118" y="-335.76" fill="#FDED18" width="99.53" height="7.32"/>
				<rect x="7.118" y="-336.76" width="99.53" height="1"/>
				<path d="M49.668-284.1h-25.69c2.801-2.23,6.351-3.81,11.771-4.31c0.71-0.07,1.42-0.1,2.11-0.1
					C42.268-288.51,46.348-287.15,49.668-284.1z"/>
				<path d="M37.858-290.6v2.09c-0.69,0-1.4,0.03-2.11,0.1c-5.42,0.5-8.97,2.08-11.771,4.31H7.118v-6.5H37.858z"/>
				<path fill="#FDED18" d="M7.118-284.1h16.859c-1.649,1.31-3.05,2.86-4.42,4.55H5.528h-0.15C5.968-281.3,6.688-283.06,7.118-284.1
					z"/>
				<path d="M5.528-279.55h14.029c-0.68,0.84-1.35,1.72-2.04,2.63c-0.159,0.21-0.38,0.43-0.64,0.64c-2.59,2.1-9.62,3.95-12.13,2
					c-0.07-0.07-0.12-0.15-0.17-0.23c-0.04-0.07-0.07-0.15-0.09-0.24c-0.16-0.6-0.021-1.6,0.279-2.75
					C4.958-278.13,5.228-278.82,5.528-279.55z"/>
				<path d="M5.378-279.55h0.15c-0.301,0.73-0.57,1.42-0.761,2.05C4.928-278.15,5.138-278.85,5.378-279.55z"/>
				<path d="M4.578-274.51c0.05,0.08,0.1,0.16,0.17,0.23C4.678-274.34,4.618-274.42,4.578-274.51z"/>
				<path d="M4.488-274.75c0.02,0.09,0.05,0.17,0.09,0.24C4.528-274.58,4.498-274.66,4.488-274.75z"/>
			</g>
			<g>
			</g>
		</g>
	</g>
	<text transform="matrix(1 0 0 1 106.8154 -172.4038)" fill="#FFFFFF" font-family="'YikesMedium'" font-size="35.2794">food</text>
	<text transform="matrix(1 0 0 1 92.0557 -226.5542)" fill="#FFFFFF" font-family="'YikesMedium'" font-size="35.2794">trucks</text>
	<path fill="none" stroke="#000000" stroke-width="0.5" stroke-linecap="round" stroke-linejoin="round" d="M161.649,287.717v-63
		 M169.689,217.826h117.67 M295.58,222.076l9.109,24.84 M270.359,296.716h-53 M169.689,217.826c-8.66,0-8.149,1.65-8.04,8.061
		 M295.81,222.696c-1.49-3.931-3.979-4.87-8.45-4.87 M315.899,295.426c-1.479-8.75-21.37-22.119-36.689-2.96
		c-2.25,2.811-1.431,4.25-8.681,4.25 M315.899,295.676c2.25,1.761,6.61,2.99,7.83,0.71c3.92-7.33,2.92-30.329,0.36-34.63
		 M217.359,296.716c-6.83,0-5.46,0.46-10.39-6.62c-4.11-5.959-10.12-8.119-16.69-7.51c-10.21,0.95-13.79,5.68-18.229,11.49
		c-1.78,2.33-10.391,5.21-12.771,2.64c-1.14-1.22,0.49-4.729,2.37-8.659 M304.689,246.916c5.21,11.01,15.59,8.76,19.4,14.84
		 M296.189,253.126c0.4-0.101,0.24-0.649,0.101-0.88l-9.04-23.471c-0.69-1.819-1.931-3.219-3.561-3.219h-19.57
		c-1.63,0-2.939,1.5-2.939,3.359v21.45c0,1.86,1.31,3.37,2.939,3.37h19.57C285.05,253.736,293.279,254.387,296.189,253.126"/>
	<text transform="matrix(1 0 0 1 155.5264 99.8945)" font-family="'YikesMedium'" font-size="23.6332">trucks</text>
	<text transform="matrix(1 0 0 1 156.0176 78.877)" font-family="'YikesMedium'" font-size="23.6332">food</text>
</g>
</svg>
