<?xml version="1.0" encoding="utf-8"?>
<!-- Generator: Adobe Illustrator 16.0.0, SVG Export Plug-In . SVG Version: 6.00 Build 0)  -->
<!DOCTYPE svg PUBLIC "-//W3C//DTD SVG 1.1//EN" "http://www.w3.org/Graphics/SVG/1.1/DTD/svg11.dtd">
<svg version="1.1" id="Layer_1" xmlns="http://www.w3.org/2000/svg" xmlns:xlink="http://www.w3.org/1999/xlink" x="0px" y="0px"
	 width="574px" height="205px" viewBox="-116.167 439.788 574 205" enable-background="new -116.167 439.788 574 205"
	 xml:space="preserve">
<g id="Layer_5">
</g>
<g id="svgs">
	
		<linearGradient id="SVGID_1_" gradientUnits="userSpaceOnUse" x1="2745.0015" y1="563.2817" x2="3048.3354" y2="563.2817" gradientTransform="matrix(1 0 0 -1 0 1181.5752)">
		<stop  offset="0" style="stop-color:#ED0D6D"/>
		<stop  offset="1" style="stop-color:#F05437"/>
	</linearGradient>
	
		<rect x="2745.001" y="508.293" display="none" fill="url(#SVGID_1_)" stroke="#59A8D7" stroke-miterlimit="10" width="303.334" height="220"/>
</g>
<g display="none">
	<circle display="inline" fill="#FDED18" cx="216.621" cy="615.822" r="12.354"/>
	<circle display="inline" fill="#FDED18" cx="294.625" cy="615.938" r="12.355"/>
	<g id="XMLID_95_" display="inline">
		<g>
			<path fill="#F36D21" d="M194.679,558.944c-0.081-4.716-0.456-5.928,5.913-5.928h86.42c3.282,0,5.112,0.698,6.206,3.577
				l6.521,17.797c3.827,8.087,11.451,6.434,14.249,10.899c1.88,3.158,2.615,20.043-0.264,25.428
				c-0.89,1.683-4.099,0.771-5.751-0.514v-0.185c-1.08-6.435-15.696-16.254-26.949-2.175c-1.652,2.064-1.05,3.121-6.375,3.121
				h-0.125h-38.928c-5.017,0-4.01,0.332-7.631-4.868c-3.011-4.37-7.433-5.966-12.259-5.517c-7.499,0.705-10.128,4.172-13.39,8.446
				c-1.308,1.711-7.631,3.819-9.379,1.938c-0.837-0.896,0.36-3.481,1.741-6.36v-0.257L194.679,558.944L194.679,558.944z
				 M293.498,578.951c0.295-0.073,0.176-0.478,0.082-0.653l-6.647-17.231c-0.5-1.337-1.417-2.365-2.606-2.365h-14.382
				c-1.19,0-2.159,1.103-2.159,2.469v15.755c0,1.365,0.969,2.468,2.159,2.468h14.382
				C285.315,579.393,291.36,579.877,293.498,578.951z"/>
		</g>
	</g>
</g>
<rect x="-243.333" y="327.96" display="none" opacity="0.6" fill="#030202" width="785" height="409"/>
<g id="Layer_7">
</g>
<g display="none">
	<path display="inline" fill="#EC008C" d="M230.598,711.289H75.784c-3.373,4.767-6.315,9.854-8.774,15.214h172.362
		C236.913,721.143,233.971,716.055,230.598,711.289z"/>
	<path display="inline" fill="#EC008C" d="M240.962,730.153H65.421c-1.841,4.504-3.337,9.181-4.473,13.997h184.485
		C244.299,739.333,242.803,734.657,240.962,730.153z"/>
	<path display="inline" fill="#EC008C" d="M153.191,671.106c-21.954,0-42.172,7.523-58.259,20.1H211.45
		C195.364,678.629,175.146,671.106,153.191,671.106z"/>
	<path display="inline" fill="#EC008C" d="M246.445,749.018H59.938c-0.753,4.175-1.245,8.438-1.431,12.78h189.369
		C247.691,757.456,247.199,753.193,246.445,749.018z"/>
	<path display="inline" fill="#EC008C" d="M109.625,850.038h87.131c3.821-1.986,7.488-4.225,10.984-6.694h-109.1
		C102.137,845.813,105.805,848.051,109.625,850.038z"/>
	<path display="inline" fill="#EC008C" d="M227.627,824.477H78.755c2.179,2.764,4.497,5.409,6.964,7.912h134.945
		C223.13,829.886,225.448,827.241,227.627,824.477z"/>
	<path display="inline" fill="#EC008C" d="M239.226,805.613H67.157c1.454,3.137,3.058,6.188,4.833,9.128h162.402
		C236.168,811.8,237.771,808.75,239.226,805.613z"/>
	<path display="inline" fill="#EC008C" d="M247.929,767.883H58.453c0.081,3.916,0.389,7.776,0.933,11.562h187.61
		C247.542,775.66,247.848,771.799,247.929,767.883z"/>
	<path display="inline" fill="#EC008C" d="M212.999,692.422H93.384c-5.913,4.822-11.235,10.34-15.839,16.432h151.294
		C224.233,702.762,218.912,697.245,212.999,692.422z"/>
	<path display="inline" fill="#EC008C" d="M245.641,786.748H60.742c0.794,3.527,1.783,6.979,2.961,10.347h178.978
		C243.857,793.727,244.845,790.275,245.641,786.748z"/>
	<path display="inline" fill="#EC008C" d="M240.218,726.502h0.787c-2.409-5.347-5.279-10.438-8.583-15.214h-0.863
		C234.891,716.06,237.792,721.149,240.218,726.502z"/>
	<path display="inline" fill="#EC008C" d="M229.83,708.854h0.861c-4.473-6.061-9.641-11.571-15.38-16.432h-1.068
		C220.062,697.263,225.299,702.778,229.83,708.854z"/>
	<path display="inline" fill="#EC008C" d="M153.191,670.362c22.518,0,43.201,7.811,59.532,20.844h1.133
		c-16.57-13.484-37.686-21.587-60.665-21.587s-44.095,8.103-60.664,21.587h1.133C109.99,678.172,130.673,670.362,153.191,670.362z"
		/>
	<path display="inline" fill="#EC008C" d="M246.208,744.15h0.752c-1.116-4.813-2.59-9.489-4.4-13.997h-0.774
		C243.606,734.659,245.086,739.333,246.208,744.15z"/>
	<path display="inline" fill="#EC008C" d="M221.752,832.389h0.966c2.404-2.514,4.676-5.151,6.8-7.912h-0.892
		C226.478,827.239,224.185,829.881,221.752,832.389z"/>
	<path display="inline" fill="#EC008C" d="M198.455,850.038h1.455c3.613-2.014,7.086-4.248,10.396-6.694h-1.212
		C205.705,845.793,202.158,848.042,198.455,850.038z"/>
	<path display="inline" fill="#EC008C" d="M247.75,779.446h0.746c0.536-3.787,0.841-7.647,0.921-11.562h-0.744
		C248.593,771.799,248.288,775.66,247.75,779.446z"/>
	<path display="inline" fill="#EC008C" d="M92.14,692.422h-1.068c-5.74,4.86-10.908,10.371-15.379,16.432h0.861
		C81.083,702.778,86.321,697.263,92.14,692.422z"/>
	<path display="inline" fill="#EC008C" d="M243.485,797.094h0.766c1.158-3.371,2.134-6.82,2.917-10.347h-0.754
		C245.628,790.275,244.649,793.727,243.485,797.094z"/>
	<path display="inline" fill="#EC008C" d="M235.292,814.741h0.817c1.742-2.944,3.324-5.992,4.75-9.128h-0.788
		C238.636,808.75,237.045,811.799,235.292,814.741z"/>
	<path display="inline" fill="#EC008C" d="M248.621,761.798h0.742c-0.182-4.342-0.666-8.604-1.406-12.78h-0.75
		C247.953,753.193,248.437,757.456,248.621,761.798z"/>
	<path display="inline" fill="#EC008C" d="M97.29,843.343h-1.212c3.31,2.446,6.783,4.681,10.396,6.694h1.454
		C104.224,848.042,100.678,845.793,97.29,843.343z"/>
	<path display="inline" fill="#EC008C" d="M59.175,749.018h-0.749c-0.741,4.176-1.225,8.438-1.408,12.78h0.744
		C57.946,757.456,58.431,753.193,59.175,749.018z"/>
	<path display="inline" fill="#EC008C" d="M66.311,805.613h-0.787c1.427,3.136,3.009,6.184,4.75,9.128h0.817
		C69.337,811.799,67.747,808.75,66.311,805.613z"/>
	<path display="inline" fill="#EC008C" d="M64.597,730.153h-0.774c-1.81,4.508-3.285,9.184-4.401,13.997h0.753
		C61.296,739.333,62.777,734.659,64.597,730.153z"/>
	<path display="inline" fill="#EC008C" d="M59.969,786.748h-0.753c0.782,3.526,1.759,6.976,2.917,10.347h0.766
		C61.734,793.727,60.754,790.275,59.969,786.748z"/>
	<path display="inline" fill="#EC008C" d="M57.709,767.883h-0.743c0.08,3.915,0.385,7.775,0.921,11.562h0.746
		C58.094,775.66,57.79,771.799,57.709,767.883z"/>
	<path display="inline" fill="#EC008C" d="M77.756,824.477h-0.892c2.124,2.761,4.396,5.398,6.8,7.912h0.966
		C82.197,829.881,79.904,827.239,77.756,824.477z"/>
	<path display="inline" fill="#EC008C" d="M74.822,711.289h-0.863c-3.302,4.776-6.174,9.867-8.582,15.214h0.787
		C68.591,721.149,71.492,716.06,74.822,711.289z"/>
	<path display="inline" fill="#EC008C" d="M67.157,805.613h-0.846c1.436,3.137,3.026,6.187,4.781,9.128h0.898
		C70.215,811.8,68.61,808.75,67.157,805.613z"/>
	<path display="inline" fill="#EC008C" d="M220.664,832.389h1.088c2.433-2.508,4.726-5.15,6.875-7.912h-1
		C225.448,827.241,223.13,829.886,220.664,832.389z"/>
	<path display="inline" fill="#EC008C" d="M78.755,824.477h-0.999c2.148,2.762,4.441,5.404,6.875,7.912h1.088
		C83.252,829.886,80.934,827.241,78.755,824.477z"/>
	<path display="inline" fill="#EC008C" d="M58.453,767.883h-0.744c0.081,3.916,0.385,7.776,0.924,11.562h0.753
		C58.842,775.66,58.534,771.799,58.453,767.883z"/>
	<path display="inline" fill="#EC008C" d="M60.742,786.748h-0.773c0.786,3.527,1.766,6.979,2.929,10.347h0.805
		C62.525,793.727,61.537,790.275,60.742,786.748z"/>
	<path display="inline" fill="#EC008C" d="M234.393,814.741h0.899c1.754-2.941,3.345-5.991,4.78-9.128h-0.845
		C237.771,808.75,236.168,811.8,234.393,814.741z"/>
	<path display="inline" fill="#EC008C" d="M75.784,711.289h-0.962c-3.331,4.771-6.231,9.86-8.658,15.214h0.846
		C69.469,721.143,72.412,716.055,75.784,711.289z"/>
	<path display="inline" fill="#EC008C" d="M245.434,744.15h0.774c-1.122-4.816-2.602-9.491-4.422-13.997h-0.824
		C242.803,734.657,244.299,739.333,245.434,744.15z"/>
	<path display="inline" fill="#EC008C" d="M239.373,726.502h0.846c-2.426-5.354-5.328-10.442-8.659-15.214h-0.962
		C233.971,716.055,236.913,721.143,239.373,726.502z"/>
	<path display="inline" fill="#EC008C" d="M228.838,708.854h0.991c-4.53-6.076-9.767-11.591-15.587-16.432h-1.244
		C218.912,697.245,224.233,702.762,228.838,708.854z"/>
	<path display="inline" fill="#EC008C" d="M246.997,779.446h0.754c0.538-3.786,0.843-7.646,0.923-11.562h-0.744
		C247.848,771.799,247.542,775.66,246.997,779.446z"/>
	<path display="inline" fill="#EC008C" d="M153.191,671.106c21.954,0,42.172,7.523,58.259,20.1h1.273
		c-16.331-13.033-37.014-20.844-59.532-20.844s-43.201,7.811-59.531,20.844h1.271C111.019,678.629,131.237,671.106,153.191,671.106z
		"/>
	<path display="inline" fill="#EC008C" d="M65.421,730.153h-0.824c-1.82,4.506-3.301,9.181-4.422,13.997h0.773
		C62.084,739.333,63.58,734.657,65.421,730.153z"/>
	<path display="inline" fill="#EC008C" d="M59.938,749.018h-0.762c-0.745,4.175-1.229,8.438-1.413,12.78h0.744
		C58.692,757.456,59.184,753.193,59.938,749.018z"/>
	<path display="inline" fill="#EC008C" d="M242.681,797.094h0.805c1.164-3.367,2.143-6.819,2.929-10.347h-0.773
		C244.845,790.275,243.857,793.727,242.681,797.094z"/>
	<path display="inline" fill="#EC008C" d="M93.384,692.422H92.14c-5.819,4.841-11.057,10.355-15.586,16.432h0.99
		C82.149,702.762,87.471,697.245,93.384,692.422z"/>
	<path display="inline" fill="#EC008C" d="M98.641,843.343H97.29c3.389,2.45,6.934,4.698,10.637,6.694h1.699
		C105.805,848.051,102.137,845.813,98.641,843.343z"/>
	<path display="inline" fill="#EC008C" d="M207.741,843.343c-3.497,2.47-7.164,4.708-10.984,6.694h1.698
		c3.703-1.996,7.25-4.244,10.639-6.694H207.741z"/>
	<path display="inline" fill="#EC008C" d="M247.875,761.798h0.746c-0.185-4.343-0.668-8.605-1.414-12.78h-0.763
		C247.199,753.193,247.691,757.456,247.875,761.798z"/>
	<path display="inline" fill="#0B070C" d="M91.072,692.422c0.482-0.408,0.964-0.817,1.455-1.217"/>
	<path display="inline" fill="#0B070C" d="M213.856,691.206c0.491,0.399,0.972,0.809,1.455,1.217"/>
	<path display="inline" fill="#0B070C" d="M211.45,691.206H94.932c-0.517,0.404-1.04,0.803-1.548,1.217h119.615
		C212.491,692.008,211.967,691.61,211.45,691.206z"/>
	<path display="inline" fill="#0B070C" d="M214.243,692.422h1.068c-0.482-0.408-0.963-0.817-1.455-1.217h-1.133
		C213.23,691.611,213.743,692.008,214.243,692.422z"/>
	<path display="inline" fill="#0B070C" d="M93.661,691.206h-1.133c-0.491,0.399-0.973,0.809-1.455,1.217h1.068
		C92.639,692.008,93.153,691.611,93.661,691.206z"/>
	<path display="inline" fill="#0B070C" d="M94.932,691.206h-1.271c-0.508,0.405-1.021,0.803-1.521,1.217h1.244
		C93.892,692.008,94.415,691.61,94.932,691.206z"/>
	<path display="inline" fill="#0B070C" d="M212.999,692.422h1.244c-0.5-0.414-1.013-0.812-1.52-1.217h-1.273
		C211.967,691.61,212.491,692.008,212.999,692.422z"/>
	<path display="inline" fill="#0B070C" d="M73.959,711.289c0.567-0.82,1.142-1.634,1.733-2.435"/>
	<path display="inline" fill="#0B070C" d="M230.691,708.854c0.591,0.801,1.165,1.614,1.731,2.435"/>
	<path display="inline" fill="#0B070C" d="M228.838,708.854H77.544c-0.604,0.798-1.181,1.617-1.76,2.435h154.813
		C230.02,710.471,229.441,709.652,228.838,708.854z"/>
	<path display="inline" fill="#0B070C" d="M231.56,711.289h0.863c-0.566-0.82-1.14-1.634-1.731-2.435h-0.861
		C230.423,709.652,230.99,710.471,231.56,711.289z"/>
	<path display="inline" fill="#0B070C" d="M76.554,708.854h-0.861c-0.591,0.801-1.166,1.614-1.733,2.435h0.863
		C75.393,710.471,75.959,709.652,76.554,708.854z"/>
	<path display="inline" fill="#0B070C" d="M77.544,708.854h-0.99c-0.595,0.798-1.162,1.617-1.732,2.435h0.962
		C76.363,710.471,76.94,709.652,77.544,708.854z"/>
	<path display="inline" fill="#0B070C" d="M230.598,711.289h0.962c-0.569-0.817-1.136-1.637-1.73-2.435h-0.991
		C229.441,709.652,230.02,710.471,230.598,711.289z"/>
	<path display="inline" fill="#0B070C" d="M63.823,730.153c0.493-1.23,1.013-2.447,1.555-3.65"/>
	<path display="inline" fill="#0B070C" d="M241.005,726.502c0.542,1.203,1.061,2.42,1.555,3.65"/>
	<path display="inline" fill="#0B070C" d="M239.373,726.502H67.01c-0.554,1.205-1.086,2.419-1.589,3.65h175.541
		C240.458,728.921,239.926,727.708,239.373,726.502z"/>
	<path display="inline" fill="#0B070C" d="M66.164,726.502h-0.787c-0.542,1.203-1.062,2.42-1.555,3.65h0.774
		C65.094,728.922,65.618,727.706,66.164,726.502z"/>
	<path display="inline" fill="#0B070C" d="M241.786,730.153h0.774c-0.494-1.23-1.013-2.447-1.555-3.65h-0.787
		C240.764,727.706,241.289,728.922,241.786,730.153z"/>
	<path display="inline" fill="#0B070C" d="M67.01,726.502h-0.846c-0.546,1.203-1.07,2.42-1.567,3.65h0.824
		C65.924,728.921,66.457,727.708,67.01,726.502z"/>
	<path display="inline" fill="#0B070C" d="M240.962,730.153h0.824c-0.497-1.23-1.021-2.447-1.567-3.65h-0.846
		C239.926,727.708,240.458,728.921,240.962,730.153z"/>
	<path display="inline" fill="#0B070C" d="M58.426,749.018c0.291-1.638,0.623-3.26,0.995-4.868"/>
	<path display="inline" fill="#0B070C" d="M246.96,744.15c0.373,1.608,0.705,3.23,0.997,4.868"/>
	<path display="inline" fill="#0B070C" d="M245.434,744.15H60.948c-0.379,1.607-0.715,3.23-1.011,4.868h186.507
		C246.15,747.38,245.812,745.757,245.434,744.15z"/>
	<path display="inline" fill="#0B070C" d="M60.175,744.15h-0.753c-0.373,1.608-0.705,3.23-0.995,4.868h0.749
		C59.467,747.38,59.8,745.757,60.175,744.15z"/>
	<path display="inline" fill="#0B070C" d="M247.208,749.018h0.75c-0.292-1.638-0.624-3.26-0.997-4.868h-0.752
		C246.583,745.757,246.916,747.38,247.208,749.018z"/>
	<path display="inline" fill="#0B070C" d="M60.948,744.15h-0.773c-0.375,1.607-0.708,3.23-1,4.868h0.762
		C60.233,747.38,60.569,745.757,60.948,744.15z"/>
	<path display="inline" fill="#0B070C" d="M246.445,749.018h0.763c-0.292-1.638-0.625-3.261-1-4.868h-0.774
		C245.812,745.757,246.15,747.38,246.445,749.018z"/>
	<path display="inline" fill="#0B070C" d="M56.966,767.883c-0.014-0.663-0.051-1.321-0.051-1.988c0-1.373,0.046-2.736,0.104-4.097"
		/>
	<path display="inline" fill="#0B070C" d="M249.363,761.798c0.058,1.36,0.104,2.724,0.104,4.097c0,0.667-0.036,1.325-0.051,1.988"/>
	<path display="inline" fill="#0B070C" d="M247.98,765.895c0-1.373-0.045-2.736-0.104-4.097H58.506
		c-0.058,1.36-0.104,2.724-0.104,4.097c0,0.667,0.037,1.325,0.051,1.988h189.476C247.944,767.22,247.98,766.562,247.98,765.895z"/>
	<path display="inline" fill="#0B070C" d="M57.659,765.895c0-1.374,0.046-2.736,0.104-4.097h-0.744
		c-0.057,1.36-0.104,2.724-0.104,4.097c0,0.667,0.037,1.325,0.051,1.988h0.743C57.695,767.22,57.659,766.562,57.659,765.895z"/>
	<path display="inline" fill="#0B070C" d="M248.724,765.895c0,0.667-0.036,1.325-0.051,1.988h0.744
		c0.015-0.663,0.051-1.321,0.051-1.988c0-1.373-0.046-2.736-0.104-4.097h-0.742C248.678,763.159,248.724,764.521,248.724,765.895z"
		/>
	<path display="inline" fill="#0B070C" d="M247.98,765.895c0,0.667-0.036,1.325-0.051,1.988h0.744
		c0.015-0.663,0.051-1.321,0.051-1.988c0-1.374-0.046-2.736-0.103-4.097h-0.746C247.935,763.159,247.98,764.522,247.98,765.895z"/>
	<path display="inline" fill="#0B070C" d="M58.402,765.895c0-1.373,0.046-2.736,0.104-4.097h-0.744
		c-0.058,1.36-0.104,2.723-0.104,4.097c0,0.667,0.036,1.325,0.05,1.988h0.744C58.439,767.22,58.402,766.562,58.402,765.895z"/>
	<path display="inline" fill="#0B070C" d="M248.496,779.446c-0.349,2.465-0.796,4.898-1.328,7.302"/>
	<path display="inline" fill="#0B070C" d="M59.215,786.748c-0.533-2.403-0.979-4.837-1.329-7.302"/>
	<path display="inline" fill="#0B070C" d="M246.997,779.446H59.386c0.355,2.467,0.814,4.898,1.356,7.302h184.899
		C246.183,784.344,246.642,781.913,246.997,779.446z"/>
	<path display="inline" fill="#0B070C" d="M58.633,779.446h-0.746c0.35,2.465,0.795,4.898,1.329,7.302h0.753
		C59.434,784.344,58.983,781.913,58.633,779.446z"/>
	<path display="inline" fill="#0B070C" d="M246.414,786.748h0.754c0.532-2.403,0.979-4.837,1.328-7.302h-0.746
		C247.399,781.913,246.949,784.344,246.414,786.748z"/>
	<path display="inline" fill="#0B070C" d="M245.641,786.748h0.773c0.535-2.403,0.985-4.835,1.336-7.302h-0.754
		C246.642,781.913,246.183,784.344,245.641,786.748z"/>
	<path display="inline" fill="#0B070C" d="M59.386,779.446h-0.753c0.35,2.467,0.801,4.898,1.336,7.302h0.773
		C60.2,784.344,59.741,781.913,59.386,779.446z"/>
	<path display="inline" fill="#0B070C" d="M244.251,797.094c-0.998,2.905-2.131,5.745-3.392,8.519"/>
	<path display="inline" fill="#0B070C" d="M65.524,805.613c-1.261-2.773-2.394-5.613-3.392-8.519"/>
	<path display="inline" fill="#0B070C" d="M242.681,797.094H63.703c1.016,2.906,2.169,5.748,3.454,8.519h172.069
		C240.51,802.842,241.664,800,242.681,797.094z"/>
	<path display="inline" fill="#0B070C" d="M62.898,797.094h-0.766c0.998,2.905,2.131,5.745,3.392,8.519h0.787
		C65.042,802.841,63.902,800,62.898,797.094z"/>
	<path display="inline" fill="#0B070C" d="M240.071,805.613h0.788c1.261-2.773,2.394-5.613,3.392-8.519h-0.766
		C242.48,800,241.341,802.841,240.071,805.613z"/>
	<path display="inline" fill="#0B070C" d="M239.226,805.613h0.845c1.27-2.771,2.409-5.612,3.414-8.519h-0.805
		C241.664,800,240.51,802.842,239.226,805.613z"/>
	<path display="inline" fill="#0B070C" d="M63.703,797.094h-0.805c1.004,2.906,2.144,5.747,3.413,8.519h0.846
		C65.873,802.842,64.719,800,63.703,797.094z"/>
	<path display="inline" fill="#0B070C" d="M236.108,814.741c-2,3.384-4.203,6.634-6.59,9.736"/>
	<path display="inline" fill="#0B070C" d="M76.864,824.477c-2.387-3.103-4.588-6.353-6.59-9.736"/>
	<path display="inline" fill="#0B070C" d="M234.393,814.741H71.99c2.049,3.394,4.32,6.637,6.765,9.736h148.872
		C230.072,821.377,232.344,818.134,234.393,814.741z"/>
	<path display="inline" fill="#0B070C" d="M228.626,824.477h0.892c2.387-3.103,4.589-6.353,6.59-9.736h-0.817
		C233.271,818.13,231.038,821.375,228.626,824.477z"/>
	<path display="inline" fill="#0B070C" d="M71.092,814.741h-0.817c2.001,3.384,4.203,6.634,6.59,9.736h0.892
		C75.344,821.375,73.112,818.13,71.092,814.741z"/>
	<path display="inline" fill="#0B070C" d="M71.99,814.741h-0.898c2.021,3.39,4.252,6.635,6.665,9.736h0.999
		C76.31,821.377,74.04,818.134,71.99,814.741z"/>
	<path display="inline" fill="#0B070C" d="M227.627,824.477h1c2.412-3.102,4.645-6.347,6.665-9.736h-0.899
		C232.344,818.134,230.072,821.377,227.627,824.477z"/>
	<path display="inline" fill="#0B070C" d="M96.077,843.343c-4.449-3.291-8.594-6.964-12.413-10.954"/>
	<path display="inline" fill="#0B070C" d="M222.718,832.389c-3.818,3.99-7.963,7.663-12.413,10.954"/>
	<path display="inline" fill="#0B070C" d="M220.664,832.389H85.719c3.967,4.024,8.295,7.686,12.922,10.954h109.1
		C212.369,840.075,216.696,836.414,220.664,832.389z"/>
	<path display="inline" fill="#0B070C" d="M84.631,832.389h-0.966c3.819,3.99,7.963,7.663,12.413,10.954h1.212
		C92.753,840.063,88.519,836.397,84.631,832.389z"/>
	<path display="inline" fill="#0B070C" d="M209.094,843.343h1.212c4.45-3.291,8.594-6.964,12.413-10.954h-0.966
		C217.864,836.397,213.629,840.063,209.094,843.343z"/>
	<path display="inline" fill="#0B070C" d="M207.741,843.343h1.353c4.536-3.28,8.771-6.946,12.658-10.954h-1.088
		C216.696,836.414,212.369,840.075,207.741,843.343z"/>
	<path display="inline" fill="#0B070C" d="M85.719,832.389h-1.088c3.888,4.008,8.123,7.674,12.659,10.954h1.352
		C94.014,840.075,89.686,836.414,85.719,832.389z"/>
	<path display="inline" fill="#0B070C" d="M199.91,850.038c-13.845,7.719-29.773,12.135-46.718,12.135
		c-16.946,0-32.873-4.416-46.718-12.135"/>
	<path display="inline" fill="#0B070C" d="M153.191,860.685c15.702,0,30.511-3.86,43.565-10.647h-87.131
		C122.68,856.825,137.489,860.685,153.191,860.685z"/>
	<path display="inline" fill="#0B070C" d="M199.91,850.038h-1.455c-13.471,7.264-28.885,11.391-45.264,11.391
		c-16.379,0-31.792-4.127-45.265-11.391h-1.454c13.846,7.719,29.772,12.135,46.718,12.135
		C170.136,862.172,186.064,857.756,199.91,850.038z"/>
	<path display="inline" fill="#0B070C" d="M153.191,860.685c-15.702,0-30.511-3.86-43.566-10.647h-1.699
		c13.473,7.264,28.885,11.391,45.265,11.391c16.378,0,31.792-4.127,45.264-11.391h-1.698
		C183.703,856.825,168.893,860.685,153.191,860.685z"/>
</g>
<g display="none">
	<g display="inline" opacity="0.75">
		<text transform="matrix(1 0 0 1 -102.3408 436.9136)" fill="#231F20" font-family="'Phosphate-Inline'" font-size="71.1304">Truck Grub Hub</text>
	</g>
	<g display="inline">
		<g>
			<text transform="matrix(1 0 0 1 -108.3408 432.9136)" fill="#F1F2F2" font-family="'Phosphate-Inline'" font-size="71.1304">Truck Grub Hub</text>
		</g>
	</g>
</g>
<g id="XMLID_40_">
	<g>
		<path fill="#EB008B" d="M225.927,542.563c-0.113-6.598-0.637-8.293,8.273-8.293h120.921c4.594,0,7.153,0.976,8.685,5.005
			l9.126,24.901c5.354,11.315,16.022,9.003,19.938,15.251c2.631,4.419,3.659,28.046-0.37,35.579
			c-1.243,2.354-5.734,1.079-8.047-0.719v-0.257c-1.511-9.003-21.962-22.744-37.707-3.042c-2.312,2.888-1.47,4.367-8.92,4.367
			h-0.175h-54.469c-7.02,0-5.611,0.463-10.679-6.813c-4.213-6.115-10.4-8.345-17.152-7.718
			c-10.493,0.986-14.172,5.837-18.735,11.818c-1.83,2.395-10.678,5.344-13.124,2.713c-1.172-1.254,0.503-4.871,2.436-8.899v-0.36
			V542.563z M364.196,570.558c0.411-0.103,0.246-0.668,0.112-0.915l-9.301-24.11c-0.698-1.871-1.983-3.309-3.648-3.309h-20.122
			c-1.665,0-3.021,1.542-3.021,3.453v22.044c0,1.912,1.356,3.453,3.021,3.453h20.122
			C352.747,571.175,361.205,571.853,364.196,570.558z"/>
	</g>
	<g>
	</g>
</g>
<polygon fill="#EB008B" points="111.468,453.597 164.312,545.127 217.155,636.657 111.468,636.657 5.781,636.657 58.625,545.127 "/>
<polygon opacity="0.9" fill="#2B2C6B" points="145.795,442.725 195.417,539.7 245.044,636.675 145.795,636.675 46.545,636.675 
	96.168,539.7 "/>
<polygon opacity="0.9" fill="#FFFF00" points="68.874,487.556 107.937,562.261 147,636.969 68.874,636.969 -9.245,636.969 
	29.819,562.261 "/>
<polygon opacity="0.9" fill="#00FFF8" points="192.075,483.17 223.235,560.047 254.399,636.918 192.075,636.918 129.75,636.918 
	160.914,560.047 "/>
<path fill-rule="evenodd" clip-rule="evenodd" fill="#FDED16" d="M274.354,619.864c0,9.55-7.735,17.289-17.286,17.289
	c-9.546,0-17.289-7.739-17.289-17.289c0-9.549,7.743-17.288,17.289-17.288C266.619,602.576,274.354,610.315,274.354,619.864z"/>
<path fill-rule="evenodd" clip-rule="evenodd" fill="#FDED16" d="M382.429,620.309c0,9.547-7.74,17.292-17.286,17.292
	s-17.289-7.741-17.289-17.292c0-9.548,7.743-17.287,17.289-17.287S382.429,610.761,382.429,620.309z"/>
<text transform="matrix(1 0 0 1 204.2769 507.6743)" fill="#FFFFFF" font-family="'YikesMedium'" font-size="37.3251" letter-spacing="3">grub</text>
<g opacity="0.9">
	<path fill="#FFFFFF" d="M-10.278,551.398h-21.401V520.95H49.4v30.448H28v85.604h-38.278V551.398z M11.123,623.083v-84.038h24.881
		v-4.176h-54.285v4.176h24.88v84.038H11.123z"/>
	<path fill="#FFFFFF" d="M55.488,520.95h40.018c7.422,0,14.294,0.987,20.618,2.958c6.321,1.974,11.801,4.872,16.442,8.7
		c4.638,3.828,8.265,8.556,10.875,14.18c2.61,5.627,3.915,12.092,3.915,19.4c0,5.802-0.813,10.73-2.436,14.79
		c-1.626,4.062-3.423,7.424-5.394,10.091c-2.322,3.018-4.932,5.567-7.83,7.655l21.749,38.278h-43.498l-17.399-29.404v29.404h-37.06
		V520.95z M91.678,596.635c4.524,0,8.931-0.462,13.223-1.392l16.529,27.839h5.394l-17.399-29.23
		c6.264-2.202,11.25-5.595,14.963-10.179c3.711-4.581,5.567-10.526,5.567-17.834c0-5.103-0.987-9.57-2.958-13.397
		c-1.974-3.828-4.671-7.046-8.091-9.656c-3.423-2.61-7.455-4.581-12.092-5.916c-4.641-1.332-9.687-2.001-15.137-2.001H72.887v88.214
		h4.524v-26.447H91.678z M77.411,592.459v-53.415h14.267c10.554,0,18.818,2.322,24.793,6.96c5.973,4.641,8.961,11.252,8.961,19.835
		c0,8.585-2.988,15.167-8.961,19.748c-5.975,4.583-14.24,6.872-24.793,6.872H77.411z M92.548,578.019h1.914
		c4.407,0,8.148-0.984,11.223-2.958c3.072-1.971,4.611-5.277,4.611-9.917c0-4.638-1.539-7.943-4.611-9.917
		c-3.075-1.971-6.815-2.958-11.223-2.958h-1.914V578.019z"/>
	<path fill="#FFFFFF" d="M156.924,520.95h37.582v26.794l21.924-26.794h45.41l-40.887,53.067l42.975,62.985h-44.715l-24.707-35.843
		v35.843h-37.582V520.95z M178.847,623.083v-23.489l18.094-22.445l31.666,45.934h5.395l-33.928-49.588l31.145-38.626h-5.568
		l-46.803,57.765v-57.765h-4.524v88.214H178.847z"/>
</g>
<text transform="matrix(1 0 0 1 263.0015 531.4009)" fill="#FFFFFF" font-family="'YikesMedium'" font-size="37.3251" letter-spacing="1">hub</text>
</svg>
