<?xml version="1.0" encoding="utf-8"?>
<!-- Generator: Adobe Illustrator 16.0.0, SVG Export Plug-In . SVG Version: 6.00 Build 0)  -->
<!DOCTYPE svg PUBLIC "-//W3C//DTD SVG 1.1//EN" "http://www.w3.org/Graphics/SVG/1.1/DTD/svg11.dtd">
<svg version="1.1" id="Layer_1" xmlns="http://www.w3.org/2000/svg" xmlns:xlink="http://www.w3.org/1999/xlink" x="0px" y="0px"
	 width="574px" height="205px" viewBox="-116.167 439.788 574 205" enable-background="new -116.167 439.788 574 205"
	 xml:space="preserve">
<g id="Layer_5">
</g>
<g id="svgs">
	
		<linearGradient id="SVGID_1_" gradientUnits="userSpaceOnUse" x1="2745.0015" y1="563.2817" x2="3048.3354" y2="563.2817" gradientTransform="matrix(1 0 0 -1 0 1181.5752)">
		<stop  offset="0" style="stop-color:#ED0D6D"/>
		<stop  offset="1" style="stop-color:#F05437"/>
	</linearGradient>
	
		<rect x="2745.001" y="508.293" display="none" fill="url(#SVGID_1_)" stroke="#59A8D7" stroke-miterlimit="10" width="303.334" height="220"/>
</g>
<g display="none">
	<circle display="inline" fill="#FDED18" cx="216.621" cy="615.822" r="12.354"/>
	<circle display="inline" fill="#FDED18" cx="294.625" cy="615.938" r="12.355"/>
	<g id="XMLID_95_" display="inline">
		<g>
			<path fill="#F36D21" d="M194.679,558.944c-0.081-4.716-0.456-5.928,5.913-5.928h86.42c3.282,0,5.112,0.698,6.206,3.577
				l6.521,17.797c3.827,8.087,11.451,6.434,14.249,10.899c1.88,3.158,2.615,20.043-0.264,25.428
				c-0.89,1.683-4.099,0.771-5.751-0.514v-0.185c-1.08-6.435-15.696-16.254-26.949-2.175c-1.652,2.064-1.05,3.121-6.375,3.121
				h-0.125h-38.928c-5.017,0-4.01,0.332-7.631-4.868c-3.011-4.37-7.433-5.966-12.259-5.517c-7.499,0.705-10.128,4.172-13.39,8.446
				c-1.308,1.711-7.631,3.819-9.379,1.938c-0.837-0.896,0.36-3.481,1.741-6.36v-0.257L194.679,558.944L194.679,558.944z
				 M293.498,578.951c0.295-0.073,0.176-0.478,0.082-0.653l-6.647-17.231c-0.5-1.337-1.417-2.365-2.606-2.365h-14.382
				c-1.19,0-2.159,1.103-2.159,2.469v15.755c0,1.365,0.969,2.468,2.159,2.468h14.382
				C285.315,579.393,291.36,579.877,293.498,578.951z"/>
		</g>
	</g>
</g>
<rect x="65.667" y="327.96" display="none" fill="#030202" width="374" height="216"/>
<g id="Layer_7">
</g>
<g>
	<path fill="#EC008C" d="M229.598,487.289H74.784c-3.373,4.767-6.315,9.854-8.774,15.213h172.362
		C235.913,497.143,232.971,492.056,229.598,487.289z"/>
	<path fill="#EC008C" d="M239.962,506.153H64.421c-1.841,4.504-3.337,9.181-4.473,13.997h184.485
		C243.299,515.333,241.803,510.657,239.962,506.153z"/>
	<path fill="#EC008C" d="M152.191,447.106c-21.954,0-42.172,7.523-58.259,20.099H210.45
		C194.364,454.629,174.146,447.106,152.191,447.106z"/>
	<path fill="#EC008C" d="M245.445,525.018H58.938c-0.753,4.175-1.245,8.437-1.431,12.78h189.369
		C246.691,533.455,246.199,529.193,245.445,525.018z"/>
	<path fill="#EC008C" d="M108.625,626.038h87.131c3.821-1.986,7.488-4.225,10.984-6.694h-109.1
		C101.137,621.813,104.805,624.051,108.625,626.038z"/>
	<path fill="#EC008C" d="M226.627,600.477H77.755c2.179,2.764,4.497,5.409,6.964,7.912h134.945
		C222.13,605.886,224.448,603.241,226.627,600.477z"/>
	<path fill="#EC008C" d="M238.226,581.613H66.157c1.454,3.137,3.058,6.188,4.833,9.128h162.402
		C235.168,587.8,236.771,584.75,238.226,581.613z"/>
	<path fill="#EC008C" d="M246.929,543.884H57.453c0.081,3.916,0.389,7.776,0.933,11.562h187.61
		C246.542,551.66,246.848,547.8,246.929,543.884z"/>
	<path fill="#EC008C" d="M211.999,468.423H92.384c-5.913,4.822-11.235,10.339-15.839,16.431h151.294
		C223.233,478.762,217.912,473.245,211.999,468.423z"/>
	<path fill="#EC008C" d="M244.641,562.748H59.742c0.794,3.527,1.783,6.979,2.961,10.347h178.978
		C242.857,569.727,243.845,566.275,244.641,562.748z"/>
	<path fill="#EC008C" d="M239.218,502.502h0.787c-2.409-5.346-5.279-10.437-8.583-15.213h-0.863
		C233.891,492.06,236.792,497.148,239.218,502.502z"/>
	<path fill="#EC008C" d="M228.83,484.854h0.861c-4.473-6.06-9.641-11.571-15.38-16.431h-1.068
		C219.062,473.263,224.299,478.778,228.83,484.854z"/>
	<path fill="#EC008C" d="M152.191,446.362c22.518,0,43.201,7.81,59.532,20.843h1.133c-16.57-13.484-37.686-21.587-60.665-21.587
		s-44.095,8.103-60.664,21.587h1.133C108.99,454.172,129.673,446.362,152.191,446.362z"/>
	<path fill="#EC008C" d="M245.208,520.15h0.752c-1.116-4.813-2.59-9.489-4.4-13.997h-0.774
		C242.606,510.658,244.086,515.333,245.208,520.15z"/>
	<path fill="#EC008C" d="M220.752,608.389h0.966c2.404-2.514,4.676-5.151,6.8-7.912h-0.892
		C225.478,603.239,223.185,605.881,220.752,608.389z"/>
	<path fill="#EC008C" d="M197.455,626.038h1.455c3.613-2.014,7.086-4.248,10.396-6.694h-1.212
		C204.705,621.793,201.158,624.042,197.455,626.038z"/>
	<path fill="#EC008C" d="M246.75,555.446h0.746c0.536-3.787,0.841-7.647,0.921-11.562h-0.744
		C247.593,547.8,247.288,551.66,246.75,555.446z"/>
	<path fill="#EC008C" d="M91.14,468.423h-1.068c-5.74,4.86-10.908,10.371-15.379,16.431h0.861
		C80.083,478.778,85.321,473.263,91.14,468.423z"/>
	<path fill="#EC008C" d="M242.485,573.094h0.766c1.158-3.371,2.134-6.821,2.917-10.347h-0.754
		C244.628,566.275,243.649,569.727,242.485,573.094z"/>
	<path fill="#EC008C" d="M234.292,590.741h0.817c1.742-2.944,3.324-5.992,4.75-9.128h-0.788
		C237.636,584.75,236.045,587.799,234.292,590.741z"/>
	<path fill="#EC008C" d="M247.621,537.798h0.742c-0.182-4.342-0.666-8.604-1.406-12.78h-0.75
		C246.953,529.193,247.437,533.455,247.621,537.798z"/>
	<path fill="#EC008C" d="M96.29,619.343h-1.212c3.31,2.446,6.783,4.681,10.396,6.694h1.454
		C103.224,624.042,99.678,621.793,96.29,619.343z"/>
	<path fill="#EC008C" d="M58.175,525.018h-0.749c-0.741,4.176-1.225,8.438-1.408,12.78h0.744
		C56.946,533.455,57.431,529.193,58.175,525.018z"/>
	<path fill="#EC008C" d="M65.311,581.613h-0.787c1.427,3.136,3.009,6.184,4.75,9.128h0.817
		C68.337,587.799,66.747,584.75,65.311,581.613z"/>
	<path fill="#EC008C" d="M63.597,506.153h-0.774c-1.81,4.508-3.285,9.184-4.401,13.997h0.753
		C60.296,515.333,61.777,510.658,63.597,506.153z"/>
	<path fill="#EC008C" d="M58.969,562.748h-0.753c0.782,3.526,1.759,6.976,2.917,10.347h0.766
		C60.734,569.727,59.754,566.275,58.969,562.748z"/>
	<path fill="#EC008C" d="M56.709,543.884h-0.743c0.08,3.915,0.385,7.775,0.921,11.562h0.746
		C57.094,551.66,56.79,547.8,56.709,543.884z"/>
	<path fill="#EC008C" d="M76.756,600.477h-0.892c2.124,2.761,4.396,5.398,6.8,7.912h0.966
		C81.197,605.881,78.904,603.239,76.756,600.477z"/>
	<path fill="#EC008C" d="M73.822,487.289h-0.863c-3.302,4.776-6.174,9.867-8.582,15.213h0.787
		C67.591,497.148,70.492,492.06,73.822,487.289z"/>
	<path fill="#EC008C" d="M66.157,581.613h-0.846c1.436,3.137,3.026,6.187,4.781,9.128h0.898
		C69.215,587.8,67.61,584.75,66.157,581.613z"/>
	<path fill="#EC008C" d="M219.664,608.389h1.088c2.433-2.508,4.726-5.15,6.875-7.912h-1
		C224.448,603.241,222.13,605.886,219.664,608.389z"/>
	<path fill="#EC008C" d="M77.755,600.477h-0.999c2.148,2.762,4.441,5.404,6.875,7.912h1.088
		C82.252,605.886,79.934,603.241,77.755,600.477z"/>
	<path fill="#EC008C" d="M57.453,543.884h-0.744c0.081,3.916,0.385,7.776,0.924,11.562h0.753
		C57.842,551.66,57.534,547.8,57.453,543.884z"/>
	<path fill="#EC008C" d="M59.742,562.748h-0.773c0.786,3.527,1.766,6.979,2.929,10.347h0.805
		C61.525,569.727,60.537,566.275,59.742,562.748z"/>
	<path fill="#EC008C" d="M233.393,590.741h0.899c1.754-2.941,3.345-5.991,4.78-9.128h-0.845
		C236.771,584.75,235.168,587.8,233.393,590.741z"/>
	<path fill="#EC008C" d="M74.784,487.289h-0.962c-3.331,4.771-6.231,9.86-8.658,15.213h0.846
		C68.469,497.143,71.412,492.056,74.784,487.289z"/>
	<path fill="#EC008C" d="M244.434,520.15h0.774c-1.122-4.816-2.602-9.492-4.422-13.997h-0.824
		C241.803,510.657,243.299,515.333,244.434,520.15z"/>
	<path fill="#EC008C" d="M238.373,502.502h0.846c-2.426-5.354-5.328-10.442-8.659-15.213h-0.962
		C232.971,492.056,235.913,497.143,238.373,502.502z"/>
	<path fill="#EC008C" d="M227.838,484.854h0.991c-4.53-6.076-9.767-11.59-15.587-16.431h-1.244
		C217.912,473.245,223.233,478.762,227.838,484.854z"/>
	<path fill="#EC008C" d="M245.997,555.446h0.754c0.538-3.786,0.843-7.646,0.923-11.562h-0.744
		C246.848,547.8,246.542,551.66,245.997,555.446z"/>
	<path fill="#EC008C" d="M152.191,447.106c21.954,0,42.172,7.523,58.259,20.099h1.273c-16.331-13.033-37.014-20.843-59.532-20.843
		s-43.201,7.81-59.531,20.843h1.271C110.019,454.629,130.237,447.106,152.191,447.106z"/>
	<path fill="#EC008C" d="M64.421,506.153h-0.824c-1.82,4.505-3.301,9.181-4.422,13.997h0.773
		C61.084,515.333,62.58,510.657,64.421,506.153z"/>
	<path fill="#EC008C" d="M58.938,525.018h-0.762c-0.745,4.175-1.229,8.437-1.413,12.78h0.744
		C57.692,533.455,58.184,529.193,58.938,525.018z"/>
	<path fill="#EC008C" d="M241.681,573.094h0.805c1.164-3.368,2.143-6.819,2.929-10.347h-0.773
		C243.845,566.275,242.857,569.727,241.681,573.094z"/>
	<path fill="#EC008C" d="M92.384,468.423H91.14c-5.819,4.84-11.057,10.355-15.586,16.431h0.99
		C81.149,478.762,86.471,473.245,92.384,468.423z"/>
	<path fill="#EC008C" d="M97.641,619.343H96.29c3.389,2.45,6.934,4.698,10.637,6.694h1.699
		C104.805,624.051,101.137,621.813,97.641,619.343z"/>
	<path fill="#EC008C" d="M206.741,619.343c-3.497,2.47-7.164,4.708-10.984,6.694h1.698c3.703-1.996,7.25-4.244,10.639-6.694H206.741
		z"/>
	<path fill="#EC008C" d="M246.875,537.798h0.746c-0.185-4.343-0.668-8.605-1.414-12.78h-0.763
		C246.199,529.193,246.691,533.455,246.875,537.798z"/>
	<path fill="#0B070C" d="M90.072,468.423c0.482-0.409,0.964-0.818,1.455-1.217"/>
	<path fill="#0B070C" d="M212.856,467.206c0.491,0.399,0.972,0.808,1.455,1.217"/>
	<path fill="#0B070C" d="M210.45,467.206H93.932c-0.517,0.404-1.04,0.802-1.548,1.217h119.615
		C211.491,468.008,210.967,467.61,210.45,467.206z"/>
	<path fill="#0B070C" d="M213.243,468.423h1.068c-0.482-0.409-0.963-0.818-1.455-1.217h-1.133
		C212.23,467.611,212.743,468.008,213.243,468.423z"/>
	<path fill="#0B070C" d="M92.661,467.206h-1.133c-0.491,0.399-0.973,0.808-1.455,1.217h1.068
		C91.639,468.008,92.153,467.611,92.661,467.206z"/>
	<path fill="#0B070C" d="M93.932,467.206h-1.271c-0.508,0.405-1.021,0.802-1.521,1.217h1.244
		C92.892,468.008,93.415,467.61,93.932,467.206z"/>
	<path fill="#0B070C" d="M211.999,468.423h1.244c-0.5-0.415-1.013-0.812-1.52-1.217h-1.273
		C210.967,467.61,211.491,468.008,211.999,468.423z"/>
	<path fill="#0B070C" d="M72.959,487.289c0.567-0.82,1.142-1.634,1.733-2.435"/>
	<path fill="#0B070C" d="M229.691,484.854c0.591,0.801,1.165,1.615,1.731,2.435"/>
	<path fill="#0B070C" d="M227.838,484.854H76.544c-0.604,0.798-1.181,1.617-1.76,2.435h154.813
		C229.02,486.471,228.441,485.652,227.838,484.854z"/>
	<path fill="#0B070C" d="M230.56,487.289h0.863c-0.566-0.82-1.14-1.634-1.731-2.435h-0.861
		C229.423,485.652,229.99,486.471,230.56,487.289z"/>
	<path fill="#0B070C" d="M75.554,484.854h-0.861c-0.591,0.801-1.166,1.615-1.733,2.435h0.863
		C74.393,486.471,74.959,485.652,75.554,484.854z"/>
	<path fill="#0B070C" d="M76.544,484.854h-0.99c-0.595,0.798-1.162,1.618-1.732,2.435h0.962
		C75.363,486.471,75.94,485.652,76.544,484.854z"/>
	<path fill="#0B070C" d="M229.598,487.289h0.962c-0.569-0.817-1.136-1.637-1.73-2.435h-0.991
		C228.441,485.652,229.02,486.471,229.598,487.289z"/>
	<path fill="#0B070C" d="M62.823,506.153c0.493-1.23,1.013-2.447,1.555-3.651"/>
	<path fill="#0B070C" d="M240.005,502.502c0.542,1.204,1.061,2.421,1.555,3.651"/>
	<path fill="#0B070C" d="M238.373,502.502H66.01c-0.554,1.205-1.086,2.419-1.589,3.651h175.541
		C239.458,504.921,238.926,503.707,238.373,502.502z"/>
	<path fill="#0B070C" d="M65.164,502.502h-0.787c-0.542,1.204-1.062,2.421-1.555,3.651h0.774
		C64.094,504.922,64.618,503.706,65.164,502.502z"/>
	<path fill="#0B070C" d="M240.786,506.153h0.774c-0.494-1.23-1.013-2.447-1.555-3.651h-0.787
		C239.764,503.706,240.289,504.922,240.786,506.153z"/>
	<path fill="#0B070C" d="M66.01,502.502h-0.846c-0.546,1.204-1.07,2.42-1.567,3.651h0.824
		C64.924,504.921,65.457,503.707,66.01,502.502z"/>
	<path fill="#0B070C" d="M239.962,506.153h0.824c-0.497-1.23-1.021-2.447-1.567-3.651h-0.846
		C238.926,503.707,239.458,504.921,239.962,506.153z"/>
	<path fill="#0B070C" d="M57.426,525.018c0.291-1.638,0.623-3.26,0.995-4.868"/>
	<path fill="#0B070C" d="M245.96,520.15c0.373,1.608,0.705,3.23,0.997,4.868"/>
	<path fill="#0B070C" d="M244.434,520.15H59.948c-0.379,1.607-0.715,3.23-1.011,4.868h186.507
		C245.15,523.38,244.812,521.757,244.434,520.15z"/>
	<path fill="#0B070C" d="M59.175,520.15h-0.753c-0.373,1.608-0.705,3.23-0.995,4.868h0.749
		C58.467,523.38,58.8,521.757,59.175,520.15z"/>
	<path fill="#0B070C" d="M246.208,525.018h0.75c-0.292-1.638-0.624-3.26-0.997-4.868h-0.752
		C245.583,521.757,245.916,523.38,246.208,525.018z"/>
	<path fill="#0B070C" d="M59.948,520.15h-0.773c-0.375,1.607-0.708,3.23-1,4.868h0.762C59.233,523.38,59.569,521.757,59.948,520.15z
		"/>
	<path fill="#0B070C" d="M245.445,525.018h0.763c-0.292-1.638-0.625-3.261-1-4.868h-0.774
		C244.812,521.757,245.15,523.38,245.445,525.018z"/>
	<path fill="#0B070C" d="M55.966,543.884c-0.014-0.664-0.051-1.322-0.051-1.989c0-1.374,0.046-2.737,0.104-4.097"/>
	<path fill="#0B070C" d="M248.363,537.798c0.058,1.36,0.104,2.723,0.104,4.097c0,0.667-0.036,1.325-0.051,1.989"/>
	<path fill="#0B070C" d="M246.98,541.895c0-1.374-0.045-2.737-0.104-4.097H57.506c-0.058,1.36-0.104,2.723-0.104,4.097
		c0,0.667,0.037,1.325,0.051,1.989h189.476C246.944,543.22,246.98,542.562,246.98,541.895z"/>
	<path fill="#0B070C" d="M56.659,541.895c0-1.374,0.046-2.737,0.104-4.097h-0.744c-0.057,1.36-0.104,2.723-0.104,4.097
		c0,0.667,0.037,1.325,0.051,1.989h0.743C56.695,543.22,56.659,542.562,56.659,541.895z"/>
	<path fill="#0B070C" d="M247.724,541.895c0,0.667-0.036,1.325-0.051,1.989h0.744c0.015-0.664,0.051-1.322,0.051-1.989
		c0-1.374-0.046-2.737-0.104-4.097h-0.742C247.678,539.158,247.724,540.521,247.724,541.895z"/>
	<path fill="#0B070C" d="M246.98,541.895c0,0.667-0.036,1.325-0.051,1.989h0.744c0.015-0.664,0.051-1.322,0.051-1.989
		c0-1.374-0.046-2.737-0.103-4.097h-0.746C246.935,539.158,246.98,540.521,246.98,541.895z"/>
	<path fill="#0B070C" d="M57.402,541.895c0-1.374,0.046-2.737,0.104-4.097h-0.744c-0.058,1.36-0.104,2.723-0.104,4.097
		c0,0.667,0.036,1.325,0.05,1.989h0.744C57.439,543.22,57.402,542.562,57.402,541.895z"/>
	<path fill="#0B070C" d="M247.496,555.446c-0.349,2.465-0.796,4.899-1.328,7.302"/>
	<path fill="#0B070C" d="M58.215,562.748c-0.533-2.403-0.979-4.836-1.329-7.302"/>
	<path fill="#0B070C" d="M245.997,555.446H58.386c0.355,2.467,0.814,4.899,1.356,7.302h184.899
		C245.183,560.345,245.642,557.913,245.997,555.446z"/>
	<path fill="#0B070C" d="M57.633,555.446h-0.746c0.35,2.465,0.795,4.899,1.329,7.302h0.753
		C58.434,560.345,57.983,557.913,57.633,555.446z"/>
	<path fill="#0B070C" d="M245.414,562.748h0.754c0.532-2.403,0.979-4.836,1.328-7.302h-0.746
		C246.399,557.913,245.949,560.345,245.414,562.748z"/>
	<path fill="#0B070C" d="M244.641,562.748h0.773c0.535-2.403,0.985-4.835,1.336-7.302h-0.754
		C245.642,557.913,245.183,560.345,244.641,562.748z"/>
	<path fill="#0B070C" d="M58.386,555.446h-0.753c0.35,2.467,0.801,4.899,1.336,7.302h0.773
		C59.2,560.345,58.741,557.913,58.386,555.446z"/>
	<path fill="#0B070C" d="M243.251,573.094c-0.998,2.905-2.131,5.745-3.392,8.519"/>
	<path fill="#0B070C" d="M64.524,581.613c-1.261-2.773-2.394-5.613-3.392-8.519"/>
	<path fill="#0B070C" d="M241.681,573.094H62.703c1.016,2.907,2.169,5.748,3.454,8.519h172.069
		C239.51,578.842,240.664,576.001,241.681,573.094z"/>
	<path fill="#0B070C" d="M61.898,573.094h-0.766c0.998,2.905,2.131,5.745,3.392,8.519h0.787
		C64.042,578.841,62.902,576.001,61.898,573.094z"/>
	<path fill="#0B070C" d="M239.071,581.613h0.788c1.261-2.773,2.394-5.613,3.392-8.519h-0.766
		C241.48,576.001,240.341,578.841,239.071,581.613z"/>
	<path fill="#0B070C" d="M238.226,581.613h0.845c1.27-2.771,2.409-5.612,3.414-8.519h-0.805
		C240.664,576.001,239.51,578.842,238.226,581.613z"/>
	<path fill="#0B070C" d="M62.703,573.094h-0.805c1.004,2.907,2.144,5.747,3.413,8.519h0.846
		C64.873,578.842,63.719,576.001,62.703,573.094z"/>
	<path fill="#0B070C" d="M235.108,590.741c-2,3.384-4.203,6.634-6.59,9.736"/>
	<path fill="#0B070C" d="M75.864,600.477c-2.387-3.103-4.588-6.353-6.59-9.736"/>
	<path fill="#0B070C" d="M233.393,590.741H70.99c2.049,3.394,4.32,6.637,6.765,9.736h148.872
		C229.072,597.377,231.344,594.134,233.393,590.741z"/>
	<path fill="#0B070C" d="M227.626,600.477h0.892c2.387-3.103,4.589-6.353,6.59-9.736h-0.817
		C232.271,594.13,230.038,597.375,227.626,600.477z"/>
	<path fill="#0B070C" d="M70.092,590.741h-0.817c2.001,3.384,4.203,6.634,6.59,9.736h0.892
		C74.344,597.375,72.112,594.13,70.092,590.741z"/>
	<path fill="#0B070C" d="M70.99,590.741h-0.898c2.021,3.39,4.252,6.635,6.665,9.736h0.999
		C75.31,597.377,73.04,594.134,70.99,590.741z"/>
	<path fill="#0B070C" d="M226.627,600.477h1c2.412-3.102,4.645-6.347,6.665-9.736h-0.899
		C231.344,594.134,229.072,597.377,226.627,600.477z"/>
	<path fill="#0B070C" d="M95.077,619.343c-4.449-3.291-8.594-6.964-12.413-10.954"/>
	<path fill="#0B070C" d="M221.718,608.389c-3.818,3.99-7.963,7.663-12.413,10.954"/>
	<path fill="#0B070C" d="M219.664,608.389H84.719c3.967,4.024,8.295,7.686,12.922,10.954h109.1
		C211.369,616.075,215.696,612.414,219.664,608.389z"/>
	<path fill="#0B070C" d="M83.631,608.389h-0.966c3.819,3.99,7.963,7.663,12.413,10.954h1.212
		C91.753,616.063,87.519,612.397,83.631,608.389z"/>
	<path fill="#0B070C" d="M208.094,619.343h1.212c4.45-3.291,8.594-6.964,12.413-10.954h-0.966
		C216.864,612.397,212.629,616.063,208.094,619.343z"/>
	<path fill="#0B070C" d="M206.741,619.343h1.353c4.536-3.28,8.771-6.946,12.658-10.954h-1.088
		C215.696,612.414,211.369,616.075,206.741,619.343z"/>
	<path fill="#0B070C" d="M84.719,608.389h-1.088c3.888,4.008,8.123,7.674,12.659,10.954h1.352
		C93.014,616.075,88.686,612.414,84.719,608.389z"/>
	<path fill="#0B070C" d="M198.91,626.038c-13.845,7.719-29.773,12.135-46.718,12.135c-16.946,0-32.873-4.416-46.718-12.135"/>
	<path fill="#0B070C" d="M152.191,636.685c15.702,0,30.511-3.86,43.565-10.647h-87.131
		C121.68,632.825,136.489,636.685,152.191,636.685z"/>
	<path fill="#0B070C" d="M198.91,626.038h-1.455c-13.471,7.264-28.885,11.391-45.264,11.391c-16.379,0-31.792-4.127-45.265-11.391
		h-1.454c13.846,7.719,29.772,12.135,46.718,12.135C169.136,638.172,185.064,633.756,198.91,626.038z"/>
	<path fill="#0B070C" d="M152.191,636.685c-15.702,0-30.511-3.86-43.566-10.647h-1.699c13.473,7.264,28.885,11.391,45.265,11.391
		c16.378,0,31.792-4.127,45.264-11.391h-1.698C182.703,632.825,167.893,636.685,152.191,636.685z"/>
</g>
<g>
	<g opacity="0.75">
		<text transform="matrix(1 0 0 1 -107.3408 572.9136)" fill="#231F20" font-family="'Phosphate-Inline'" font-size="71.1304">Truck Grub Hub</text>
	</g>
	<g>
		<g>
			<text transform="matrix(1 0 0 1 -113.3408 568.9136)" fill="#F1F2F2" font-family="'Phosphate-Inline'" font-size="71.1304">Truck Grub Hub</text>
		</g>
	</g>
</g>
</svg>
