<?xml version="1.0" encoding="utf-8"?>
<!-- Generator: Adobe Illustrator 16.0.0, SVG Export Plug-In . SVG Version: 6.00 Build 0)  -->
<!DOCTYPE svg PUBLIC "-//W3C//DTD SVG 1.1//EN" "http://www.w3.org/Graphics/SVG/1.1/DTD/svg11.dtd">
<svg version="1.1" xmlns="http://www.w3.org/2000/svg" xmlns:xlink="http://www.w3.org/1999/xlink" x="0px" y="0px"
	 width="653.967px" height="205px" viewBox="-202.553 439.788 653.967 205" enable-background="new -202.553 439.788 653.967 205"
	 xml:space="preserve">
<g id="Layer_1" display="none">
	<g id="Layer_5" display="inline">
	</g>
	<g id="svgs" display="inline">
		
			<linearGradient id="SVGID_1_" gradientUnits="userSpaceOnUse" x1="2745.0015" y1="563.2817" x2="3048.3354" y2="563.2817" gradientTransform="matrix(1 0 0 -1 0 1181.5752)">
			<stop  offset="0" style="stop-color:#ED0D6D"/>
			<stop  offset="1" style="stop-color:#F05437"/>
		</linearGradient>
		
			<rect x="2745.001" y="508.293" display="none" fill="url(#SVGID_1_)" stroke="#59A8D7" stroke-miterlimit="10" width="303.334" height="220"/>
	</g>
	<g>
		<circle display="inline" fill="#FDED18" cx="216.621" cy="615.822" r="12.354"/>
		<circle display="inline" fill="#FDED18" cx="294.625" cy="615.938" r="12.355"/>
		<g id="XMLID_95_" display="inline">
			<g>
				<path fill="#F36D21" d="M194.679,558.944c-0.081-4.716-0.456-5.928,5.913-5.928h86.42c3.282,0,5.112,0.698,6.206,3.577
					l6.521,17.797c3.827,8.087,11.451,6.434,14.249,10.899c1.88,3.158,2.615,20.043-0.264,25.428
					c-0.89,1.683-4.099,0.771-5.751-0.514v-0.185c-1.08-6.435-15.696-16.254-26.949-2.175c-1.652,2.064-1.05,3.121-6.375,3.121
					h-0.125h-38.928c-5.017,0-4.01,0.332-7.631-4.868c-3.011-4.37-7.433-5.966-12.259-5.517c-7.499,0.705-10.128,4.172-13.39,8.446
					c-1.308,1.711-7.631,3.819-9.379,1.938c-0.837-0.896,0.36-3.481,1.741-6.36v-0.257L194.679,558.944L194.679,558.944z
					 M293.498,578.951c0.295-0.073,0.176-0.478,0.082-0.653l-6.647-17.231c-0.5-1.337-1.417-2.365-2.606-2.365h-14.382
					c-1.19,0-2.159,1.103-2.159,2.469v15.755c0,1.365,0.969,2.468,2.159,2.468h14.382
					C285.315,579.393,291.36,579.877,293.498,578.951z"/>
			</g>
		</g>
	</g>
	<rect x="-243.333" y="327.96" opacity="0.6" fill="#030202" width="785" height="409"/>
	<g id="Layer_7" display="inline">
	</g>
	<g>
		<path display="inline" fill="#EC008C" d="M230.598,711.289H75.784c-3.373,4.767-6.315,9.854-8.774,15.214h172.362
			C236.913,721.143,233.971,716.055,230.598,711.289z"/>
		<path display="inline" fill="#EC008C" d="M240.962,730.153H65.421c-1.841,4.504-3.337,9.181-4.473,13.997h184.485
			C244.299,739.333,242.803,734.657,240.962,730.153z"/>
		<path display="inline" fill="#EC008C" d="M153.191,671.106c-21.954,0-42.172,7.523-58.259,20.1H211.45
			C195.364,678.629,175.146,671.106,153.191,671.106z"/>
		<path display="inline" fill="#EC008C" d="M246.445,749.018H59.938c-0.753,4.175-1.245,8.438-1.431,12.78h189.369
			C247.691,757.456,247.199,753.193,246.445,749.018z"/>
		<path display="inline" fill="#EC008C" d="M109.625,850.038h87.131c3.821-1.986,7.488-4.225,10.984-6.694h-109.1
			C102.137,845.813,105.805,848.051,109.625,850.038z"/>
		<path display="inline" fill="#EC008C" d="M227.627,824.477H78.755c2.179,2.764,4.497,5.409,6.964,7.912h134.945
			C223.13,829.886,225.448,827.241,227.627,824.477z"/>
		<path display="inline" fill="#EC008C" d="M239.226,805.613H67.157c1.454,3.137,3.058,6.188,4.833,9.128h162.402
			C236.168,811.8,237.771,808.75,239.226,805.613z"/>
		<path display="inline" fill="#EC008C" d="M247.929,767.883H58.453c0.081,3.916,0.389,7.776,0.933,11.562h187.61
			C247.542,775.66,247.848,771.799,247.929,767.883z"/>
		<path display="inline" fill="#EC008C" d="M212.999,692.422H93.384c-5.913,4.822-11.235,10.34-15.839,16.432h151.294
			C224.233,702.762,218.912,697.245,212.999,692.422z"/>
		<path display="inline" fill="#EC008C" d="M245.641,786.748H60.742c0.794,3.527,1.783,6.979,2.961,10.347h178.978
			C243.857,793.727,244.845,790.275,245.641,786.748z"/>
		<path display="inline" fill="#EC008C" d="M240.218,726.502h0.787c-2.409-5.347-5.279-10.438-8.583-15.214h-0.863
			C234.891,716.06,237.792,721.149,240.218,726.502z"/>
		<path display="inline" fill="#EC008C" d="M229.83,708.854h0.861c-4.473-6.061-9.641-11.571-15.38-16.432h-1.068
			C220.062,697.263,225.299,702.778,229.83,708.854z"/>
		<path display="inline" fill="#EC008C" d="M153.191,670.362c22.518,0,43.201,7.811,59.532,20.844h1.133
			c-16.57-13.484-37.686-21.587-60.665-21.587s-44.095,8.103-60.664,21.587h1.133C109.99,678.172,130.673,670.362,153.191,670.362z"
			/>
		<path display="inline" fill="#EC008C" d="M246.208,744.15h0.752c-1.116-4.813-2.59-9.489-4.4-13.997h-0.774
			C243.606,734.659,245.086,739.333,246.208,744.15z"/>
		<path display="inline" fill="#EC008C" d="M221.752,832.389h0.966c2.404-2.514,4.676-5.151,6.8-7.912h-0.892
			C226.478,827.239,224.185,829.881,221.752,832.389z"/>
		<path display="inline" fill="#EC008C" d="M198.455,850.038h1.455c3.613-2.014,7.086-4.248,10.396-6.694h-1.212
			C205.705,845.793,202.158,848.042,198.455,850.038z"/>
		<path display="inline" fill="#EC008C" d="M247.75,779.446h0.746c0.536-3.787,0.841-7.647,0.921-11.562h-0.744
			C248.593,771.799,248.288,775.66,247.75,779.446z"/>
		<path display="inline" fill="#EC008C" d="M92.14,692.422h-1.068c-5.74,4.86-10.908,10.371-15.379,16.432h0.861
			C81.083,702.778,86.321,697.263,92.14,692.422z"/>
		<path display="inline" fill="#EC008C" d="M243.485,797.094h0.766c1.158-3.371,2.134-6.82,2.917-10.347h-0.754
			C245.628,790.275,244.649,793.727,243.485,797.094z"/>
		<path display="inline" fill="#EC008C" d="M235.292,814.741h0.817c1.742-2.944,3.324-5.992,4.75-9.128h-0.788
			C238.636,808.75,237.045,811.799,235.292,814.741z"/>
		<path display="inline" fill="#EC008C" d="M248.621,761.798h0.742c-0.182-4.342-0.666-8.604-1.406-12.78h-0.75
			C247.953,753.193,248.437,757.456,248.621,761.798z"/>
		<path display="inline" fill="#EC008C" d="M97.29,843.343h-1.212c3.31,2.446,6.783,4.681,10.396,6.694h1.454
			C104.224,848.042,100.678,845.793,97.29,843.343z"/>
		<path display="inline" fill="#EC008C" d="M59.175,749.018h-0.749c-0.741,4.176-1.225,8.438-1.408,12.78h0.744
			C57.946,757.456,58.431,753.193,59.175,749.018z"/>
		<path display="inline" fill="#EC008C" d="M66.311,805.613h-0.787c1.427,3.136,3.009,6.184,4.75,9.128h0.817
			C69.337,811.799,67.747,808.75,66.311,805.613z"/>
		<path display="inline" fill="#EC008C" d="M64.597,730.153h-0.774c-1.81,4.508-3.285,9.184-4.401,13.997h0.753
			C61.296,739.333,62.777,734.659,64.597,730.153z"/>
		<path display="inline" fill="#EC008C" d="M59.969,786.748h-0.753c0.782,3.526,1.759,6.976,2.917,10.347h0.766
			C61.734,793.727,60.754,790.275,59.969,786.748z"/>
		<path display="inline" fill="#EC008C" d="M57.709,767.883h-0.743c0.08,3.915,0.385,7.775,0.921,11.562h0.746
			C58.094,775.66,57.79,771.799,57.709,767.883z"/>
		<path display="inline" fill="#EC008C" d="M77.756,824.477h-0.892c2.124,2.761,4.396,5.398,6.8,7.912h0.966
			C82.197,829.881,79.904,827.239,77.756,824.477z"/>
		<path display="inline" fill="#EC008C" d="M74.822,711.289h-0.863c-3.302,4.776-6.174,9.867-8.582,15.214h0.787
			C68.591,721.149,71.492,716.06,74.822,711.289z"/>
		<path display="inline" fill="#EC008C" d="M67.157,805.613h-0.846c1.436,3.137,3.026,6.187,4.781,9.128h0.898
			C70.215,811.8,68.61,808.75,67.157,805.613z"/>
		<path display="inline" fill="#EC008C" d="M220.664,832.389h1.088c2.433-2.508,4.726-5.15,6.875-7.912h-1
			C225.448,827.241,223.13,829.886,220.664,832.389z"/>
		<path display="inline" fill="#EC008C" d="M78.755,824.477h-0.999c2.148,2.762,4.441,5.404,6.875,7.912h1.088
			C83.252,829.886,80.934,827.241,78.755,824.477z"/>
		<path display="inline" fill="#EC008C" d="M58.453,767.883h-0.744c0.081,3.916,0.385,7.776,0.924,11.562h0.753
			C58.842,775.66,58.534,771.799,58.453,767.883z"/>
		<path display="inline" fill="#EC008C" d="M60.742,786.748h-0.773c0.786,3.527,1.766,6.979,2.929,10.347h0.805
			C62.525,793.727,61.537,790.275,60.742,786.748z"/>
		<path display="inline" fill="#EC008C" d="M234.393,814.741h0.899c1.754-2.941,3.345-5.991,4.78-9.128h-0.845
			C237.771,808.75,236.168,811.8,234.393,814.741z"/>
		<path display="inline" fill="#EC008C" d="M75.784,711.289h-0.962c-3.331,4.771-6.231,9.86-8.658,15.214h0.846
			C69.469,721.143,72.412,716.055,75.784,711.289z"/>
		<path display="inline" fill="#EC008C" d="M245.434,744.15h0.774c-1.122-4.816-2.602-9.491-4.422-13.997h-0.824
			C242.803,734.657,244.299,739.333,245.434,744.15z"/>
		<path display="inline" fill="#EC008C" d="M239.373,726.502h0.846c-2.426-5.354-5.328-10.442-8.659-15.214h-0.962
			C233.971,716.055,236.913,721.143,239.373,726.502z"/>
		<path display="inline" fill="#EC008C" d="M228.838,708.854h0.991c-4.53-6.076-9.767-11.591-15.587-16.432h-1.244
			C218.912,697.245,224.233,702.762,228.838,708.854z"/>
		<path display="inline" fill="#EC008C" d="M246.997,779.446h0.754c0.538-3.786,0.843-7.646,0.923-11.562h-0.744
			C247.848,771.799,247.542,775.66,246.997,779.446z"/>
		<path display="inline" fill="#EC008C" d="M153.191,671.106c21.954,0,42.172,7.523,58.259,20.1h1.273
			c-16.331-13.033-37.014-20.844-59.532-20.844s-43.201,7.811-59.531,20.844h1.271C111.019,678.629,131.237,671.106,153.191,671.106
			z"/>
		<path display="inline" fill="#EC008C" d="M65.421,730.153h-0.824c-1.82,4.506-3.301,9.181-4.422,13.997h0.773
			C62.084,739.333,63.58,734.657,65.421,730.153z"/>
		<path display="inline" fill="#EC008C" d="M59.938,749.018h-0.762c-0.745,4.175-1.229,8.438-1.413,12.78h0.744
			C58.692,757.456,59.184,753.193,59.938,749.018z"/>
		<path display="inline" fill="#EC008C" d="M242.681,797.094h0.805c1.164-3.367,2.143-6.819,2.929-10.347h-0.773
			C244.845,790.275,243.857,793.727,242.681,797.094z"/>
		<path display="inline" fill="#EC008C" d="M93.384,692.422H92.14c-5.819,4.841-11.057,10.355-15.586,16.432h0.99
			C82.149,702.762,87.471,697.245,93.384,692.422z"/>
		<path display="inline" fill="#EC008C" d="M98.641,843.343H97.29c3.389,2.45,6.934,4.698,10.637,6.694h1.699
			C105.805,848.051,102.137,845.813,98.641,843.343z"/>
		<path display="inline" fill="#EC008C" d="M207.741,843.343c-3.497,2.47-7.164,4.708-10.984,6.694h1.698
			c3.703-1.996,7.25-4.244,10.639-6.694H207.741z"/>
		<path display="inline" fill="#EC008C" d="M247.875,761.798h0.746c-0.185-4.343-0.668-8.605-1.414-12.78h-0.763
			C247.199,753.193,247.691,757.456,247.875,761.798z"/>
		<path display="inline" fill="#0B070C" d="M91.072,692.422c0.482-0.408,0.964-0.817,1.455-1.217"/>
		<path display="inline" fill="#0B070C" d="M213.856,691.206c0.491,0.399,0.972,0.809,1.455,1.217"/>
		<path display="inline" fill="#0B070C" d="M211.45,691.206H94.932c-0.517,0.404-1.04,0.803-1.548,1.217h119.615
			C212.491,692.008,211.967,691.61,211.45,691.206z"/>
		<path display="inline" fill="#0B070C" d="M214.243,692.422h1.068c-0.482-0.408-0.963-0.817-1.455-1.217h-1.133
			C213.23,691.611,213.743,692.008,214.243,692.422z"/>
		<path display="inline" fill="#0B070C" d="M93.661,691.206h-1.133c-0.491,0.399-0.973,0.809-1.455,1.217h1.068
			C92.639,692.008,93.153,691.611,93.661,691.206z"/>
		<path display="inline" fill="#0B070C" d="M94.932,691.206h-1.271c-0.508,0.405-1.021,0.803-1.521,1.217h1.244
			C93.892,692.008,94.415,691.61,94.932,691.206z"/>
		<path display="inline" fill="#0B070C" d="M212.999,692.422h1.244c-0.5-0.414-1.013-0.812-1.52-1.217h-1.273
			C211.967,691.61,212.491,692.008,212.999,692.422z"/>
		<path display="inline" fill="#0B070C" d="M73.959,711.289c0.567-0.82,1.142-1.634,1.733-2.435"/>
		<path display="inline" fill="#0B070C" d="M230.691,708.854c0.591,0.801,1.165,1.614,1.731,2.435"/>
		<path display="inline" fill="#0B070C" d="M228.838,708.854H77.544c-0.604,0.798-1.181,1.617-1.76,2.435h154.813
			C230.02,710.471,229.441,709.652,228.838,708.854z"/>
		<path display="inline" fill="#0B070C" d="M231.56,711.289h0.863c-0.566-0.82-1.14-1.634-1.731-2.435h-0.861
			C230.423,709.652,230.99,710.471,231.56,711.289z"/>
		<path display="inline" fill="#0B070C" d="M76.554,708.854h-0.861c-0.591,0.801-1.166,1.614-1.733,2.435h0.863
			C75.393,710.471,75.959,709.652,76.554,708.854z"/>
		<path display="inline" fill="#0B070C" d="M77.544,708.854h-0.99c-0.595,0.798-1.162,1.617-1.732,2.435h0.962
			C76.363,710.471,76.94,709.652,77.544,708.854z"/>
		<path display="inline" fill="#0B070C" d="M230.598,711.289h0.962c-0.569-0.817-1.136-1.637-1.73-2.435h-0.991
			C229.441,709.652,230.02,710.471,230.598,711.289z"/>
		<path display="inline" fill="#0B070C" d="M63.823,730.153c0.493-1.23,1.013-2.447,1.555-3.65"/>
		<path display="inline" fill="#0B070C" d="M241.005,726.502c0.542,1.203,1.061,2.42,1.555,3.65"/>
		<path display="inline" fill="#0B070C" d="M239.373,726.502H67.01c-0.554,1.205-1.086,2.419-1.589,3.65h175.541
			C240.458,728.921,239.926,727.708,239.373,726.502z"/>
		<path display="inline" fill="#0B070C" d="M66.164,726.502h-0.787c-0.542,1.203-1.062,2.42-1.555,3.65h0.774
			C65.094,728.922,65.618,727.706,66.164,726.502z"/>
		<path display="inline" fill="#0B070C" d="M241.786,730.153h0.774c-0.494-1.23-1.013-2.447-1.555-3.65h-0.787
			C240.764,727.706,241.289,728.922,241.786,730.153z"/>
		<path display="inline" fill="#0B070C" d="M67.01,726.502h-0.846c-0.546,1.203-1.07,2.42-1.567,3.65h0.824
			C65.924,728.921,66.457,727.708,67.01,726.502z"/>
		<path display="inline" fill="#0B070C" d="M240.962,730.153h0.824c-0.497-1.23-1.021-2.447-1.567-3.65h-0.846
			C239.926,727.708,240.458,728.921,240.962,730.153z"/>
		<path display="inline" fill="#0B070C" d="M58.426,749.018c0.291-1.638,0.623-3.26,0.995-4.868"/>
		<path display="inline" fill="#0B070C" d="M246.96,744.15c0.373,1.608,0.705,3.23,0.997,4.868"/>
		<path display="inline" fill="#0B070C" d="M245.434,744.15H60.948c-0.379,1.607-0.715,3.23-1.011,4.868h186.507
			C246.15,747.38,245.812,745.757,245.434,744.15z"/>
		<path display="inline" fill="#0B070C" d="M60.175,744.15h-0.753c-0.373,1.608-0.705,3.23-0.995,4.868h0.749
			C59.467,747.38,59.8,745.757,60.175,744.15z"/>
		<path display="inline" fill="#0B070C" d="M247.208,749.018h0.75c-0.292-1.638-0.624-3.26-0.997-4.868h-0.752
			C246.583,745.757,246.916,747.38,247.208,749.018z"/>
		<path display="inline" fill="#0B070C" d="M60.948,744.15h-0.773c-0.375,1.607-0.708,3.23-1,4.868h0.762
			C60.233,747.38,60.569,745.757,60.948,744.15z"/>
		<path display="inline" fill="#0B070C" d="M246.445,749.018h0.763c-0.292-1.638-0.625-3.261-1-4.868h-0.774
			C245.812,745.757,246.15,747.38,246.445,749.018z"/>
		<path display="inline" fill="#0B070C" d="M56.966,767.883c-0.014-0.663-0.051-1.321-0.051-1.988c0-1.373,0.046-2.736,0.104-4.097"
			/>
		<path display="inline" fill="#0B070C" d="M249.363,761.798c0.058,1.36,0.104,2.724,0.104,4.097c0,0.667-0.036,1.325-0.051,1.988"
			/>
		<path display="inline" fill="#0B070C" d="M247.98,765.895c0-1.373-0.045-2.736-0.104-4.097H58.506
			c-0.058,1.36-0.104,2.724-0.104,4.097c0,0.667,0.037,1.325,0.051,1.988h189.476C247.944,767.22,247.98,766.562,247.98,765.895z"/>
		<path display="inline" fill="#0B070C" d="M57.659,765.895c0-1.374,0.046-2.736,0.104-4.097h-0.744
			c-0.057,1.36-0.104,2.724-0.104,4.097c0,0.667,0.037,1.325,0.051,1.988h0.743C57.695,767.22,57.659,766.562,57.659,765.895z"/>
		<path display="inline" fill="#0B070C" d="M248.724,765.895c0,0.667-0.036,1.325-0.051,1.988h0.744
			c0.015-0.663,0.051-1.321,0.051-1.988c0-1.373-0.046-2.736-0.104-4.097h-0.742C248.678,763.159,248.724,764.521,248.724,765.895z"
			/>
		<path display="inline" fill="#0B070C" d="M247.98,765.895c0,0.667-0.036,1.325-0.051,1.988h0.744
			c0.015-0.663,0.051-1.321,0.051-1.988c0-1.374-0.046-2.736-0.103-4.097h-0.746C247.935,763.159,247.98,764.522,247.98,765.895z"/>
		<path display="inline" fill="#0B070C" d="M58.402,765.895c0-1.373,0.046-2.736,0.104-4.097h-0.744
			c-0.058,1.36-0.104,2.723-0.104,4.097c0,0.667,0.036,1.325,0.05,1.988h0.744C58.439,767.22,58.402,766.562,58.402,765.895z"/>
		<path display="inline" fill="#0B070C" d="M248.496,779.446c-0.349,2.465-0.796,4.898-1.328,7.302"/>
		<path display="inline" fill="#0B070C" d="M59.215,786.748c-0.533-2.403-0.979-4.837-1.329-7.302"/>
		<path display="inline" fill="#0B070C" d="M246.997,779.446H59.386c0.355,2.467,0.814,4.898,1.356,7.302h184.899
			C246.183,784.344,246.642,781.913,246.997,779.446z"/>
		<path display="inline" fill="#0B070C" d="M58.633,779.446h-0.746c0.35,2.465,0.795,4.898,1.329,7.302h0.753
			C59.434,784.344,58.983,781.913,58.633,779.446z"/>
		<path display="inline" fill="#0B070C" d="M246.414,786.748h0.754c0.532-2.403,0.979-4.837,1.328-7.302h-0.746
			C247.399,781.913,246.949,784.344,246.414,786.748z"/>
		<path display="inline" fill="#0B070C" d="M245.641,786.748h0.773c0.535-2.403,0.985-4.835,1.336-7.302h-0.754
			C246.642,781.913,246.183,784.344,245.641,786.748z"/>
		<path display="inline" fill="#0B070C" d="M59.386,779.446h-0.753c0.35,2.467,0.801,4.898,1.336,7.302h0.773
			C60.2,784.344,59.741,781.913,59.386,779.446z"/>
		<path display="inline" fill="#0B070C" d="M244.251,797.094c-0.998,2.905-2.131,5.745-3.392,8.519"/>
		<path display="inline" fill="#0B070C" d="M65.524,805.613c-1.261-2.773-2.394-5.613-3.392-8.519"/>
		<path display="inline" fill="#0B070C" d="M242.681,797.094H63.703c1.016,2.906,2.169,5.748,3.454,8.519h172.069
			C240.51,802.842,241.664,800,242.681,797.094z"/>
		<path display="inline" fill="#0B070C" d="M62.898,797.094h-0.766c0.998,2.905,2.131,5.745,3.392,8.519h0.787
			C65.042,802.841,63.902,800,62.898,797.094z"/>
		<path display="inline" fill="#0B070C" d="M240.071,805.613h0.788c1.261-2.773,2.394-5.613,3.392-8.519h-0.766
			C242.48,800,241.341,802.841,240.071,805.613z"/>
		<path display="inline" fill="#0B070C" d="M239.226,805.613h0.845c1.27-2.771,2.409-5.612,3.414-8.519h-0.805
			C241.664,800,240.51,802.842,239.226,805.613z"/>
		<path display="inline" fill="#0B070C" d="M63.703,797.094h-0.805c1.004,2.906,2.144,5.747,3.413,8.519h0.846
			C65.873,802.842,64.719,800,63.703,797.094z"/>
		<path display="inline" fill="#0B070C" d="M236.108,814.741c-2,3.384-4.203,6.634-6.59,9.736"/>
		<path display="inline" fill="#0B070C" d="M76.864,824.477c-2.387-3.103-4.588-6.353-6.59-9.736"/>
		<path display="inline" fill="#0B070C" d="M234.393,814.741H71.99c2.049,3.394,4.32,6.637,6.765,9.736h148.872
			C230.072,821.377,232.344,818.134,234.393,814.741z"/>
		<path display="inline" fill="#0B070C" d="M228.626,824.477h0.892c2.387-3.103,4.589-6.353,6.59-9.736h-0.817
			C233.271,818.13,231.038,821.375,228.626,824.477z"/>
		<path display="inline" fill="#0B070C" d="M71.092,814.741h-0.817c2.001,3.384,4.203,6.634,6.59,9.736h0.892
			C75.344,821.375,73.112,818.13,71.092,814.741z"/>
		<path display="inline" fill="#0B070C" d="M71.99,814.741h-0.898c2.021,3.39,4.252,6.635,6.665,9.736h0.999
			C76.31,821.377,74.04,818.134,71.99,814.741z"/>
		<path display="inline" fill="#0B070C" d="M227.627,824.477h1c2.412-3.102,4.645-6.347,6.665-9.736h-0.899
			C232.344,818.134,230.072,821.377,227.627,824.477z"/>
		<path display="inline" fill="#0B070C" d="M96.077,843.343c-4.449-3.291-8.594-6.964-12.413-10.954"/>
		<path display="inline" fill="#0B070C" d="M222.718,832.389c-3.818,3.99-7.963,7.663-12.413,10.954"/>
		<path display="inline" fill="#0B070C" d="M220.664,832.389H85.719c3.967,4.024,8.295,7.686,12.922,10.954h109.1
			C212.369,840.075,216.696,836.414,220.664,832.389z"/>
		<path display="inline" fill="#0B070C" d="M84.631,832.389h-0.966c3.819,3.99,7.963,7.663,12.413,10.954h1.212
			C92.753,840.063,88.519,836.397,84.631,832.389z"/>
		<path display="inline" fill="#0B070C" d="M209.094,843.343h1.212c4.45-3.291,8.594-6.964,12.413-10.954h-0.966
			C217.864,836.397,213.629,840.063,209.094,843.343z"/>
		<path display="inline" fill="#0B070C" d="M207.741,843.343h1.353c4.536-3.28,8.771-6.946,12.658-10.954h-1.088
			C216.696,836.414,212.369,840.075,207.741,843.343z"/>
		<path display="inline" fill="#0B070C" d="M85.719,832.389h-1.088c3.888,4.008,8.123,7.674,12.659,10.954h1.352
			C94.014,840.075,89.686,836.414,85.719,832.389z"/>
		<path display="inline" fill="#0B070C" d="M199.91,850.038c-13.845,7.719-29.773,12.135-46.718,12.135
			c-16.946,0-32.873-4.416-46.718-12.135"/>
		<path display="inline" fill="#0B070C" d="M153.191,860.685c15.702,0,30.511-3.86,43.565-10.647h-87.131
			C122.68,856.825,137.489,860.685,153.191,860.685z"/>
		<path display="inline" fill="#0B070C" d="M199.91,850.038h-1.455c-13.471,7.264-28.885,11.391-45.264,11.391
			c-16.379,0-31.792-4.127-45.265-11.391h-1.454c13.846,7.719,29.772,12.135,46.718,12.135
			C170.136,862.172,186.064,857.756,199.91,850.038z"/>
		<path display="inline" fill="#0B070C" d="M153.191,860.685c-15.702,0-30.511-3.86-43.566-10.647h-1.699
			c13.473,7.264,28.885,11.391,45.265,11.391c16.378,0,31.792-4.127,45.264-11.391h-1.698
			C183.703,856.825,168.893,860.685,153.191,860.685z"/>
	</g>
	<g>
		<g display="inline" opacity="0.75">
			<text transform="matrix(1 0 0 1 -102.3408 436.9136)" fill="#231F20" font-family="'Phosphate-Inline'" font-size="71.1304">Truck Grub Hub</text>
		</g>
		<g display="inline">
			<g>
				<text transform="matrix(1 0 0 1 -108.3408 432.9136)" fill="#F1F2F2" font-family="'Phosphate-Inline'" font-size="71.1304">Truck Grub Hub</text>
			</g>
		</g>
	</g>
	<g id="XMLID_40_" display="inline">
		<g>
			<path fill="#EB008B" d="M225.927,542.563c-0.113-6.598-0.637-8.293,8.273-8.293h120.921c4.594,0,7.153,0.976,8.685,5.005
				l9.126,24.901c5.354,11.315,16.022,9.003,19.938,15.251c2.631,4.419,3.659,28.046-0.37,35.579
				c-1.243,2.354-5.734,1.079-8.047-0.719v-0.257c-1.511-9.003-21.962-22.744-37.707-3.042c-2.312,2.888-1.47,4.367-8.92,4.367
				h-0.175h-54.469c-7.02,0-5.611,0.463-10.679-6.813c-4.213-6.115-10.4-8.345-17.152-7.718
				c-10.493,0.986-14.172,5.837-18.735,11.818c-1.83,2.395-10.678,5.344-13.124,2.713c-1.172-1.254,0.503-4.871,2.436-8.899v-0.36
				V542.563z M364.196,570.558c0.411-0.103,0.246-0.668,0.112-0.915l-9.301-24.11c-0.698-1.871-1.983-3.309-3.648-3.309h-20.122
				c-1.665,0-3.021,1.542-3.021,3.453v22.044c0,1.912,1.356,3.453,3.021,3.453h20.122
				C352.747,571.175,361.205,571.853,364.196,570.558z"/>
		</g>
		<g>
		</g>
	</g>
	<polygon display="inline" fill="#EB008B" points="111.468,453.597 164.312,545.127 217.155,636.657 111.468,636.657 5.781,636.657 
		58.625,545.127 	"/>
	<polygon display="inline" opacity="0.9" fill="#2B2C6B" points="145.795,442.725 195.417,539.7 245.044,636.675 145.795,636.675 
		46.545,636.675 96.168,539.7 	"/>
	<polygon display="inline" opacity="0.9" fill="#FFFF00" points="68.874,487.556 107.937,562.261 147,636.969 68.874,636.969 
		-9.245,636.969 29.819,562.261 	"/>
	<polygon display="inline" opacity="0.9" fill="#00FFF8" points="192.075,483.17 223.235,560.047 254.399,636.918 192.075,636.918 
		129.75,636.918 160.914,560.047 	"/>
	<path display="inline" fill-rule="evenodd" clip-rule="evenodd" fill="#FDED16" d="M274.354,619.864
		c0,9.55-7.735,17.289-17.286,17.289c-9.546,0-17.289-7.739-17.289-17.289c0-9.549,7.743-17.288,17.289-17.288
		C266.619,602.576,274.354,610.315,274.354,619.864z"/>
	<path display="inline" fill-rule="evenodd" clip-rule="evenodd" fill="#FDED16" d="M382.429,620.309
		c0,9.547-7.74,17.292-17.286,17.292s-17.289-7.741-17.289-17.292c0-9.548,7.743-17.287,17.289-17.287
		S382.429,610.761,382.429,620.309z"/>
	
		<text transform="matrix(1 0 0 1 204.2769 507.6743)" display="inline" fill="#FFFFFF" font-family="'YikesMedium'" font-size="37.3251" letter-spacing="3">grub</text>
	<g display="inline" opacity="0.9">
		<path fill="#FFFFFF" d="M-10.278,551.398h-21.401V520.95H49.4v30.448H28v85.604h-38.278V551.398z M11.123,623.083v-84.038h24.881
			v-4.176h-54.285v4.176h24.88v84.038H11.123z"/>
		<path fill="#FFFFFF" d="M55.488,520.95h40.018c7.422,0,14.294,0.987,20.618,2.958c6.321,1.974,11.801,4.872,16.442,8.7
			c4.638,3.828,8.265,8.556,10.875,14.18c2.61,5.627,3.915,12.092,3.915,19.4c0,5.802-0.813,10.73-2.436,14.79
			c-1.626,4.062-3.423,7.424-5.394,10.091c-2.322,3.018-4.932,5.567-7.83,7.655l21.749,38.278h-43.498l-17.399-29.404v29.404h-37.06
			V520.95z M91.678,596.635c4.524,0,8.931-0.462,13.223-1.392l16.529,27.839h5.394l-17.399-29.23
			c6.264-2.202,11.25-5.595,14.963-10.179c3.711-4.581,5.567-10.526,5.567-17.834c0-5.103-0.987-9.57-2.958-13.397
			c-1.974-3.828-4.671-7.046-8.091-9.656c-3.423-2.61-7.455-4.581-12.092-5.916c-4.641-1.332-9.687-2.001-15.137-2.001H72.887
			v88.214h4.524v-26.447H91.678z M77.411,592.459v-53.415h14.267c10.554,0,18.818,2.322,24.793,6.96
			c5.973,4.641,8.961,11.252,8.961,19.835c0,8.585-2.988,15.167-8.961,19.748c-5.975,4.583-14.24,6.872-24.793,6.872H77.411z
			 M92.548,578.019h1.914c4.407,0,8.148-0.984,11.223-2.958c3.072-1.971,4.611-5.277,4.611-9.917c0-4.638-1.539-7.943-4.611-9.917
			c-3.075-1.971-6.815-2.958-11.223-2.958h-1.914V578.019z"/>
		<path fill="#FFFFFF" d="M156.924,520.95h37.582v26.794l21.924-26.794h45.41l-40.887,53.067l42.975,62.985h-44.715l-24.707-35.843
			v35.843h-37.582V520.95z M178.847,623.083v-23.489l18.094-22.445l31.666,45.934h5.395l-33.928-49.588l31.145-38.626h-5.568
			l-46.803,57.765v-57.765h-4.524v88.214H178.847z"/>
	</g>
	
		<text transform="matrix(1 0 0 1 263.0015 531.4009)" display="inline" fill="#FFFFFF" font-family="'YikesMedium'" font-size="37.3251" letter-spacing="1">hub</text>
</g>
<g id="Layer_2">
	<g>
		<g id="XMLID_1_">
			<g>
				<path fill="#E80A89" d="M185.452,489.129c-0.172-10.042-0.97-12.623,12.591-12.623h184.034c6.991,0,10.887,1.486,13.217,7.617
					l13.89,37.898c8.148,17.221,24.385,13.702,30.344,23.212c4.004,6.726,5.568,42.685-0.563,54.15
					c-1.893,3.581-8.728,1.642-12.247-1.095v-0.392c-2.299-13.702-33.425-34.614-57.388-4.63c-3.519,4.396-2.236,6.647-13.576,6.647
					h-0.266h-82.898c-10.683,0-8.54,0.704-16.251-10.37c-6.413-9.307-15.829-12.701-26.105-11.747
					c-15.97,1.501-21.569,8.884-28.514,17.987c-2.784,3.645-16.251,8.133-19.974,4.129c-1.783-1.908,0.766-7.414,3.707-13.545
					v-0.547V489.129z M395.889,531.736c0.625-0.156,0.375-1.017,0.172-1.392l-14.155-36.694c-1.063-2.847-3.019-5.036-5.553-5.036
					h-30.626c-2.533,0-4.598,2.346-4.598,5.255v33.55c0,2.909,2.064,5.255,4.598,5.255h30.626
					C378.464,532.674,391.337,533.707,395.889,531.736z"/>
			</g>
			<g>
			</g>
		</g>
		<path fill-rule="evenodd" clip-rule="evenodd" fill="#FBEB16" d="M257.634,606.769c0,14.533-11.774,26.312-26.309,26.312
			c-14.528,0-26.313-11.778-26.313-26.312c0-14.534,11.785-26.313,26.313-26.313C245.86,580.456,257.634,592.235,257.634,606.769z"
			/>
		<path fill-rule="evenodd" clip-rule="evenodd" fill="#FBEB16" d="M423.639,607.447c0,14.529-11.779,26.317-26.307,26.317
			c-14.529,0-26.314-11.783-26.314-26.317c0-14.532,11.785-26.312,26.314-26.312C411.86,581.135,423.639,592.915,423.639,607.447z"
			/>
	</g>
	<g>
		<path fill="#FFFFFF" stroke="#FFFFFF" stroke-width="5" stroke-miterlimit="10" d="M216.075,489.304
			c2.803,0.121,4.898,0.829,6.285,2.125c0.813,0.753,1.537,1.537,2.17,2.351c-0.091,0.09-0.189,0.249-0.295,0.475
			c-0.106,0.226-0.218,0.415-0.338,0.565c-0.121,0.151-0.271,0.257-0.453,0.317c-0.633,0.181-1.04,0.166-1.221-0.045
			c-1.869-1.537-3.693-2.321-5.47-2.351c-0.181,0-1.175,0.121-2.984,0.362c-1.447,0.06-2.562,0.482-3.346,1.266
			c-0.09,0.09-0.242,0.234-0.452,0.43c-0.212,0.196-0.377,0.354-0.498,0.475c-0.121,0.121-0.249,0.279-0.384,0.474
			c-0.136,0.197-0.249,0.385-0.339,0.565c-0.061,0.151-0.144,0.31-0.249,0.475c-0.105,0.166-0.225,0.355-0.361,0.565
			c-0.136,0.211-0.234,0.377-0.294,0.497c-0.09,0.181-0.188,0.475-0.294,0.882c-0.106,0.407-0.188,0.716-0.249,0.926l-0.678,2.17
			c-0.121,0.242-0.151,0.694-0.091,1.356c0.061,0.663,0.076,1.116,0.046,1.357c0,0.271,0.045,0.618,0.136,1.04
			c0.09,0.422,0.15,0.694,0.181,0.813c0.061,0.633,0.241,1.236,0.542,1.809c0.061,0.121,0.143,0.37,0.249,0.746
			c0.105,0.377,0.218,0.655,0.339,0.837c0.091,0.18,0.271,0.429,0.542,0.746c0.271,0.316,0.452,0.565,0.542,0.746
			c0.12,0.15,0.332,0.406,0.633,0.768c0.301,0.362,0.512,0.649,0.633,0.859c0.331,0.542,0.889,1.011,1.673,1.402
			c0.12,0,0.293,0.03,0.52,0.09c0.225,0.062,0.399,0.106,0.52,0.136c0.06,0,0.136,0.008,0.226,0.023
			c0.091,0.016,0.151,0.022,0.182,0.022c0.06,0.03,0.226,0.09,0.497,0.181c0.181,0.091,0.361,0.136,0.542,0.136
			c0.723,0.121,1.417,0.045,2.08-0.226c0.181-0.06,0.444-0.113,0.792-0.159c0.346-0.044,0.594-0.082,0.746-0.113
			c1.084-0.09,1.898-0.572,2.441-1.446c0.362-0.633,0.452-1.25,0.271-1.854c-0.12-0.241-0.293-0.437-0.519-0.589
			c-0.226-0.149-0.504-0.3-0.836-0.451c-0.332-0.15-0.573-0.271-0.724-0.362c-0.241-0.091-0.573-0.422-0.994-0.994
			c-0.151-0.151-0.181-0.376-0.091-0.679c0.332-0.692,0.784-1.1,1.357-1.22c0.391-0.061,1.001-0.114,1.831-0.158
			c0.828-0.046,1.56-0.113,2.191-0.204c0.633-0.09,1.236-0.226,1.809-0.407c0.12,0.09,0.309,0.188,0.565,0.293
			c0.256,0.106,0.474,0.219,0.656,0.339c0.18,0.121,0.331,0.271,0.452,0.452c0.029,0.121,0.015,0.333-0.045,0.633
			c-0.061,0.302-0.091,0.528-0.091,0.678c-0.061,0.664-0.452,1.478-1.175,2.441c-0.875,0.813-1.401,2.201-1.582,4.16
			c-0.031,0.332-0.068,1.01-0.113,2.035c-0.045,1.025-0.113,1.883-0.203,2.577c-0.091,0.693-0.242,1.371-0.453,2.034
			c-0.03,0.211-0.332,0.392-0.904,0.542c-0.091,0.031-0.287,0.091-0.588,0.181c-0.814,0.301-1.356,0.346-1.627,0.136
			c-0.332-0.181-0.784-0.513-1.356-0.995c-0.574-0.482-1.011-0.813-1.312-0.995c-0.181-0.06-0.423-0.143-0.724-0.248
			c-0.301-0.106-0.542-0.189-0.724-0.249c-0.693-0.271-1.726-0.459-3.096-0.565c-1.373-0.105-2.238-0.188-2.6-0.249
			c-1.959-0.814-3.166-1.356-3.617-1.627c-0.633-0.392-1.251-0.995-1.854-1.809c-1.899-2.471-3.075-5.169-3.526-8.092
			c-0.302-2.141,0-4.658,0.904-7.551c0.873-2.622,2.14-4.837,3.798-6.646c1.566-1.657,3.36-2.817,5.379-3.481
			C212.503,489.545,214.176,489.304,216.075,489.304z"/>
		<path fill="#FFFFFF" stroke="#FFFFFF" stroke-width="5" stroke-miterlimit="10" d="M248.897,485.46
			c1.176,0.242,2.38,0.723,3.617,1.447c1.958,1.206,3.451,3.12,4.476,5.742c0.543,1.355,0.873,2.667,0.994,3.933
			c0.152,1.778,0.166,2.969,0.046,3.571c-0.211,0.904-0.618,1.627-1.222,2.17c-2.199,2.08-4.821,3.422-7.865,4.024
			c-0.121,0.031-0.31,0.061-0.565,0.09c-0.257,0.031-0.4,0.046-0.43,0.046c-0.211,0.03-0.392,0.09-0.542,0.18
			c-0.392,0.151-0.633,0.256-0.723,0.316h0.18c0.422,0.724,0.753,1.266,0.995,1.628c0.03,0.061,0.075,0.144,0.136,0.249
			c0.06,0.106,0.113,0.203,0.159,0.293c0.044,0.091,0.082,0.181,0.113,0.271c0.15,0.242,0.241,0.452,0.271,0.633
			c0.121,0.121,0.21,0.302,0.271,0.542c0.03,0.09,0.075,0.189,0.136,0.293c0.06,0.106,0.12,0.204,0.18,0.294
			c0.091,0.18,0.226,0.46,0.408,0.836c0.18,0.377,0.316,0.655,0.407,0.835c0.06,0.182,0.136,0.317,0.226,0.408
			c0.453,0.994,1.07,1.944,1.854,2.848c0.602,0.542,1.16,1.312,1.671,2.306c0.332,0.965,0.393,1.658,0.182,2.08
			c-0.061,0.091-0.211,0.376-0.453,0.859c-0.692,0.21-1.491-0.031-2.395-0.724c-3.226-2.562-5.29-4.159-6.194-4.792
			c-0.422-0.301-0.724-0.542-0.905-0.723c-0.332-0.362-0.542-0.557-0.632-0.588c-0.271-0.12-0.618-0.181-1.04-0.181
			c-0.724-0.391-1.251-0.769-1.583-1.131c-0.03-0.059-0.135-0.225-0.316-0.497c-0.181-0.12-0.429-0.338-0.746-0.655
			c-0.316-0.316-0.505-0.504-0.565-0.565c-0.271,2.413-0.377,4.326-0.316,5.742c0,1.387-0.045,2.427-0.136,3.119
			c-0.09,1.417-0.346,2.683-0.768,3.798c-0.031,0.181-0.196,0.361-0.498,0.542c-0.211,0.091-0.527,0.287-0.95,0.588
			c-0.18-0.301-0.332-0.604-0.452-0.904c-0.121-0.301-0.219-0.671-0.293-1.108c-0.076-0.437-0.129-0.753-0.159-0.949
			c-0.031-0.196-0.075-0.572-0.135-1.13c-0.061-0.559-0.091-0.881-0.091-0.972c-0.03-0.391-0.068-0.941-0.113-1.65
			c-0.045-0.708-0.068-1.243-0.068-1.605c-0.301-4.642-0.648-8.62-1.04-11.936c0-1.235-0.03-2.034-0.09-2.396
			c0-0.03-0.007-0.067-0.022-0.113c-0.016-0.045-0.031-0.091-0.046-0.136c-0.016-0.045-0.03-0.097-0.045-0.158
			c-0.015-0.06-0.022-0.105-0.022-0.135c-0.031-0.091-0.068-0.188-0.113-0.294c-0.046-0.105-0.068-0.188-0.068-0.249
			c-0.362-1.024-0.542-2.305-0.542-3.843c0.029-0.21,0.029-0.806,0-1.786c-0.03-0.979-0.045-1.56-0.045-1.741
			c0-0.15,0-0.475,0-0.972s0-0.852,0-1.062c0-0.21,0.007-0.535,0.022-0.972c0.015-0.437,0.045-0.783,0.09-1.04
			c0.045-0.255,0.105-0.572,0.18-0.949c0.076-0.376,0.174-0.716,0.294-1.017c0.12-0.301,0.256-0.603,0.407-0.904
			c0.241-0.572,0.783-1.024,1.628-1.356c0.813-0.241,1.597-0.271,2.351-0.09c0.18,0.03,0.421,0.076,0.723,0.136
			c0.029,0,0.09,0.016,0.181,0.045h0.135c0.181,0.091,0.332,0.151,0.452,0.181c0.362,0.121,0.633,0.121,0.814,0
			C243.292,485.099,246.155,484.858,248.897,485.46z M240.895,493.779c-0.061,1.507-0.09,2.562-0.09,3.165
			c-0.062,1.748-0.302,4.311-0.724,7.686c0.542-0.542,1.145-1.055,1.808-1.537c0.03,0,0.067-0.023,0.113-0.067
			c0.045-0.046,0.097-0.083,0.158-0.114c0.06-0.029,0.105-0.045,0.136-0.045c0.482,0.061,1.069,0.347,1.762,0.859
			c2.171-0.09,3.919-0.708,5.246-1.854c1.416-0.964,2.2-2.441,2.351-4.431c0.12-1.447-0.091-2.623-0.633-3.526
			c-0.542-1.115-1.297-2.049-2.26-2.803c-0.965-0.753-2.035-1.205-3.21-1.356c-1.084-0.3-2.622-0.12-4.611,0.542
			C240.97,491.112,240.956,492.272,240.895,493.779z"/>
		<path fill="#FFFFFF" stroke="#FFFFFF" stroke-width="5" stroke-miterlimit="10" d="M265.535,490.705
			c0.241,0.542,0.422,1.13,0.543,1.763c0.119,0.633,0.226,1.379,0.316,2.238c0.09,0.859,0.164,1.469,0.227,1.831
			c0.059,0.302,0.195,0.987,0.406,2.057c0.21,1.07,0.369,1.854,0.475,2.351c0.105,0.497,0.271,1.153,0.498,1.966
			c0.226,0.814,0.459,1.553,0.7,2.215c0.481,1.236,0.994,2.216,1.536,2.939c0.242,0.301,0.566,0.753,0.973,1.356
			c0.407,0.604,0.715,1.04,0.928,1.311c0.692,0.845,1.266,1.356,1.718,1.537c0.149,0.06,0.391,0.136,0.724,0.226
			c0.33,0.09,0.572,0.166,0.723,0.226h1.131c0.09-0.029,0.285-0.089,0.588-0.181c0.422-0.12,1.1-0.436,2.033-0.949
			c0.211-0.12,0.453-0.346,0.725-0.678c0.271-0.332,0.421-0.512,0.451-0.543c1.296-1.476,2.155-2.712,2.577-3.707
			c0.15-0.361,0.323-0.904,0.52-1.628c0.195-0.722,0.354-1.25,0.476-1.582c0.571-1.538,0.888-2.787,0.949-3.753
			c0.091-0.723,0.218-1.469,0.384-2.238s0.362-1.635,0.588-2.6c0.227-0.964,0.399-1.688,0.52-2.17c0-0.12,0.023-0.226,0.068-0.316
			c0.045-0.09,0.098-0.172,0.158-0.248c0.061-0.075,0.136-0.151,0.227-0.227c0.091-0.075,0.165-0.127,0.227-0.158
			c0.06-0.03,0.149-0.083,0.271-0.159c0.12-0.075,0.21-0.128,0.271-0.158c0.241,0.362,0.407,0.746,0.497,1.153
			c0.09,0.407,0.15,0.92,0.182,1.537c0.029,0.619,0.059,1.033,0.09,1.243c0.12,2.593,0.06,4.537-0.182,5.832
			c-0.029,0.182-0.135,0.498-0.316,0.95c-0.181,0.453-0.286,0.814-0.316,1.085c-0.03,0.211-0.121,0.52-0.271,0.927
			c-0.15,0.407-0.242,0.731-0.271,0.972c-0.06,0.302-0.18,0.739-0.361,1.311c-0.181,0.574-0.287,0.89-0.316,0.949
			c-0.422,0.875-0.738,1.749-0.949,2.623c-0.09,0.361-0.15,0.905-0.181,1.628s-0.075,1.251-0.136,1.582
			c-0.09,0.754-0.151,1.161-0.181,1.221c-1.327,2.231-3.316,3.859-5.968,4.883c-1.296,0.422-2.652,0.197-4.069-0.678
			c-0.422-0.241-1.296-1.069-2.622-2.486c-1.599-1.899-2.938-4.053-4.023-6.465c-0.573-1.417-0.966-2.532-1.176-3.346
			c-0.061-0.21-0.286-0.851-0.678-1.921c-0.392-1.069-0.633-1.892-0.724-2.464c-0.844-3.918-1.252-6.873-1.221-8.861
			c0-0.573,0.06-0.964,0.181-1.176C264.541,491.745,264.902,491.338,265.535,490.705z"/>
		<path fill="#FFFFFF" stroke="#FFFFFF" stroke-width="5" stroke-miterlimit="10" d="M308.936,485.28
			c1.326,0.151,2.804,0.648,4.432,1.492c2.471,1.538,3.979,3.632,4.521,6.285c0.481,2.351,0.376,4.355-0.316,6.013
			c-0.724,1.627-2.11,3.014-4.16,4.16c1.929,0.874,3.497,2.426,4.702,4.656c0.875,1.779,1.387,3.452,1.537,5.019
			c0.181,1.869-0.029,3.21-0.633,4.024c-0.844,1.025-1.93,1.914-3.256,2.667c-1.205,0.693-2.078,1.085-2.621,1.175
			c-0.062,0-0.189-0.022-0.385-0.067c-0.195-0.045-0.339-0.068-0.429-0.068c-0.212,0.091-0.453,0.143-0.724,0.158
			c-0.271,0.014-0.521,0.014-0.746,0c-0.227-0.016-0.475-0.007-0.746,0.023c-0.061,0-0.174,0.029-0.34,0.089
			c-0.165,0.061-0.293,0.091-0.383,0.091c-0.785,0.301-1.492,0.436-2.125,0.407c-0.182-0.03-0.559-0.007-1.131,0.068
			c-0.572,0.075-0.92,0.023-1.041-0.158v0.136c-1.174,0.15-2.53,0.226-4.067,0.226c-0.663,0.12-1.297,0.166-1.899,0.136
			c0-1.056,0.046-2.08,0.136-3.074c-0.452-0.12-0.829-0.543-1.13-1.266c-0.332-0.844-0.527-2.32-0.588-4.431
			c0-0.513-0.03-1.251-0.091-2.215c-0.061-2.713-0.061-4.748,0-6.104c0.03-0.603,0.104-1.566,0.226-2.894
			c0.121-1.326,0.205-2.374,0.249-3.142c0.045-0.769,0.099-1.71,0.159-2.826c0.061-1.115,0.082-2.17,0.067-3.165
			c-0.016-0.994-0.067-1.958-0.158-2.893v-1.627c0.36-0.542,0.769-0.889,1.22-1.04c0.572-0.09,1.372-0.376,2.396-0.859
			C304.174,485.22,306.616,484.888,308.936,485.28z M304.032,489.417c-0.438,0.136-0.957,0.316-1.561,0.542
			s-1.025,0.384-1.266,0.475c0.512,3.948,1.1,7.821,1.763,11.619c0.483,0.121,1.507,0.106,3.074-0.045
			c2.2-0.15,3.979-1.04,5.335-2.667c0.783-1.054,1.131-2.396,1.04-4.023c-0.03-1.899-0.935-3.511-2.712-4.838
			c-1.236-0.874-2.699-1.312-4.386-1.312C304.898,489.198,304.467,489.281,304.032,489.417z M304.415,511.773
			c0.242,2.321,0.151,4.159-0.27,5.515c0,0.062,0.051,0.34,0.157,0.837c0.106,0.498,0.188,0.867,0.249,1.108
			c1.175,0.121,2.547,0.016,4.113-0.316c1.447-0.362,2.743-1.115,3.888-2.261c0.845-1.055,1.267-2.396,1.267-4.023
			c-0.121-1.115-0.316-1.884-0.588-2.307c-0.783-1.688-2.049-2.863-3.798-3.526c-0.513-0.242-1.266-0.392-2.26-0.453
			c-0.634-0.03-1.718,0.211-3.255,0.724C304.219,509.181,304.385,510.749,304.415,511.773z"/>
	</g>
	<g>
		<path fill="#FFFFFF" stroke="#FFFFFF" stroke-width="5" stroke-miterlimit="10" d="M249.705,534.056
			c1.265-0.226,2.222,0.097,2.871,0.974c0.488,1.201,0.731,2.564,0.731,4.089c-0.065,6.067-0.211,9.848-0.438,11.34
			c0.876-0.064,2.515-0.324,4.917-0.778c2.4-0.454,4.266-0.649,5.597-0.584c-0.714-5.548-0.778-9.783-0.194-12.704
			c0.227-1.168,0.875-1.881,1.946-2.141c0.974-0.292,2.19-0.26,3.651,0.097c0.486,0.357,0.843,0.715,1.07,1.07
			c0.259,0.942,0.438,1.979,0.535,3.115c0.098,1.137,0.137,2.101,0.121,2.896c-0.017,0.796-0.049,1.882-0.097,3.261
			c-0.049,1.38-0.073,2.377-0.073,2.993c0,0.227-0.13,1.283-0.389,3.164c-0.195,1.265-0.406,2.742-0.633,4.429
			c-0.066,0.454-0.041,1.103,0.072,1.947c0.113,0.844,0.171,1.428,0.171,1.752c-0.033,0.649,0.097,1.314,0.39,1.995
			c0.259,0.552,0.396,1.387,0.413,2.507c0.017,1.119,0.041,1.761,0.073,1.923c0.032,0.583,0.049,1.444,0.049,2.579
			c0,1.948-0.39,3.358-1.168,4.235c-0.617,0.616-1.478,0.925-2.58,0.925c-0.845,0-1.866-0.178-3.066-0.536
			c-0.194-0.324-0.357-0.778-0.486-1.362c-0.131-0.617-0.211-1.257-0.244-1.923c-0.033-0.665-0.023-1.443,0.024-2.336
			c0.049-0.892,0.073-1.516,0.073-1.874c0-1.817,0.324-4.413,0.975-7.788c0.161-0.681,0.226-1.266,0.193-1.752
			c-1.688,0.098-3.439,0.098-5.256,0c-0.715-0.032-1.728-0.211-3.043-0.535c-1.313-0.323-2.198-0.519-2.652-0.584
			c0.357,3.017,0.519,4.721,0.486,5.11c0.032,0.325,0.227,0.925,0.584,1.801c0.26,1.04,0.342,2.062,0.244,3.066
			c0.13,2.077,0.13,3.796,0,5.159c-0.098,0.973-0.439,1.85-1.022,2.628c-0.423,0.454-1.038,0.729-1.849,0.828
			c-0.812,0.162-2.013,0.032-3.603-0.389c-0.195-0.065-0.373-0.358-0.535-0.876c-0.358-1.006-0.471-2.824-0.341-5.451
			c0.032-0.292,0.048-0.803,0.048-1.534s0.032-1.29,0.097-1.679c0.065-1.104,0.292-2.758,0.682-4.965
			c0.162,0,0.195-0.664,0.098-1.995l-0.098-1.948c-1.655,0-3.066-0.551-4.234-1.655c0.584-0.745,1.85-1.183,3.797-1.313
			c-0.065-0.649-0.179-1.874-0.341-3.675c-0.163-1.801-0.275-3.164-0.341-4.088c-0.065-0.925-0.072-2.101-0.024-3.529
			c0.048-1.427,0.202-2.742,0.462-3.943C247.66,534.932,248.439,534.283,249.705,534.056z"/>
		<path fill="#FFFFFF" stroke="#FFFFFF" stroke-width="5" stroke-miterlimit="10" d="M276.912,539.507
			c0.26,0.584,0.455,1.217,0.585,1.898c0.128,0.682,0.243,1.485,0.34,2.41c0.099,0.925,0.179,1.581,0.243,1.971
			c0.064,0.324,0.211,1.063,0.438,2.214c0.226,1.152,0.397,1.996,0.511,2.531s0.293,1.241,0.535,2.117
			c0.244,0.876,0.495,1.672,0.755,2.385c0.519,1.331,1.07,2.385,1.654,3.164c0.26,0.325,0.609,0.812,1.047,1.46
			c0.438,0.65,0.771,1.12,0.998,1.412c0.746,0.91,1.363,1.461,1.85,1.655c0.162,0.065,0.422,0.146,0.779,0.244
			c0.355,0.096,0.615,0.179,0.777,0.243h1.218c0.098-0.032,0.308-0.097,0.634-0.194c0.453-0.13,1.184-0.47,2.189-1.022
			c0.227-0.13,0.486-0.374,0.779-0.73c0.291-0.357,0.453-0.551,0.486-0.585c1.395-1.589,2.318-2.919,2.773-3.99
			c0.162-0.39,0.349-0.974,0.561-1.752c0.21-0.779,0.381-1.346,0.512-1.704c0.615-1.655,0.955-3,1.021-4.04
			c0.098-0.778,0.234-1.582,0.414-2.41c0.178-0.827,0.389-1.759,0.632-2.798s0.43-1.817,0.56-2.336c0-0.129,0.025-0.244,0.074-0.341
			c0.048-0.097,0.104-0.187,0.17-0.268c0.064-0.08,0.146-0.163,0.243-0.243c0.098-0.082,0.179-0.138,0.243-0.172
			c0.064-0.032,0.162-0.088,0.292-0.17c0.13-0.08,0.226-0.138,0.292-0.17c0.26,0.39,0.438,0.803,0.536,1.241
			c0.097,0.438,0.161,0.99,0.194,1.655c0.031,0.665,0.064,1.112,0.098,1.338c0.129,2.791,0.064,4.884-0.195,6.279
			c-0.033,0.194-0.146,0.536-0.34,1.022c-0.195,0.487-0.309,0.876-0.342,1.168c-0.032,0.227-0.131,0.56-0.292,0.998
			c-0.163,0.438-0.261,0.786-0.292,1.046c-0.064,0.324-0.194,0.796-0.391,1.411c-0.193,0.618-0.308,0.958-0.34,1.022
			c-0.454,0.942-0.795,1.883-1.021,2.824c-0.098,0.389-0.162,0.974-0.195,1.751c-0.032,0.78-0.08,1.348-0.146,1.704
			c-0.097,0.812-0.163,1.25-0.194,1.314c-1.428,2.402-3.57,4.154-6.426,5.257c-1.395,0.454-2.854,0.211-4.38-0.73
			c-0.454-0.26-1.396-1.152-2.823-2.677c-1.721-2.045-3.164-4.363-4.331-6.96c-0.617-1.525-1.039-2.726-1.266-3.602
			c-0.066-0.227-0.309-0.916-0.73-2.068c-0.422-1.151-0.682-2.036-0.779-2.652c-0.908-4.218-1.347-7.399-1.312-9.54
			c0-0.617,0.063-1.039,0.193-1.266C275.841,540.626,276.23,540.188,276.912,539.507z"/>
		<path fill="#FFFFFF" stroke="#FFFFFF" stroke-width="5" stroke-miterlimit="10" d="M320.913,533.667
			c1.427,0.163,3.017,0.698,4.77,1.606c2.66,1.655,4.283,3.91,4.867,6.765c0.518,2.531,0.405,4.69-0.342,6.474
			c-0.778,1.752-2.271,3.245-4.478,4.478c2.077,0.94,3.765,2.612,5.062,5.013c0.941,1.915,1.493,3.716,1.656,5.403
			c0.193,2.012-0.033,3.456-0.682,4.332c-0.908,1.104-2.077,2.061-3.504,2.872c-1.299,0.746-2.24,1.168-2.824,1.266
			c-0.066,0-0.203-0.024-0.414-0.072c-0.211-0.05-0.364-0.073-0.461-0.073c-0.228,0.097-0.487,0.153-0.779,0.169
			c-0.291,0.016-0.561,0.016-0.803,0c-0.243-0.016-0.512-0.008-0.803,0.026c-0.066,0-0.188,0.031-0.366,0.096
			c-0.179,0.065-0.315,0.098-0.413,0.098c-0.845,0.323-1.605,0.47-2.288,0.438c-0.195-0.033-0.601-0.009-1.217,0.072
			c-0.616,0.08-0.99,0.025-1.119-0.17v0.146c-1.266,0.163-2.726,0.244-4.381,0.244c-0.714,0.13-1.396,0.178-2.044,0.146
			c0-1.136,0.049-2.239,0.146-3.309c-0.486-0.13-0.893-0.585-1.216-1.364c-0.358-0.908-0.568-2.498-0.634-4.77
			c0-0.551-0.032-1.347-0.098-2.385c-0.065-2.921-0.065-5.111,0-6.571c0.032-0.648,0.114-1.687,0.243-3.115
			c0.13-1.427,0.22-2.555,0.269-3.382c0.048-0.828,0.104-1.842,0.17-3.043c0.065-1.2,0.089-2.336,0.073-3.407
			c-0.017-1.071-0.073-2.109-0.17-3.115v-1.752c0.389-0.583,0.828-0.956,1.314-1.119c0.615-0.098,1.477-0.406,2.578-0.925
			C315.785,533.602,318.413,533.246,320.913,533.667z M315.631,538.12c-0.471,0.146-1.03,0.341-1.68,0.584
			c-0.65,0.243-1.104,0.415-1.362,0.511c0.551,4.252,1.185,8.42,1.897,12.509c0.52,0.13,1.622,0.115,3.311-0.048
			c2.367-0.163,4.283-1.12,5.743-2.872c0.843-1.136,1.218-2.58,1.119-4.332c-0.032-2.045-1.006-3.78-2.92-5.208
			c-1.331-0.941-2.905-1.411-4.722-1.411C316.564,537.886,316.101,537.974,315.631,538.12z M316.044,562.189
			c0.26,2.499,0.163,4.478-0.292,5.937c0,0.066,0.057,0.366,0.17,0.901c0.114,0.536,0.203,0.934,0.269,1.192
			c1.265,0.13,2.741,0.018,4.429-0.34c1.559-0.39,2.953-1.201,4.186-2.434c0.909-1.136,1.363-2.581,1.363-4.332
			c-0.13-1.201-0.34-2.028-0.633-2.483c-0.844-1.817-2.206-3.082-4.088-3.796c-0.553-0.26-1.363-0.421-2.434-0.487
			c-0.682-0.032-1.85,0.227-3.505,0.779C315.833,559.398,316.012,561.085,316.044,562.189z"/>
	</g>
	<g opacity="0.9">
		<path fill="#FFFFFF" d="M-151.776,516.557h-25.878v-36.816h98.037v36.816h-25.875v103.509h-46.283V516.557z M-125.9,603.234
			V501.62h30.084v-5.048h-65.638v5.048h30.084v101.614H-125.9z"/>
		<path fill="#FFFFFF" d="M-72.256,479.741h48.388c8.974,0,17.284,1.193,24.93,3.576c7.643,2.388,14.269,5.893,19.879,10.519
			c5.612,4.629,9.995,10.345,13.151,17.147c3.155,6.805,4.732,14.621,4.732,23.458c0,7.014-0.983,12.974-2.945,17.883
			c-1.965,4.911-4.14,8.976-6.522,12.201c-2.805,3.648-5.964,6.733-9.467,9.255l26.3,46.286H-6.407l-21.037-35.555v35.555h-44.812
			V479.741z M-28.498,571.257c5.471,0,10.8-0.559,15.991-1.684l19.985,33.66h6.52l-21.036-35.342
			c7.573-2.664,13.602-6.768,18.091-12.308c4.49-5.541,6.734-12.729,6.734-21.564c0-6.169-1.195-11.571-3.576-16.201
			c-2.388-4.627-5.649-8.52-9.785-11.674c-4.138-3.155-9.014-5.54-14.619-7.154c-5.612-1.611-11.716-2.419-18.306-2.419h-22.721
			v106.662h5.471v-31.977H-28.498z M-45.748,566.208V501.62h17.25c12.762,0,22.755,2.808,29.98,8.416
			c7.222,5.611,10.834,13.605,10.834,23.984c0,10.38-3.613,18.34-10.834,23.878c-7.226,5.543-17.218,8.31-29.98,8.31H-45.748z
			 M-27.444,548.746h2.315c5.327,0,9.852-1.189,13.569-3.576c3.713-2.382,5.575-6.38,5.575-11.992c0-5.608-1.862-9.605-5.575-11.992
			c-3.717-2.385-8.242-3.576-13.569-3.576h-2.315V548.746z"/>
		<path fill="#FFFFFF" d="M50.395,479.741h45.443v32.4l26.507-32.4h54.909l-49.439,64.166l51.963,76.159h-54.066l-29.875-43.341
			v43.341H50.395V479.741z M76.903,603.234v-28.4l21.88-27.14l38.288,55.54h6.522l-41.022-59.958l37.658-46.705h-6.732
			l-56.594,69.846v-69.846h-5.469v106.662H76.903z"/>
	</g>
</g>
</svg>
