<?xml version="1.0" encoding="utf-8"?>
<!-- Generator: Adobe Illustrator 16.0.0, SVG Export Plug-In . SVG Version: 6.00 Build 0)  -->
<!DOCTYPE svg PUBLIC "-//W3C//DTD SVG 1.1//EN" "http://www.w3.org/Graphics/SVG/1.1/DTD/svg11.dtd">
<svg version="1.1" id="Layer_1" xmlns="http://www.w3.org/2000/svg" xmlns:xlink="http://www.w3.org/1999/xlink" x="0px" y="0px"
	 width="210.389px" height="110.39px" viewBox="0 0 210.389 110.39" enable-background="new 0 0 210.389 110.39"
	 xml:space="preserve">
<g id="XMLID_10_">
	<g>
		<path fill="#EC008C" d="M120.412,59.557c-0.052-2.989-0.289-3.757,3.747-3.757h54.776c2.081,0,3.24,0.442,3.934,2.267l4.134,11.28
			c2.426,5.126,7.258,4.078,9.032,6.908c1.191,2.002,1.657,12.705-0.168,16.117c-0.563,1.066-2.598,0.489-3.646-0.325V91.93
			c-0.684-4.078-9.948-10.302-17.08-1.378c-1.048,1.309-0.666,1.979-4.041,1.979h-0.079h-24.674c-3.18,0-2.542,0.21-4.837-3.086
			c-1.909-2.771-4.712-3.78-7.771-3.496c-4.753,0.446-6.42,2.644-8.486,5.354c-0.829,1.085-4.837,2.421-5.945,1.229
			c-0.53-0.567,0.229-2.206,1.104-4.031v-0.163V59.557z M183.045,72.238c0.187-0.046,0.112-0.303,0.052-0.414l-4.214-10.922
			c-0.316-0.847-0.898-1.499-1.652-1.499h-9.115c-0.754,0-1.369,0.698-1.369,1.564v9.986c0,0.865,0.615,1.563,1.369,1.563h9.115
			C177.86,72.517,181.691,72.825,183.045,72.238z"/>
	</g>
	<g>
	</g>
</g>
<polygon fill="#EC008C" points="68.561,15.254 92.499,56.717 116.436,98.178 68.561,98.178 20.686,98.178 44.624,56.717 "/>
<polygon opacity="0.9" fill="#2B2C6B" points="83.343,10.322 105.821,54.25 128.301,98.178 83.343,98.178 38.384,98.178
	60.862,54.25 "/>
<polygon opacity="0.9" fill="#FDED18" points="49.153,25.08 66.848,61.628 84.543,98.178 49.153,98.178 13.766,98.178
	31.461,61.628 "/>
<polygon opacity="0.9" fill="#59A8D7" points="105.075,26.365 119.19,62.272 133.307,98.178 105.075,98.178 76.842,98.178
	90.959,62.272 "/>
<circle fill-rule="evenodd" clip-rule="evenodd" fill="#FDED18" cx="134.968" cy="95.477" r="7.831"/>
<circle fill-rule="evenodd" clip-rule="evenodd" fill="#FDED18" cx="183.472" cy="95.68" r="7.831"/>
<g opacity="0.9">

		<circle fill="none" stroke="#2B2C6B" stroke-linecap="round" stroke-linejoin="round" stroke-dasharray="12.2912,12.2912" cx="134.968" cy="95.477" r="7.831">
</circle>

</g>
<g opacity="0.9">

		<circle fill="none" stroke="#2B2C6B" stroke-linecap="round" stroke-linejoin="round" stroke-dasharray="12.2912,12.2912" cx="183.686" cy="95.182" r="7.831">
			</circle>

</g>
<text transform="matrix(1 0 0 1 113.9663 39.2046)" font-family="'YikesMedium'" font-size="16.9079" letter-spacing="1">food</text>
<text transform="matrix(1 0 0 1 129.7437 52.4526)" font-family="'YikesMedium'" font-size="16.9079">trucks</text>
<g>
	<path d="M15.104,70.588c0-5.142,0.899-9.787,2.699-13.933c1.799-4.146,4.243-7.697,7.328-10.655
		c3.086-2.956,6.686-5.222,10.8-6.798c4.113-1.574,8.485-2.362,13.113-2.362c3.664,0,6.926,0.354,9.787,1.061
		c2.859,0.708,5.318,1.511,7.376,2.411c2.378,1.029,4.436,2.154,6.171,3.375L62.255,61.525c-1.029-0.771-2.154-1.51-3.375-2.218
		c-1.094-0.514-2.396-1.012-3.905-1.494c-1.511-0.482-3.229-0.724-5.158-0.724c-1.993,0-3.825,0.354-5.496,1.061
		c-1.673,0.708-3.134,1.673-4.388,2.894c-1.253,1.221-2.234,2.65-2.94,4.29c-0.708,1.64-1.061,3.392-1.061,5.255
		c0,1.865,0.369,3.616,1.108,5.256c0.738,1.639,1.751,3.07,3.038,4.29c1.284,1.222,2.796,2.187,4.531,2.893
		c1.735,0.708,3.631,1.062,5.689,1.062c2.056,0,3.888-0.257,5.496-0.771c1.605-0.514,2.955-1.093,4.05-1.736
		c1.284-0.707,2.41-1.543,3.374-2.507l10.125,17.839c-1.736,1.414-3.794,2.668-6.172,3.76c-2.058,0.9-4.531,1.736-7.424,2.507
		c-2.893,0.771-6.204,1.157-9.932,1.157c-5.014,0-9.643-0.819-13.885-2.459c-4.243-1.639-7.907-3.937-10.992-6.895
		c-3.086-2.955-5.496-6.508-7.231-10.654C15.972,80.182,15.104,75.602,15.104,70.588z M27.254,70.588
		c0-3.086,0.53-5.979,1.591-8.678s2.555-5.046,4.483-7.039c1.929-1.992,4.274-3.567,7.039-4.725
		c2.763-1.157,5.849-1.735,9.256-1.735c1.671,0,3.166,0.113,4.484,0.337c1.316,0.226,2.426,0.499,3.326,0.819
		c1.093,0.323,2.025,0.708,2.796,1.157l1.351-2.314c-1.029-0.449-2.121-0.868-3.278-1.254c-1.094-0.321-2.348-0.61-3.761-0.868
		c-1.415-0.256-3.054-0.386-4.918-0.386c-3.278,0-6.412,0.579-9.4,1.736c-2.989,1.157-5.626,2.812-7.907,4.966
		c-2.282,2.154-4.114,4.758-5.496,7.811c-1.383,3.053-2.073,6.445-2.073,10.172c0,3.794,0.659,7.2,1.977,10.221
		c1.317,3.022,3.134,5.609,5.448,7.762c2.314,2.154,5.014,3.809,8.1,4.967c3.086,1.156,6.364,1.735,9.835,1.735
		c1.929,0,3.664-0.16,5.207-0.482c1.543-0.321,2.859-0.675,3.953-1.061c1.221-0.448,2.314-0.964,3.278-1.543l-1.35-2.313
		c-0.836,0.578-1.801,1.061-2.893,1.445c-0.965,0.387-2.121,0.724-3.472,1.014c-1.35,0.289-2.926,0.434-4.725,0.434
		c-3.536,0-6.718-0.579-9.546-1.736c-2.829-1.156-5.224-2.73-7.184-4.725c-1.961-1.991-3.471-4.339-4.531-7.039
		C27.784,76.567,27.254,73.674,27.254,70.588z"/>
	<path d="M68.522,70.588c0-4.628,0.883-8.998,2.651-13.113c1.768-4.113,4.178-7.697,7.231-10.751
		c3.053-3.052,6.637-5.463,10.751-7.232c4.113-1.767,8.485-2.651,13.114-2.651c4.627,0,8.998,0.884,13.113,2.651
		c4.112,1.769,7.697,4.18,10.751,7.232c3.052,3.054,5.463,6.638,7.231,10.751c1.768,4.115,2.651,8.485,2.651,13.113
		c0,4.629-0.884,9-2.651,13.113c-1.769,4.115-4.18,7.699-7.231,10.752c-3.054,3.053-6.639,5.464-10.751,7.231
		c-4.115,1.767-8.485,2.651-13.113,2.651c-4.629,0-9.001-0.885-13.114-2.651c-4.114-1.768-7.698-4.179-10.751-7.231
		c-3.054-3.053-5.464-6.637-7.231-10.752C69.405,79.588,68.522,75.217,68.522,70.588z M77.586,70.588
		c0,3.408,0.642,6.605,1.929,9.594c1.285,2.99,3.052,5.609,5.303,7.859c2.25,2.25,4.869,4.018,7.858,5.303
		c2.989,1.287,6.187,1.929,9.595,1.929c3.406,0,6.604-0.642,9.593-1.929c2.989-1.285,5.607-3.053,7.858-5.303
		c2.249-2.25,4.017-4.869,5.303-7.859c1.285-2.988,1.929-6.186,1.929-9.594c0-3.406-0.644-6.604-1.929-9.594
		c-1.286-2.989-3.054-5.607-5.303-7.858c-2.251-2.25-4.869-4.017-7.858-5.303c-2.989-1.285-6.187-1.929-9.593-1.929
		c-3.408,0-6.605,0.644-9.595,1.929c-2.989,1.287-5.608,3.054-7.858,5.303c-2.251,2.251-4.018,4.869-5.303,7.858
		C78.228,63.984,77.586,67.182,77.586,70.588z M102.271,92.766c-3.086,0-5.964-0.579-8.63-1.736
		c-2.669-1.156-5.015-2.748-7.039-4.772c-2.025-2.024-3.616-4.37-4.773-7.039c-1.156-2.667-1.735-5.544-1.735-8.63
		s0.579-5.961,1.735-8.629c1.157-2.668,2.748-5.015,4.773-7.04c2.024-2.025,4.37-3.616,7.039-4.773
		c2.666-1.157,5.544-1.735,8.63-1.735c3.085,0,5.96,0.578,8.628,1.735c2.667,1.157,5.015,2.748,7.039,4.773
		c2.025,2.025,3.616,4.372,4.773,7.04s1.735,5.543,1.735,8.629s-0.578,5.963-1.735,8.63c-1.157,2.669-2.748,5.015-4.773,7.039
		c-2.024,2.024-4.372,3.616-7.039,4.772C108.231,92.187,105.355,92.766,102.271,92.766z M88.771,70.588
		c0,1.865,0.353,3.616,1.062,5.256c0.706,1.639,1.67,3.07,2.893,4.29c1.22,1.222,2.651,2.187,4.29,2.893
		c1.64,0.708,3.391,1.062,5.256,1.062c1.863,0,3.615-0.354,5.254-1.062c1.639-0.706,3.068-1.671,4.29-2.893
		c1.221-1.22,2.185-2.651,2.894-4.29c0.706-1.64,1.061-3.391,1.061-5.256c0-1.863-0.354-3.615-1.061-5.255
		c-0.709-1.64-1.673-3.069-2.894-4.29c-1.222-1.221-2.651-2.186-4.29-2.894c-1.64-0.706-3.391-1.061-5.254-1.061
		c-1.865,0-3.616,0.354-5.256,1.061c-1.639,0.708-3.07,1.673-4.29,2.894c-1.223,1.221-2.187,2.65-2.893,4.29
		C89.123,66.973,88.771,68.725,88.771,70.588z"/>
</g>
</svg>
